*
G04 Mass Parameters ***
*
G04 Image ***
*
%INC:\ORCAD_DATA\BAB2\AVRUSB500\LAYOUT\LAYOUT\AVRUSB500-1.SMT*%
%ICAS*%
%MOIN*%
%IPPOS*%
%ASAXBY*%
G74*%FSLAN2X34Y34*%
*
G04 Aperture Definitions ***
*
%AMTHERMAL35*
1,1,0.0781,0,0,*
1,0,0.0546,0,0,*
21,0,0.0782,0.0118,0,0,315.0*
21,0,0.0782,0.0118,0,0,45.0*%
%AMTHERMAL37*
1,1,0.0781,0,0,*
1,0,0.0546,0,0,*
21,0,0.0782,0.0118,0,0,225.0*
21,0,0.0782,0.0118,0,0,315.0*%
%AMTHERMAL39*
1,1,0.0781,0,0,*
1,0,0.0546,0,0,*
21,0,0.0782,0.0118,0,0,45.0*
21,0,0.0782,0.0118,0,0,135.0*%
%AMTHERMAL40*
1,1,0.0781,0,0,*
1,0,0.0546,0,0,*
21,0,0.0782,0.0118,0,0,135.0*
21,0,0.0782,0.0118,0,0,225.0*%
%AMTHERMAL46*
1,1,0.0891,0,0,*
1,0,0.0656,0,0,*
21,0,0.0892,0.0118,0,0,315.0*
21,0,0.0892,0.0118,0,0,45.0*%
%AMTHERMAL49*
1,1,0.0891,0,0,*
1,0,0.0656,0,0,*
21,0,0.0892,0.0118,0,0,225.0*
21,0,0.0892,0.0118,0,0,315.0*%
%AMTHERMAL54*
1,1,0.0621,0,0,*
1,0,0.0386,0,0,*
21,0,0.0622,0.0118,0,0,216.2*
21,0,0.0622,0.0118,0,0,306.2*%
%AMTHERMAL59*
1,1,0.0621,0,0,*
1,0,0.0386,0,0,*
21,0,0.0622,0.0118,0,0,45.0*
21,0,0.0622,0.0118,0,0,135.0*%
%ADD10C,0.0520*%
%ADD11R,0.0520X0.0520*%
%ADD12R,0.1000X0.0157*%
%ADD13R,0.0157X0.1000*%
%ADD14C,0.0620*%
%ADD15R,0.0620X0.0620*%
%ADD16R,0.0787X0.0787*%
%ADD17R,0.0591X0.0787*%
%ADD18R,0.0886X0.0197*%
%ADD19O,0.0180X0.0700*%
%ADD20R,0.0180X0.0700*%
%ADD21O,0.0700X0.0180*%
%ADD22R,0.0700X0.0180*%
%ADD23C,0.0300*%
%ADD24C,0.0118*%
%ADD25C,0.0500*%
%ADD26C,0.0300*%
%ADD27C,0.0315*%
%ADD28C,0.0520*%
%ADD29R,0.0520X0.0520*%
%ADD30C,0.0620*%
%ADD31R,0.0620X0.0620*%
%ADD32C,0.0300*%
%ADD33C,0.0300*%
%ADD34C,0.0720*%
%ADD35THERMAL35*%
%ADD36C,0.0720*%
%ADD37THERMAL37*%
%ADD38C,0.0720*%
%ADD39THERMAL39*%
%ADD40THERMAL40*%
%ADD41R,0.0720X0.0720*%
%ADD42R,0.0720X0.0720*%
%ADD43R,0.0720X0.0720*%
%ADD44C,0.0720*%
%ADD45C,0.0720*%
%ADD46THERMAL46*%
%ADD47C,0.0820*%
%ADD48R,0.0820X0.0820*%
%ADD49THERMAL49*%
%ADD50C,0.0820*%
%ADD51R,0.0820X0.0820*%
%ADD52C,0.0600*%
%ADD53C,0.0600*%
%ADD54THERMAL54*%
%ADD55C,0.0720*%
%ADD56R,0.0720X0.0720*%
%ADD57C,0.0820*%
%ADD58R,0.0820X0.0820*%
%ADD59THERMAL59*%
%ADD60R,0.1039X0.0197*%
%ADD61R,0.0197X0.1039*%
%ADD62R,0.0984X0.0984*%
%ADD63R,0.0787X0.0984*%
%ADD64R,0.0906X0.0217*%
%ADD65O,0.0180X0.0700*%
%ADD66R,0.0180X0.0700*%
%ADD67O,0.0700X0.0180*%
%ADD68R,0.0700X0.0180*%
%ADD69C,0.0350*%
%ADD70C,0.0350*%
*
G04 Plot Data ***
*
G54D28*
X0013974Y0006440D03*
X0010974D03*
X0033482Y0010356D03*
Y0007356D03*
X0024000Y0014000D03*
X0020000D03*
X0009000Y0012500D03*
X0005000D03*
X0020000Y0012000D03*
X0024000D03*
X0020000Y0010000D03*
X0024000D03*
X0020000Y0008000D03*
X0024000D03*
X0034383Y0013433D03*
X0038383D03*
X0034779Y0004881D03*
X0030779D03*
X0034779Y0001980D03*
X0030779D03*
X0014500Y0013500D03*
X0018500D03*
X0023957Y0004239D03*
X0019957D03*
X0023953Y0002497D03*
X0019953D03*
X0009000Y0011000D03*
X0005000D03*
X0009000Y0009500D03*
X0005000D03*
X0009000Y0008000D03*
X0005000D03*
X0019969Y0006084D03*
X0023969D03*
X0031991Y0013433D03*
X0002500Y0005500D03*
X0009000Y0002000D03*
X0035982Y0010356D03*
Y0007356D03*
X0002000Y0002000D03*
X0006000D03*
X0017000Y0012000D03*
X0011500Y0003500D03*
X0013500D03*
X0017000Y0007500D03*
G54D29*
X0033241Y0013433D03*
X0002500Y0004500D03*
X0008000Y0002000D03*
X0035982Y0011356D03*
Y0008356D03*
X0003000Y0002000D03*
X0005000D03*
X0017000Y0011000D03*
X0010500Y0003500D03*
X0014500D03*
X0017000Y0008500D03*
G54D30*
X0004500Y0014500D03*
X0003500D03*
X0002500D03*
X0001500D03*
X0025677Y0010534D03*
Y0009534D03*
Y0008534D03*
Y0007534D03*
X0001500Y0011000D03*
Y0010000D03*
Y0009000D03*
Y0008000D03*
G54D31*
X0005500Y0014500D03*
X0025677Y0011534D03*
X0001500Y0012000D03*
G54D60*
X0031691Y0008955D03*
Y0009270D03*
Y0009585D03*
Y0009900D03*
Y0010215D03*
Y0010530D03*
Y0010845D03*
Y0011160D03*
X0028148D03*
Y0010845D03*
Y0010530D03*
Y0010215D03*
Y0009900D03*
Y0009585D03*
Y0009270D03*
Y0008955D03*
G54D61*
X0028817Y0008286D03*
X0029132D03*
X0029447D03*
X0029762D03*
X0030077D03*
X0030392D03*
X0030707D03*
X0031022D03*
Y0011829D03*
X0030707D03*
X0030392D03*
X0030077D03*
X0029762D03*
X0029447D03*
X0029132D03*
X0028817D03*
G54D62*
X0038054Y0006042D03*
Y0000927D03*
G54D63*
X0036381Y0006042D03*
Y0000927D03*
G54D64*
Y0004112D03*
Y0003798D03*
Y0003484D03*
Y0003170D03*
Y0002856D03*
G54D65*
X0013930Y0011775D03*
X0013300D03*
X0012985D03*
X0012670D03*
X0012355D03*
X0012040D03*
X0011725D03*
Y0008430D03*
X0012040D03*
X0012355D03*
X0012670D03*
X0012985D03*
X0013615D03*
X0013930D03*
G54D66*
X0013615Y0011775D03*
X0013300Y0008430D03*
G54D67*
X0014500Y0009315D03*
Y0009630D03*
Y0009945D03*
Y0010260D03*
Y0010575D03*
Y0010890D03*
Y0011205D03*
X0011155D03*
Y0010890D03*
Y0010575D03*
Y0009945D03*
Y0009630D03*
Y0009315D03*
Y0009000D03*
G54D68*
X0014500D03*
X0011155Y0010260D03*
G54D69*
X0034800Y0002850D03*
G54D70*
X0015600Y0009400D03*
X0012670Y0012480D03*
X0011900Y0007600D03*
X0030077Y0010773D03*
X0030500Y0007000D03*
X0013930Y0012570D03*
X0029447Y0010753D03*
X0031250Y0007000D03*
X0035300Y0004350D03*
X0013800Y0009150D03*
X0012355Y0010780D03*
X0011825Y0010725D03*
X0013250Y0009250D03*
X0030607Y0013150D03*
X0030250Y0012700D03*
X0013100Y0007475D03*
X0030950Y0013550D03*
X0029700Y0006450D03*
X0012150Y0009850D03*
X0012800Y0009250D03*
X0033800Y0011650D03*
X0011800Y0010200D03*
X0029132Y0006300D03*
M02*
