*
G04 Mass Parameters ***
*
G04 Image ***
*
%INC:\ORCAD_DATA\BAB2\AVRUSB500\LAYOUT\LAYOUT\AVRUSB500-1.BOT*%
%ICAS*%
%MOIN*%
%IPPOS*%
%ASAXBY*%
G74*%FSLAN2X34Y34*%
*
G04 Aperture Definitions ***
*
%ADD10C,0.0520*%
%ADD11R,0.0520X0.0520*%
%ADD12R,0.1000X0.0157*%
%ADD13R,0.0157X0.1000*%
%ADD14C,0.0620*%
%ADD15R,0.0620X0.0620*%
%ADD16R,0.0787X0.0787*%
%ADD17R,0.0591X0.0787*%
%ADD18R,0.0886X0.0197*%
%ADD19O,0.0180X0.0700*%
%ADD20R,0.0180X0.0700*%
%ADD21O,0.0700X0.0180*%
%ADD22R,0.0700X0.0180*%
%ADD23C,0.0300*%
%ADD24C,0.0118*%
%ADD25C,0.0500*%
%ADD26C,0.0300*%
%ADD27C,0.0315*%
%ADD28C,0.0520*%
%ADD29R,0.0520X0.0520*%
%ADD30C,0.0620*%
%ADD31R,0.0620X0.0620*%
%ADD32C,0.0300*%
%ADD33C,0.0300*%
*
G04 Plot Data ***
*
G54D24*
G01X0003500Y0014500D02*
Y0013500D01*
X0003875Y0013125D01*
X0012700D01*
X0013700Y0014125D01*
X0016875D01*
X0018775Y0012225D01*
Y0010425D01*
X0019200Y0010000D01*
X0020000D01*
X0019957Y0004239D02*
X0019239D01*
X0018550Y0003550D01*
X0016250D01*
X0015950Y0003850D01*
Y0006050D01*
X0013250Y0008750D01*
Y0009250D01*
X0020000Y0008000D02*
X0019425D01*
X0019050Y0008375D01*
Y0009125D01*
X0018675Y0009500D01*
X0016000D01*
X0015600Y0009900D01*
Y0011400D01*
X0015275Y0011725D01*
X0003025D01*
X0002500Y0012250D01*
Y0014500D01*
X0004500D02*
Y0013825D01*
X0004825Y0013500D01*
X0007550D01*
X0008525Y0014475D01*
X0018650D01*
X0019300Y0013825D01*
Y0012300D01*
X0019600Y0012000D01*
X0020000D01*
X0030607Y0013150D02*
X0023500D01*
X0020350Y0010000D01*
X0020000D01*
X0030250Y0012700D02*
X0023850D01*
X0022900Y0011750D01*
Y0009350D01*
X0021550Y0008000D01*
X0020000D01*
X0030950Y0013550D02*
X0022250D01*
X0020700Y0012000D01*
X0020000D01*
X0029700Y0006450D02*
Y0006150D01*
X0029500Y0005950D01*
X0025100D01*
X0024450Y0006600D01*
X0016500D01*
X0015000Y0008100D01*
Y0009100D01*
X0014250Y0009850D01*
X0012150D01*
X0019953Y0002497D02*
X0019303D01*
X0018575Y0003225D01*
X0016150D01*
X0015600Y0003775D01*
Y0005875D01*
X0012800Y0008675D01*
Y0009250D01*
X0033800Y0011650D02*
Y0014000D01*
X0033200Y0014600D01*
X0025050D01*
X0024450Y0014000D01*
X0024000D01*
X0011800Y0010200D02*
X0014350D01*
X0015250Y0009300D01*
Y0008300D01*
X0016650Y0006900D01*
X0024700D01*
X0025300Y0006300D01*
X0029132D01*
X0020691Y0009891D02*
Y0008318D01*
X0022582Y0009848D02*
X0020648D01*
X0018550Y0010200D02*
X0018974Y0009776D01*
X0019521Y0009682D02*
Y0008354D01*
X0023125Y0009125D02*
X0021776Y0007776D01*
X0022582Y0009954D02*
X0020754D01*
X0019368Y0009125D02*
Y0008507D01*
X0038700Y0012931D02*
X0038515D01*
X0037911Y0015100D02*
Y0013649D01*
X0034251Y0012931D02*
X0034118D01*
X0014844Y0007806D02*
Y0007606D01*
X0038700Y0004533D02*
X0035666D01*
X0021287Y0013037D02*
X0019618D01*
X0018777Y0015100D02*
Y0014767D01*
X0013994Y0013807D02*
Y0013614D01*
X0038700Y0003683D02*
X0019133D01*
X0018990Y0009761D02*
Y0009635D01*
X0019204Y0002194D02*
X0009481D01*
X0034440Y0003045D02*
X0019205D01*
X0008572Y0011407D02*
Y0011294D01*
X0023667Y0007602D02*
Y0007218D01*
X0023454Y0006282D02*
Y0006155D01*
X0013037Y0015100D02*
Y0014793D01*
X0011625Y0007297D02*
X0000600D01*
X0002301Y0011999D02*
Y0005979D01*
X0002095Y0014100D02*
X0001905D01*
X0002182Y0013887D02*
X0000600D01*
X0003045Y0015100D02*
Y0014842D01*
X0000937Y0014419D02*
X0000600D01*
X0004931Y0013994D02*
X0004818D01*
X0004931Y0015057D02*
X0004618D01*
X0014483Y0006542D02*
X0015282Y0005743D01*
Y0010805D02*
X0012763D01*
X0001047Y0014844D02*
X0000600D01*
X0006069Y0015069D02*
X0004931D01*
X0006069Y0013931D02*
X0004931D01*
X0006069Y0015069D02*
Y0013931D01*
X0021541Y0010741D02*
Y0008441D01*
X0038700Y0008891D02*
X0026120D01*
X0025306Y0010965D02*
X0025108D01*
X0004749Y0009954D02*
X0002067D01*
X0025108Y0012103D02*
Y0010965D01*
X0018457Y0011017D02*
X0017519D01*
X0026246Y0012103D02*
Y0010965D01*
Y0012103D02*
X0025108D01*
X0001238Y0007495D02*
Y0000600D01*
X0018457Y0011336D02*
X0017519D01*
X0001344Y0007453D02*
Y0000600D01*
X0001080Y0007616D02*
X0000600D01*
X0001450Y0007433D02*
Y0000600D01*
X0004830Y0007509D02*
X0001788D01*
X0001769Y0001535D02*
Y0000600D01*
X0000931Y0012569D02*
Y0011431D01*
Y0008998D02*
X0000600D01*
X0002069Y0012569D02*
Y0011431D01*
Y0012569D02*
X0000931D01*
X0033356Y0013994D02*
X0024894D01*
X0032722Y0013952D02*
Y0012914D01*
X0038700Y0012399D02*
X0034118D01*
X0002088Y0014107D02*
Y0005816D01*
X0001981Y0005019D02*
Y0003981D01*
X0003019D02*
X0001981D01*
X0003019Y0005019D02*
Y0003981D01*
X0002832Y0005101D02*
Y0005019D01*
X0007481Y0001557D02*
X0006270D01*
X0007481Y0002513D02*
X0006076D01*
X0008519Y0002519D02*
X0007481D01*
Y0001481D01*
X0008519D02*
X0007481D01*
X0008730Y0001557D02*
X0008519D01*
X0035787Y0010837D02*
X0035463D01*
Y0011875D02*
Y0010837D01*
X0038700Y0010805D02*
X0036243D01*
X0036501Y0011875D02*
Y0010837D01*
Y0011875D02*
X0035463D01*
Y0008875D02*
Y0007837D01*
X0038700Y0007722D02*
X0036350D01*
X0036501Y0008875D02*
Y0007837D01*
Y0008875D02*
X0035463D01*
X0002620Y0001481D02*
Y0000600D01*
X0003519Y0002519D02*
X0002481D01*
X0001982Y0001481D02*
Y0000600D01*
X0003519Y0001481D02*
X0002481D01*
X0003519Y0002519D02*
Y0001481D01*
X0038700Y0000706D02*
X0000600D01*
X0005519Y0002519D02*
X0004481D01*
Y0001481D01*
X0005519D02*
X0004481D01*
X0005730Y0001557D02*
X0005519D01*
X0000938Y0010911D02*
X0000600D01*
X0016481Y0011519D02*
Y0010481D01*
X0017519D02*
X0016481D01*
X0017519Y0011519D02*
Y0010481D01*
X0016545Y0011750D02*
Y0011519D01*
X0010273Y0002981D02*
Y0000600D01*
X0011019Y0003305D02*
Y0002981D01*
Y0004019D02*
X0009981D01*
Y0002981D01*
X0011019D02*
X0009981D01*
X0011250Y0003045D02*
X0011019D01*
X0001924Y0002513D02*
X0000600D01*
X0009981Y0003683D02*
X0000600D01*
X0015019Y0004019D02*
X0013981D01*
X0009981Y0003257D02*
X0000600D01*
X0015019Y0002981D02*
X0013981D01*
X0015019Y0004019D02*
Y0002981D01*
X0011491Y0007616D02*
X0009349D01*
X0011501Y0007509D02*
X0009170D01*
X0017820Y0002907D02*
Y0000600D01*
X0016481Y0009019D02*
Y0007981D01*
X0019626Y0008360D02*
X0019515D01*
X0017519Y0009019D02*
Y0007981D01*
Y0009019D02*
X0016481D01*
X0037870Y0013356D02*
X0034896D01*
X0038700Y0015100D02*
X0000600D01*
Y0000600D01*
X0038700D02*
X0000600D01*
X0038700Y0013022D02*
Y0000600D01*
X0038655Y0012991D02*
Y0000600D01*
X0038549Y0012941D02*
Y0000600D01*
X0038443Y0012917D02*
Y0000600D01*
X0038336Y0012916D02*
Y0000600D01*
X0038230Y0012937D02*
Y0000600D01*
X0038124Y0012983D02*
Y0000600D01*
X0037911Y0013216D02*
Y0000600D01*
X0037805Y0015100D02*
Y0000600D01*
X0037698Y0015100D02*
Y0000600D01*
X0037592Y0015100D02*
Y0000600D01*
X0037486Y0015100D02*
Y0000600D01*
X0037380Y0015100D02*
Y0000600D01*
X0037273Y0015100D02*
Y0000600D01*
X0037167Y0015100D02*
Y0000600D01*
X0037061Y0015100D02*
Y0000600D01*
X0036954Y0015100D02*
Y0000600D01*
X0036848Y0015100D02*
Y0000600D01*
X0036742Y0015100D02*
Y0000600D01*
X0036635Y0015100D02*
Y0000600D01*
X0007418Y0013818D02*
X0004957D01*
X0035787Y0007837D02*
X0035463D01*
X0036529Y0015100D02*
Y0000600D01*
X0036423Y0007082D02*
Y0000600D01*
X0036317Y0006959D02*
Y0000600D01*
X0036210Y0006890D02*
Y0000600D01*
X0036104Y0006852D02*
Y0000600D01*
X0035998Y0006837D02*
Y0000600D01*
X0035891Y0006845D02*
Y0000600D01*
X0035785Y0006876D02*
Y0000600D01*
X0035572Y0004045D02*
Y0000600D01*
X0030367Y0001663D02*
X0009395D01*
X0035360Y0003945D02*
Y0000600D01*
X0035254Y0001770D02*
Y0000600D01*
X0035147Y0001614D02*
Y0000600D01*
X0035041Y0001532D02*
Y0000600D01*
X0034935Y0001485D02*
Y0000600D01*
X0034828Y0001463D02*
Y0000600D01*
X0034722Y0001464D02*
Y0000600D01*
X0034616Y0001487D02*
Y0000600D01*
X0034509Y0001536D02*
Y0000600D01*
X0034297Y0012921D02*
Y0005075D01*
X0033482Y0012914D02*
Y0011907D01*
X0034297Y0001786D02*
Y0000600D01*
X0029041Y0010805D02*
X0026177D01*
X0034084Y0011356D02*
Y0000600D01*
X0033404Y0011549D02*
X0026246D01*
X0033978Y0007202D02*
Y0000600D01*
X0033872Y0007013D02*
Y0000600D01*
X0033765Y0006921D02*
Y0000600D01*
X0033659Y0006868D02*
Y0000600D01*
X0033553Y0006842D02*
Y0000600D01*
X0033446Y0006838D02*
Y0000600D01*
X0033340Y0006857D02*
Y0000600D01*
X0033021Y0007118D02*
Y0000600D01*
X0032809Y0014282D02*
Y0013952D01*
Y0012914D02*
Y0000600D01*
X0004427Y0011407D02*
Y0000600D01*
X0032596Y0014282D02*
Y0000600D01*
X0032490Y0013289D02*
Y0000600D01*
X0032383Y0013093D02*
Y0000600D01*
X0032277Y0013000D02*
Y0000600D01*
X0032171Y0012946D02*
Y0000600D01*
X0032065Y0012919D02*
Y0000600D01*
X0031958Y0012915D02*
Y0000600D01*
X0031852Y0012933D02*
Y0000600D01*
X0031533Y0014282D02*
Y0013677D01*
X0033296Y0006872D02*
X0031638D01*
X0030478Y0001557D02*
X0009270D01*
X0031320Y0006597D02*
Y0000600D01*
X0031214Y0001697D02*
Y0000600D01*
X0031108Y0001578D02*
Y0000600D01*
X0031002Y0001511D02*
Y0000600D01*
X0030895Y0001474D02*
Y0000600D01*
X0030789Y0001461D02*
Y0000600D01*
X0030683Y0001469D02*
Y0000600D01*
X0030576Y0001501D02*
Y0000600D01*
X0030789Y0006711D02*
Y0005400D01*
X0030683Y0006634D02*
Y0005392D01*
X0030364Y0006614D02*
Y0005193D01*
X0013675Y0015100D02*
Y0014793D01*
X0028875Y0006618D02*
X0025432D01*
X0029832Y0005832D02*
Y0000600D01*
X0029726Y0005726D02*
Y0000600D01*
X0030151Y0006786D02*
Y0000600D01*
X0021009Y0015100D02*
Y0012759D01*
X0038700Y0003789D02*
X0024216D01*
X0029194Y0005632D02*
Y0000600D01*
X0029088Y0005632D02*
Y0000600D01*
X0028982Y0005632D02*
Y0000600D01*
X0028876Y0005632D02*
Y0000600D01*
X0028769Y0005632D02*
Y0000600D01*
X0028663Y0005632D02*
Y0000600D01*
X0028557Y0005632D02*
Y0000600D01*
X0028450Y0005632D02*
Y0000600D01*
X0028344Y0005632D02*
Y0000600D01*
X0028238Y0005632D02*
Y0000600D01*
X0028131Y0005632D02*
Y0000600D01*
X0028025Y0005632D02*
Y0000600D01*
X0027919Y0005632D02*
Y0000600D01*
X0027813Y0005632D02*
Y0000600D01*
X0027706Y0005632D02*
Y0000600D01*
X0027600Y0005632D02*
Y0000600D01*
X0027494Y0005632D02*
Y0000600D01*
X0027387Y0005632D02*
Y0000600D01*
X0027281Y0005632D02*
Y0000600D01*
X0027175Y0005632D02*
Y0000600D01*
X0029407Y0010346D02*
Y0006735D01*
X0013781Y0015100D02*
Y0014793D01*
X0026856Y0005632D02*
Y0000600D01*
X0026750Y0005632D02*
Y0000600D01*
X0026643Y0005632D02*
Y0000600D01*
X0019734Y0007554D02*
Y0007218D01*
X0026537Y0005632D02*
Y0000600D01*
X0026431Y0005632D02*
Y0000600D01*
X0026324Y0005632D02*
Y0000600D01*
X0026218Y0005632D02*
Y0000600D01*
X0026112Y0005632D02*
Y0000600D01*
X0026006Y0005632D02*
Y0000600D01*
X0025580Y0005632D02*
Y0000600D01*
X0025368Y0005632D02*
Y0000600D01*
X0025261Y0005632D02*
Y0000600D01*
X0025155Y0005632D02*
Y0000600D01*
X0024943Y0005674D02*
Y0000600D01*
X0023547Y0008254D02*
X0022253D01*
X0022285Y0006282D02*
Y0000600D01*
X0018518Y0002832D02*
X0000600D01*
X0024517Y0006083D02*
Y0000600D01*
X0024411Y0002253D02*
Y0000600D01*
X0024305Y0002115D02*
Y0000600D01*
X0024198Y0002040D02*
Y0000600D01*
X0024092Y0001997D02*
Y0000600D01*
X0023986Y0001979D02*
Y0000600D01*
X0023880Y0001983D02*
Y0000600D01*
X0023773Y0002010D02*
Y0000600D01*
X0024411Y0007683D02*
Y0007218D01*
X0038700Y0005915D02*
X0029915D01*
X0023454Y0002352D02*
Y0000600D01*
X0023348Y0006282D02*
Y0000600D01*
X0023242Y0006282D02*
Y0000600D01*
X0023135Y0006282D02*
Y0000600D01*
X0023029Y0006282D02*
Y0000600D01*
X0022923Y0006282D02*
Y0000600D01*
X0022817Y0006282D02*
Y0000600D01*
X0022710Y0006282D02*
Y0000600D01*
X0022604Y0006282D02*
Y0000600D01*
X0022498Y0006282D02*
Y0000600D01*
X0022391Y0006282D02*
Y0000600D01*
X0023454Y0015100D02*
Y0013868D01*
X0022072Y0006282D02*
Y0000600D01*
X0021966Y0006282D02*
Y0000600D01*
X0021860Y0006282D02*
Y0000600D01*
X0021754Y0006282D02*
Y0000600D01*
X0021647Y0006282D02*
Y0000600D01*
X0021541Y0006282D02*
Y0000600D01*
X0021435Y0006282D02*
Y0000600D01*
X0021328Y0006282D02*
Y0000600D01*
X0021222Y0006282D02*
Y0000600D01*
X0021116Y0006282D02*
Y0000600D01*
X0021009Y0006282D02*
Y0000600D01*
X0020903Y0006282D02*
Y0000600D01*
X0024487Y0006113D02*
X0024875Y0005725D01*
X0020584Y0006282D02*
Y0000600D01*
X0038700Y0003895D02*
X0024346D01*
X0020478Y0005985D02*
Y0000600D01*
X0020372Y0002190D02*
Y0000600D01*
X0020265Y0002082D02*
Y0000600D01*
X0020159Y0002021D02*
Y0000600D01*
X0020053Y0001988D02*
Y0000600D01*
X0010455Y0006446D02*
X0000600D01*
X0018777Y0006282D02*
Y0004227D01*
X0016545Y0006282D02*
Y0003868D01*
X0019628Y0002092D02*
Y0000600D01*
X0019521Y0002179D02*
Y0000600D01*
X0019415Y0002179D02*
Y0000600D01*
X0019309Y0002179D02*
Y0000600D01*
X0018443Y0002907D02*
X0019078Y0002272D01*
X0019096Y0002255D02*
Y0000600D01*
X0018990Y0002360D02*
Y0000600D01*
X0018883Y0002467D02*
Y0000600D01*
X0018777Y0002573D02*
Y0000600D01*
X0018671Y0002679D02*
Y0000600D01*
X0018458Y0002892D02*
Y0000600D01*
X0018246Y0002907D02*
Y0000600D01*
X0018139Y0002907D02*
Y0000600D01*
X0018033Y0002907D02*
Y0000600D01*
X0017927Y0002907D02*
Y0000600D01*
X0001063Y0009635D02*
X0000600D01*
X0016805Y0007981D02*
X0016481D01*
X0016598Y0007828D02*
X0016171D01*
X0015163Y0007487D02*
Y0007287D01*
X0030789Y0014282D02*
Y0013926D01*
X0017927Y0006282D02*
Y0003868D01*
X0017395Y0002907D02*
Y0000600D01*
X0017289Y0002907D02*
Y0000600D01*
X0017183Y0002907D02*
Y0000600D01*
X0017076Y0002907D02*
Y0000600D01*
X0016864Y0002907D02*
Y0000600D01*
X0016757Y0002907D02*
Y0000600D01*
X0016651Y0002907D02*
Y0000600D01*
X0016545Y0002907D02*
Y0000600D01*
X0016439Y0002907D02*
Y0000600D01*
X0016332Y0002907D02*
Y0000600D01*
X0015282Y0005743D02*
Y0003775D01*
X0019521Y0003920D02*
Y0002815D01*
X0016226Y0002907D02*
Y0000600D01*
X0016013Y0002938D02*
Y0000600D01*
X0015907Y0003018D02*
Y0000600D01*
X0015801Y0003124D02*
Y0000600D01*
X0015694Y0003231D02*
Y0000600D01*
X0015376Y0003550D02*
Y0000600D01*
X0013981Y0003305D02*
Y0002981D01*
X0014950D02*
Y0000600D01*
X0014844Y0002981D02*
Y0000600D01*
X0014738Y0002981D02*
Y0000600D01*
X0014631Y0002981D02*
Y0000600D01*
X0014525Y0002981D02*
Y0000600D01*
X0014419Y0002981D02*
Y0000600D01*
X0014313Y0002981D02*
Y0000600D01*
X0014206Y0002981D02*
Y0000600D01*
X0013981Y0003789D02*
X0013931D01*
X0013994Y0002981D02*
Y0000600D01*
X0013887Y0003155D02*
Y0000600D01*
X0013781Y0003064D02*
Y0000600D01*
X0013675Y0003011D02*
Y0000600D01*
X0013569Y0002985D02*
Y0000600D01*
X0013462Y0002982D02*
Y0000600D01*
X0013356Y0003001D02*
Y0000600D01*
X0013250Y0003045D02*
Y0000600D01*
X0013507Y0007518D02*
X0014077Y0006948D01*
X0013516Y0007509D02*
X0013508D01*
X0013356Y0007156D02*
Y0003999D01*
X0013250Y0007094D02*
Y0003955D01*
X0013037Y0011407D02*
Y0010518D01*
X0012482Y0008993D02*
Y0008675D01*
X0023242Y0015100D02*
Y0013868D01*
X0012999Y0003364D02*
X0012001D01*
X0012080Y0007233D02*
Y0000600D01*
X0011974Y0003289D02*
Y0000600D01*
X0011868Y0003134D02*
Y0000600D01*
X0011761Y0003052D02*
Y0000600D01*
X0011655Y0003005D02*
Y0000600D01*
X0011549Y0002983D02*
Y0000600D01*
X0011443Y0002984D02*
Y0000600D01*
X0011336Y0003007D02*
Y0000600D01*
X0011230Y0003057D02*
Y0000600D01*
X0011017Y0003309D02*
Y0000600D01*
X0010911Y0002981D02*
Y0000600D01*
X0010805Y0002981D02*
Y0000600D01*
X0010698Y0002981D02*
Y0000600D01*
X0010592Y0002981D02*
Y0000600D01*
X0010486Y0002981D02*
Y0000600D01*
X0010380Y0002981D02*
Y0000600D01*
X0009981Y0003470D02*
X0000600D01*
X0010167Y0011407D02*
Y0004019D01*
X0010061Y0011407D02*
Y0004019D01*
Y0002981D02*
Y0000600D01*
X0009954Y0011407D02*
Y0000600D01*
X0009848Y0011407D02*
Y0000600D01*
X0008519Y0001805D02*
Y0001481D01*
X0009529Y0011407D02*
Y0000600D01*
X0009423Y0001699D02*
Y0000600D01*
X0009317Y0001589D02*
Y0000600D01*
X0009210Y0001525D02*
Y0000600D01*
X0009104Y0001491D02*
Y0000600D01*
X0008998Y0001481D02*
Y0000600D01*
X0008891Y0001492D02*
Y0000600D01*
X0008785Y0001528D02*
Y0000600D01*
X0008572Y0001706D02*
Y0000600D01*
X0008466Y0001481D02*
Y0000600D01*
X0008360Y0001481D02*
Y0000600D01*
X0008254Y0001481D02*
Y0000600D01*
X0008147Y0001481D02*
Y0000600D01*
X0008041Y0001481D02*
Y0000600D01*
X0007935Y0001481D02*
Y0000600D01*
X0007828Y0001481D02*
Y0000600D01*
X0007722Y0001481D02*
Y0000600D01*
Y0011407D02*
Y0002519D01*
X0005702Y0011407D02*
Y0002425D01*
X0007616Y0011407D02*
Y0002519D01*
X0007509Y0011407D02*
Y0002519D01*
Y0001481D02*
Y0000600D01*
X0007191Y0011407D02*
Y0000600D01*
X0007084Y0011407D02*
Y0000600D01*
X0006978Y0011407D02*
Y0000600D01*
X0006872Y0011407D02*
Y0000600D01*
X0005519Y0001805D02*
Y0001481D01*
X0007297Y0011407D02*
Y0000600D01*
X0006446Y0001735D02*
Y0000600D01*
X0006340Y0001608D02*
Y0000600D01*
X0006234Y0001537D02*
Y0000600D01*
X0006128Y0001497D02*
Y0000600D01*
X0006021Y0001481D02*
Y0000600D01*
X0005915Y0001488D02*
Y0000600D01*
X0005809Y0001518D02*
Y0000600D01*
X0005596Y0001674D02*
Y0000600D01*
X0001496Y0001876D02*
X0000600D01*
X0001730Y0001557D02*
X0000600D01*
X0005277Y0001481D02*
Y0000600D01*
X0005171Y0001481D02*
Y0000600D01*
X0005065Y0001481D02*
Y0000600D01*
X0004958Y0001481D02*
Y0000600D01*
X0004852Y0001481D02*
Y0000600D01*
X0004746Y0001481D02*
Y0000600D01*
X0004639Y0007627D02*
Y0002519D01*
X0005383Y0011407D02*
Y0011350D01*
X0004533Y0001481D02*
Y0000600D01*
X0004320Y0011407D02*
Y0000600D01*
X0000946Y0014631D02*
X0000600D01*
X0004108Y0011407D02*
Y0000600D01*
X0004002Y0011407D02*
Y0000600D01*
X0003895Y0011407D02*
Y0000600D01*
X0001535Y0001769D02*
X0000600D01*
X0003576Y0011407D02*
Y0000600D01*
X0003470Y0001481D02*
Y0000600D01*
X0003364Y0001481D02*
Y0000600D01*
X0003257Y0001481D02*
Y0000600D01*
X0003151Y0001481D02*
Y0000600D01*
X0038700Y0001131D02*
X0000600D01*
X0002939Y0001481D02*
Y0000600D01*
X0002832Y0001481D02*
Y0000600D01*
X0002726Y0001481D02*
Y0000600D01*
X0001605Y0001663D02*
X0000600D01*
X0002513Y0001481D02*
Y0000600D01*
X0002407Y0001678D02*
Y0000600D01*
X0002301Y0001577D02*
Y0000600D01*
X0002194Y0001519D02*
Y0000600D01*
X0002088Y0001489D02*
Y0000600D01*
X0002481Y0001805D02*
Y0001481D01*
X0001876Y0001496D02*
Y0000600D01*
X0000706Y0015100D02*
Y0000600D01*
X0001982Y0007697D02*
Y0005531D01*
X0001876Y0007573D02*
Y0002504D01*
X0001769Y0007499D02*
Y0002465D01*
X0001663Y0007455D02*
Y0002395D01*
X0001557Y0007434D02*
Y0002270D01*
X0001025Y0007686D02*
Y0000600D01*
X0000919Y0015100D02*
Y0000600D01*
X0000813Y0015100D02*
Y0000600D01*
X0001124Y0008572D02*
X0000600D01*
X0001025Y0015100D02*
Y0014814D01*
X0005490Y0007828D02*
Y0002519D01*
X0003045Y0011407D02*
Y0002519D01*
X0002513Y0015100D02*
Y0015069D01*
X0001382Y0015057D02*
X0000600D01*
X0001152Y0014950D02*
X0000600D01*
X0005065Y0007485D02*
Y0002519D01*
X0004214Y0011407D02*
Y0000600D01*
X0002182Y0012718D02*
X0000600D01*
X0000931Y0011017D02*
X0000600D01*
X0007700Y0014100D02*
X0006069D01*
X0004818Y0014028D02*
Y0013957D01*
X0032915Y0012914D02*
Y0000600D01*
X0030895Y0012860D02*
Y0007204D01*
X0014100Y0005936D02*
Y0004019D01*
X0005596Y0011407D02*
Y0002326D01*
X0005490Y0011407D02*
Y0011172D01*
X0002182Y0013462D02*
X0000600D01*
X0002182Y0013143D02*
X0000600D01*
X0004639Y0001481D02*
Y0000600D01*
X0002182Y0013037D02*
X0000600D01*
X0002182Y0012612D02*
X0000600D01*
X0000931Y0012399D02*
X0000600D01*
X0000931Y0012293D02*
X0000600D01*
X0000931Y0012187D02*
X0000600D01*
X0000931Y0012080D02*
X0000600D01*
X0000931Y0011974D02*
X0000600D01*
X0000931Y0011868D02*
X0000600D01*
X0016805Y0011519D02*
X0016481D01*
X0001128Y0011431D02*
X0000931D01*
Y0011549D02*
X0000600D01*
X0001041Y0011336D02*
X0000600D01*
X0000979Y0011230D02*
X0000600D01*
X0000945Y0011124D02*
X0000600D01*
X0000931Y0011443D02*
X0000600D01*
X0016651Y0009182D02*
Y0009019D01*
X0025793Y0005632D02*
Y0000600D01*
X0000956Y0010167D02*
X0000600D01*
X0001017Y0010698D02*
X0000600D01*
X0001204Y0010486D02*
X0000600D01*
X0001076Y0010380D02*
X0000600D01*
X0001001Y0010273D02*
X0000600D01*
X0001103Y0010592D02*
X0000600D01*
X0000933Y0009954D02*
X0000600D01*
X0000940Y0009104D02*
X0000600D01*
X0000993Y0009742D02*
X0000600D01*
X0001119Y0009423D02*
X0000600D01*
X0001027Y0009317D02*
X0000600D01*
X0024700Y0007218D02*
X0017436D01*
X0000971Y0009210D02*
X0000600D01*
X0016970Y0002907D02*
Y0000600D01*
X0000991Y0008254D02*
X0000600D01*
X0000973Y0008785D02*
X0000600D01*
X0000950Y0008147D02*
X0000600D01*
X0000941Y0008891D02*
X0000600D01*
X0001174Y0008466D02*
X0000600D01*
X0001059Y0008360D02*
X0000600D01*
X0001131Y0007566D02*
Y0000600D01*
X0038700Y0005490D02*
X0016268D01*
X0000957Y0007828D02*
X0000600D01*
X0001003Y0007722D02*
X0000600D01*
X0011655Y0007272D02*
Y0003995D01*
X0011549Y0007390D02*
Y0004017D01*
X0020159Y0007506D02*
Y0007218D01*
X0017927Y0009182D02*
Y0007218D01*
X0035679Y0004196D02*
Y0000600D01*
X0034509Y0002562D02*
Y0002423D01*
X0014047Y0006978D02*
X0000600D01*
X0031532Y0013675D02*
X0031340D01*
X0010687Y0006872D02*
X0000600D01*
X0010570Y0006765D02*
X0000600D01*
X0010504Y0006659D02*
X0000600D01*
X0010468Y0006553D02*
X0000600D01*
X0038700Y0003576D02*
X0019026D01*
X0002182Y0012931D02*
X0000600D01*
X0010667Y0006021D02*
X0000600D01*
X0002188Y0005915D02*
X0000600D01*
X0002083Y0005809D02*
X0000600D01*
X0002022Y0005702D02*
X0000600D01*
X0001990Y0005596D02*
X0000600D01*
X0001981Y0005490D02*
X0000600D01*
X0001994Y0005383D02*
X0000600D01*
X0002305Y0005019D02*
X0001981D01*
X0002099Y0005171D02*
X0000600D01*
X0001981Y0004958D02*
X0000600D01*
X0001981Y0004852D02*
X0000600D01*
X0001981Y0004746D02*
X0000600D01*
X0001981Y0004639D02*
X0000600D01*
X0001981Y0004533D02*
X0000600D01*
X0002513Y0003981D02*
Y0002519D01*
X0010167Y0002981D02*
Y0000600D01*
X0015057Y0005968D02*
Y0000600D01*
X0009981Y0003151D02*
X0000600D01*
X0001981Y0004214D02*
X0000600D01*
X0001981Y0004002D02*
X0000600D01*
X0009981Y0003895D02*
X0000600D01*
X0009981Y0003789D02*
X0000600D01*
X0014100Y0002981D02*
Y0000600D01*
X0013143Y0003123D02*
Y0000600D01*
X0018730Y0002620D02*
X0000600D01*
X0019840Y0003733D02*
Y0003003D01*
X0015482Y0003443D02*
Y0000600D01*
X0018443Y0002907D02*
X0016150D01*
X0005702Y0001575D02*
Y0000600D01*
X0005490Y0001481D02*
Y0000600D01*
X0009981Y0003364D02*
X0000600D01*
X0005383Y0001481D02*
Y0000600D01*
X0001678Y0002407D02*
X0000600D01*
X0001577Y0002301D02*
X0000600D01*
X0001519Y0002194D02*
X0000600D01*
X0001489Y0002088D02*
X0000600D01*
X0001481Y0001982D02*
X0000600D01*
X0003045Y0001481D02*
Y0000600D01*
X0038700Y0001450D02*
X0000600D01*
X0038700Y0001344D02*
X0000600D01*
X0038700Y0001238D02*
X0000600D01*
X0001663Y0001605D02*
Y0000600D01*
X0038700Y0001025D02*
X0000600D01*
X0038700Y0000919D02*
X0000600D01*
X0038700Y0000813D02*
X0000600D01*
X0001557Y0015100D02*
Y0015066D01*
X0012066Y0011069D02*
X0012355Y0010780D01*
X0012612Y0011407D02*
Y0011098D01*
X0011592Y0009848D02*
X0009385D01*
X0012644Y0011069D02*
X0012355Y0010780D01*
X0011536Y0011014D02*
X0011825Y0010725D01*
X0011756Y0009742D02*
X0009459D01*
X0012114Y0011014D02*
X0011825Y0010725D01*
X0012811Y0007764D02*
X0013100Y0007475D01*
X0013389Y0007186D02*
X0013100Y0007475D01*
X0012811Y0007186D02*
X0013100Y0007475D01*
X0012732Y0007297D02*
X0012175D01*
X0001902Y0014098D02*
X0001500Y0014500D01*
X0001098Y0014902D02*
X0001500Y0014500D01*
X0001902Y0014902D02*
X0001500Y0014500D01*
X0001098Y0014098D02*
X0001500Y0014500D01*
X0026080Y0007936D02*
X0025677Y0007534D01*
X0025275Y0007131D02*
X0025677Y0007534D01*
X0025275Y0007936D02*
X0025677Y0007534D01*
X0026080Y0007131D02*
X0025677Y0007534D01*
X0001902Y0008402D02*
X0001500Y0008000D01*
X0001098Y0007598D02*
X0001500Y0008000D01*
X0001098Y0008402D02*
X0001500Y0008000D01*
X0001902Y0007598D02*
X0001500Y0008000D01*
X0001981Y0004500D02*
X0002500D01*
X0003019D02*
X0002500D01*
Y0003981D02*
Y0004500D01*
X0001982Y0005469D02*
Y0002519D01*
X0008633Y0002367D02*
X0009000Y0002000D01*
X0009367Y0001633D02*
X0009000Y0002000D01*
X0008633Y0001633D02*
X0009000Y0002000D01*
X0009367Y0002367D02*
X0009000Y0002000D01*
X0036501Y0011356D02*
X0035982D01*
X0035463D02*
X0035982D01*
Y0011875D02*
Y0011356D01*
X0018457Y0011124D02*
X0017519D01*
X0036501Y0008356D02*
X0035982D01*
X0035463D02*
X0035982D01*
Y0008875D02*
Y0008356D01*
X0030693Y0013868D02*
X0024768D01*
X0002367Y0001633D02*
X0002000Y0002000D01*
X0001633Y0002367D02*
X0002000Y0002000D01*
X0002367Y0002367D02*
X0002000Y0002000D01*
X0001633Y0001633D02*
X0002000Y0002000D01*
X0005633Y0002367D02*
X0006000Y0002000D01*
X0006367Y0001633D02*
X0006000Y0002000D01*
X0005633Y0001633D02*
X0006000Y0002000D01*
X0006367Y0002367D02*
X0006000Y0002000D01*
X0016633Y0011633D02*
X0017000Y0012000D01*
X0017367Y0012367D02*
X0017000Y0012000D01*
X0017367Y0011633D02*
X0017000Y0012000D01*
X0016633Y0012367D02*
X0017000Y0012000D01*
X0010500Y0004019D02*
Y0003500D01*
Y0002981D02*
Y0003500D01*
X0009981D02*
X0010500D01*
X0012982Y0003470D02*
X0012018D01*
X0014500Y0002981D02*
Y0003500D01*
Y0004019D02*
Y0003500D01*
X0015019D02*
X0014500D01*
X0009981Y0003576D02*
X0000600D01*
X0017519Y0008500D02*
X0017000D01*
X0016481D02*
X0017000D01*
Y0009019D02*
Y0008500D01*
X0038700Y0001557D02*
X0035080D01*
X0012478Y0008998D02*
X0009131D01*
X0015907Y0009130D02*
Y0008093D01*
X0015801Y0009044D02*
Y0008199D01*
X0012824Y0012101D02*
Y0012043D01*
X0030257Y0006671D02*
Y0000600D01*
X0030219Y0007297D02*
X0026195D01*
X0029301Y0010371D02*
Y0006672D01*
X0014100Y0008872D02*
Y0008350D01*
X0038700Y0006765D02*
X0031585D01*
X0032967Y0007297D02*
X0031531D01*
X0031320Y0014282D02*
Y0013723D01*
X0013994Y0008790D02*
Y0008456D01*
X0014728Y0007935D02*
X0014515D01*
X0032964Y0010380D02*
X0030188D01*
X0033221Y0010805D02*
X0030485D01*
X0030576Y0006598D02*
Y0005359D01*
X0029966Y0010380D02*
X0029613D01*
X0030470Y0006592D02*
Y0005299D01*
X0012293Y0012321D02*
Y0012043D01*
X0038700Y0004639D02*
X0035589D01*
X0014334Y0009317D02*
X0014174D01*
X0013982Y0013462D02*
X0013487D01*
X0013250Y0011407D02*
Y0010518D01*
X0013356Y0011407D02*
Y0010518D01*
X0011417Y0010698D02*
X0009422D01*
X0013462Y0011407D02*
Y0010518D01*
X0012080Y0011407D02*
Y0011083D01*
X0003257Y0011407D02*
Y0002519D01*
X0001013Y0014206D02*
X0000600D01*
X0002182Y0013994D02*
X0001760D01*
X0014206Y0009103D02*
Y0008244D01*
X0013994Y0009532D02*
Y0009510D01*
X0038700Y0004214D02*
X0035686D01*
X0013610Y0012824D02*
X0012891D01*
X0012718Y0012074D02*
Y0012043D01*
X0014950Y0013807D02*
Y0013758D01*
X0010273Y0011407D02*
Y0004019D01*
X0014100Y0013169D02*
Y0012942D01*
X0012337Y0012718D02*
X0009471D01*
X0016743Y0013807D02*
X0014919D01*
X0016332D02*
Y0009818D01*
Y0015100D02*
Y0014793D01*
X0000963Y0014313D02*
X0000600D01*
X0018457Y0011549D02*
X0017257D01*
X0018457Y0011974D02*
X0017518D01*
X0018352Y0002907D02*
Y0000600D01*
X0007828Y0015100D02*
Y0014228D01*
X0014206Y0013072D02*
Y0012872D01*
X0018565Y0010185D02*
Y0009818D01*
X0013569Y0012378D02*
Y0012043D01*
X0019521Y0015100D02*
Y0014200D01*
X0018257Y0012293D02*
X0017428D01*
X0017300Y0013250D02*
X0014955D01*
X0019309Y0009682D02*
Y0009310D01*
X0038700Y0014738D02*
X0033512D01*
X0011473Y0009954D02*
X0009251D01*
X0018460Y0010380D02*
X0015918D01*
X0018363Y0012187D02*
X0017484D01*
X0018883Y0009867D02*
Y0009740D01*
X0019734Y0009554D02*
Y0008446D01*
X0023135Y0009136D02*
Y0007218D01*
X0018457Y0010805D02*
X0017519D01*
X0018457Y0010698D02*
X0017519D01*
X0018883Y0006282D02*
Y0004333D01*
X0015282Y0003895D02*
X0015019D01*
X0019734Y0003770D02*
Y0002967D01*
Y0005621D02*
Y0004707D01*
X0015282Y0004427D02*
X0003019D01*
X0019202Y0006282D02*
Y0004555D01*
X0017502Y0002907D02*
Y0000600D01*
X0017608Y0006282D02*
Y0003868D01*
X0017714Y0006282D02*
Y0003868D01*
X0019697Y0003789D02*
X0019239D01*
X0019309Y0006282D02*
Y0004557D01*
X0015561Y0003364D02*
X0015019D01*
X0015880Y0003045D02*
X0015019D01*
X0034765Y0003257D02*
X0018992D01*
X0018552Y0004002D02*
X0016268D01*
X0038700Y0003470D02*
X0018920D01*
X0018977Y0004427D02*
X0016268D01*
X0019118Y0004533D02*
X0016268D01*
X0015282Y0004320D02*
X0003019D01*
X0019680Y0002939D02*
X0019311D01*
X0019557Y0002832D02*
X0019418D01*
X0019547Y0003920D02*
X0019370D01*
X0016332Y0006330D02*
Y0003918D01*
X0015907Y0006743D02*
Y0006543D01*
X0014950Y0006075D02*
Y0004019D01*
X0015352Y0003576D02*
X0015019D01*
X0017395Y0006282D02*
Y0003868D01*
X0014652Y0008998D02*
X0014180D01*
X0019478Y0005915D02*
X0016268D01*
X0015376Y0007275D02*
Y0007074D01*
X0014682Y0008679D02*
X0013771D01*
X0025899Y0014282D02*
Y0013868D01*
X0018457Y0010592D02*
X0017519D01*
X0013037Y0003265D02*
Y0000600D01*
X0013695Y0008755D02*
X0016175Y0006275D01*
X0014525Y0009125D02*
Y0007925D01*
X0013037Y0007071D02*
Y0003735D01*
X0035086Y0004002D02*
X0024418D01*
X0019521Y0007682D02*
Y0007218D01*
X0019830Y0007509D02*
X0017519D01*
X0019840Y0007506D02*
Y0007218D01*
X0023830Y0007509D02*
X0020170D01*
X0018756Y0008254D02*
X0017519D01*
X0014011Y0013675D02*
X0013700D01*
X0018828Y0008147D02*
X0017519D01*
X0019590Y0008318D02*
X0019557D01*
X0022310Y0009210D02*
X0019356D01*
X0019270Y0007722D02*
X0017469D01*
X0019590Y0007682D02*
X0019425D01*
X0018934Y0008041D02*
X0017519D01*
X0023485Y0007935D02*
X0021935D01*
X0018543Y0009182D02*
X0018732Y0008993D01*
X0017395Y0009182D02*
Y0009019D01*
X0022417Y0009317D02*
X0019304D01*
X0021991Y0008891D02*
X0019368D01*
X0017395Y0010481D02*
Y0009818D01*
X0018732Y0008891D02*
X0017519D01*
X0022098Y0008998D02*
X0019368D01*
X0014575Y0010425D02*
X0015311Y0009689D01*
X0016481Y0008998D02*
X0015674D01*
X0018565Y0009160D02*
Y0007218D01*
X0019631Y0009635D02*
X0018989D01*
X0019415Y0009682D02*
Y0008460D01*
X0018675Y0009818D02*
X0016132D01*
X0015286Y0009848D02*
X0015152D01*
X0015324Y0009742D02*
X0015258D01*
X0018621Y0009104D02*
X0015882D01*
X0014950Y0011407D02*
Y0010049D01*
X0016651Y0010481D02*
Y0009818D01*
X0016481Y0011230D02*
X0015918D01*
X0016481Y0011336D02*
X0015918D01*
X0014950Y0013242D02*
Y0012043D01*
X0015163Y0013807D02*
Y0012043D01*
X0016481Y0011443D02*
X0015915D01*
X0016481Y0010698D02*
X0015918D01*
X0016481Y0010805D02*
X0015918D01*
X0016743Y0011549D02*
X0015881D01*
X0002231Y0012080D02*
X0002069D01*
X0002832Y0011472D02*
Y0005899D01*
X0004533Y0010773D02*
Y0009727D01*
X0015143Y0011407D02*
X0015282Y0011268D01*
X0002182Y0013356D02*
X0000600D01*
X0002182Y0012506D02*
X0002069D01*
X0002879Y0011443D02*
X0002069D01*
X0004533Y0011407D02*
Y0011227D01*
X0002188Y0012187D02*
X0002069D01*
X0002182Y0013675D02*
X0000600D01*
X0001876Y0015100D02*
Y0014927D01*
X0002182Y0014028D02*
Y0012250D01*
Y0013569D02*
X0000600D01*
X0001025Y0014186D02*
Y0012569D01*
X0004931Y0014950D02*
X0004848D01*
X0004818Y0013957D02*
X0004957Y0013818D01*
X0007488Y0013887D02*
X0004887D01*
X0001095Y0014100D02*
X0000600D01*
X0007594Y0013994D02*
X0006069D01*
X0001240D02*
X0000600D01*
X0002182Y0013781D02*
X0000600D01*
X0008019Y0014419D02*
X0006069D01*
X0010273Y0015100D02*
Y0014793D01*
X0007403Y0015100D02*
Y0013818D01*
X0008300Y0014700D02*
X0007418Y0013818D01*
X0005383Y0013931D02*
Y0013818D01*
X0010380Y0015100D02*
Y0014793D01*
X0018650D02*
X0008525D01*
X0007913Y0014313D02*
X0006069D01*
X0019096Y0015100D02*
Y0014479D01*
X0019586Y0014313D02*
X0019262D01*
X0024525Y0014525D02*
X0019050D01*
X0019712Y0013569D02*
X0019618D01*
X0021925Y0013675D02*
X0020405D01*
X0018458Y0015100D02*
Y0014793D01*
X0006553Y0011407D02*
Y0000600D01*
X0017088Y0013462D02*
X0015018D01*
X0020968Y0012718D02*
X0019618D01*
X0018457Y0011868D02*
X0017502D01*
X0038700Y0009104D02*
X0026050D01*
X0021606Y0013356D02*
X0019618D01*
X0008232Y0014631D02*
X0006069D01*
X0023561Y0011724D02*
Y0010276D01*
X0019618Y0012432D02*
X0019659Y0012391D01*
X0021500Y0013250D02*
X0019618D01*
X0021393Y0013143D02*
X0019618D01*
X0024411Y0012382D02*
Y0012317D01*
X0019415Y0015100D02*
Y0014160D01*
X0018457Y0012080D02*
X0017513D01*
X0013250Y0015100D02*
Y0014793D01*
X0030151Y0010371D02*
Y0007214D01*
X0013356Y0015100D02*
Y0014793D01*
X0020862Y0012612D02*
X0019618D01*
X0016651Y0015100D02*
Y0014793D01*
X0015907Y0015100D02*
Y0014793D01*
X0031859Y0012931D02*
X0030952D01*
X0031505Y0013250D02*
X0031228D01*
X0025108Y0009529D02*
X0024218D01*
X0025177Y0010805D02*
X0023218D01*
X0016439Y0015100D02*
Y0014793D01*
X0029726Y0014282D02*
Y0013868D01*
X0025117Y0009635D02*
X0024369D01*
X0022710Y0015100D02*
Y0013868D01*
X0023667Y0011602D02*
Y0010398D01*
X0016864Y0015100D02*
Y0014793D01*
X0029993Y0012382D02*
X0024352D01*
X0030257Y0010406D02*
Y0007329D01*
X0031560Y0013143D02*
X0031016D01*
X0019668Y0012399D02*
X0019651D01*
X0023492Y0011892D02*
X0023218Y0011618D01*
X0018457Y0010911D02*
X0017519D01*
X0025133Y0010698D02*
X0023218D01*
X0030210Y0012293D02*
X0024428D01*
X0021181Y0012931D02*
X0019618D01*
X0014525Y0015100D02*
Y0014793D01*
X0014419Y0015100D02*
Y0014793D01*
X0023539Y0011761D02*
X0023361D01*
X0023483Y0009954D02*
X0023218D01*
X0018583Y0010167D02*
X0015918D01*
X0023485Y0010061D02*
X0023218D01*
X0022582Y0009742D02*
X0020536D01*
X0023510Y0007828D02*
X0021828D01*
X0022072Y0011273D02*
Y0008972D01*
X0020797Y0009997D02*
Y0008318D01*
X0016120Y0015100D02*
Y0014793D01*
X0023550Y0009742D02*
X0023218D01*
X0023504Y0009848D02*
X0023218D01*
X0023562Y0007722D02*
X0021705D01*
X0025109Y0007509D02*
X0024170D01*
X0019840Y0009506D02*
Y0008494D01*
X0019946Y0009484D02*
Y0008516D01*
X0021460Y0008360D02*
X0020374D01*
X0025114Y0007616D02*
X0024349D01*
X0020756Y0012506D02*
X0020118D01*
X0021819Y0013569D02*
X0020288D01*
X0029620Y0010382D02*
Y0006851D01*
X0022391Y0015100D02*
Y0013868D01*
X0008785Y0015100D02*
Y0014793D01*
X0016013Y0015100D02*
Y0014793D01*
X0030576Y0014282D02*
Y0013868D01*
X0012824Y0015100D02*
Y0014793D01*
X0020903Y0015100D02*
Y0012653D01*
X0014631Y0015100D02*
Y0014793D01*
X0019734Y0015100D02*
Y0014446D01*
X0022031Y0013781D02*
X0020471D01*
X0021966Y0011166D02*
Y0008866D01*
X0022604Y0015100D02*
Y0013868D01*
X0029513Y0005632D02*
Y0000600D01*
X0030018Y0006193D02*
Y0006150D01*
X0025261Y0007145D02*
Y0006788D01*
X0029440Y0006765D02*
X0025284D01*
X0029407Y0005632D02*
Y0000600D01*
X0038700Y0006340D02*
X0030094D01*
X0017820Y0009182D02*
Y0007218D01*
X0030257Y0014282D02*
Y0013868D01*
X0029925Y0005925D02*
X0029726Y0005726D01*
X0030045Y0006230D02*
Y0000600D01*
X0038700Y0005809D02*
X0029809D01*
X0038700Y0005702D02*
X0029700D01*
X0029726Y0010454D02*
Y0006858D01*
X0038700Y0006446D02*
X0030109D01*
X0016481Y0008785D02*
X0015568D01*
X0024900Y0005702D02*
X0024320D01*
X0029500Y0005632D02*
X0025100D01*
X0030364Y0001667D02*
Y0000600D01*
X0029620Y0005655D02*
Y0000600D01*
X0013887Y0015100D02*
Y0014793D01*
X0024730Y0005870D02*
Y0000600D01*
X0023451Y0006128D02*
X0020486D01*
X0023792Y0005596D02*
X0020145D01*
X0021222Y0015100D02*
Y0012972D01*
X0030470Y0014282D02*
Y0013868D01*
X0019628Y0007639D02*
Y0007218D01*
X0015694Y0006956D02*
Y0006755D01*
X0019946Y0001978D02*
Y0000600D01*
X0012718Y0015100D02*
Y0014793D01*
X0020478Y0015100D02*
Y0014202D01*
X0012824Y0007173D02*
Y0000600D01*
X0012984Y0008041D02*
X0009517D01*
X0014313Y0011407D02*
Y0010518D01*
X0015566Y0007084D02*
X0015366D01*
X0014687Y0008041D02*
X0014409D01*
X0015672Y0006978D02*
X0015472D01*
X0031473Y0013462D02*
X0031349D01*
X0018901Y0009724D02*
X0019275Y0009350D01*
X0023029Y0015100D02*
Y0013868D01*
X0014631Y0009019D02*
Y0007818D01*
X0016531Y0007722D02*
X0016278D01*
X0016716Y0007935D02*
X0016065D01*
X0018796Y0009954D02*
X0015996D01*
X0038700Y0004108D02*
X0035630D01*
X0012499Y0008572D02*
X0001875D01*
X0015568Y0008992D02*
Y0008432D01*
X0016481Y0008891D02*
X0015568D01*
X0012396Y0009317D02*
X0009486D01*
X0013569Y0011407D02*
Y0010518D01*
X0011443Y0010580D02*
Y0010399D01*
X0014440Y0009210D02*
X0014205D01*
X0011493Y0010486D02*
X0009071D01*
X0023348Y0015100D02*
Y0013868D01*
X0026006Y0014282D02*
Y0013868D01*
X0026112Y0014282D02*
Y0013868D01*
X0012293Y0011407D02*
Y0011184D01*
X0013675Y0011407D02*
Y0010518D01*
X0038700Y0003364D02*
X0018886D01*
X0019202Y0002195D02*
Y0000600D01*
X0019888Y0001982D02*
X0009519D01*
X0019840Y0001990D02*
Y0000600D01*
X0015282Y0004002D02*
X0015019D01*
X0018624Y0002726D02*
X0000600D01*
X0026218Y0014282D02*
Y0013868D01*
X0012504Y0009532D02*
X0012407D01*
X0017820Y0006282D02*
Y0003868D01*
X0014227Y0009423D02*
X0014105D01*
X0019543Y0002179D02*
X0019303D01*
X0018837Y0002513D02*
X0009076D01*
X0023434D02*
X0020472D01*
X0016864Y0006282D02*
Y0003868D01*
X0018458Y0006282D02*
Y0003908D01*
X0034523Y0003151D02*
X0019099D01*
X0017502Y0006282D02*
Y0003868D01*
X0016651Y0006282D02*
Y0003868D01*
X0015455Y0003470D02*
X0015019D01*
X0018658Y0004108D02*
X0016268D01*
X0018871Y0004320D02*
X0016268D01*
X0016970Y0006282D02*
Y0003868D01*
X0015375Y0003550D02*
X0015924Y0003001D01*
X0016268Y0006050D02*
Y0003982D01*
X0017076Y0006282D02*
Y0003868D01*
X0015269Y0007381D02*
Y0007181D01*
X0015282Y0004108D02*
X0003019D01*
X0019202Y0003752D02*
Y0003047D01*
X0015282Y0005702D02*
X0002978D01*
X0025687Y0014282D02*
Y0013868D01*
X0014682Y0008466D02*
X0013984D01*
X0010486Y0006264D02*
Y0004019D01*
X0019617Y0005702D02*
X0016268D01*
X0030443Y0005277D02*
X0016268D01*
X0030647Y0005383D02*
X0016268D01*
X0015004Y0006021D02*
X0014282D01*
X0025155Y0014255D02*
Y0013868D01*
X0012399Y0009526D02*
Y0009332D01*
X0012482Y0008679D02*
X0001970D01*
X0014682Y0008360D02*
X0014090D01*
X0019453Y0006021D02*
X0016268D01*
X0012482Y0008891D02*
X0002059D01*
X0013985Y0013569D02*
X0013593D01*
X0033128Y0014223D02*
Y0013952D01*
X0033446Y0011444D02*
Y0010874D01*
Y0012914D02*
Y0011856D01*
X0025580Y0014282D02*
Y0013868D01*
X0031639Y0014282D02*
Y0013814D01*
X0031746Y0015100D02*
Y0014918D01*
X0031852Y0015100D02*
Y0014918D01*
X0025793Y0014282D02*
Y0013868D01*
X0022923Y0015100D02*
Y0013868D01*
X0033068Y0014282D02*
X0033398Y0013952D01*
X0024846Y0014844D02*
X0006069D01*
X0025899Y0015100D02*
Y0014918D01*
X0031639Y0015100D02*
Y0014918D01*
X0033200D02*
X0025050D01*
X0023498Y0013868D02*
X0022250D01*
X0025182Y0014282D02*
X0024768Y0013868D01*
X0025155Y0012382D02*
Y0012103D01*
X0030719Y0013887D02*
X0024787D01*
X0038700Y0014631D02*
X0033618D01*
X0025580Y0015100D02*
Y0014918D01*
X0024730Y0015100D02*
Y0014730D01*
X0025793Y0015100D02*
Y0014918D01*
X0024825Y0014825D02*
X0024367Y0014367D01*
X0030045Y0014282D02*
Y0013868D01*
X0013728Y0007297D02*
X0013468D01*
X0008346Y0014738D02*
X0006069D01*
X0015282Y0009954D02*
X0015045D01*
X0013143Y0011407D02*
Y0010518D01*
X0011655Y0011407D02*
Y0011097D01*
X0014001Y0013356D02*
X0013381D01*
X0011974Y0011407D02*
Y0011106D01*
X0022072Y0015100D02*
Y0013814D01*
X0024836Y0013936D02*
Y0013868D01*
X0011443Y0011407D02*
Y0010870D01*
X0015588Y0008991D02*
Y0008412D01*
X0015694Y0009002D02*
Y0008305D01*
X0016757Y0010481D02*
Y0009818D01*
X0012429Y0009423D02*
X0009513D01*
X0014206Y0011407D02*
Y0010518D01*
X0012824Y0011407D02*
Y0010518D01*
X0012931Y0011407D02*
Y0010518D01*
X0001557Y0001730D02*
Y0000600D01*
X0016481Y0008466D02*
X0015568D01*
X0016481Y0008041D02*
X0015959D01*
X0015057Y0011407D02*
Y0009943D01*
X0016651Y0013807D02*
Y0012384D01*
X0016494Y0007616D02*
X0016384D01*
X0017714Y0002907D02*
Y0000600D01*
X0011561Y0007828D02*
X0009490D01*
X0012772Y0008254D02*
X0009453D01*
X0015282Y0010061D02*
X0014939D01*
X0015918Y0011400D02*
Y0010032D01*
X0025368Y0007056D02*
Y0006682D01*
X0022817Y0015100D02*
Y0013868D01*
X0018777Y0008211D02*
Y0007218D01*
X0022204Y0009104D02*
X0019368D01*
X0019489Y0006282D02*
X0016500D01*
X0021435Y0015100D02*
Y0013185D01*
X0025155Y0007307D02*
Y0006895D01*
X0021647Y0015100D02*
Y0013397D01*
X0022179Y0015100D02*
Y0013860D01*
X0024517Y0007958D02*
Y0007218D01*
X0022498Y0008498D02*
Y0007218D01*
X0023561Y0007724D02*
Y0007218D01*
X0024926Y0007124D02*
X0025432Y0006618D01*
X0026962Y0005632D02*
Y0000600D01*
X0024836Y0005764D02*
Y0000600D01*
X0021541Y0015100D02*
Y0013291D01*
X0025368Y0012382D02*
Y0012103D01*
X0024579Y0006021D02*
X0024484D01*
X0017502Y0007367D02*
Y0007218D01*
X0027069Y0005632D02*
Y0000600D01*
X0030364Y0010482D02*
Y0007386D01*
X0029194Y0010431D02*
Y0006704D01*
X0030470Y0001562D02*
Y0000600D01*
X0024632Y0014631D02*
X0018943D01*
X0013835Y0007191D02*
X0013394D01*
X0024730Y0012382D02*
Y0007217D01*
X0015801Y0013807D02*
Y0011649D01*
X0015376Y0013807D02*
Y0012027D01*
X0023454Y0011854D02*
Y0007218D01*
X0015269Y0015100D02*
Y0014793D01*
X0019628Y0013639D02*
Y0012422D01*
X0019618Y0013649D02*
Y0012432D01*
X0023135Y0015100D02*
Y0013868D01*
X0012393Y0009210D02*
X0009431D01*
X0008772Y0008466D02*
X0005228D01*
X0008626Y0008360D02*
X0005374D01*
X0008547Y0008254D02*
X0005453D01*
X0008502Y0008147D02*
X0005498D01*
X0008483Y0008041D02*
X0005517D01*
X0008485Y0007935D02*
X0005515D01*
X0004541Y0009742D02*
X0002007D01*
X0005490Y0009328D02*
Y0008172D01*
X0005383Y0009150D02*
Y0008350D01*
X0005277Y0009061D02*
Y0008439D01*
X0005171Y0009010D02*
Y0008490D01*
X0005065Y0008985D02*
Y0008515D01*
X0004958Y0008983D02*
Y0008517D01*
X0004852Y0009002D02*
Y0008497D01*
X0004746Y0009048D02*
Y0008452D01*
X0004639Y0009127D02*
Y0008373D01*
X0008510Y0007828D02*
X0005490D01*
X0008562Y0007722D02*
X0005438D01*
X0008651Y0007616D02*
X0005349D01*
X0008830Y0007509D02*
X0005170D01*
X0022582Y0011750D02*
Y0009482D01*
X0030348Y0005171D02*
X0016268D01*
X0031741Y0013887D02*
X0031181D01*
X0012665Y0008360D02*
X0009374D01*
X0012878Y0008147D02*
X0009498D01*
X0004615Y0009848D02*
X0002048D01*
X0009423Y0009199D02*
Y0008301D01*
X0009317Y0009089D02*
Y0008411D01*
X0009210Y0009025D02*
Y0008475D01*
X0009104Y0008991D02*
Y0008509D01*
X0008998Y0008981D02*
Y0008519D01*
X0008891Y0008992D02*
Y0008508D01*
X0008785Y0009028D02*
Y0008472D01*
X0008679Y0009092D02*
Y0008408D01*
X0012931Y0007103D02*
Y0000600D01*
X0012576Y0008449D02*
X0013143Y0007882D01*
X0012979Y0007084D02*
X0000600D01*
X0015568Y0008432D02*
X0016481Y0007518D01*
X0022179Y0006282D02*
Y0000600D01*
X0035360Y0015100D02*
Y0004755D01*
X0025049Y0012382D02*
Y0007001D01*
Y0005636D02*
Y0000600D01*
X0029407Y0014282D02*
Y0013868D01*
X0022285Y0008285D02*
Y0007218D01*
X0021328Y0015100D02*
Y0013078D01*
X0030151Y0014282D02*
Y0013868D01*
X0024092Y0007489D02*
Y0007218D01*
X0023986Y0007481D02*
Y0007218D01*
X0023880Y0007495D02*
Y0007218D01*
X0021860Y0015100D02*
Y0013610D01*
X0033482Y0012293D02*
X0030290D01*
X0024624Y0005976D02*
Y0000600D01*
X0025474Y0005632D02*
Y0000600D01*
X0024685Y0005915D02*
X0024459D01*
X0024791Y0005809D02*
X0024408D01*
X0038700Y0006021D02*
X0029991D01*
X0020797Y0006282D02*
Y0000600D01*
X0020691Y0006282D02*
Y0000600D01*
X0020478Y0006282D02*
Y0006183D01*
X0024517Y0012382D02*
Y0012042D01*
X0023242Y0011642D02*
Y0007218D01*
X0020053Y0007484D02*
Y0007218D01*
X0019946Y0007484D02*
Y0007218D01*
X0004651Y0007616D02*
X0001920D01*
X0023489Y0006282D02*
X0020448D01*
X0029620Y0014282D02*
Y0013868D01*
X0029939Y0014282D02*
Y0013868D01*
X0029832Y0014282D02*
Y0013868D01*
X0022498Y0015100D02*
Y0013868D01*
X0023472Y0006234D02*
X0020465D01*
X0021550Y0007682D02*
X0020410D01*
X0017608Y0002907D02*
Y0000600D01*
X0023667Y0002064D02*
Y0000600D01*
X0023453Y0006021D02*
X0020484D01*
X0023478Y0005915D02*
X0020459D01*
X0023529Y0005809D02*
X0020408D01*
X0023617Y0005702D02*
X0020320D01*
X0002382Y0015057D02*
X0001618D01*
X0002152Y0014950D02*
X0001848D01*
X0002047Y0014844D02*
X0001953D01*
X0001982Y0015100D02*
Y0014803D01*
X0000983Y0014738D02*
X0000600D01*
X0001769Y0015100D02*
Y0015001D01*
X0001663Y0015100D02*
Y0015045D01*
X0001450Y0015100D02*
Y0015067D01*
X0001344Y0015100D02*
Y0015047D01*
X0001238Y0015100D02*
Y0015005D01*
X0001131Y0015100D02*
Y0014934D01*
X0002013Y0014206D02*
X0001987D01*
X0003382Y0015057D02*
X0002618D01*
X0003152Y0014950D02*
X0002848D01*
X0003047Y0014844D02*
X0002953D01*
X0002939Y0015100D02*
Y0014862D01*
X0002832Y0015100D02*
Y0014962D01*
X0002726Y0015100D02*
Y0015022D01*
X0002620Y0015100D02*
Y0015056D01*
X0002407Y0015100D02*
Y0015061D01*
X0002301Y0015100D02*
Y0015033D01*
X0002194Y0015100D02*
Y0014980D01*
X0002088Y0015100D02*
Y0014893D01*
X0004382Y0015057D02*
X0003618D01*
X0004152Y0014950D02*
X0003848D01*
X0004047Y0014844D02*
X0003953D01*
X0004958Y0015100D02*
Y0015069D01*
X0003895Y0015100D02*
Y0014909D01*
X0003789Y0015100D02*
Y0014990D01*
X0003683Y0015100D02*
Y0015039D01*
X0003576Y0015100D02*
Y0015064D01*
X0003470Y0015100D02*
Y0015068D01*
X0003364Y0015100D02*
Y0015052D01*
X0003257Y0015100D02*
Y0015015D01*
X0004002Y0015100D02*
Y0014775D01*
X0000931Y0014525D02*
X0000600D01*
X0007509Y0015100D02*
Y0013909D01*
X0004852Y0015100D02*
Y0014947D01*
X0004746Y0015100D02*
Y0015013D01*
X0004639Y0015100D02*
Y0015052D01*
X0004533Y0015100D02*
Y0015068D01*
X0004427Y0015100D02*
Y0015064D01*
X0004320Y0015100D02*
Y0015040D01*
X0003151Y0015100D02*
Y0014950D01*
X0004108Y0015100D02*
Y0014912D01*
X0004931Y0014100D02*
X0004905D01*
X0004931Y0015069D02*
Y0014872D01*
X0007935Y0015100D02*
Y0014335D01*
X0006021Y0015100D02*
Y0015069D01*
X0005915Y0015100D02*
Y0015069D01*
X0005809Y0015100D02*
Y0015069D01*
X0005702Y0015100D02*
Y0015069D01*
X0005596Y0015100D02*
Y0015069D01*
X0005490Y0015100D02*
Y0015069D01*
X0005383Y0015100D02*
Y0015069D01*
X0038700Y0015057D02*
X0006069D01*
X0029513Y0014282D02*
Y0013868D01*
X0029301Y0014282D02*
Y0013868D01*
X0008466Y0015100D02*
Y0014788D01*
X0024943Y0012382D02*
Y0007107D01*
X0019734Y0013554D02*
Y0012446D01*
X0004214Y0015100D02*
Y0014992D01*
X0005277Y0015100D02*
Y0015069D01*
X0005171Y0015100D02*
Y0015069D01*
X0005065Y0015100D02*
Y0015069D01*
X0018457Y0011761D02*
X0017461D01*
X0017407Y0013143D02*
X0014877D01*
X0035463Y0007935D02*
X0026081D01*
X0009981Y0003045D02*
X0000600D01*
X0033267Y0007828D02*
X0026164D01*
X0033114Y0007722D02*
X0026214D01*
X0033033Y0007616D02*
X0026240D01*
X0032986Y0007509D02*
X0026246D01*
X0031639Y0013051D02*
Y0007125D01*
X0030470Y0010661D02*
Y0007408D01*
X0026218Y0008357D02*
Y0007710D01*
X0026112Y0008166D02*
Y0007901D01*
X0026006Y0008069D02*
Y0007998D01*
X0025368Y0008056D02*
Y0008011D01*
X0025261Y0008145D02*
Y0007922D01*
X0025155Y0008307D02*
Y0007760D01*
X0038700Y0009742D02*
X0026207D01*
X0026218Y0009357D02*
Y0008710D01*
X0026112Y0009166D02*
Y0008901D01*
X0026006Y0009069D02*
Y0008998D01*
X0025368Y0009056D02*
Y0009011D01*
X0025261Y0009145D02*
Y0008922D01*
X0025155Y0009307D02*
Y0008760D01*
X0035463Y0008785D02*
X0026188D01*
X0035463Y0008679D02*
X0026227D01*
X0035463Y0008572D02*
X0026245D01*
X0035463Y0008466D02*
X0026242D01*
X0035463Y0008360D02*
X0026219D01*
X0035463Y0008254D02*
X0026173D01*
X0035463Y0008147D02*
X0026095D01*
X0035463Y0008041D02*
X0025962D01*
X0033056Y0010061D02*
X0025994D01*
X0033154Y0009954D02*
X0026060D01*
X0038700Y0007935D02*
X0036501D01*
X0026218Y0010357D02*
Y0009710D01*
X0026112Y0010166D02*
Y0009901D01*
X0026006Y0010069D02*
Y0009998D01*
X0025368Y0010056D02*
Y0010011D01*
X0025261Y0010145D02*
Y0009922D01*
X0025155Y0010307D02*
Y0009760D01*
X0038700Y0008998D02*
X0026007D01*
X0038700Y0009635D02*
X0026237D01*
X0038700Y0009529D02*
X0026246D01*
X0038700Y0009423D02*
X0026235D01*
X0038700Y0009317D02*
X0026203D01*
X0038700Y0009210D02*
X0026145D01*
X0019096Y0009699D02*
Y0009529D01*
X0029135Y0011017D02*
X0026246D01*
X0010560Y0006128D02*
X0000600D01*
X0029069Y0010911D02*
X0026103D01*
X0026246Y0010965D02*
X0026049D01*
X0026218D02*
Y0010710D01*
X0026112Y0010965D02*
Y0010901D01*
X0025261Y0010965D02*
Y0010922D01*
X0025155Y0010965D02*
Y0010760D01*
X0033234Y0006900D02*
Y0000600D01*
X0029088Y0010556D02*
Y0006707D01*
X0029071Y0010592D02*
X0026243D01*
X0029137Y0010486D02*
X0026244D01*
X0032970Y0010273D02*
X0026183D01*
X0032999Y0010167D02*
X0026112D01*
X0033482Y0012187D02*
X0024484D01*
X0034118Y0012986D02*
Y0011907D01*
X0033482Y0012080D02*
X0026246D01*
X0033454Y0011868D02*
X0026246D01*
X0033406Y0011761D02*
X0026246D01*
X0033391Y0011655D02*
X0026246D01*
X0026537Y0012382D02*
Y0006618D01*
X0026431Y0012382D02*
Y0006618D01*
X0024624Y0012382D02*
Y0007218D01*
X0026218Y0012382D02*
Y0012103D01*
X0026112Y0012382D02*
Y0012103D01*
X0026006Y0012382D02*
Y0012103D01*
X0025899Y0012382D02*
Y0012103D01*
X0025793Y0012382D02*
Y0012103D01*
X0014100Y0009532D02*
Y0009428D01*
X0025687Y0012382D02*
Y0012103D01*
X0025580Y0012382D02*
Y0012103D01*
X0033978Y0011282D02*
Y0010510D01*
X0033447Y0011443D02*
X0026246D01*
X0035463Y0011230D02*
X0026246D01*
X0029273Y0011124D02*
X0026246D01*
X0004665Y0009104D02*
X0002059D01*
X0004772Y0008466D02*
X0001826D01*
X0004626Y0008360D02*
X0001941D01*
X0004547Y0008254D02*
X0002009D01*
X0004502Y0008147D02*
X0002050D01*
X0001982Y0008697D02*
Y0008303D01*
X0001876Y0008573D02*
Y0008427D01*
X0001131Y0008566D02*
Y0008434D01*
X0001025Y0008686D02*
Y0008314D01*
X0008572Y0007706D02*
Y0002294D01*
X0004533Y0007773D02*
Y0002519D01*
X0004510Y0007828D02*
X0002042D01*
X0004562Y0007722D02*
X0001997D01*
X0004533Y0009273D02*
Y0008227D01*
X0004499Y0009635D02*
X0001937D01*
X0004482Y0009529D02*
X0001819D01*
X0004487Y0009423D02*
X0001881D01*
X0004569Y0009210D02*
X0002029D01*
X0012418Y0009104D02*
X0009335D01*
X0001982Y0009697D02*
Y0009303D01*
X0001876Y0009573D02*
Y0009427D01*
X0001131Y0009566D02*
Y0009434D01*
X0001025Y0009686D02*
Y0009314D01*
X0012560Y0008466D02*
X0009228D01*
X0015163Y0005862D02*
Y0000600D01*
X0004678Y0011407D02*
X0003025D01*
X0014100D02*
Y0010518D01*
X0011438Y0010592D02*
X0009321D01*
X0004869Y0008998D02*
X0002069D01*
X0008572Y0010706D02*
Y0009794D01*
X0001982Y0010697D02*
Y0010303D01*
X0001876Y0010573D02*
Y0010427D01*
X0001131Y0010566D02*
Y0010434D01*
X0001025Y0010686D02*
Y0010314D01*
X0025687Y0005632D02*
Y0000600D01*
X0008572Y0009206D02*
Y0008294D01*
X0002069Y0011431D02*
X0001872D01*
X0005383Y0010650D02*
Y0009850D01*
X0002513Y0011787D02*
Y0006019D01*
X0004605Y0011336D02*
X0001959D01*
X0004535Y0011230D02*
X0002020D01*
X0004496Y0011124D02*
X0002055D01*
X0004481Y0011017D02*
X0002069D01*
X0004489Y0010911D02*
X0002062D01*
X0001982Y0011431D02*
Y0011303D01*
X0001025Y0011431D02*
Y0011314D01*
X0004519Y0010805D02*
X0002034D01*
X0000931Y0012506D02*
X0000600D01*
X0004639Y0011407D02*
Y0011373D01*
X0002194Y0012161D02*
Y0005920D01*
X0002182Y0012399D02*
X0002069D01*
X0002432Y0011868D02*
X0002069D01*
X0002539Y0011761D02*
X0002069D01*
X0002645Y0011655D02*
X0002069D01*
X0002326Y0011974D02*
X0002069D01*
X0001982Y0014197D02*
Y0012569D01*
X0001876Y0014073D02*
Y0012569D01*
X0001769Y0013999D02*
Y0012569D01*
X0001663Y0013955D02*
Y0012569D01*
X0001557Y0013934D02*
Y0012569D01*
X0001450Y0013933D02*
Y0012569D01*
X0001344Y0013953D02*
Y0012569D01*
X0001238Y0013995D02*
Y0012569D01*
X0001131Y0014066D02*
Y0012569D01*
X0004578Y0010698D02*
X0001983D01*
X0032722Y0013887D02*
X0032241D01*
X0032722Y0013781D02*
X0032376D01*
X0032722Y0013675D02*
X0032450D01*
X0032722Y0013569D02*
X0032492D01*
X0032722Y0013462D02*
X0032509D01*
X0032722Y0013356D02*
X0032504D01*
X0032702Y0014282D02*
Y0000600D01*
X0032490Y0014282D02*
Y0013577D01*
X0032383Y0014282D02*
Y0013772D01*
X0032277Y0014282D02*
Y0013866D01*
X0032171Y0014282D02*
Y0013920D01*
X0032065Y0014282D02*
Y0013946D01*
X0031958Y0014282D02*
Y0013951D01*
X0031852Y0014282D02*
Y0013933D01*
X0031746Y0014282D02*
Y0013890D01*
X0031958Y0015100D02*
Y0014918D01*
X0032722Y0013250D02*
X0032477D01*
X0032722Y0013143D02*
X0032422D01*
X0032722Y0013037D02*
X0032327D01*
X0032722Y0012931D02*
X0032123D01*
X0038251D02*
X0034515D01*
X0033398Y0013952D02*
X0032722D01*
X0033872Y0011247D02*
Y0010699D01*
X0013941Y0007084D02*
X0013221D01*
X0038700Y0014100D02*
X0034102D01*
X0038700Y0014206D02*
X0034042D01*
X0038700Y0014419D02*
X0033831D01*
X0033426Y0014824D02*
X0034025Y0014225D01*
X0033659Y0015100D02*
Y0014591D01*
X0034084Y0015100D02*
Y0014143D01*
X0033340Y0014010D02*
Y0013952D01*
X0033234Y0014116D02*
Y0013952D01*
X0033021Y0014282D02*
Y0013952D01*
X0032915Y0014282D02*
Y0013952D01*
X0030431Y0007403D02*
X0026231D01*
X0014844Y0015100D02*
Y0014793D01*
X0038700Y0012612D02*
X0034118D01*
X0038700Y0012718D02*
X0034118D01*
X0013462Y0006355D02*
Y0004018D01*
X0012612Y0008413D02*
Y0000600D01*
X0015110Y0005915D02*
X0002812D01*
X0015216Y0005809D02*
X0002917D01*
X0015282Y0005596D02*
X0003010D01*
X0030528Y0004427D02*
X0024440D01*
X0038700Y0012824D02*
X0034118D01*
X0015282Y0005490D02*
X0003019D01*
X0003151Y0011407D02*
Y0002519D01*
X0003019Y0005019D02*
X0002695D01*
X0034297Y0004688D02*
Y0002173D01*
X0002620Y0011680D02*
Y0006005D01*
X0002407Y0011893D02*
Y0006011D01*
X0030364Y0004569D02*
Y0002292D01*
X0019792Y0005596D02*
X0016268D01*
X0019521Y0005821D02*
Y0004557D01*
X0019840Y0005581D02*
Y0004744D01*
X0015282Y0004852D02*
X0003019D01*
X0015282Y0004746D02*
X0003019D01*
X0015282Y0004639D02*
X0003019D01*
X0000931Y0011655D02*
X0000600D01*
X0002939Y0005222D02*
Y0005019D01*
X0001981Y0004320D02*
X0000600D01*
X0002726Y0005033D02*
Y0005019D01*
X0002276Y0012024D02*
X0002800Y0011500D01*
X0002939Y0011419D02*
Y0005777D01*
X0002726Y0011574D02*
Y0005967D01*
X0002194Y0005080D02*
Y0005019D01*
X0002088Y0005184D02*
Y0005019D01*
X0023454Y0004108D02*
Y0002642D01*
X0009981Y0004002D02*
X0003019D01*
X0016011Y0002939D02*
X0000600D01*
X0023561Y0002157D02*
Y0000600D01*
X0019415Y0003920D02*
Y0002835D01*
X0030259Y0001982D02*
X0024018D01*
X0030270Y0001876D02*
X0009504D01*
X0030304Y0001769D02*
X0009465D01*
X0008519Y0002519D02*
Y0002195D01*
X0004483Y0008041D02*
X0002068D01*
X0009423Y0007699D02*
Y0002301D01*
X0009317Y0007589D02*
Y0002411D01*
X0009210Y0007525D02*
Y0002475D01*
X0009104Y0007491D02*
Y0002509D01*
X0008998Y0007481D02*
Y0002519D01*
X0008891Y0007492D02*
Y0002508D01*
X0008785Y0007528D02*
Y0002472D01*
X0008679Y0007592D02*
Y0002408D01*
X0001981Y0004108D02*
X0000600D01*
X0008924Y0002513D02*
X0008519D01*
X0008678Y0002407D02*
X0008519D01*
X0008577Y0002301D02*
X0008519D01*
X0018565Y0002785D02*
Y0000600D01*
X0018943Y0002407D02*
X0009322D01*
X0019049Y0002301D02*
X0009423D01*
X0030271Y0002088D02*
X0024273D01*
X0008535Y0001769D02*
X0008519D01*
X0008605Y0001663D02*
X0008519D01*
X0007935Y0011407D02*
Y0002519D01*
X0009635Y0011407D02*
Y0000600D01*
X0008360Y0011407D02*
Y0002519D01*
X0008254Y0011407D02*
Y0002519D01*
X0008147Y0011407D02*
Y0002519D01*
X0008041Y0011407D02*
Y0002519D01*
X0038700Y0010911D02*
X0036501D01*
Y0010837D02*
X0036177D01*
X0036423D02*
Y0010630D01*
X0036317Y0010837D02*
Y0010753D01*
X0036210Y0010837D02*
Y0010822D01*
X0035679Y0010837D02*
Y0010777D01*
X0035572Y0010837D02*
Y0010675D01*
X0038700Y0010061D02*
X0036409D01*
X0038700Y0010698D02*
X0036372D01*
X0038700Y0010592D02*
X0036444D01*
X0038700Y0010486D02*
X0036485D01*
X0038700Y0010380D02*
X0036501D01*
X0038700Y0010273D02*
X0036495D01*
X0038700Y0010167D02*
X0036466D01*
X0035466Y0015100D02*
Y0010411D01*
X0038700Y0009954D02*
X0036311D01*
X0038700Y0012506D02*
X0034118D01*
X0038700Y0011868D02*
X0036501D01*
X0038700Y0011761D02*
X0036501D01*
X0038700Y0011655D02*
X0036501D01*
X0038700Y0011549D02*
X0036501D01*
X0038700Y0012080D02*
X0034118D01*
X0036317Y0015100D02*
Y0011875D01*
X0036210Y0015100D02*
Y0011875D01*
X0036104Y0015100D02*
Y0011875D01*
X0035998Y0015100D02*
Y0011875D01*
X0035891Y0015100D02*
Y0011875D01*
X0035785Y0015100D02*
Y0011875D01*
X0035679Y0015100D02*
Y0011875D01*
X0020584Y0015100D02*
Y0012334D01*
X0038700Y0011443D02*
X0036501D01*
X0038700Y0011336D02*
X0036501D01*
X0038700Y0011230D02*
X0036501D01*
X0038700Y0011124D02*
X0036501D01*
X0038700Y0011017D02*
X0036501D01*
X0038700Y0007084D02*
X0036424D01*
X0038700Y0007828D02*
X0036198D01*
X0000935Y0007935D02*
X0000600D01*
X0038700Y0007616D02*
X0036432D01*
X0038700Y0007509D02*
X0036478D01*
X0038700Y0007403D02*
X0036499D01*
X0038700Y0007297D02*
X0036498D01*
X0038700Y0007191D02*
X0036474D01*
X0036501Y0007837D02*
X0036177D01*
X0036423D02*
Y0007630D01*
X0036317Y0007837D02*
Y0007753D01*
X0036210Y0007837D02*
Y0007822D01*
X0035679Y0007837D02*
Y0007777D01*
X0035572Y0007837D02*
Y0007675D01*
Y0010038D02*
Y0008875D01*
X0038700Y0006978D02*
X0036338D01*
X0038700Y0009848D02*
X0036088D01*
X0038700Y0008785D02*
X0036501D01*
X0038700Y0008679D02*
X0036501D01*
X0038700Y0008572D02*
X0036501D01*
X0038700Y0008466D02*
X0036501D01*
X0038700Y0008360D02*
X0036501D01*
X0038700Y0008254D02*
X0036501D01*
X0038700Y0008147D02*
X0036501D01*
X0038700Y0008041D02*
X0036501D01*
X0017395Y0013155D02*
Y0012336D01*
X0036423Y0010082D02*
Y0008875D01*
X0036317Y0009959D02*
Y0008875D01*
X0036210Y0009890D02*
Y0008875D01*
X0036104Y0009852D02*
Y0008875D01*
X0035998Y0009837D02*
Y0008875D01*
X0035891Y0009845D02*
Y0008875D01*
X0035785Y0009876D02*
Y0008875D01*
X0002481Y0002513D02*
X0002076D01*
X0002481Y0002407D02*
X0002322D01*
X0002481Y0002301D02*
X0002423D01*
X0002481Y0001769D02*
X0002465D01*
X0002481Y0001663D02*
X0002395D01*
X0002481Y0001557D02*
X0002270D01*
X0002620Y0003981D02*
Y0002519D01*
X0002407Y0003981D02*
Y0002322D01*
X0002301Y0003981D02*
Y0002423D01*
X0002194Y0003981D02*
Y0002481D01*
X0002031Y0005277D02*
X0000600D01*
X0000965Y0010805D02*
X0000600D01*
X0002481Y0002519D02*
Y0002195D01*
X0000952Y0009848D02*
X0000600D01*
X0001180Y0009529D02*
X0000600D01*
X0000932Y0008041D02*
X0000600D01*
X0004481Y0002513D02*
X0003519D01*
X0004481Y0002407D02*
X0003519D01*
X0004481Y0002301D02*
X0003519D01*
X0004481Y0002194D02*
X0003519D01*
X0004481Y0002088D02*
X0003519D01*
X0004481Y0001982D02*
X0003519D01*
X0004481Y0001876D02*
X0003519D01*
X0004481Y0001769D02*
X0003519D01*
X0004481Y0001663D02*
X0003519D01*
X0004481Y0001557D02*
X0003519D01*
X0003789Y0011407D02*
Y0000600D01*
X0003683Y0011407D02*
Y0000600D01*
X0003470Y0011407D02*
Y0002519D01*
X0002751Y0011549D02*
X0002069D01*
X0003364Y0011407D02*
Y0002519D01*
X0001981Y0004427D02*
X0000600D01*
X0002939Y0003981D02*
Y0002519D01*
X0002832Y0003981D02*
Y0002519D01*
X0002726Y0003981D02*
Y0002519D01*
X0002088Y0003981D02*
Y0002511D01*
X0008679Y0001592D02*
Y0000600D01*
X0007481Y0002407D02*
X0006322D01*
X0007481Y0001876D02*
X0006504D01*
X0007481Y0001769D02*
X0006465D01*
X0007481Y0001663D02*
X0006395D01*
X0005519Y0002519D02*
Y0002195D01*
X0006765Y0011407D02*
Y0000600D01*
X0006659Y0011407D02*
Y0000600D01*
X0006446Y0011407D02*
Y0002265D01*
X0006340Y0011407D02*
Y0002392D01*
X0004931Y0014128D02*
Y0013931D01*
X0006234Y0011407D02*
Y0002463D01*
X0006128Y0011407D02*
Y0002503D01*
X0006021Y0011407D02*
Y0002519D01*
X0005915Y0011407D02*
Y0002512D01*
X0005809Y0011407D02*
Y0002482D01*
X0004485Y0007935D02*
X0002065D01*
X0005924Y0002513D02*
X0005519D01*
X0005678Y0002407D02*
X0005519D01*
X0005577Y0002301D02*
X0005519D01*
X0007481D02*
X0006423D01*
X0007481Y0002194D02*
X0006481D01*
X0007481Y0002088D02*
X0006511D01*
X0007481Y0001982D02*
X0006519D01*
X0005535Y0001769D02*
X0005519D01*
X0005605Y0001663D02*
X0005519D01*
X0005383Y0007650D02*
Y0002519D01*
X0005277Y0007561D02*
Y0002519D01*
X0005171Y0007510D02*
Y0002519D01*
X0004958Y0007483D02*
Y0002519D01*
X0004852Y0007503D02*
Y0002519D01*
X0004746Y0007548D02*
Y0002519D01*
X0019694Y0014419D02*
X0019156D01*
X0019368Y0008507D02*
X0019557Y0008318D01*
X0011432Y0010380D02*
X0001924D01*
X0019202Y0015100D02*
Y0014372D01*
X0000934Y0010061D02*
X0000600D01*
X0017608Y0012942D02*
Y0009818D01*
X0018457Y0011655D02*
X0017388D01*
X0017714Y0009182D02*
Y0007218D01*
X0018151Y0012399D02*
X0017332D01*
X0018246Y0015100D02*
Y0014793D01*
X0016970Y0013580D02*
Y0012518D01*
X0016864Y0013686D02*
Y0012501D01*
X0017289Y0013261D02*
Y0012431D01*
X0017519Y0011519D02*
X0017195D01*
X0035679Y0009935D02*
Y0008875D01*
X0025899Y0005632D02*
Y0000600D01*
X0018457Y0011443D02*
X0017519D01*
X0007616Y0001481D02*
Y0000600D01*
X0018457Y0011230D02*
X0017519D01*
X0000931Y0011761D02*
X0000600D01*
X0017502Y0011867D02*
Y0011519D01*
X0017395Y0011664D02*
Y0011519D01*
X0017289Y0011569D02*
Y0011519D01*
X0018045Y0012506D02*
X0017118D01*
X0017183Y0013367D02*
Y0012486D01*
X0017076Y0013474D02*
Y0012513D01*
X0016757Y0011541D02*
Y0011519D01*
X0016651Y0011616D02*
Y0011519D01*
X0035466Y0010301D02*
Y0007411D01*
X0013367Y0004002D02*
X0011633D01*
X0013164Y0003895D02*
X0011836D01*
X0030274Y0006659D02*
X0030052D01*
X0012399Y0009168D02*
Y0000600D01*
X0012293Y0007486D02*
Y0000600D01*
X0012187Y0007308D02*
Y0000600D01*
X0011868Y0007192D02*
Y0003866D01*
X0010498Y0006234D02*
X0000600D01*
X0011443Y0006215D02*
Y0004016D01*
X0011336Y0006067D02*
Y0003992D01*
X0011230Y0005988D02*
Y0003943D01*
X0011124Y0005942D02*
Y0003857D01*
X0013041Y0003257D02*
X0011959D01*
X0013116Y0003151D02*
X0011884D01*
X0013250Y0003045D02*
X0011750D01*
X0011019Y0004019D02*
Y0003695D01*
X0011017Y0005922D02*
Y0003691D01*
X0010911Y0005924D02*
Y0004019D01*
X0010805Y0005949D02*
Y0004019D01*
X0010698Y0006000D02*
Y0004019D01*
X0010592Y0006088D02*
Y0004019D01*
Y0011407D02*
Y0006791D01*
X0010486Y0011407D02*
Y0006615D01*
X0010380Y0011407D02*
Y0004019D01*
X0011367Y0004002D02*
X0011019D01*
X0011164Y0003895D02*
X0011019D01*
X0011069Y0003789D02*
X0011019D01*
X0013014Y0003683D02*
X0011986D01*
X0012987Y0003576D02*
X0012013D01*
X0013069Y0003789D02*
X0011931D01*
X0011124Y0003143D02*
Y0000600D01*
X0011041Y0003257D02*
X0011019D01*
X0011116Y0003151D02*
X0011019D01*
X0013981Y0004002D02*
X0013633D01*
X0013981Y0003895D02*
X0013836D01*
X0013994Y0005921D02*
Y0004019D01*
X0013887Y0005928D02*
Y0003845D01*
X0013781Y0005958D02*
Y0003936D01*
X0013675Y0006016D02*
Y0003989D01*
X0013569Y0006116D02*
Y0004014D01*
Y0007457D02*
Y0006763D01*
X0014525Y0006500D02*
Y0004019D01*
X0013462Y0007285D02*
Y0006524D01*
X0018764Y0004214D02*
X0016268D01*
X0013981Y0003257D02*
X0013959D01*
X0013981Y0003151D02*
X0013884D01*
X0013981Y0003045D02*
X0013750D01*
X0013981Y0004019D02*
Y0003695D01*
X0015588Y0003337D02*
Y0000600D01*
X0015282Y0004214D02*
X0003019D01*
X0018445Y0003895D02*
X0016355D01*
X0015282Y0003789D02*
X0015019D01*
X0016757Y0006282D02*
Y0003868D01*
X0015296Y0003683D02*
X0015019D01*
X0015269Y0005756D02*
Y0000600D01*
X0014121Y0009529D02*
X0013953D01*
X0030895Y0014282D02*
Y0013955D01*
X0014844Y0006181D02*
Y0004019D01*
X0014738Y0006287D02*
Y0004019D01*
X0010465Y0006340D02*
X0000600D01*
X0014419Y0006172D02*
Y0004019D01*
X0014313Y0006046D02*
Y0004019D01*
X0014206Y0005975D02*
Y0004019D01*
X0034403Y0002751D02*
Y0002338D01*
X0016120Y0002908D02*
Y0000600D01*
X0015668Y0003257D02*
X0015019D01*
X0017519Y0007981D02*
X0017195D01*
X0017502D02*
Y0007633D01*
X0017395Y0007981D02*
Y0007836D01*
X0017289Y0007981D02*
Y0007931D01*
X0016757Y0007981D02*
Y0007959D01*
X0016651Y0007981D02*
Y0007884D01*
X0016545Y0007981D02*
Y0007749D01*
X0028936Y0006659D02*
X0025391D01*
X0019014Y0004463D02*
X0018418Y0003868D01*
X0019202Y0007773D02*
Y0007218D01*
X0019147Y0007828D02*
X0017402D01*
X0019651Y0007616D02*
X0017506D01*
X0025123Y0007403D02*
X0017510D01*
X0025160Y0007297D02*
X0017478D01*
X0004514Y0009317D02*
X0001973D01*
X0018543Y0009182D02*
X0016000D01*
X0017608D02*
Y0007218D01*
X0017502Y0009182D02*
Y0009019D01*
X0019202Y0009682D02*
Y0009422D01*
X0017289Y0009182D02*
Y0009019D01*
X0017183Y0009182D02*
Y0009019D01*
X0017076Y0009182D02*
Y0009019D01*
X0016970Y0009182D02*
Y0009019D01*
X0016864Y0009182D02*
Y0009019D01*
X0016757Y0009182D02*
Y0009019D01*
X0033128Y0006977D02*
Y0000600D01*
X0022582Y0009635D02*
X0020369D01*
X0018732Y0008466D02*
X0017519D01*
X0018732Y0008785D02*
X0017519D01*
X0018883Y0008092D02*
Y0007218D01*
X0018732Y0008572D02*
X0017519D01*
X0001030Y0008679D02*
X0000600D01*
X0013641Y0012859D02*
X0013930Y0012570D01*
X0014219Y0012281D02*
X0013930Y0012570D01*
X0013641Y0012281D02*
X0013930Y0012570D01*
X0014219Y0012859D02*
X0013930Y0012570D01*
X0013641Y0012859D02*
X0013930Y0012570D01*
X0014219Y0012281D02*
X0013930Y0012570D01*
X0013641Y0012281D02*
X0013930Y0012570D01*
X0014219Y0012859D02*
X0013930Y0012570D01*
X0012811Y0007764D02*
X0013100Y0007475D01*
X0013389Y0007186D02*
X0013100Y0007475D01*
X0012811Y0007186D02*
X0013100Y0007475D01*
X0014089Y0008861D02*
X0013800Y0009150D01*
X0019451Y0006128D02*
X0016258D01*
X0014089Y0009439D02*
X0013800Y0009150D01*
X0029158Y0011042D02*
X0029447Y0010753D01*
X0029736Y0010464D02*
X0029447Y0010753D01*
X0029158Y0010464D02*
X0029447Y0010753D01*
X0029736Y0011042D02*
X0029447Y0010753D01*
X0030961Y0007289D02*
X0031250Y0007000D01*
X0031539Y0006711D02*
X0031250Y0007000D01*
X0030961Y0006711D02*
X0031250Y0007000D01*
X0031539Y0007289D02*
X0031250Y0007000D01*
X0030961Y0007289D02*
X0031250Y0007000D01*
X0031539Y0006711D02*
X0031250Y0007000D01*
X0030961Y0006711D02*
X0031250Y0007000D01*
X0031539Y0007289D02*
X0031250Y0007000D01*
X0030394Y0004533D02*
X0024384D01*
X0035589Y0004061D02*
X0035300Y0004350D01*
X0035011Y0004061D02*
X0035300Y0004350D01*
X0035589Y0004639D02*
X0035300Y0004350D01*
X0014089Y0008861D02*
X0013800Y0009150D01*
X0014089Y0009439D02*
X0013800Y0009150D01*
X0027919Y0015100D02*
Y0014918D01*
X0027813Y0015100D02*
Y0014918D01*
X0027706Y0015100D02*
Y0014918D01*
X0027600Y0015100D02*
Y0014918D01*
X0027494Y0015100D02*
Y0014918D01*
X0027387Y0015100D02*
Y0014918D01*
X0027281Y0015100D02*
Y0014918D01*
X0027175Y0015100D02*
Y0014918D01*
X0027069Y0015100D02*
Y0014918D01*
X0026962Y0015100D02*
Y0014918D01*
X0026856Y0015100D02*
Y0014918D01*
X0026750Y0015100D02*
Y0014918D01*
X0026643Y0015100D02*
Y0014918D01*
X0026537Y0015100D02*
Y0014918D01*
X0024517Y0015100D02*
Y0014517D01*
X0026324Y0015100D02*
Y0014918D01*
X0026218Y0015100D02*
Y0014918D01*
X0026112Y0015100D02*
Y0014918D01*
X0026006Y0015100D02*
Y0014918D01*
X0033340Y0015100D02*
Y0014886D01*
X0025474Y0015100D02*
Y0014918D01*
X0025368Y0015100D02*
Y0014918D01*
X0025261Y0015100D02*
Y0014918D01*
X0025155Y0015100D02*
Y0014918D01*
X0025049Y0015100D02*
Y0014918D01*
X0024943Y0015100D02*
Y0014899D01*
X0033234Y0015100D02*
Y0014916D01*
X0038700Y0014313D02*
X0033937D01*
X0038700Y0014844D02*
X0033404D01*
X0016481Y0011124D02*
X0015918D01*
X0015057Y0015100D02*
Y0014793D01*
X0014631Y0011407D02*
Y0010368D01*
X0013887Y0011407D02*
Y0010518D01*
X0013781Y0011407D02*
Y0010518D01*
X0011655Y0009817D02*
Y0007928D01*
X0012506Y0011407D02*
Y0011160D01*
X0012718Y0011407D02*
Y0010968D01*
X0015282Y0010592D02*
X0012718D01*
X0012187Y0011407D02*
Y0011153D01*
X0015282Y0010698D02*
X0012756D01*
X0011868Y0011407D02*
Y0011132D01*
X0011761Y0011407D02*
Y0011129D01*
X0016481Y0010911D02*
X0015918D01*
X0012399Y0011407D02*
Y0011187D01*
X0013143Y0007068D02*
Y0003877D01*
X0015282Y0010486D02*
X0014490D01*
X0015282Y0010380D02*
X0014620D01*
X0015282Y0010273D02*
X0014727D01*
X0015282Y0010167D02*
X0014833D01*
X0013994Y0011407D02*
Y0010518D01*
X0014844Y0011407D02*
Y0010156D01*
X0014738Y0011407D02*
Y0010262D01*
X0014682Y0008968D02*
Y0008100D01*
X0012718Y0010592D02*
Y0010518D01*
X0014525Y0011407D02*
Y0010466D01*
X0014419Y0011407D02*
Y0010511D01*
X0012482Y0008785D02*
X0002027D01*
X0016481Y0008572D02*
X0015568D01*
X0016481Y0008360D02*
X0015640D01*
X0016481Y0008254D02*
X0015746D01*
X0016481Y0008147D02*
X0015853D01*
X0017502Y0010481D02*
Y0009818D01*
X0016439Y0009182D02*
Y0007561D01*
X0016226Y0009182D02*
Y0007774D01*
X0015282Y0011268D02*
Y0009900D01*
X0016545Y0013807D02*
Y0012250D01*
Y0009182D02*
Y0009019D01*
X0016481Y0008679D02*
X0015568D01*
X0016013Y0009182D02*
Y0007986D01*
X0023218Y0011618D02*
Y0009350D01*
X0023348Y0011748D02*
Y0007218D01*
X0023626Y0008360D02*
X0022360D01*
X0022582Y0009482D02*
X0021418Y0008318D01*
X0023029Y0009029D02*
Y0007218D01*
X0022923Y0008923D02*
Y0007218D01*
X0022817Y0008817D02*
Y0007218D01*
X0022710Y0008710D02*
Y0007218D01*
X0022604Y0008604D02*
Y0007218D01*
X0022391Y0008391D02*
Y0007218D01*
X0024305Y0007580D02*
Y0007218D01*
X0024198Y0007520D02*
Y0007218D01*
X0023773Y0007533D02*
Y0007218D01*
X0022179Y0008179D02*
Y0007218D01*
X0022072Y0008073D02*
Y0007218D01*
X0021966Y0007966D02*
Y0007218D01*
X0021860Y0007860D02*
Y0007218D01*
X0021754Y0007756D02*
Y0007218D01*
X0021541Y0007682D02*
Y0007218D01*
X0021435Y0007682D02*
Y0007218D01*
X0021328Y0007682D02*
Y0007218D01*
X0021222Y0007682D02*
Y0007218D01*
X0021116Y0007682D02*
Y0007218D01*
X0021009Y0007682D02*
Y0007218D01*
X0020797Y0007682D02*
Y0007218D01*
X0020584Y0007682D02*
Y0007218D01*
X0020372Y0007638D02*
Y0007218D01*
X0020265Y0007554D02*
Y0007218D01*
X0018732Y0008993D02*
Y0008375D01*
X0018826Y0008149D02*
X0019200Y0007775D01*
X0019415Y0007682D02*
Y0007218D01*
X0019309Y0007704D02*
Y0007218D01*
X0019096Y0007879D02*
Y0007218D01*
X0018990Y0007985D02*
Y0007218D01*
X0018671Y0009054D02*
Y0007218D01*
X0018458Y0009182D02*
Y0007218D01*
X0018352Y0009182D02*
Y0007218D01*
X0018246Y0009182D02*
Y0007218D01*
X0018139Y0009182D02*
Y0007218D01*
X0018876Y0014699D02*
X0019488Y0014087D01*
X0018033Y0009182D02*
Y0007218D01*
X0019567Y0003895D02*
X0019345D01*
X0025328Y0007084D02*
X0024966D01*
X0025554Y0006978D02*
X0025072D01*
X0031002Y0006675D02*
Y0005350D01*
X0021116Y0015100D02*
Y0012866D01*
X0025261Y0012382D02*
Y0012103D01*
X0025223Y0007191D02*
X0024829D01*
X0026324Y0012382D02*
Y0006618D01*
X0028982Y0012382D02*
Y0006681D01*
X0028876Y0012382D02*
Y0006619D01*
X0028769Y0012382D02*
Y0006618D01*
X0028663Y0012382D02*
Y0006618D01*
X0028557Y0012382D02*
Y0006618D01*
X0028450Y0012382D02*
Y0006618D01*
X0028344Y0012382D02*
Y0006618D01*
X0028238Y0012382D02*
Y0006618D01*
X0028131Y0012382D02*
Y0006618D01*
X0028025Y0012382D02*
Y0006618D01*
X0027919Y0012382D02*
Y0006618D01*
X0027813Y0012382D02*
Y0006618D01*
X0027706Y0012382D02*
Y0006618D01*
X0027600Y0012382D02*
Y0006618D01*
X0027494Y0012382D02*
Y0006618D01*
X0027387Y0012382D02*
Y0006618D01*
X0027281Y0012382D02*
Y0006618D01*
X0027175Y0012382D02*
Y0006618D01*
X0027069Y0012382D02*
Y0006618D01*
X0026962Y0012382D02*
Y0006618D01*
X0026856Y0012382D02*
Y0006618D01*
X0026750Y0012382D02*
Y0006618D01*
X0026643Y0012382D02*
Y0006618D01*
X0026218Y0007357D02*
Y0006618D01*
X0026112Y0007166D02*
Y0006618D01*
X0026006Y0007069D02*
Y0006618D01*
X0025899Y0007010D02*
Y0006618D01*
X0025793Y0006976D02*
Y0006618D01*
X0025687Y0006965D02*
Y0006618D01*
X0025580Y0006973D02*
Y0006618D01*
X0025474Y0007002D02*
Y0006618D01*
X0029939Y0005940D02*
Y0000600D01*
X0020903Y0007682D02*
Y0007218D01*
X0030895Y0006796D02*
Y0005387D01*
X0031024Y0006659D02*
X0030726D01*
X0029348D02*
X0029328D01*
X0038700Y0006553D02*
X0030096D01*
X0038700Y0006234D02*
X0030047D01*
X0038700Y0006659D02*
X0031476D01*
X0029513Y0010350D02*
Y0006814D01*
X0012806Y0007191D02*
X0000600D01*
X0029041Y0010698D02*
X0026222D01*
X0030364Y0014282D02*
Y0013868D01*
X0035254Y0003944D02*
Y0002189D01*
X0034403Y0004523D02*
Y0002949D01*
X0038700Y0004002D02*
X0035514D01*
X0038700Y0003257D02*
X0034835D01*
X0038700Y0003151D02*
X0035077D01*
X0038700Y0003045D02*
X0035160D01*
X0038700Y0002939D02*
X0035199D01*
X0038700Y0002832D02*
X0035209D01*
X0038700Y0002726D02*
X0035190D01*
X0038700Y0002620D02*
X0035138D01*
X0035147Y0003971D02*
Y0003066D01*
X0034616Y0004389D02*
Y0003215D01*
X0034509Y0004438D02*
Y0003138D01*
X0013687Y0006872D02*
X0011262D01*
X0013570Y0006765D02*
X0011378D01*
X0013504Y0006659D02*
X0011445D01*
X0013468Y0006553D02*
X0011481D01*
X0013455Y0006446D02*
X0011493D01*
X0013465Y0006340D02*
X0011484D01*
X0013498Y0006234D02*
X0011451D01*
X0013560Y0006128D02*
X0011389D01*
X0011761Y0007215D02*
Y0003948D01*
X0015282Y0011124D02*
X0012577D01*
X0011549Y0011407D02*
Y0011027D01*
X0011336Y0011407D02*
Y0006812D01*
X0011230Y0011407D02*
Y0006891D01*
X0011124Y0011407D02*
Y0006937D01*
X0011017Y0011407D02*
Y0006957D01*
X0010911Y0011407D02*
Y0006955D01*
X0010805Y0011407D02*
Y0006930D01*
X0010698Y0011407D02*
Y0006879D01*
X0013667Y0006021D02*
X0011282D01*
X0015269Y0011281D02*
Y0009731D01*
X0021754Y0015100D02*
Y0013503D01*
X0015778Y0006872D02*
X0015578D01*
X0015885Y0006765D02*
X0015684D01*
X0014579Y0006446D02*
X0014493D01*
X0014685Y0006340D02*
X0014484D01*
X0014791Y0006234D02*
X0014451D01*
X0014631Y0006394D02*
Y0004019D01*
X0014898Y0006128D02*
X0014389D01*
X0024943Y0014043D02*
Y0013868D01*
X0014206Y0009444D02*
Y0009197D01*
X0014822Y0007828D02*
X0014621D01*
X0014419Y0009231D02*
Y0008031D01*
X0013994Y0007031D02*
Y0006958D01*
X0013887Y0007138D02*
Y0006951D01*
X0013781Y0007244D02*
Y0006921D01*
X0013675Y0007350D02*
Y0006863D01*
X0012718Y0007328D02*
Y0000600D01*
X0014546Y0009104D02*
X0014206D01*
X0035767Y0007828D02*
X0033698D01*
X0035614Y0007722D02*
X0033850D01*
X0035533Y0007616D02*
X0033932D01*
X0035486Y0007509D02*
X0033978D01*
X0035465Y0007403D02*
X0033999D01*
X0035467Y0007297D02*
X0033998D01*
X0035490Y0007191D02*
X0033974D01*
X0035540Y0007084D02*
X0033924D01*
X0035627Y0006978D02*
X0033838D01*
X0033978Y0010202D02*
Y0007510D01*
X0033872Y0010013D02*
Y0007699D01*
X0033765Y0009921D02*
Y0007791D01*
X0033659Y0009868D02*
Y0007844D01*
X0033553Y0009842D02*
Y0007870D01*
X0033446Y0009838D02*
Y0007874D01*
X0033340Y0009857D02*
Y0007855D01*
X0033234Y0009900D02*
Y0007812D01*
X0033128Y0009977D02*
Y0007735D01*
X0033021Y0010118D02*
Y0007595D01*
X0035796Y0006872D02*
X0033669D01*
X0035721Y0010805D02*
X0033743D01*
X0035592Y0010698D02*
X0033872D01*
X0034191Y0011528D02*
Y0000600D01*
X0033538Y0011336D02*
X0026246D01*
X0033482Y0012914D02*
X0032722D01*
X0033765Y0011242D02*
Y0010791D01*
X0033659Y0011266D02*
Y0010844D01*
X0033553Y0011324D02*
Y0010870D01*
X0033340Y0012914D02*
Y0010855D01*
X0033234Y0012914D02*
Y0010812D01*
X0033128Y0012914D02*
Y0010735D01*
X0033021Y0012914D02*
Y0010595D01*
X0035520Y0010592D02*
X0033945D01*
X0035480Y0010486D02*
X0033985D01*
X0035464Y0010380D02*
X0034001D01*
X0035470Y0010273D02*
X0033995D01*
X0035499Y0010167D02*
X0033966D01*
X0035556Y0010061D02*
X0033909D01*
X0035654Y0009954D02*
X0033811D01*
X0035876Y0009848D02*
X0033588D01*
X0021966Y0015100D02*
Y0013716D01*
X0023561Y0015100D02*
Y0014276D01*
X0020372Y0015100D02*
Y0014362D01*
X0020265Y0015100D02*
Y0014446D01*
X0020159Y0015100D02*
Y0014494D01*
X0020053Y0015100D02*
Y0014516D01*
X0019946Y0015100D02*
Y0014516D01*
X0019840Y0015100D02*
Y0014494D01*
X0023694Y0014419D02*
X0020306D01*
X0023586Y0014313D02*
X0020414D01*
X0018033Y0015100D02*
Y0014793D01*
X0014950Y0015100D02*
Y0014793D01*
X0023524Y0014206D02*
X0020476D01*
X0023491Y0014100D02*
X0020509D01*
X0023481Y0013994D02*
X0020519D01*
X0023493Y0013887D02*
X0020507D01*
X0021712Y0013462D02*
X0019618D01*
X0013622Y0007403D02*
X0013503D01*
X0024836Y0012382D02*
Y0007187D01*
X0025474Y0012382D02*
Y0012103D01*
X0024624Y0015100D02*
Y0014624D01*
X0024411Y0015100D02*
Y0014411D01*
X0024305Y0015100D02*
Y0014420D01*
X0024198Y0015100D02*
Y0014480D01*
X0024092Y0015100D02*
Y0014511D01*
X0023986Y0015100D02*
Y0014519D01*
X0023880Y0015100D02*
Y0014505D01*
X0023773Y0015100D02*
Y0014467D01*
X0023667Y0015100D02*
Y0014398D01*
X0026431Y0015100D02*
Y0014918D01*
X0025687Y0015100D02*
Y0014918D01*
X0033144Y0014206D02*
X0025106D01*
X0033250Y0014100D02*
X0025000D01*
X0012385Y0012187D02*
X0009414D01*
X0012133Y0011124D02*
X0011917D01*
X0011896Y0009529D02*
X0009518D01*
X0018671Y0015100D02*
Y0014792D01*
X0017513Y0013037D02*
X0014735D01*
X0012424Y0012807D02*
X0009419D01*
X0009742Y0011407D02*
Y0000600D01*
X0015275Y0012043D02*
X0009246D01*
X0012283Y0012612D02*
X0009507D01*
X0014100Y0012198D02*
Y0012043D01*
X0012583Y0012080D02*
X0009305D01*
X0012612Y0012075D02*
Y0012043D01*
X0025108Y0011549D02*
X0024257D01*
X0029939Y0010388D02*
Y0006782D01*
X0014313Y0015100D02*
Y0014793D01*
X0025108Y0012080D02*
X0024513D01*
X0025108Y0011974D02*
X0024518D01*
X0025108Y0011868D02*
X0024502D01*
X0025108Y0011761D02*
X0024461D01*
X0025108Y0011655D02*
X0024388D01*
X0017502Y0015100D02*
Y0014793D01*
X0024836Y0015100D02*
Y0014836D01*
X0024419Y0014419D02*
X0024306D01*
X0014206Y0015100D02*
Y0014793D01*
X0033376Y0009848D02*
X0026151D01*
X0020568Y0012318D02*
X0020410D01*
X0020372Y0013638D02*
Y0012362D01*
X0020265Y0013554D02*
Y0012446D01*
X0020159Y0013506D02*
Y0012494D01*
X0020053Y0013484D02*
Y0012516D01*
X0019946Y0013484D02*
Y0012516D01*
X0019840Y0013506D02*
Y0012494D01*
X0002182Y0012293D02*
X0002069D01*
X0014738Y0015100D02*
Y0014793D01*
X0020691Y0015100D02*
Y0012440D01*
X0020478Y0013798D02*
Y0012318D01*
X0020649Y0012399D02*
X0020332D01*
X0025110Y0010486D02*
X0024183D01*
X0025129Y0010380D02*
X0024354D01*
X0025171Y0010273D02*
X0024441D01*
X0025242Y0010167D02*
X0024491D01*
X0025361Y0010061D02*
X0024515D01*
X0025294Y0009954D02*
X0024517D01*
X0025203Y0009848D02*
X0024496D01*
X0025148Y0009742D02*
X0024450D01*
X0024517Y0011958D02*
Y0010042D01*
X0024411Y0011683D02*
Y0010317D01*
X0024305Y0011580D02*
Y0010420D01*
X0024198Y0011520D02*
Y0010480D01*
X0024092Y0011489D02*
Y0010511D01*
X0023986Y0011481D02*
Y0010519D01*
X0023880Y0011495D02*
Y0010505D01*
X0020797Y0015100D02*
Y0012547D01*
X0020691Y0007682D02*
Y0007218D01*
X0022582Y0010592D02*
X0021392D01*
X0018458Y0010395D02*
Y0009818D01*
X0022582Y0010273D02*
X0021073D01*
X0022584Y0011784D02*
X0020576Y0009776D01*
X0022582Y0010380D02*
X0021179D01*
X0022582Y0010167D02*
X0020967D01*
X0022025Y0013775D02*
X0020568Y0012318D01*
X0023561Y0009724D02*
Y0008276D01*
X0018727Y0008998D02*
X0017519D01*
X0025273Y0007935D02*
X0024515D01*
X0025112Y0008466D02*
X0024228D01*
X0025135Y0008360D02*
X0024374D01*
X0025182Y0008254D02*
X0024453D01*
X0025259Y0008147D02*
X0024498D01*
X0025392Y0008041D02*
X0024517D01*
X0022582Y0010061D02*
X0020860D01*
X0024517Y0009958D02*
Y0008042D01*
X0024411Y0009683D02*
Y0008317D01*
X0024305Y0009580D02*
Y0008420D01*
X0024198Y0009520D02*
Y0008480D01*
X0024092Y0009489D02*
Y0008511D01*
X0023986Y0009481D02*
Y0008519D01*
X0023880Y0009495D02*
Y0008505D01*
X0023773Y0009533D02*
Y0008467D01*
X0023667Y0009602D02*
Y0008398D01*
X0025190Y0007828D02*
X0024490D01*
X0025140Y0007722D02*
X0024438D01*
X0019590Y0009682D02*
X0019200D01*
X0021418Y0008318D02*
X0020410D01*
X0021566Y0008466D02*
X0020228D01*
X0018732Y0008679D02*
X0017519D01*
X0023773Y0011533D02*
Y0010467D01*
X0023502Y0008147D02*
X0022147D01*
X0020372Y0009638D02*
Y0008362D01*
X0020265Y0009554D02*
Y0008446D01*
X0020159Y0009506D02*
Y0008494D01*
X0020053Y0009484D02*
Y0008516D01*
X0019628Y0009639D02*
Y0008361D01*
X0020478Y0007682D02*
Y0007218D01*
X0021647Y0007697D02*
Y0007218D01*
X0023651Y0007616D02*
X0020349D01*
X0038700Y0015100D02*
Y0013844D01*
Y0013887D02*
X0038633D01*
X0038655Y0015100D02*
Y0013875D01*
X0038549Y0015100D02*
Y0013924D01*
X0038443Y0015100D02*
Y0013948D01*
X0038336Y0015100D02*
Y0013950D01*
X0038230Y0015100D02*
Y0013929D01*
X0038124Y0015100D02*
Y0013882D01*
X0038017Y0015100D02*
Y0013801D01*
X0029301Y0015100D02*
Y0014918D01*
X0038133Y0013887D02*
X0034633D01*
X0037998Y0013781D02*
X0034768D01*
X0037924Y0013675D02*
X0034842D01*
X0037882Y0013569D02*
X0034884D01*
X0037865Y0013462D02*
X0034901D01*
X0034133Y0013887D02*
X0034118D01*
Y0014000D02*
Y0013879D01*
X0038700Y0013994D02*
X0034118D01*
X0034828Y0015100D02*
Y0013699D01*
X0034722Y0015100D02*
Y0013825D01*
X0034616Y0015100D02*
Y0013896D01*
X0034509Y0015100D02*
Y0013936D01*
X0034403Y0015100D02*
Y0013951D01*
X0034297Y0015100D02*
Y0013944D01*
X0038700Y0011974D02*
X0034118D01*
X0033553Y0015100D02*
Y0014697D01*
X0033765Y0015100D02*
Y0014485D01*
X0038017Y0013064D02*
Y0000600D01*
X0037897Y0013250D02*
X0034869D01*
X0037952Y0013143D02*
X0034814D01*
X0038047Y0013037D02*
X0034719D01*
X0034647Y0005383D02*
X0030910D01*
X0034443Y0005277D02*
X0031114D01*
X0034348Y0005171D02*
X0031209D01*
X0031478Y0013356D02*
X0031310D01*
X0031639Y0006875D02*
Y0000600D01*
X0031533Y0006705D02*
Y0000600D01*
X0031427Y0006631D02*
Y0000600D01*
X0015376Y0015100D02*
Y0014793D01*
X0031214Y0006593D02*
Y0005164D01*
X0031108Y0006616D02*
Y0005283D01*
X0033482Y0012506D02*
X0030610D01*
X0034293Y0005065D02*
X0031264D01*
X0034265Y0004958D02*
X0031292D01*
X0034260Y0004852D02*
X0031297D01*
X0034278Y0004746D02*
X0031279D01*
X0034319Y0004639D02*
X0031238D01*
X0034394Y0004533D02*
X0031163D01*
X0034528Y0004427D02*
X0031029D01*
X0038700Y0006128D02*
X0030017D01*
X0038700Y0005383D02*
X0034910D01*
X0038700Y0005277D02*
X0035114D01*
X0038700Y0004427D02*
X0035702D01*
X0038700Y0005171D02*
X0035209D01*
X0035147Y0015100D02*
Y0005247D01*
X0035041Y0015100D02*
Y0005329D01*
X0034828Y0013166D02*
Y0005398D01*
X0034722Y0013040D02*
Y0005397D01*
X0034616Y0012969D02*
Y0005374D01*
X0034509Y0012929D02*
Y0005325D01*
X0034403Y0012914D02*
Y0005240D01*
X0035254Y0015100D02*
Y0005091D01*
X0038700Y0005065D02*
X0035264D01*
X0038700Y0004958D02*
X0035292D01*
X0034892Y0004320D02*
X0024469D01*
X0038700D02*
X0035708D01*
X0038700Y0004746D02*
X0035404D01*
X0034484Y0002407D02*
X0031073D01*
X0034371Y0002301D02*
X0031186D01*
X0034306Y0002194D02*
X0031251D01*
X0034271Y0002088D02*
X0031286D01*
X0034259Y0001982D02*
X0031298D01*
X0034270Y0001876D02*
X0031287D01*
X0034304Y0001769D02*
X0031253D01*
X0034367Y0001663D02*
X0031190D01*
X0034478Y0001557D02*
X0031080D01*
X0015282Y0005277D02*
X0002969D01*
X0031214Y0004599D02*
Y0002262D01*
X0031108Y0004480D02*
Y0002381D01*
X0031002Y0004413D02*
Y0002448D01*
X0030895Y0004376D02*
Y0002485D01*
X0030789Y0004363D02*
Y0002498D01*
X0030683Y0004371D02*
Y0002490D01*
X0030576Y0004403D02*
Y0002458D01*
X0030470Y0004464D02*
Y0002397D01*
X0038700Y0002513D02*
X0035032D01*
X0038700Y0002407D02*
X0035073D01*
X0038700Y0002301D02*
X0035186D01*
X0038700Y0002194D02*
X0035251D01*
X0038700Y0002088D02*
X0035286D01*
X0038700Y0001982D02*
X0035298D01*
X0038700Y0001876D02*
X0035287D01*
X0038700Y0001769D02*
X0035253D01*
X0038700Y0001663D02*
X0035190D01*
X0015282Y0005383D02*
X0003006D01*
X0035466Y0003976D02*
Y0000600D01*
X0034568Y0002513D02*
X0024472D01*
X0035041Y0002519D02*
Y0002427D01*
Y0004033D02*
Y0003180D01*
X0034828Y0004365D02*
Y0003258D01*
X0034722Y0004366D02*
Y0003251D01*
X0034616Y0002485D02*
Y0002472D01*
X0035147Y0002634D02*
Y0002345D01*
X0008360Y0015100D02*
Y0014747D01*
X0008466Y0011407D02*
Y0002519D01*
X0019491Y0014100D02*
X0019475D01*
X0030683Y0014282D02*
Y0013868D01*
X0008125Y0014525D02*
X0006069D01*
X0018565Y0015100D02*
Y0014793D01*
X0019524Y0014206D02*
X0019368D01*
X0017820Y0015100D02*
Y0014793D01*
X0018990Y0015100D02*
Y0014585D01*
X0024738Y0014738D02*
X0018829D01*
X0007806Y0014206D02*
X0006069D01*
X0017502Y0013048D02*
Y0012133D01*
X0016120Y0009182D02*
Y0007880D01*
X0030100Y0007084D02*
X0026026D01*
X0034403Y0001621D02*
Y0000600D01*
X0014265Y0013037D02*
X0013062D01*
X0016769Y0013781D02*
X0014936D01*
X0016875Y0013675D02*
X0014989D01*
X0016982Y0013569D02*
X0015014D01*
X0017194Y0013356D02*
X0014999D01*
X0014123Y0013143D02*
X0013168D01*
X0014045Y0013250D02*
X0013274D01*
X0010167Y0012807D02*
Y0012043D01*
X0014081Y0013807D02*
X0013832D01*
X0021075Y0012824D02*
X0019618D01*
X0016757Y0013793D02*
Y0012459D01*
X0020372Y0005757D02*
Y0004550D01*
X0020265Y0005658D02*
Y0004656D01*
X0020159Y0005601D02*
Y0004716D01*
X0020053Y0005572D02*
Y0004749D01*
X0019946Y0005566D02*
Y0004757D01*
X0023846Y0004746D02*
X0020067D01*
X0023627Y0004639D02*
X0020286D01*
X0023529Y0004533D02*
X0020384D01*
X0023473Y0004427D02*
X0020440D01*
X0023444Y0004320D02*
X0020469D01*
X0019628Y0005693D02*
Y0004640D01*
X0019096Y0006282D02*
Y0004523D01*
X0023438Y0004214D02*
X0020475D01*
X0023454Y0004108D02*
X0020459D01*
X0023495Y0004002D02*
X0020418D01*
X0023567Y0003895D02*
X0020346D01*
X0023697Y0003789D02*
X0020216D01*
X0015282Y0005065D02*
X0002782D01*
X0015282Y0004958D02*
X0003019D01*
X0030278Y0004746D02*
X0024067D01*
X0030319Y0004639D02*
X0024286D01*
X0024411Y0005813D02*
Y0004489D01*
X0024305Y0005689D02*
Y0004624D01*
X0024198Y0005619D02*
Y0004698D01*
X0024092Y0005580D02*
Y0004740D01*
X0023986Y0005565D02*
Y0004757D01*
X0023880Y0005573D02*
Y0004752D01*
X0023773Y0005603D02*
Y0004724D01*
X0023667Y0005662D02*
Y0004669D01*
X0023561Y0005763D02*
Y0004574D01*
X0023454Y0006013D02*
Y0004369D01*
X0034935Y0004166D02*
Y0003236D01*
X0034914Y0004214D02*
X0024475D01*
X0034970Y0004108D02*
X0024459D01*
X0029301Y0005632D02*
Y0000600D01*
X0002182Y0013250D02*
X0000600D01*
X0020372Y0003927D02*
Y0002803D01*
X0020265Y0003821D02*
Y0002911D01*
X0020159Y0003761D02*
Y0002973D01*
X0020053Y0003728D02*
Y0003006D01*
X0019946Y0003720D02*
Y0003016D01*
X0023680Y0002939D02*
X0020225D01*
X0023557Y0002832D02*
X0020349D01*
X0023487Y0002726D02*
X0020418D01*
X0023448Y0002620D02*
X0020457D01*
X0019547Y0004557D02*
X0019239D01*
X0019628Y0003837D02*
Y0002901D01*
X0023442Y0002407D02*
X0020464D01*
X0023472Y0002301D02*
X0020433D01*
X0023531Y0002194D02*
X0020375D01*
X0023633Y0002088D02*
X0020273D01*
X0023888Y0001982D02*
X0020018D01*
X0015774Y0003151D02*
X0015019D01*
X0034401Y0002939D02*
X0024225D01*
X0034391Y0002832D02*
X0024349D01*
X0034410Y0002726D02*
X0024418D01*
X0034462Y0002620D02*
X0024457D01*
X0015282Y0004533D02*
X0003019D01*
X0024411Y0003988D02*
Y0002740D01*
X0024305Y0003854D02*
Y0002878D01*
X0024198Y0003779D02*
Y0002954D01*
X0024092Y0003738D02*
Y0002997D01*
X0023986Y0003720D02*
Y0003015D01*
X0023880Y0003725D02*
Y0003011D01*
X0023773Y0003753D02*
Y0002984D01*
X0023667Y0003808D02*
Y0002930D01*
X0023561Y0003903D02*
Y0002837D01*
X0030484Y0002407D02*
X0024464D01*
X0030371Y0002301D02*
X0024433D01*
X0030306Y0002194D02*
X0024375D01*
X0022285Y0015100D02*
Y0013868D01*
X0007403Y0011407D02*
Y0000600D01*
X0008605Y0011336D02*
X0005395D01*
X0008535Y0011230D02*
X0005465D01*
X0008496Y0011124D02*
X0005504D01*
X0008481Y0011017D02*
X0005519D01*
X0008489Y0010911D02*
X0005511D01*
X0008519Y0010805D02*
X0005481D01*
X0008578Y0010698D02*
X0005422D01*
X0008678Y0011407D02*
X0005322D01*
X0008679Y0010592D02*
X0005321D01*
X0008929Y0010486D02*
X0005071D01*
X0014682Y0008891D02*
X0014117D01*
X0015163Y0011387D02*
Y0009837D01*
X0007828Y0011407D02*
Y0002519D01*
X0015143Y0011407D02*
X0009322D01*
X0015214Y0011336D02*
X0009395D01*
X0015500Y0011950D02*
X0015824Y0011626D01*
X0014350Y0010518D02*
X0012669D01*
X0011733Y0011124D02*
X0009504D01*
X0011539Y0011017D02*
X0009519D01*
X0011461Y0010911D02*
X0009511D01*
X0011443Y0010001D02*
Y0006664D01*
X0002182Y0012824D02*
X0000600D01*
X0015282Y0011230D02*
X0009465D01*
X0009423Y0011407D02*
Y0011301D01*
X0009317Y0012089D02*
Y0012043D01*
X0009423Y0012199D02*
Y0012043D01*
X0008749Y0009954D02*
X0005251D01*
X0008615Y0009848D02*
X0005385D01*
X0008541Y0009742D02*
X0005459D01*
X0019633Y0002088D02*
X0009511D01*
X0005490Y0010828D02*
Y0009672D01*
X0004929Y0010486D02*
X0001796D01*
X0005277Y0010561D02*
Y0009939D01*
X0005171Y0010510D02*
Y0009990D01*
X0005065Y0010485D02*
Y0010015D01*
X0004958Y0010483D02*
Y0010017D01*
X0004852Y0010503D02*
Y0009997D01*
X0004746Y0010548D02*
Y0009952D01*
X0004639Y0010627D02*
Y0009873D01*
X0008499Y0009635D02*
X0005501D01*
X0008482Y0009529D02*
X0005518D01*
X0008487Y0009423D02*
X0005513D01*
X0008514Y0009317D02*
X0005486D01*
X0008569Y0009210D02*
X0005431D01*
X0008665Y0009104D02*
X0005335D01*
X0008869Y0008998D02*
X0005131D01*
X0011398Y0010273D02*
X0001999D01*
X0011392Y0010167D02*
X0002044D01*
X0011415Y0010061D02*
X0002066D01*
X0004679Y0010592D02*
X0001897D01*
X0009423Y0010699D02*
Y0009801D01*
X0009317Y0010589D02*
Y0009911D01*
X0009210Y0010525D02*
Y0009975D01*
X0009104Y0010491D02*
Y0010008D01*
X0008998Y0010481D02*
Y0010019D01*
X0008891Y0010492D02*
Y0010007D01*
X0008785Y0010528D02*
Y0009972D01*
X0008679Y0010592D02*
Y0009908D01*
X0014950Y0007700D02*
Y0007499D01*
X0012506Y0008555D02*
Y0000600D01*
X0011974Y0007198D02*
Y0003711D01*
X0011802Y0009635D02*
X0009501D01*
X0013549Y0012718D02*
X0013003D01*
X0013523Y0012612D02*
X0013057D01*
X0013526Y0012506D02*
X0013078D01*
X0013037Y0013012D02*
Y0012661D01*
X0012931Y0012906D02*
Y0012795D01*
X0016487Y0012080D02*
X0012757D01*
X0013558Y0012399D02*
X0013071D01*
X0013629Y0012293D02*
X0013034D01*
X0013787Y0012187D02*
X0012955D01*
X0012399Y0012807D02*
Y0012787D01*
X0012293Y0012807D02*
Y0012638D01*
X0011665Y0007935D02*
X0009515D01*
X0011541Y0007403D02*
X0000600D01*
X0013090Y0007935D02*
X0012135D01*
X0012187Y0009443D02*
Y0007892D01*
X0012080Y0009447D02*
Y0007967D01*
X0011974Y0009481D02*
Y0008002D01*
X0011868Y0009554D02*
Y0008008D01*
X0011761Y0009722D02*
Y0007985D01*
X0012293Y0009467D02*
Y0007714D01*
X0011549Y0009877D02*
Y0007810D01*
X0012894Y0007828D02*
X0012239D01*
X0012774Y0007722D02*
X0012290D01*
X0012716Y0007616D02*
X0012309D01*
X0012692Y0007509D02*
X0012299D01*
X0012697Y0007403D02*
X0012259D01*
X0029832Y0012382D02*
Y0011101D01*
X0030470Y0012355D02*
Y0010885D01*
X0030364Y0012307D02*
Y0011065D01*
X0030257Y0012291D02*
Y0011140D01*
X0030151Y0012303D02*
Y0011175D01*
X0029939Y0012382D02*
Y0011158D01*
X0033020Y0010592D02*
X0030443D01*
X0029786Y0010486D02*
X0029756D01*
X0031181Y0007403D02*
X0030569D01*
X0030969Y0007297D02*
X0030781D01*
X0030888Y0007191D02*
X0030862D01*
X0030789Y0012784D02*
Y0007289D01*
X0030683Y0012748D02*
Y0007366D01*
X0033092Y0010698D02*
X0030479D01*
X0030045Y0012346D02*
Y0011181D01*
X0030576Y0012453D02*
Y0007402D01*
X0030092Y0006978D02*
X0025800D01*
X0030915Y0006765D02*
X0030835D01*
X0013675Y0013650D02*
Y0012890D01*
X0017832Y0012718D02*
X0014311D01*
X0017938Y0012612D02*
X0014337D01*
X0030165Y0006765D02*
X0029960D01*
X0016882Y0012506D02*
X0014334D01*
X0013569Y0013544D02*
Y0012761D01*
X0016668Y0012399D02*
X0014302D01*
X0016572Y0012293D02*
X0014231D01*
X0017619Y0012931D02*
X0014123D01*
X0013994Y0013386D02*
Y0012974D01*
X0013887Y0013807D02*
Y0012977D01*
X0013737Y0012931D02*
X0012956D01*
X0017726Y0012824D02*
X0014250D01*
X0014313Y0013016D02*
Y0012715D01*
X0013781Y0013756D02*
Y0012951D01*
X0029407Y0012382D02*
Y0011160D01*
X0029726Y0012382D02*
Y0011052D01*
X0029513Y0012382D02*
Y0011157D01*
X0029620Y0012382D02*
Y0011124D01*
X0029301Y0012382D02*
Y0011135D01*
X0001212Y0007509D02*
X0000600D01*
X0035463Y0011124D02*
X0030288D01*
X0029866D02*
X0029620D01*
X0035463Y0011017D02*
X0030405D01*
X0035463Y0010911D02*
X0030462D01*
X0029194Y0012382D02*
Y0011075D01*
X0029088Y0012382D02*
Y0010950D01*
X0029832Y0010445D02*
Y0006837D01*
X0030045Y0010365D02*
Y0006670D01*
X0032980Y0010486D02*
X0030368D01*
X0030138Y0007191D02*
X0026131D01*
X0032965Y0007403D02*
X0031319D01*
X0029280Y0010380D02*
X0026225D01*
X0032990Y0007191D02*
X0031612D01*
X0033040Y0007084D02*
X0031650D01*
X0033127Y0006978D02*
X0031658D01*
X0031533Y0013189D02*
Y0007295D01*
X0031427Y0014282D02*
Y0007369D01*
X0031320Y0013377D02*
Y0007403D01*
X0031214Y0013238D02*
Y0007407D01*
X0031108Y0013173D02*
Y0007384D01*
X0031002Y0013043D02*
Y0007325D01*
X0031746Y0012975D02*
Y0000600D01*
X0030112Y0006872D02*
X0025178D01*
X0038700D02*
X0036169D01*
X0034935Y0015100D02*
Y0005376D01*
X0035679Y0006935D02*
Y0004504D01*
X0035572Y0007038D02*
Y0004655D01*
X0035466Y0007301D02*
Y0004724D01*
X0038700Y0004852D02*
X0035297D01*
X0038700Y0005596D02*
X0024145D01*
X0019040Y0007935D02*
X0017284D01*
X0021885Y0008785D02*
X0019368D01*
X0021779Y0008679D02*
X0019368D01*
X0021673Y0008572D02*
X0019368D01*
X0019772Y0008466D02*
X0019409D01*
X0019014Y0009742D02*
X0018882D01*
X0014064Y0013781D02*
X0013806D01*
X0018689Y0010061D02*
X0015918D01*
X0018495Y0010273D02*
X0015918D01*
X0018777Y0009973D02*
Y0009801D01*
X0018671Y0010079D02*
Y0009818D01*
X0018902Y0009848D02*
X0016102D01*
X0018457Y0012093D02*
Y0010425D01*
X0018352Y0012198D02*
Y0009818D01*
X0018246Y0012304D02*
Y0009818D01*
X0018139Y0012411D02*
Y0009818D01*
X0018033Y0012517D02*
Y0009818D01*
X0017927Y0012623D02*
Y0009818D01*
X0017820Y0012730D02*
Y0009818D01*
X0017714Y0012836D02*
Y0009818D01*
X0016226Y0013807D02*
Y0009818D01*
X0015057Y0013807D02*
Y0012043D01*
X0017289Y0010481D02*
Y0009818D01*
X0017183Y0010481D02*
Y0009818D01*
X0017076Y0010481D02*
Y0009818D01*
X0016970Y0010481D02*
Y0009818D01*
X0016864Y0010481D02*
Y0009818D01*
X0019782Y0009529D02*
X0019096D01*
X0018732Y0008360D02*
X0017519D01*
X0016439Y0013807D02*
Y0009818D01*
X0016120Y0013807D02*
Y0009830D01*
X0016481Y0011017D02*
X0015918D01*
X0016481Y0010592D02*
X0015918D01*
X0018457Y0010486D02*
X0015918D01*
X0016545Y0010481D02*
Y0009818D01*
X0015482Y0013807D02*
Y0011967D01*
X0011424Y0010805D02*
X0009481D01*
X0015907Y0013807D02*
Y0011483D01*
X0016332Y0009182D02*
Y0007668D01*
X0016013Y0013807D02*
Y0009936D01*
X0015588Y0013807D02*
Y0011862D01*
X0015694Y0013807D02*
Y0011755D01*
X0015269Y0013807D02*
Y0012043D01*
X0012269Y0012399D02*
X0009509D01*
X0014844Y0013111D02*
Y0012043D01*
X0014738Y0013039D02*
Y0012043D01*
X0014631Y0012998D02*
Y0012043D01*
X0015282Y0011017D02*
X0012688D01*
X0016516Y0012187D02*
X0014073D01*
X0013994Y0012166D02*
Y0012043D01*
X0013887Y0012163D02*
Y0012043D01*
X0013462Y0013437D02*
Y0012043D01*
X0013356Y0013331D02*
Y0012043D01*
X0013250Y0013225D02*
Y0012043D01*
X0013143Y0013118D02*
Y0012043D01*
X0012262Y0012506D02*
X0009519D01*
X0013037Y0012299D02*
Y0012043D01*
X0012931Y0012165D02*
Y0012043D01*
X0014525Y0012982D02*
Y0012043D01*
X0014419Y0012987D02*
Y0012043D01*
X0013675Y0012250D02*
Y0012043D01*
X0013781Y0012189D02*
Y0012043D01*
X0014313Y0012425D02*
Y0012043D01*
X0013832Y0013807D02*
X0012926Y0012901D01*
X0012506Y0012105D02*
Y0012043D01*
X0012399Y0012173D02*
Y0012043D01*
X0012187Y0012807D02*
Y0012043D01*
X0012080Y0012807D02*
Y0012043D01*
X0011974Y0012807D02*
Y0012043D01*
X0011868Y0012807D02*
Y0012043D01*
X0011761Y0012807D02*
Y0012043D01*
X0011655Y0012807D02*
Y0012043D01*
X0011549Y0012807D02*
Y0012043D01*
X0011443Y0012807D02*
Y0012043D01*
X0011336Y0012807D02*
Y0012043D01*
X0011230Y0012807D02*
Y0012043D01*
X0011124Y0012807D02*
Y0012043D01*
X0011017Y0012807D02*
Y0012043D01*
X0010911Y0012807D02*
Y0012043D01*
X0010805Y0012807D02*
Y0012043D01*
X0010698Y0012807D02*
Y0012043D01*
X0010592Y0012807D02*
Y0012043D01*
X0010486Y0012807D02*
Y0012043D01*
X0010380Y0012807D02*
Y0012043D01*
X0010273Y0012807D02*
Y0012043D01*
X0010061Y0012807D02*
Y0012043D01*
X0009954Y0012807D02*
Y0012043D01*
X0009848Y0012807D02*
Y0012043D01*
X0009742Y0012807D02*
Y0012043D01*
X0009635Y0012807D02*
Y0012043D01*
X0009529Y0012807D02*
Y0012043D01*
X0022523Y0009423D02*
X0019202D01*
X0016482Y0011974D02*
X0015473D01*
X0016498Y0011868D02*
X0015582D01*
X0016539Y0011761D02*
X0015688D01*
X0016612Y0011655D02*
X0015795D01*
X0007297Y0015100D02*
Y0013818D01*
X0007191Y0015100D02*
Y0013818D01*
X0007084Y0015100D02*
Y0013818D01*
X0006978Y0015100D02*
Y0013818D01*
X0006872Y0015100D02*
Y0013818D01*
X0006765Y0015100D02*
Y0013818D01*
X0006659Y0015100D02*
Y0013818D01*
X0006553Y0015100D02*
Y0013818D01*
X0006446Y0015100D02*
Y0013818D01*
X0006340Y0015100D02*
Y0013818D01*
X0006234Y0015100D02*
Y0013818D01*
X0006021Y0013931D02*
Y0013818D01*
X0005915Y0013931D02*
Y0013818D01*
X0005809Y0013931D02*
Y0013818D01*
X0005702Y0013931D02*
Y0013818D01*
X0005596Y0013931D02*
Y0013818D01*
X0005277Y0013931D02*
Y0013818D01*
X0005171Y0013931D02*
Y0013818D01*
X0005065Y0013931D02*
Y0013818D01*
X0004958Y0013931D02*
Y0013818D01*
X0004852Y0014053D02*
Y0013923D01*
X0012306Y0012293D02*
X0009476D01*
X0008572Y0015100D02*
Y0014793D01*
X0008147Y0015100D02*
Y0014547D01*
X0008041Y0015100D02*
Y0014441D01*
X0038700Y0014950D02*
X0006069D01*
X0006128Y0015100D02*
Y0013818D01*
X0007722Y0015100D02*
Y0014122D01*
X0007616Y0015100D02*
Y0014016D01*
X0018352Y0015100D02*
Y0014793D01*
X0017927Y0015100D02*
Y0014793D01*
X0018883Y0015100D02*
Y0014691D01*
X0017714Y0015100D02*
Y0014793D01*
X0017608Y0015100D02*
Y0014793D01*
X0019309Y0015100D02*
Y0014266D01*
X0017395Y0015100D02*
Y0014793D01*
X0019628Y0015100D02*
Y0014361D01*
X0018139Y0015100D02*
Y0014793D01*
X0017289Y0015100D02*
Y0014793D01*
X0017183Y0015100D02*
Y0014793D01*
X0017076Y0015100D02*
Y0014793D01*
X0022582Y0011549D02*
X0022349D01*
X0022582Y0011761D02*
X0022561D01*
X0022582Y0011655D02*
X0022455D01*
X0022582Y0011443D02*
X0022242D01*
X0022582Y0011336D02*
X0022136D01*
X0022582Y0011230D02*
X0022030D01*
X0022582Y0011124D02*
X0021923D01*
X0022582Y0011017D02*
X0021817D01*
X0022582Y0010911D02*
X0021711D01*
X0022582Y0010805D02*
X0021605D01*
X0022582Y0010698D02*
X0021498D01*
X0022582Y0010486D02*
X0021286D01*
X0015918Y0010032D02*
X0016132Y0009818D01*
X0019882Y0012506D02*
X0019618D01*
X0010167Y0015100D02*
Y0014793D01*
X0008679Y0015100D02*
Y0014793D01*
X0008891Y0015100D02*
Y0014793D01*
X0008998Y0015100D02*
Y0014793D01*
X0009104Y0015100D02*
Y0014793D01*
X0009210Y0015100D02*
Y0014793D01*
X0009317Y0015100D02*
Y0014793D01*
X0009423Y0015100D02*
Y0014793D01*
X0009529Y0015100D02*
Y0014793D01*
X0009635Y0015100D02*
Y0014793D01*
X0009742Y0015100D02*
Y0014793D01*
X0009848Y0015100D02*
Y0014793D01*
X0009954Y0015100D02*
Y0014793D01*
X0010061Y0015100D02*
Y0014793D01*
X0008254Y0015100D02*
Y0014653D01*
X0010486Y0015100D02*
Y0014793D01*
X0010592Y0015100D02*
Y0014793D01*
X0010698Y0015100D02*
Y0014793D01*
X0010805Y0015100D02*
Y0014793D01*
X0010911Y0015100D02*
Y0014793D01*
X0011017Y0015100D02*
Y0014793D01*
X0011124Y0015100D02*
Y0014793D01*
X0011230Y0015100D02*
Y0014793D01*
X0011336Y0015100D02*
Y0014793D01*
X0011443Y0015100D02*
Y0014793D01*
X0011549Y0015100D02*
Y0014793D01*
X0011655Y0015100D02*
Y0014793D01*
X0011761Y0015100D02*
Y0014793D01*
X0011868Y0015100D02*
Y0014793D01*
X0011974Y0015100D02*
Y0014793D01*
X0012080Y0015100D02*
Y0014793D01*
X0012187Y0015100D02*
Y0014793D01*
X0012293Y0015100D02*
Y0014793D01*
X0012399Y0015100D02*
Y0014793D01*
X0012506Y0015100D02*
Y0014793D01*
X0013994Y0015100D02*
Y0014793D01*
X0014100Y0015100D02*
Y0014793D01*
X0015163Y0015100D02*
Y0014793D01*
X0016743Y0013807D02*
X0018457Y0012093D01*
X0033482Y0012824D02*
X0030854D01*
X0033482Y0012718D02*
X0030659D01*
X0033482Y0012612D02*
X0030649D01*
X0031655Y0013037D02*
X0031000D01*
X0015482Y0015100D02*
Y0014793D01*
X0015588Y0015100D02*
Y0014793D01*
X0015694Y0015100D02*
Y0014793D01*
X0015801Y0015100D02*
Y0014793D01*
X0005490Y0013931D02*
Y0013818D01*
X0020584Y0009784D02*
Y0008318D01*
X0015282Y0010911D02*
X0012742D01*
X0033482Y0012399D02*
X0030527D01*
X0012931Y0015100D02*
Y0014793D01*
X0016226Y0015100D02*
Y0014793D01*
X0016545Y0015100D02*
Y0014793D01*
X0016757Y0015100D02*
Y0014793D01*
X0023743Y0011549D02*
X0023218D01*
X0012612Y0015100D02*
Y0014793D01*
X0023498Y0011868D02*
X0023468D01*
X0025108Y0011443D02*
X0023218D01*
X0025108Y0011336D02*
X0023218D01*
X0025108Y0011230D02*
X0023218D01*
X0025108Y0011124D02*
X0023218D01*
X0025108Y0011017D02*
X0023218D01*
X0025251Y0010911D02*
X0023218D01*
X0023612Y0011655D02*
X0023255D01*
X0025111Y0010592D02*
X0023218D01*
X0023817Y0010486D02*
X0023218D01*
X0023646Y0010380D02*
X0023218D01*
X0023559Y0010273D02*
X0023218D01*
X0023509Y0010167D02*
X0023218D01*
X0022582Y0009529D02*
X0020218D01*
X0025119Y0009423D02*
X0023218D01*
X0025151Y0009317D02*
X0023216D01*
X0025304Y0009104D02*
X0023104D01*
X0025348Y0008998D02*
X0022997D01*
X0025235Y0008891D02*
X0022891D01*
X0025209Y0009210D02*
X0023186D01*
X0023631Y0009635D02*
X0023218D01*
X0025167Y0008785D02*
X0022785D01*
X0025127Y0008679D02*
X0022679D01*
X0025109Y0008572D02*
X0022572D01*
X0023772Y0008466D02*
X0022466D01*
X0023782Y0009529D02*
X0023218D01*
X0013569Y0015100D02*
Y0014793D01*
X0016970Y0015100D02*
Y0014793D01*
X0013462Y0015100D02*
Y0014793D01*
X0013143Y0015100D02*
Y0014793D01*
X0022498Y0011698D02*
Y0009398D01*
X0022391Y0011591D02*
Y0009291D01*
X0022285Y0011485D02*
Y0009185D01*
X0022179Y0011379D02*
Y0009079D01*
X0023483Y0008041D02*
X0022041D01*
X0020478Y0009709D02*
Y0008318D01*
X0021860Y0011060D02*
Y0008760D01*
X0021754Y0010954D02*
Y0008653D01*
X0021647Y0010847D02*
Y0008547D01*
X0021435Y0010635D02*
Y0008335D01*
X0021328Y0010528D02*
Y0008318D01*
X0021222Y0010422D02*
Y0008318D01*
X0021116Y0010316D02*
Y0008318D01*
X0021009Y0010210D02*
Y0008318D01*
X0020903Y0010103D02*
Y0008318D01*
X0014206Y0012268D02*
Y0012043D01*
X0011510Y0007722D02*
X0009438D01*
X0013037Y0007988D02*
Y0007879D01*
X0012931Y0008094D02*
Y0007847D01*
X0012824Y0008201D02*
Y0007777D01*
X0012718Y0008307D02*
Y0007622D01*
X0029194Y0014282D02*
Y0013868D01*
X0029088Y0014282D02*
Y0013868D01*
X0028982Y0014282D02*
Y0013868D01*
X0028876Y0014282D02*
Y0013868D01*
X0028769Y0014282D02*
Y0013868D01*
X0028663Y0014282D02*
Y0013868D01*
X0028557Y0014282D02*
Y0013868D01*
X0028450Y0014282D02*
Y0013868D01*
X0028344Y0014282D02*
Y0013868D01*
X0028238Y0014282D02*
Y0013868D01*
X0028131Y0014282D02*
Y0013868D01*
X0028025Y0014282D02*
Y0013868D01*
X0027919Y0014282D02*
Y0013868D01*
X0027813Y0014282D02*
Y0013868D01*
X0027706Y0014282D02*
Y0013868D01*
X0027600Y0014282D02*
Y0013868D01*
X0027494Y0014282D02*
Y0013868D01*
X0027387Y0014282D02*
Y0013868D01*
X0027281Y0014282D02*
Y0013868D01*
X0027175Y0014282D02*
Y0013868D01*
X0027069Y0014282D02*
Y0013868D01*
X0026962Y0014282D02*
Y0013868D01*
X0026856Y0014282D02*
Y0013868D01*
X0026750Y0014282D02*
Y0013868D01*
X0026643Y0014282D02*
Y0013868D01*
X0026537Y0014282D02*
Y0013868D01*
X0026431Y0014282D02*
Y0013868D01*
X0026324Y0014282D02*
Y0013868D01*
X0018565Y0006282D02*
Y0004014D01*
X0018850Y0003400D02*
X0019435Y0002815D01*
X0019309Y0003859D02*
Y0002941D01*
X0019543Y0002815D02*
X0019435D01*
X0018990Y0003540D02*
Y0003260D01*
X0019096Y0003646D02*
Y0003154D01*
X0018990Y0006282D02*
Y0004440D01*
X0018671Y0006282D02*
Y0004121D01*
X0018883Y0003434D02*
Y0003366D01*
X0018352Y0006282D02*
Y0003868D01*
X0018246Y0006282D02*
Y0003868D01*
X0018139Y0006282D02*
Y0003868D01*
X0018033Y0006282D02*
Y0003868D01*
X0019370Y0003920D02*
X0018850Y0003400D01*
X0016439Y0006288D02*
Y0003868D01*
X0017289Y0006282D02*
Y0003868D01*
X0002217Y0005065D02*
X0000600D01*
X0031490Y0013569D02*
X0031359D01*
X0016268Y0003982D02*
X0016382Y0003868D01*
X0019415Y0006282D02*
Y0004557D01*
X0016226Y0006424D02*
Y0006208D01*
X0019734Y0002026D02*
Y0000600D01*
X0019529Y0005809D02*
X0016268D01*
X0030293Y0005065D02*
X0016268D01*
X0030265Y0004958D02*
X0016268D01*
X0030260Y0004852D02*
X0016268D01*
X0019846Y0004746D02*
X0016268D01*
X0019627Y0004639D02*
X0016268D01*
X0018418Y0003868D02*
X0016382D01*
X0014682Y0008572D02*
X0013877D01*
X0014682Y0008254D02*
X0014196D01*
X0014776Y0007874D02*
X0016275Y0006375D01*
X0031214Y0014282D02*
Y0013862D01*
X0015057Y0007593D02*
Y0007393D01*
X0014928Y0007722D02*
X0014728D01*
X0015034Y0007616D02*
X0014834D01*
X0013781Y0008741D02*
Y0008669D01*
X0015247Y0007403D02*
X0015047D01*
X0015353Y0007297D02*
X0015153D01*
X0015991Y0006659D02*
X0015791D01*
X0019472Y0006234D02*
X0016210D01*
X0016097Y0006553D02*
X0015897D01*
X0014118Y0009532D02*
X0013947D01*
X0014682Y0008147D02*
X0014303D01*
X0031606Y0013781D02*
X0031287D01*
X0025049Y0014149D02*
Y0013868D01*
X0013887Y0008750D02*
Y0008562D01*
X0014682Y0008785D02*
X0013985D01*
X0015282Y0005171D02*
X0002901D01*
X0031108Y0014282D02*
Y0013927D01*
X0016204Y0006446D02*
X0016003D01*
X0015801Y0006849D02*
Y0006649D01*
X0031002Y0014282D02*
Y0013956D01*
X0015588Y0007062D02*
Y0006862D01*
X0015482Y0007168D02*
Y0006968D01*
X0016316Y0006340D02*
X0016110D01*
X0014313Y0009337D02*
Y0008137D01*
X0015460Y0007191D02*
X0015259D01*
X0015141Y0007509D02*
X0014940D01*
X0014738Y0007920D02*
Y0007712D01*
X0016013Y0006637D02*
Y0006436D01*
X0017183Y0006282D02*
Y0003868D01*
X0014118Y0009532D02*
X0014682Y0008968D01*
X0025261Y0014282D02*
Y0013868D01*
X0025368Y0014282D02*
Y0013868D01*
X0025474Y0014282D02*
Y0013868D01*
X0012501Y0009529D02*
X0012404D01*
X0035463Y0011868D02*
X0034146D01*
X0035463Y0011761D02*
X0034194D01*
X0035463Y0011655D02*
X0034209D01*
X0035463Y0011549D02*
X0034196D01*
X0034191Y0012951D02*
Y0011772D01*
X0036423Y0015100D02*
Y0011875D01*
X0033482Y0011974D02*
X0026246D01*
X0035463Y0011443D02*
X0034153D01*
X0035463Y0011336D02*
X0034062D01*
X0038700Y0012187D02*
X0034118D01*
X0038700Y0012293D02*
X0034118D01*
X0033978Y0015100D02*
Y0014272D01*
X0016120Y0006530D02*
Y0006330D01*
X0033068Y0014282D02*
X0025182D01*
X0034191Y0015100D02*
Y0013915D01*
X0033446Y0015100D02*
Y0014803D01*
X0038700Y0014525D02*
X0033725D01*
X0033128Y0015100D02*
Y0014918D01*
X0033021Y0015100D02*
Y0014918D01*
X0032915Y0015100D02*
Y0014918D01*
X0032809Y0015100D02*
Y0014918D01*
X0032702Y0015100D02*
Y0014918D01*
X0032596Y0015100D02*
Y0014918D01*
X0032490Y0015100D02*
Y0014918D01*
X0032383Y0015100D02*
Y0014918D01*
X0032277Y0015100D02*
Y0014918D01*
X0032171Y0015100D02*
Y0014918D01*
X0032065Y0015100D02*
Y0014918D01*
X0033872Y0015100D02*
Y0014378D01*
X0031533Y0015100D02*
Y0014918D01*
X0031427Y0015100D02*
Y0014918D01*
X0031320Y0015100D02*
Y0014918D01*
X0031214Y0015100D02*
Y0014918D01*
X0031108Y0015100D02*
Y0014918D01*
X0031002Y0015100D02*
Y0014918D01*
X0030895Y0015100D02*
Y0014918D01*
X0030789Y0015100D02*
Y0014918D01*
X0030683Y0015100D02*
Y0014918D01*
X0030576Y0015100D02*
Y0014918D01*
X0030470Y0015100D02*
Y0014918D01*
X0030364Y0015100D02*
Y0014918D01*
X0030257Y0015100D02*
Y0014918D01*
X0030151Y0015100D02*
Y0014918D01*
X0030045Y0015100D02*
Y0014918D01*
X0029939Y0015100D02*
Y0014918D01*
X0029832Y0015100D02*
Y0014918D01*
X0029726Y0015100D02*
Y0014918D01*
X0029620Y0015100D02*
Y0014918D01*
X0029513Y0015100D02*
Y0014918D01*
X0029407Y0015100D02*
Y0014918D01*
X0035572Y0015100D02*
Y0011875D01*
X0029194Y0015100D02*
Y0014918D01*
X0029088Y0015100D02*
Y0014918D01*
X0028982Y0015100D02*
Y0014918D01*
X0028876Y0015100D02*
Y0014918D01*
X0028769Y0015100D02*
Y0014918D01*
X0028663Y0015100D02*
Y0014918D01*
X0028557Y0015100D02*
Y0014918D01*
X0028450Y0015100D02*
Y0014918D01*
X0028344Y0015100D02*
Y0014918D01*
X0028238Y0015100D02*
Y0014918D01*
X0028131Y0015100D02*
Y0014918D01*
X0028025Y0015100D02*
Y0014918D01*
G01X0024519Y0010000D02*
G03X0024000Y0010519I0000519J0000000D01*
G03X0023481Y0010000I0000000J0000519D01*
Y0008000D02*
G03X0024000Y0007481I0000519J0000000D01*
G03X0024519Y0008000I0000000J0000519D01*
G03X0024000Y0008519I0000519J0000000D01*
G03X0023481Y0008000I0000000J0000519D01*
G01X0037864Y0013433D02*
G03X0038383Y0012914I0000519J0000000D01*
Y0013952D02*
G03X0037864Y0013433I0000000J0000519D01*
G01X0034383Y0012914D02*
G03X0034902Y0013433I0000000J0000519D01*
G03X0034383Y0013952I0000519J0000000D01*
G01X0030259Y0004881D02*
G03X0030779Y0004361I0000520J0000000D01*
Y0004362D02*
G03X0031298Y0004881I0000000J0000519D01*
G03X0030779Y0005400I0000519J0000000D01*
G03X0030260Y0004881I0000000J0000519D01*
G01X0034259D02*
G03X0034779Y0004361I0000520J0000000D01*
G01X0035298Y0004881D02*
G03X0034779Y0005400I0000519J0000000D01*
G03X0034260Y0004881I0000000J0000519D01*
G01X0030259Y0001980D02*
G03X0030779Y0001460I0000520J0000000D01*
Y0001461D02*
G03X0031298Y0001980I0000000J0000519D01*
G03X0030779Y0002499I0000519J0000000D01*
G03X0030260Y0001980I0000000J0000519D01*
G01X0034259D02*
G03X0034779Y0001460I0000520J0000000D01*
Y0001461D02*
G03X0035298Y0001980I0000000J0000519D01*
G01X0029925Y0005925D02*
G03X0030018Y0006150I0000225J0000225D01*
G01X0035298Y0001980D02*
G03X0034950Y0002469I0000519J0000000D01*
G01X0013981Y0013500D02*
G03X0014500Y0012981I0000519J0000000D01*
G03X0015019Y0013500I0000000J0000519D01*
G03X0014919Y0013807I0000519J0000000D01*
G01X0019957Y0003720D02*
G03X0020476Y0004239I0000000J0000519D01*
G03X0019957Y0004758I0000519J0000000D01*
G01X0023438Y0004239D02*
G03X0023957Y0003720I0000519J0000000D01*
G03X0024476Y0004239I0000000J0000519D01*
G03X0023957Y0004758I0000519J0000000D01*
G03X0023438Y0004239I0000000J0000519D01*
G01X0019953Y0001978D02*
G03X0020472Y0002497I0000000J0000519D01*
G03X0019953Y0003016I0000519J0000000D01*
G01X0023434Y0002497D02*
G03X0023953Y0001978I0000519J0000000D01*
G03X0024472Y0002497I0000000J0000519D01*
G03X0023953Y0003016I0000519J0000000D01*
G03X0023434Y0002497I0000000J0000519D01*
G01X0004481Y0011000D02*
G03X0005000Y0010481I0000519J0000000D01*
G03X0005519Y0011000I0000000J0000519D01*
G03X0005322Y0011407I0000519J0000000D01*
G01X0008481Y0011000D02*
G03X0009000Y0010481I0000519J0000000D01*
G03X0009519Y0011000I0000000J0000519D01*
G03X0009322Y0011407I0000519J0000000D01*
G01X0004481Y0009500D02*
G03X0005000Y0008981I0000519J0000000D01*
G03X0005519Y0009500I0000000J0000519D01*
G03X0005000Y0010019I0000519J0000000D01*
G03X0004481Y0009500I0000000J0000519D01*
G01X0008481D02*
G03X0009000Y0008981I0000519J0000000D01*
G03X0009519Y0009500I0000000J0000519D01*
G03X0009000Y0010019I0000519J0000000D01*
G03X0008481Y0009500I0000000J0000519D01*
G01X0004481Y0008000D02*
G03X0005000Y0007481I0000519J0000000D01*
G03X0005519Y0008000I0000000J0000519D01*
G03X0005000Y0008519I0000519J0000000D01*
G03X0004481Y0008000I0000000J0000519D01*
G01X0008481D02*
G03X0009000Y0007481I0000519J0000000D01*
G03X0009519Y0008000I0000000J0000519D01*
G03X0009000Y0008519I0000519J0000000D01*
G03X0008481Y0008000I0000000J0000519D01*
G01X0023449Y0006084D02*
G03X0023969Y0005564I0000520J0000000D01*
Y0005565D02*
G03X0024488Y0006084I0000000J0000519D01*
G01X0019449D02*
G03X0019969Y0005564I0000520J0000000D01*
Y0005565D02*
G03X0020488Y0006084I0000000J0000519D01*
G01X0000931Y0014500D02*
G03X0001500Y0013931I0000569J0000000D01*
Y0015069D02*
G03X0000931Y0014500I0000000J0000569D01*
G01X0004500Y0015069D02*
G03X0004000Y0014772I0000000J0000569D01*
G01X0001500Y0013931D02*
G03X0002000Y0014228I0000000J0000569D01*
G01X0025108Y0007534D02*
G03X0025677Y0006965I0000569J0000000D01*
G03X0026246Y0007534I0000000J0000569D01*
G01X0025949Y0009034D02*
G03X0026246Y0009534I0000272J0000500D01*
Y0007534D02*
G03X0025949Y0008034I0000569J0000000D01*
G01X0025108Y0008534D02*
G03X0025405Y0008034I0000569J0000000D01*
G01X0025949Y0010034D02*
G03X0026246Y0010534I0000272J0000500D01*
Y0008534D02*
G03X0025949Y0009034I0000569J0000000D01*
G01X0025108Y0009534D02*
G03X0025405Y0009034I0000569J0000000D01*
G01X0026246Y0009534D02*
G03X0025949Y0010034I0000569J0000000D01*
G01X0025108Y0010534D02*
G03X0025405Y0010034I0000569J0000000D01*
G01X0026246Y0010534D02*
G03X0026049Y0010965I0000569J0000000D01*
G01X0000931Y0008000D02*
G03X0001500Y0007431I0000569J0000000D01*
G03X0002069Y0008000I0000000J0000569D01*
G03X0001772Y0008500I0000569J0000000D01*
G01X0000931Y0009000D02*
G03X0001228Y0008500I0000569J0000000D01*
G01X0002069Y0009000D02*
G03X0001772Y0009500I0000569J0000000D01*
G01X0000931Y0010000D02*
G03X0001228Y0009500I0000569J0000000D01*
G01X0002069Y0010000D02*
G03X0001772Y0010500I0000569J0000000D01*
G01X0000931Y0011000D02*
G03X0001228Y0010500I0000569J0000000D01*
G01X0002069Y0011000D02*
G03X0001872Y0011431I0000569J0000000D01*
G01X0031472Y0013433D02*
G03X0031991Y0012914I0000519J0000000D01*
G03X0032510Y0013433I0000000J0000519D01*
G03X0031991Y0013952I0000519J0000000D01*
G03X0031472Y0013433I0000000J0000519D01*
G01X0034118Y0012986D02*
G03X0034383Y0012913I0000265J0000447D01*
G01X0001981Y0005500D02*
G03X0002305Y0005019I0000519J0000000D01*
G01X0003019Y0005500D02*
G03X0002500Y0006019I0000519J0000000D01*
G03X0001981Y0005500I0000000J0000519D01*
G01X0009000Y0001481D02*
G03X0009519Y0002000I0000000J0000519D01*
G03X0009000Y0002519I0000519J0000000D01*
G01X0035463Y0010356D02*
G03X0035982Y0009837I0000519J0000000D01*
G03X0036501Y0010356I0000000J0000519D01*
G03X0036177Y0010837I0000519J0000000D01*
G01X0035463Y0007356D02*
G03X0035982Y0006837I0000519J0000000D01*
G03X0036501Y0007356I0000000J0000519D01*
G01X0034779Y0004362D02*
G03X0034892Y0004375I0000000J0000519D01*
G01X0036501Y0007356D02*
G03X0036177Y0007837I0000519J0000000D01*
G01X0001481Y0002000D02*
G03X0002000Y0001481I0000519J0000000D01*
G01X0035787Y0007837D02*
G03X0035463Y0007356I0000195J0000481D01*
G01X0002000Y0002519D02*
G03X0001481Y0002000I0000000J0000519D01*
G01X0006000Y0002519D02*
G03X0005519Y0002195I0000000J0000519D01*
G01X0006000Y0001481D02*
G03X0006519Y0002000I0000000J0000519D01*
G03X0006000Y0002519I0000519J0000000D01*
G01X0016481Y0012000D02*
G03X0016805Y0011519I0000519J0000000D01*
G01X0017519Y0012000D02*
G03X0017000Y0012519I0000519J0000000D01*
G03X0016481Y0012000I0000000J0000519D01*
G01X0011500Y0002981D02*
G03X0012019Y0003500I0000000J0000519D01*
G03X0011500Y0004019I0000519J0000000D01*
G01X0012981Y0003500D02*
G03X0013500Y0002981I0000519J0000000D01*
Y0004019D02*
G03X0012981Y0003500I0000000J0000519D01*
G01X0017519Y0007500D02*
G03X0017195Y0007981I0000519J0000000D01*
G01X0030875Y0007163D02*
G03X0030500Y0007409I0000375J0000163D01*
G01X0030875Y0006837D02*
G03X0031250Y0006591I0000375J0000163D01*
G01X0030018Y0006193D02*
G03X0030109Y0006450I0000318J0000257D01*
G01X0029343Y0006650D02*
G03X0029132Y0006709I0000211J0000350D01*
G01X0025306Y0010965D02*
G03X0025108Y0010534I0000371J0000431D01*
G01X0025405Y0010034D02*
G03X0025108Y0009534I0000272J0000500D01*
G01X0025405Y0009034D02*
G03X0025108Y0008534I0000272J0000500D01*
G01X0025405Y0008034D02*
G03X0025108Y0007534I0000272J0000500D01*
G01X0023489Y0006282D02*
G03X0023450Y0006084I0000480J0000198D01*
G01X0017436Y0007218D02*
G03X0017519Y0007500I0000436J0000282D01*
G01X0013981Y0003695D02*
G03X0013500Y0004019I0000481J0000195D01*
G01X0019489Y0006282D02*
G03X0019450Y0006084I0000480J0000198D01*
G01X0011745Y0009795D02*
G03X0012150Y0009441I0000405J0000055D01*
G01X0011500Y0004019D02*
G03X0011019Y0003695I0000000J0000519D01*
G01X0008519Y0001805D02*
G03X0009000Y0001481I0000481J0000195D01*
G01X0005519Y0001805D02*
G03X0006000Y0001481I0000481J0000195D01*
G01X0003000Y0014772D02*
G03X0002500Y0015069I0000500J0000272D01*
G01X0002000Y0014772D02*
G03X0001500Y0015069I0000500J0000272D01*
G01X0003500D02*
G03X0003000Y0014772I0000000J0000569D01*
G01X0002000Y0014228D02*
G03X0002182Y0014028I0000500J0000272D01*
G01X0004818D02*
G03X0004931Y0014128I0000318J0000472D01*
G01X0031016Y0013146D02*
G03X0031359Y0013550I0000066J0000404D01*
G01X0001128Y0011431D02*
G03X0000931Y0011000I0000372J0000431D01*
G01X0001228Y0009500D02*
G03X0000931Y0009000I0000272J0000500D01*
G01X0001772Y0009500D02*
G03X0002069Y0010000I0000272J0000500D01*
G01X0001228Y0008500D02*
G03X0000931Y0008000I0000272J0000500D01*
G01X0013500Y0002981D02*
G03X0013981Y0003305I0000000J0000519D01*
G01X0016805Y0007981D02*
G03X0016481Y0007518I0000195J0000481D01*
G01X0002695Y0005019D02*
G03X0003019Y0005500I0000195J0000481D01*
G01X0011019Y0003305D02*
G03X0011500Y0002981I0000481J0000195D01*
G01X0019078Y0002272D02*
G03X0019303Y0002179I0000225J0000225D01*
G01X0002481Y0002195D02*
G03X0002000Y0002519I0000481J0000195D01*
G01X0012669Y0010518D02*
G03X0012764Y0010780I0000314J0000262D01*
G01X0015568Y0008992D02*
G03X0015600Y0008991I0000032J0000408D01*
G01X0012261Y0012480D02*
G03X0012670Y0012071I0000409J0000000D01*
G03X0013079Y0012480I0000000J0000409D01*
G01X0030091Y0007000D02*
G03X0030500Y0006591I0000409J0000000D01*
Y0007409D02*
G03X0030091Y0007000I0000000J0000409D01*
G01X0011491Y0007600D02*
G03X0011900Y0007191I0000409J0000000D01*
G03X0012309Y0007600I0000000J0000409D01*
G03X0011900Y0008009I0000409J0000000D01*
G03X0011491Y0007600I0000000J0000409D01*
G03X0011900Y0007191I0000409J0000000D01*
G03X0012309Y0007600I0000000J0000409D01*
G03X0011900Y0008009I0000409J0000000D01*
G03X0011491Y0007600I0000000J0000409D01*
G01X0030077Y0010364D02*
G03X0030486Y0010773I0000000J0000409D01*
G03X0030077Y0011182I0000409J0000000D01*
G01X0029770Y0010503D02*
G03X0030077Y0010364I0000307J0000270D01*
G03X0030486Y0010773I0000000J0000409D01*
G03X0030077Y0011182I0000409J0000000D01*
G03X0029753Y0011024I0000000J0000409D01*
G01X0030091Y0007000D02*
G03X0030500Y0006591I0000409J0000000D01*
Y0007409D02*
G03X0030091Y0007000I0000000J0000409D01*
G01X0013521Y0012570D02*
G03X0013930Y0012161I0000409J0000000D01*
G03X0014339Y0012570I0000000J0000409D01*
G03X0013930Y0012979I0000409J0000000D01*
G03X0013521Y0012570I0000000J0000409D01*
G03X0013930Y0012161I0000409J0000000D01*
G03X0014339Y0012570I0000000J0000409D01*
G03X0013930Y0012979I0000409J0000000D01*
G03X0013521Y0012570I0000000J0000409D01*
G01X0012691Y0007475D02*
G03X0013100Y0007066I0000409J0000000D01*
G03X0013509Y0007475I0000000J0000409D01*
G01X0013100Y0007884D02*
G03X0012691Y0007475I0000000J0000409D01*
G01X0013800Y0008741D02*
G03X0014209Y0009150I0000000J0000409D01*
G01X0029038Y0010753D02*
G03X0029447Y0010344I0000409J0000000D01*
Y0011162D02*
G03X0029038Y0010753I0000000J0000409D01*
G01X0031250Y0006591D02*
G03X0031659Y0007000I0000000J0000409D01*
G03X0031250Y0007409I0000409J0000000D01*
Y0006591D02*
G03X0031659Y0007000I0000000J0000409D01*
G03X0031250Y0007409I0000409J0000000D01*
G01X0034891Y0004350D02*
G03X0035300Y0003941I0000409J0000000D01*
G03X0035709Y0004350I0000000J0000409D01*
G03X0035300Y0004759I0000409J0000000D01*
G01X0013800Y0008741D02*
G03X0014209Y0009150I0000000J0000409D01*
G03X0013947Y0009532I0000409J0000000D01*
G01X0012764Y0010780D02*
G03X0012355Y0011189I0000409J0000000D01*
G01X0011416Y0010725D02*
G03X0011499Y0010477I0000409J0000000D01*
G01X0011825Y0011134D02*
G03X0011416Y0010725I0000000J0000409D01*
G01X0014081Y0013807D02*
G03X0013981Y0013500I0000419J0000307D01*
G01X0002800Y0011500D02*
G03X0003025Y0011407I0000225J0000225D01*
G01X0012424Y0012807D02*
G03X0012261Y0012480I0000246J0000327D01*
G01X0013079D02*
G03X0012853Y0012846I0000409J0000000D01*
G01X0018457Y0010425D02*
G03X0018550Y0010200I0000318J0000000D01*
G01X0018975Y0009775D02*
G03X0019200Y0009682I0000225J0000225D01*
G01X0019239Y0004557D02*
G03X0019014Y0004463I0000000J0000318D01*
G01X0014493Y0006440D02*
G03X0014483Y0006542I0000519J0000000D01*
G01X0019543Y0002179D02*
G03X0019953Y0001978I0000410J0000318D01*
G01X0012391Y0009250D02*
G03X0012482Y0008993I0000409J0000000D01*
G01X0016268Y0006050D02*
G03X0016175Y0006275I0000318J0000000D01*
G01X0013695Y0008755D02*
G03X0013800Y0008741I0000105J0000395D01*
G01X0018900Y0009725D02*
G03X0018675Y0009818I0000225J0000225D01*
G01X0018732Y0008375D02*
G03X0018825Y0008150I0000318J0000000D01*
G01X0018732Y0008375D02*
G03X0018825Y0008150I0000318J0000000D01*
G01X0018900Y0009725D02*
G03X0018675Y0009818I0000225J0000225D01*
G01X0015600Y0008991D02*
G03X0015949Y0009186I0000000J0000409D01*
G01X0019368Y0009125D02*
G03X0019275Y0009350I0000318J0000000D01*
G01X0015918Y0011400D02*
G03X0015825Y0011625I0000318J0000000D01*
G01X0015500Y0011950D02*
G03X0015275Y0012043I0000225J0000225D01*
G01X0015500Y0011950D02*
G03X0015275Y0012043I0000225J0000225D01*
G01X0009246D02*
G03X0009519Y0012500I0000246J0000457D01*
G01X0002182Y0012250D02*
G03X0002275Y0012025I0000318J0000000D01*
G01X0002182Y0012250D02*
G03X0002275Y0012025I0000318J0000000D01*
G01X0018875Y0014700D02*
G03X0018650Y0014793I0000225J0000225D01*
G01X0008525D02*
G03X0008300Y0014700I0000000J0000318D01*
G01X0020415Y0009689D02*
G03X0020575Y0009775I0000065J0000311D01*
G01X0030657Y0012744D02*
G03X0031016Y0013146I0000050J0000406D01*
G01X0024519Y0012000D02*
G03X0024352Y0012382I0000519J0000000D01*
G01X0030250Y0012291D02*
G03X0030659Y0012700I0000000J0000409D01*
G01X0023125Y0009125D02*
G03X0023218Y0009350I0000225J0000225D01*
G01X0021550Y0007682D02*
G03X0021775Y0007775I0000000J0000318D01*
G01X0012691Y0007475D02*
G03X0013100Y0007066I0000409J0000000D01*
G03X0013509Y0007475I0000000J0000409D01*
G03X0013507Y0007518I0000409J0000000D01*
G01X0013100Y0007884D02*
G03X0012691Y0007475I0000000J0000409D01*
G01X0022250Y0013868D02*
G03X0022025Y0013775I0000000J0000318D01*
G01X0031359Y0013550D02*
G03X0030950Y0013959I0000409J0000000D01*
G01X0020410Y0012318D02*
G03X0020000Y0012519I0000410J0000318D01*
G01X0030077Y0011182D02*
G03X0029753Y0011024I0000000J0000409D01*
G01X0030109Y0006450D02*
G03X0029700Y0006859I0000409J0000000D01*
G03X0029343Y0006650I0000000J0000409D01*
G01X0029500Y0005632D02*
G03X0029725Y0005725I0000000J0000318D01*
G01X0024875D02*
G03X0025100Y0005632I0000225J0000225D01*
G01X0016275Y0006375D02*
G03X0016500Y0006282I0000225J0000225D01*
G01X0014682Y0008100D02*
G03X0014775Y0007875I0000318J0000000D01*
G01X0012504Y0009532D02*
G03X0012391Y0009250I0000296J0000282D01*
G01X0014209Y0009150D02*
G03X0013947Y0009532I0000409J0000000D01*
G01X0015925Y0003000D02*
G03X0016150Y0002907I0000225J0000225D01*
G01X0019957Y0004758D02*
G03X0019547Y0004557I0000000J0000519D01*
G01X0015282Y0003775D02*
G03X0015375Y0003550I0000318J0000000D01*
G01X0015282Y0003775D02*
G03X0015375Y0003550I0000318J0000000D01*
G01X0012482Y0008675D02*
G03X0012575Y0008450I0000318J0000000D01*
G01X0012150Y0009441D02*
G03X0012407Y0009532I0000000J0000409D01*
G01X0038700Y0013844D02*
G03X0038383Y0013952I0000317J0000411D01*
G01X0033391Y0011650D02*
G03X0033800Y0011241I0000409J0000000D01*
G03X0034209Y0011650I0000000J0000409D01*
G03X0034118Y0011907I0000409J0000000D01*
G01X0034383Y0013952D02*
G03X0034118Y0013879I0000000J0000519D01*
G01X0025050Y0014918D02*
G03X0024825Y0014825I0000000J0000318D01*
G01X0033425D02*
G03X0033200Y0014918I0000225J0000225D01*
G01X0030659Y0012700D02*
G03X0030657Y0012744I0000409J0000000D01*
G01X0024367Y0014367D02*
G03X0024000Y0014519I0000367J0000367D01*
G01X0014575Y0010425D02*
G03X0014350Y0010518I0000225J0000225D01*
G01X0011391Y0010200D02*
G03X0011745Y0009795I0000409J0000000D01*
G01X0014682Y0008100D02*
G03X0014775Y0007875I0000318J0000000D01*
G01X0015282Y0009900D02*
G03X0015340Y0009716I0000318J0000000D01*
G03X0015311Y0009689I0000260J0000316D01*
G01X0024925Y0007125D02*
G03X0024700Y0007218I0000225J0000225D01*
G01X0029500Y0005632D02*
G03X0029725Y0005725I0000000J0000318D01*
G01X0034391Y0002850D02*
G03X0034631Y0002477I0000409J0000000D01*
G01X0035209Y0002850D02*
G03X0034800Y0003259I0000409J0000000D01*
G03X0034391Y0002850I0000000J0000409D01*
G01X0010455Y0006440D02*
G03X0010974Y0005921I0000519J0000000D01*
G03X0011493Y0006440I0000000J0000519D01*
G03X0010974Y0006959I0000519J0000000D01*
G03X0010455Y0006440I0000000J0000519D01*
G01X0013455D02*
G03X0013974Y0005921I0000519J0000000D01*
G03X0014493Y0006440I0000000J0000519D01*
G01X0020000Y0007481D02*
G03X0020410Y0007682I0000000J0000519D01*
G01X0013974Y0006959D02*
G03X0013455Y0006440I0000000J0000519D01*
G01X0032963Y0007356D02*
G03X0033482Y0006837I0000519J0000000D01*
G03X0034001Y0007356I0000000J0000519D01*
G03X0033482Y0007875I0000519J0000000D01*
G03X0032963Y0007356I0000000J0000519D01*
Y0010356D02*
G03X0033482Y0009837I0000519J0000000D01*
G03X0034001Y0010356I0000000J0000519D01*
G03X0033482Y0010875I0000519J0000000D01*
G03X0032963Y0010356I0000000J0000519D01*
G01X0020000Y0013481D02*
G03X0020519Y0014000I0000000J0000519D01*
G03X0020000Y0014519I0000519J0000000D01*
G01X0019618Y0013649D02*
G03X0020000Y0013481I0000382J0000351D01*
G01X0023481Y0014000D02*
G03X0023498Y0013868I0000519J0000000D01*
G01X0024000Y0014519D02*
G03X0023481Y0014000I0000000J0000519D01*
G01X0009519Y0012500D02*
G03X0009419Y0012807I0000519J0000000D01*
G01X0024000Y0011481D02*
G03X0024519Y0012000I0000000J0000519D01*
G01X0022584Y0011784D02*
G03X0022582Y0011750I0000316J0000034D01*
G01X0023481Y0010000D02*
G03X0024000Y0009481I0000519J0000000D01*
G03X0024519Y0010000I0000000J0000519D01*
G01X0015282Y0009900D02*
G03X0015340Y0009716I0000318J0000000D01*
G01X0013509Y0007475D02*
G03X0013507Y0007518I0000409J0000000D01*
G01X0029132Y0006709D02*
G03X0028875Y0006618I0000000J0000409D01*
G01X0002500Y0015069D02*
G03X0002000Y0014772I0000000J0000569D01*
G01X0011499Y0010477D02*
G03X0011391Y0010200I0000301J0000277D01*
G01X0030500Y0006591D02*
G03X0030875Y0006837I0000000J0000409D01*
G01X0031250Y0007409D02*
G03X0030875Y0007163I0000000J0000409D01*
G01X0029770Y0010503D02*
G03X0030077Y0010364I0000307J0000270D01*
G01X0013695Y0008755D02*
G03X0013800Y0008741I0000105J0000395D01*
G01X0001772Y0008500D02*
G03X0002069Y0009000I0000272J0000500D01*
G01X0012355Y0011189D02*
G03X0012058Y0011061I0000000J0000409D01*
G01X0001772Y0010500D02*
G03X0002069Y0011000I0000272J0000500D01*
G01X0034118Y0014000D02*
G03X0034025Y0014225I0000318J0000000D01*
G01X0004678Y0011407D02*
G03X0004481Y0011000I0000322J0000407D01*
G01X0019953Y0003016D02*
G03X0019543Y0002815I0000000J0000519D01*
G01X0008678Y0011407D02*
G03X0008481Y0011000I0000322J0000407D01*
G01X0035787Y0010837D02*
G03X0035463Y0010356I0000195J0000481D01*
G01X0009000Y0002519D02*
G03X0008519Y0002195I0000000J0000519D01*
G01X0002000Y0001481D02*
G03X0002481Y0001805I0000000J0000519D01*
G01X0004931Y0014872D02*
G03X0004500Y0015069I0000431J0000372D01*
G01X0004000Y0014772D02*
G03X0003500Y0015069I0000500J0000272D01*
G01X0001228Y0010500D02*
G03X0000931Y0010000I0000272J0000500D01*
G01X0025949Y0008034D02*
G03X0026246Y0008534I0000272J0000500D01*
G01X0017195Y0011519D02*
G03X0017519Y0012000I0000195J0000481D01*
G01X0024488Y0006084D02*
G03X0024487Y0006113I0000519J0000000D01*
G01X0019590Y0007682D02*
G03X0020000Y0007481I0000410J0000318D01*
G01X0012482Y0008675D02*
G03X0012575Y0008450I0000318J0000000D01*
G01X0020410Y0008318D02*
G03X0020000Y0008519I0000410J0000318D01*
G03X0019590Y0008318I0000000J0000519D01*
G01X0029993Y0012382D02*
G03X0030250Y0012291I0000257J0000318D01*
G01X0008525Y0014793D02*
G03X0008300Y0014700I0000000J0000318D01*
G01X0033425Y0014825D02*
G03X0033200Y0014918I0000225J0000225D01*
G01X0012853Y0012846D02*
G03X0012925Y0012900I0000153J0000279D01*
G01X0038383Y0012914D02*
G03X0038700Y0013022I0000000J0000519D01*
G01X0023492Y0011892D02*
G03X0024000Y0011481I0000508J0000108D01*
G01X0022584Y0011784D02*
G03X0022582Y0011750I0000316J0000034D01*
G01X0020000Y0012519D02*
G03X0019659Y0012391I0000000J0000519D01*
G01X0021550Y0007682D02*
G03X0021775Y0007775I0000000J0000318D01*
G01X0019200D02*
G03X0019425Y0007682I0000225J0000225D01*
G01X0030950Y0013959D02*
G03X0030693Y0013868I0000000J0000409D01*
G01X0033482Y0011907D02*
G03X0033391Y0011650I0000318J0000257D01*
G01X0035300Y0004759D02*
G03X0035283Y0004759I0000000J0000409D01*
G01X0034631Y0002477D02*
G03X0034260Y0001980I0000148J0000497D01*
G01X0012058Y0011061D02*
G03X0011825Y0011134I0000233J0000336D01*
G01X0030500Y0006591D02*
G03X0030875Y0006837I0000000J0000409D01*
G01X0034950Y0002469D02*
G03X0035209Y0002850I0000150J0000381D01*
G01X0034892Y0004375D02*
G03X0034891Y0004350I0000408J0000025D01*
G01X0020415Y0009689D02*
G03X0020575Y0009775I0000065J0000311D01*
G01X0029753Y0011024D02*
G03X0029447Y0011162I0000306J0000271D01*
G01X0031250Y0007409D02*
G03X0030875Y0007163I0000000J0000409D01*
Y0006837D02*
G03X0031250Y0006591I0000375J0000163D01*
G01X0015949Y0009186D02*
G03X0016000Y0009182I0000051J0000314D01*
G01X0029447Y0010344D02*
G03X0029770Y0010503I0000000J0000409D01*
G01X0030875Y0007163D02*
G03X0030500Y0007409I0000375J0000163D01*
G01X0035283Y0004759D02*
G03X0035298Y0004881I0000504J0000122D01*
G01X0018975Y0009775D02*
G03X0019200Y0009682I0000225J0000225D01*
G01X0020000Y0014519D02*
G03X0019488Y0014087I0000000J0000519D01*
G01X0020000Y0009481D02*
G03X0020415Y0009689I0000000J0000519D01*
G01X0020488Y0006084D02*
G03X0020448Y0006282I0000519J0000000D01*
G01X0019547Y0003920D02*
G03X0019957Y0003720I0000410J0000319D01*
G01X0019590Y0009682D02*
G03X0020000Y0009481I0000410J0000318D01*
G01X0013143Y0007882D02*
G03X0013100Y0007884I0000043J0000407D01*
G01X0013143Y0007882D02*
G03X0013100Y0007884I0000043J0000407D01*
G01X0014077Y0006948D02*
G03X0013974Y0006958I0000103J0000508D01*
G54D26*
X0015600Y0009400D03*
X0012670Y0012480D03*
X0011900Y0007600D03*
X0030077Y0010773D03*
X0030500Y0007000D03*
X0013930Y0012570D03*
X0029447Y0010753D03*
X0031250Y0007000D03*
X0035300Y0004350D03*
X0013800Y0009150D03*
X0012355Y0010780D03*
X0011825Y0010725D03*
X0013250Y0009250D03*
X0030607Y0013150D03*
X0030250Y0012700D03*
X0013100Y0007475D03*
X0030950Y0013550D03*
X0029700Y0006450D03*
X0012150Y0009850D03*
X0012800Y0009250D03*
X0033800Y0011650D03*
G54D28*
X0013974Y0006440D03*
X0010974D03*
X0033482Y0010356D03*
Y0007356D03*
X0024000Y0014000D03*
X0020000D03*
X0009000Y0012500D03*
X0005000D03*
X0020000Y0012000D03*
X0024000D03*
X0020000Y0010000D03*
X0024000D03*
X0020000Y0008000D03*
X0024000D03*
X0034383Y0013433D03*
X0038383D03*
X0034779Y0004881D03*
X0030779D03*
X0034779Y0001980D03*
X0030779D03*
X0014500Y0013500D03*
X0018500D03*
X0023957Y0004239D03*
X0019957D03*
X0023953Y0002497D03*
X0019953D03*
X0009000Y0011000D03*
X0005000D03*
X0009000Y0009500D03*
X0005000D03*
X0009000Y0008000D03*
X0005000D03*
X0019969Y0006084D03*
X0023969D03*
X0031991Y0013433D03*
X0002500Y0005500D03*
X0009000Y0002000D03*
X0035982Y0010356D03*
Y0007356D03*
X0002000Y0002000D03*
X0006000D03*
X0017000Y0012000D03*
X0011500Y0003500D03*
X0013500D03*
X0017000Y0007500D03*
G54D29*
X0033241Y0013433D03*
X0002500Y0004500D03*
X0008000Y0002000D03*
X0035982Y0011356D03*
Y0008356D03*
X0003000Y0002000D03*
X0005000D03*
X0017000Y0011000D03*
X0010500Y0003500D03*
X0014500D03*
X0017000Y0008500D03*
G54D30*
X0004500Y0014500D03*
X0003500D03*
X0002500D03*
X0001500D03*
X0025677Y0010534D03*
Y0009534D03*
Y0008534D03*
Y0007534D03*
X0001500Y0011000D03*
Y0010000D03*
Y0009000D03*
Y0008000D03*
G54D31*
X0005500Y0014500D03*
X0025677Y0011534D03*
X0001500Y0012000D03*
G54D32*
X0034800Y0002850D03*
G54D33*
X0011800Y0010200D03*
X0029132Y0006300D03*
M02*
