*
G04 Mass Parameters ***
*
G04 Image ***
*
%INC:\ORCAD_DATA\BAB2\AVRUSB500\LAYOUT\LAYOUT\AVRUSB500-1.TOP*%
%ICAS*%
%MOIN*%
%IPPOS*%
%ASAXBY*%
G74*%FSLAN2X34Y34*%
*
G04 Aperture Definitions ***
*
%ADD10C,0.0520*%
%ADD11R,0.0520X0.0520*%
%ADD12R,0.1000X0.0157*%
%ADD13R,0.0157X0.1000*%
%ADD14C,0.0620*%
%ADD15R,0.0620X0.0620*%
%ADD16R,0.0787X0.0787*%
%ADD17R,0.0591X0.0787*%
%ADD18R,0.0886X0.0197*%
%ADD19O,0.0180X0.0700*%
%ADD20R,0.0180X0.0700*%
%ADD21O,0.0700X0.0180*%
%ADD22R,0.0700X0.0180*%
%ADD23C,0.0300*%
%ADD24C,0.0118*%
%ADD25C,0.0500*%
%ADD26C,0.0300*%
%ADD27C,0.0315*%
*
G04 Plot Data ***
*
G54D24*
G01X0014500Y0009630D02*
X0015330D01*
X0015370D01*
X0015600Y0009400D01*
X0012670Y0012480D02*
Y0011775D01*
X0030500Y0007000D02*
X0030707Y0007207D01*
Y0008679D01*
X0011900Y0007600D02*
X0012040Y0007740D01*
Y0008430D01*
Y0007740D01*
X0011900Y0007600D01*
X0030707Y0008679D02*
Y0007207D01*
X0030500Y0007000D01*
X0030077Y0010773D02*
Y0011435D01*
Y0010773D01*
X0030707Y0008679D02*
Y0007207D01*
X0030500Y0007000D01*
X0014500Y0009945D02*
X0015205D01*
X0015350Y0009800D01*
Y0009650D01*
X0015330Y0009630D01*
X0014500D01*
X0013930Y0011775D02*
Y0012570D01*
X0029447Y0011435D02*
Y0010753D01*
X0012355Y0011775D02*
Y0010780D01*
X0013930Y0012570D02*
Y0011775D01*
X0013615Y0008430D02*
Y0008965D01*
X0013800Y0009150D01*
X0013100Y0007475D02*
X0012985Y0007590D01*
Y0008430D01*
X0013615D02*
Y0008965D01*
X0013800Y0009150D01*
X0035300Y0004350D02*
X0035538Y0004112D01*
X0036381D01*
X0029447Y0011435D02*
Y0010753D01*
X0031250Y0007000D02*
X0031022Y0007228D01*
Y0008679D01*
Y0007228D01*
X0031250Y0007000D01*
X0035300Y0004350D02*
X0035538Y0004112D01*
X0036381D01*
X0012355Y0011775D02*
Y0010780D01*
X0013800Y0009150D02*
X0013615Y0008965D01*
Y0008430D01*
X0030779Y0004881D02*
X0028469D01*
X0028150Y0005200D01*
Y0007350D01*
X0026800D01*
X0026600Y0007550D01*
Y0011250D01*
X0026316Y0011534D01*
X0025677D01*
X0012355Y0011775D02*
Y0010780D01*
X0011825Y0010725D02*
Y0010975D01*
X0011595Y0011205D01*
X0011155D01*
X0010974Y0006440D02*
X0012040D01*
X0012350Y0006750D01*
Y0008425D01*
X0012355Y0008430D01*
X0020000Y0014000D02*
Y0015100D01*
X0024900D01*
X0025150Y0014850D01*
Y0012800D01*
X0025677Y0012273D01*
Y0011534D01*
X0019969Y0006084D02*
X0016616D01*
X0016300Y0006400D01*
Y0007500D01*
X0017000D01*
X0033482Y0007356D02*
Y0008568D01*
X0033095Y0008955D01*
X0031297D01*
X0013250Y0009250D02*
Y0010650D01*
X0013490Y0010890D01*
X0014500D01*
X0036381Y0003170D02*
X0035120D01*
X0034800Y0002850D01*
X0020000Y0014000D02*
Y0015100D01*
X0005700D01*
X0005500Y0014900D01*
Y0014500D01*
X0031297Y0009270D02*
X0033070D01*
X0033482Y0009682D01*
Y0010356D01*
X0002500Y0005500D02*
Y0008000D01*
Y0008675D01*
X0002175Y0009000D01*
X0001500D01*
X0034383Y0013433D02*
X0033241D01*
X0024000Y0008000D02*
X0024400D01*
X0024934Y0008534D01*
X0025677D01*
X0001500Y0012000D02*
X0003050D01*
X0003550Y0012500D01*
X0005000D01*
X0013974Y0006440D02*
X0013110D01*
X0012670Y0006880D01*
Y0008430D01*
X0005000Y0009500D02*
X0003550D01*
X0003050Y0010000D01*
X0001500D01*
X0028817Y0008679D02*
Y0007517D01*
X0028650Y0007350D01*
X0028150D01*
Y0005200D01*
X0028469Y0004881D01*
X0030779D01*
X0005000Y0008000D02*
X0002500D01*
Y0005500D01*
X0036381Y0003798D02*
X0036379Y0003800D01*
X0025450D01*
X0025011Y0004239D01*
X0023957D01*
X0030707Y0011435D02*
Y0013050D01*
X0030607Y0013150D01*
X0011155Y0010575D02*
X0010225D01*
X0009800Y0011000D01*
X0009000D01*
X0005000D02*
X0001500D01*
X0025677Y0009534D02*
X0024966D01*
X0024500Y0010000D01*
X0024000D01*
X0030392Y0011435D02*
X0030400Y0011444D01*
Y0012550D01*
X0030250Y0012700D01*
X0024000Y0012000D02*
X0024350D01*
X0024700Y0011650D01*
Y0010850D01*
X0025016Y0010534D01*
X0025677D01*
X0012985Y0008430D02*
Y0007590D01*
X0013100Y0007475D01*
X0031022Y0011435D02*
X0031000Y0011457D01*
Y0013500D01*
X0030950Y0013550D01*
X0023953Y0002497D02*
X0024447D01*
X0025434Y0003484D01*
X0036381D01*
X0013500Y0003500D02*
Y0004700D01*
X0013974Y0005174D01*
Y0006440D01*
X0029447Y0008679D02*
X0029450Y0008676D01*
Y0006700D01*
X0029700Y0006450D01*
X0012150Y0009850D02*
Y0009250D01*
X0011725Y0008825D01*
Y0008430D01*
X0011500Y0003500D02*
Y0004650D01*
X0010974Y0005176D01*
Y0006440D01*
X0014500Y0013500D02*
X0015150D01*
X0015425Y0013225D01*
Y0011150D01*
X0015165Y0010890D01*
X0014500D01*
X0035982Y0007356D02*
X0033482D01*
X0014500Y0010260D02*
X0018110D01*
X0018500Y0010650D01*
Y0013500D01*
X0029132Y0011435D02*
Y0013682D01*
X0029550Y0014100D01*
X0031324D01*
X0031991Y0013433D01*
X0012800Y0009250D02*
Y0010975D01*
X0013030Y0011205D01*
X0014500D01*
X0031297Y0011160D02*
X0033310D01*
X0033800Y0011650D01*
X0011155Y0009000D02*
X0011550D01*
X0011800Y0009250D01*
Y0010200D01*
X0029132Y0006300D02*
Y0008679D01*
X0035982Y0010356D02*
X0033482D01*
X0009000Y0012500D02*
X0009500D01*
X0009850Y0012150D01*
Y0011400D01*
X0010360Y0010890D01*
X0011155D01*
X0017000Y0007500D02*
X0016300D01*
X0013625D01*
X0013300Y0007825D01*
Y0008430D01*
X0009000Y0009500D02*
X0009550D01*
X0010310Y0010260D01*
X0011155D01*
Y0009945D02*
X0010445D01*
X0009900Y0009400D01*
Y0008550D01*
X0009350Y0008000D01*
X0009000D01*
X0014500Y0010575D02*
X0015500D01*
X0015925Y0011000D01*
X0017000D01*
X0034141Y0001343D02*
X0034779Y0001980D01*
X0035359Y0002291D02*
X0034800Y0002850D01*
X0034241Y0002291D02*
X0034800Y0002850D01*
X0035416Y0001343D02*
X0034779Y0001980D01*
X0034141Y0002617D02*
X0034779Y0001980D01*
X0035416Y0002617D02*
X0034779Y0001980D01*
X0037083Y0004470D02*
Y0004156D01*
X0001982Y0008682D02*
Y0008303D01*
X0028814Y0013462D02*
X0025468D01*
X0019550Y0009742D02*
X0015825D01*
X0001238Y0007495D02*
Y0000600D01*
X0038700Y0004109D02*
X0037083D01*
X0003177Y0009423D02*
X0001881D01*
X0002175Y0009318D02*
X0001972D01*
X0001450Y0007433D02*
Y0000600D01*
X0009873Y0010273D02*
X0003213D01*
X0003050Y0010318D02*
X0001972D01*
X0001769Y0001535D02*
Y0000600D01*
X0001982Y0009682D02*
Y0009318D01*
X0000931Y0012569D02*
Y0011431D01*
X0004590Y0010682D02*
X0001972D01*
X0009532Y0011761D02*
X0003260D01*
X0002069Y0012569D02*
X0000931D01*
X0024730Y0007880D02*
Y0004557D01*
X0030576Y0011070D02*
Y0009045D01*
X0028479Y0008617D02*
X0027389D01*
X0002832Y0009682D02*
Y0008318D01*
X0028025Y0003166D02*
Y0000600D01*
X0002918Y0009682D02*
X0001972D01*
X0027389Y0009247D02*
Y0008932D01*
Y0009247D02*
Y0008932D01*
Y0009293D02*
Y0009247D01*
X0028907Y0009562D02*
Y0009293D01*
X0028557Y0003166D02*
Y0000600D01*
X0030932Y0010273D02*
X0028907D01*
Y0011070D02*
Y0010867D01*
X0027389Y0009608D02*
Y0009562D01*
X0028663Y0003166D02*
Y0000600D01*
X0001017Y0010698D02*
X0000600D01*
X0028238Y0003166D02*
Y0000600D01*
X0030932Y0009742D02*
X0028907D01*
X0030257Y0010406D02*
Y0009045D01*
X0028907Y0009923D02*
Y0009877D01*
X0027389Y0010507D02*
Y0010238D01*
X0030932Y0009954D02*
X0028907D01*
X0029137Y0010486D02*
X0028907D01*
X0018182Y0011230D02*
X0017519D01*
X0028907Y0010238D02*
Y0010192D01*
X0030932Y0010061D02*
X0028907D01*
X0030100Y0007084D02*
X0029768D01*
X0030364Y0007527D02*
Y0007386D01*
X0029041Y0010698D02*
X0028907D01*
X0029041Y0010805D02*
X0028907D01*
X0029129Y0011070D02*
Y0011010D01*
X0027389Y0010867D02*
Y0010822D01*
X0018182Y0011017D02*
X0017519D01*
X0030932Y0010592D02*
X0030443D01*
X0031655Y0013037D02*
X0031318D01*
X0027600Y0015100D02*
Y0011497D01*
X0028479D02*
X0027389D01*
X0028907Y0010867D02*
Y0010822D01*
X0025304Y0009104D02*
X0015882D01*
X0029129Y0011070D02*
Y0011010D01*
X0030364Y0010482D02*
Y0009045D01*
X0003576Y0012077D02*
Y0011318D01*
X0028814Y0013682D02*
Y0012588D01*
X0029513Y0010350D02*
Y0009045D01*
X0029109Y0011070D02*
X0028907D01*
X0028769Y0015100D02*
Y0012588D01*
X0025155Y0008215D02*
Y0007760D01*
X0013566Y0012384D02*
X0013266D01*
X0030257Y0007527D02*
Y0007329D01*
X0031320Y0013377D02*
Y0012588D01*
X0003789Y0012182D02*
Y0011318D01*
X0029832Y0010445D02*
Y0009045D01*
X0032450Y0011497D02*
Y0011478D01*
X0038700Y0012824D02*
X0031318D01*
X0033872Y0011247D02*
Y0010699D01*
X0030932Y0010867D02*
Y0010822D01*
X0031318Y0013372D02*
Y0012588D01*
X0031353Y0013621D02*
X0031476Y0013498D01*
X0030932Y0010192D02*
Y0009923D01*
X0035876Y0009848D02*
X0033800D01*
X0024730Y0010370D02*
Y0010220D01*
X0030895Y0011070D02*
Y0009045D01*
X0038700Y0012293D02*
X0031359D01*
X0032171Y0012946D02*
Y0011497D01*
X0031533Y0013189D02*
Y0011497D01*
X0001103Y0010592D02*
X0000600D01*
X0001180Y0009529D02*
X0000600D01*
X0030932Y0009562D02*
Y0009293D01*
X0030470Y0015100D02*
Y0014418D01*
X0030932Y0010553D02*
Y0010507D01*
Y0010238D02*
Y0010192D01*
Y0009923D01*
X0028907Y0009877D02*
Y0009608D01*
X0030932Y0009045D02*
X0030729D01*
X0035572Y0010038D02*
X0033892D01*
X0038700Y0009104D02*
X0033396D01*
X0030932Y0009293D02*
Y0009247D01*
X0033164Y0008360D02*
X0031359D01*
X0030684Y0009045D02*
X0030415D01*
X0001027Y0009317D02*
X0000600D01*
X0035463Y0008785D02*
X0033715D01*
X0033446Y0009197D02*
Y0009053D01*
X0029739Y0009045D02*
X0029470D01*
X0030219Y0007297D02*
X0029768D01*
X0030151Y0003166D02*
Y0000600D01*
X0035463Y0008679D02*
X0033780D01*
X0030470Y0011070D02*
Y0010885D01*
X0002301Y0010682D02*
Y0010318D01*
X0029966Y0010380D02*
X0029613D01*
X0029620Y0010382D02*
Y0009045D01*
X0019631Y0009635D02*
X0015934D01*
X0029786Y0010486D02*
X0029756D01*
X0029785Y0007527D02*
X0029768D01*
X0029832Y0003166D02*
Y0000600D01*
X0030369Y0007527D02*
X0030100D01*
X0035827Y0005596D02*
X0028468D01*
X0029424Y0009045D02*
X0029155D01*
X0027925Y0004975D02*
X0028243Y0004657D01*
X0019782Y0009529D02*
X0015988D01*
X0028907Y0010507D02*
Y0010238D01*
X0018182Y0012080D02*
X0017513D01*
X0030415Y0007527D02*
X0030369D01*
X0029069Y0010911D02*
X0028907D01*
X0027389Y0009877D02*
Y0009608D01*
X0030703Y0007509D02*
X0029768D01*
X0019627Y0004639D02*
X0013889D01*
X0031549Y0014324D02*
X0031926Y0013948D01*
X0033760Y0013952D02*
X0032722D01*
Y0012914D01*
X0033760D02*
X0032722D01*
X0038700Y0007935D02*
X0036501D01*
X0002182Y0006021D02*
X0000600D01*
X0010656Y0005915D02*
X0002818D01*
X0001981Y0005019D02*
Y0003981D01*
X0003019D02*
X0001981D01*
X0003019Y0005019D02*
Y0003981D01*
X0002832Y0005101D02*
Y0005019D01*
X0007481Y0001557D02*
X0006270D01*
X0007481Y0002513D02*
X0006076D01*
X0008519Y0002519D02*
X0007481D01*
Y0001481D01*
X0008519D02*
X0007481D01*
X0008730Y0001557D02*
X0008519D01*
X0034935Y0015100D02*
Y0010674D01*
X0035787Y0010837D02*
X0035463D01*
Y0011875D02*
Y0010837D01*
X0027389Y0010822D02*
Y0010553D01*
X0036501Y0011875D02*
Y0010837D01*
Y0011875D02*
X0035463D01*
X0016516Y0012187D02*
X0015743D01*
X0028814Y0013675D02*
X0025468D01*
X0035463Y0008875D02*
Y0007837D01*
X0038700Y0007191D02*
X0036474D01*
X0036501Y0008875D02*
Y0007837D01*
Y0008875D02*
X0035463D01*
X0002620Y0001481D02*
Y0000600D01*
X0034191Y0010038D02*
Y0007674D01*
X0003519Y0002519D02*
X0002481D01*
X0001982Y0001481D02*
Y0000600D01*
X0003519Y0001481D02*
X0002481D01*
X0003519Y0002519D02*
Y0001481D01*
X0030191Y0000706D02*
X0000600D01*
X0005519Y0002519D02*
X0004481D01*
Y0001481D01*
X0005519D02*
X0004481D01*
X0005730Y0001557D02*
X0005519D01*
X0015743Y0013225D02*
Y0011261D01*
X0034935Y0010038D02*
Y0007674D01*
X0018725Y0010425D02*
X0018336Y0010036D01*
X0016545Y0011750D02*
Y0011519D01*
X0010273Y0002981D02*
Y0000600D01*
X0013182Y0004214D02*
X0011818D01*
X0011019Y0003305D02*
Y0002981D01*
Y0004019D02*
X0009981D01*
Y0002981D01*
X0011019D02*
X0009981D01*
X0011250Y0003045D02*
X0011019D01*
X0001924Y0002513D02*
X0000600D01*
X0009981Y0003683D02*
X0000600D01*
X0025899Y0007010D02*
Y0004118D01*
X0015019Y0004019D02*
X0013981D01*
Y0003151D02*
X0013884D01*
X0015019Y0002981D02*
X0013981D01*
X0015019Y0004019D02*
Y0002981D01*
X0024476Y0010624D02*
X0024791Y0010309D01*
X0017714Y0005766D02*
Y0000600D01*
X0016481Y0009019D02*
Y0007981D01*
X0000950Y0008147D02*
X0000600D01*
X0017519Y0009019D02*
Y0007981D01*
Y0009019D02*
X0016481D01*
X0037401Y0006128D02*
X0036935D01*
X0000600Y0015100D02*
Y0000600D01*
X0038700Y0013022D02*
Y0006694D01*
Y0005389D02*
Y0004109D01*
X0038655Y0005389D02*
Y0004109D01*
X0038549Y0005389D02*
Y0004109D01*
X0038443Y0005389D02*
Y0004109D01*
X0038336Y0005389D02*
Y0004109D01*
X0038230Y0005389D02*
Y0004109D01*
X0038124Y0005389D02*
Y0004109D01*
X0038017Y0005389D02*
Y0004109D01*
X0037911Y0005389D02*
Y0004109D01*
X0037805Y0005389D02*
Y0004109D01*
X0037380Y0015100D02*
Y0004109D01*
X0024624Y0009426D02*
Y0008673D01*
X0025155Y0010965D02*
Y0010852D01*
X0010656Y0005596D02*
X0003010D01*
X0037273Y0015100D02*
Y0004109D01*
X0019547Y0008254D02*
X0017519D01*
X0035787Y0007837D02*
X0035463D01*
X0030191Y0003151D02*
X0025551D01*
X0030191Y0000919D02*
X0000600D01*
X0034509Y0007038D02*
Y0005325D01*
X0034403Y0007038D02*
Y0005240D01*
X0034191Y0015100D02*
Y0013915D01*
X0033800Y0009946D02*
Y0009682D01*
X0002182Y0008000D02*
Y0005910D01*
X0035572Y0007674D02*
X0033892D01*
X0030151Y0010371D02*
Y0009045D01*
X0030683Y0015100D02*
Y0014418D01*
X0033843Y0011243D02*
X0033535Y0010935D01*
X0032809Y0015100D02*
Y0013952D01*
X0037167Y0015100D02*
Y0004109D01*
X0030703Y0007403D02*
X0030569D01*
X0030191Y0001663D02*
X0009395D01*
X0030932Y0010911D02*
X0030462D01*
X0033164Y0008041D02*
X0031359D01*
X0035827Y0006553D02*
X0030096D01*
X0028344Y0003166D02*
Y0000600D01*
X0019473Y0004427D02*
X0013818D01*
X0035827Y0006128D02*
X0029952D01*
X0029785Y0009045D02*
X0029739D01*
X0030191Y0003166D02*
Y0000600D01*
X0030045Y0003166D02*
Y0000600D01*
X0032450Y0008617D02*
X0031359D01*
X0029939Y0003166D02*
Y0000600D01*
X0035827Y0006340D02*
X0030094D01*
X0027813Y0003166D02*
Y0000600D01*
X0035827Y0006234D02*
X0030047D01*
X0029513Y0004563D02*
Y0004118D01*
X0029301Y0003166D02*
Y0000600D01*
X0029088Y0003166D02*
Y0000600D01*
X0028876Y0003166D02*
Y0000600D01*
X0028907Y0010192D02*
Y0009923D01*
Y0009247D02*
Y0009045D01*
X0027389Y0009562D02*
Y0009293D01*
X0030932Y0009423D02*
X0028907D01*
Y0009877D02*
Y0009608D01*
X0027389Y0009562D02*
Y0009293D01*
X0025348Y0008998D02*
X0017519D01*
X0028238Y0008617D02*
Y0007668D01*
X0028907Y0009293D02*
Y0009247D01*
Y0009562D02*
Y0009293D01*
X0027600Y0003166D02*
Y0000600D01*
X0027494Y0003166D02*
Y0000600D01*
X0027387Y0003166D02*
Y0000600D01*
X0027281Y0003166D02*
Y0000600D01*
X0027175Y0003166D02*
Y0000600D01*
X0027069Y0003166D02*
Y0000600D01*
X0030191Y0002301D02*
X0024701D01*
X0026856Y0003166D02*
Y0000600D01*
X0026750Y0003166D02*
Y0000600D01*
X0026643Y0003166D02*
Y0000600D01*
X0026537Y0003166D02*
Y0000600D01*
X0038700Y0014950D02*
X0025452D01*
X0024943Y0010224D02*
Y0010007D01*
X0025392Y0008041D02*
X0024891D01*
X0012032Y0007191D02*
X0002818D01*
X0026431Y0003166D02*
Y0000600D01*
X0026324Y0003166D02*
Y0000600D01*
X0026218Y0003166D02*
Y0000600D01*
X0026112Y0003166D02*
Y0000600D01*
X0026006Y0003166D02*
Y0000600D01*
X0025899Y0003166D02*
Y0000600D01*
X0025261Y0002862D02*
Y0000600D01*
X0025155Y0002755D02*
Y0000600D01*
X0025049Y0002649D02*
Y0000600D01*
X0024943Y0002543D02*
Y0000600D01*
X0024836Y0002436D02*
Y0000600D01*
X0024416Y0008466D02*
X0024228D01*
X0023451Y0006128D02*
X0020486D01*
X0030191Y0002620D02*
X0025020D01*
X0024411Y0002179D02*
Y0000600D01*
X0024305Y0002115D02*
Y0000600D01*
X0024198Y0002040D02*
Y0000600D01*
X0024092Y0001997D02*
Y0000600D01*
X0023986Y0001979D02*
Y0000600D01*
X0023880Y0001983D02*
Y0000600D01*
X0023773Y0002010D02*
Y0000600D01*
X0023454Y0014782D02*
Y0006155D01*
Y0002352D02*
Y0000600D01*
X0023348Y0014782D02*
Y0000600D01*
X0023242Y0014782D02*
Y0000600D01*
X0023135Y0014782D02*
Y0000600D01*
X0023029Y0014782D02*
Y0000600D01*
X0022923Y0014782D02*
Y0000600D01*
X0022817Y0014782D02*
Y0000600D01*
X0022710Y0014782D02*
Y0000600D01*
X0022604Y0014782D02*
Y0000600D01*
X0022498Y0014782D02*
Y0000600D01*
X0022391Y0014782D02*
Y0000600D01*
X0022285Y0014782D02*
Y0000600D01*
X0023561Y0014782D02*
Y0014276D01*
X0022072Y0014782D02*
Y0000600D01*
X0021966Y0014782D02*
Y0000600D01*
X0021860Y0014782D02*
Y0000600D01*
X0021754Y0014782D02*
Y0000600D01*
X0021647Y0014782D02*
Y0000600D01*
X0021541Y0014782D02*
Y0000600D01*
X0021435Y0014782D02*
Y0000600D01*
X0021328Y0014782D02*
Y0000600D01*
X0021222Y0014782D02*
Y0000600D01*
X0021116Y0014782D02*
Y0000600D01*
X0021009Y0014782D02*
Y0000600D01*
X0020903Y0014782D02*
Y0000600D01*
X0020797Y0014782D02*
Y0000600D01*
X0020584Y0014782D02*
Y0000600D01*
X0024905Y0003895D02*
X0024346D01*
X0020478Y0005985D02*
Y0000600D01*
X0020372Y0002190D02*
Y0000600D01*
X0020265Y0002082D02*
Y0000600D01*
X0020159Y0002021D02*
Y0000600D01*
X0020053Y0001988D02*
Y0000600D01*
X0010455Y0006446D02*
X0002818D01*
X0019434Y0002513D02*
X0009076D01*
X0019521Y0014782D02*
Y0014200D01*
Y0005766D02*
Y0004521D01*
Y0002208D02*
Y0000600D01*
X0019415Y0005766D02*
Y0000600D01*
X0018818Y0013090D02*
Y0010650D01*
X0019202Y0005766D02*
Y0000600D01*
X0019096Y0005766D02*
Y0000600D01*
X0024420Y0010698D02*
X0018818D01*
X0018182Y0013090D02*
Y0010782D01*
X0018990Y0005766D02*
Y0000600D01*
X0018883Y0005766D02*
Y0000600D01*
X0018777Y0005766D02*
Y0000600D01*
X0018671Y0005766D02*
Y0000600D01*
X0027832Y0006978D02*
X0025800D01*
X0018352Y0005766D02*
Y0000600D01*
X0018246Y0005766D02*
Y0000600D01*
X0018033Y0005766D02*
Y0000600D01*
X0017927Y0005766D02*
Y0000600D01*
X0000940Y0009104D02*
X0000600D01*
X0016805Y0007981D02*
X0016481D01*
X0016757Y0005766D02*
Y0000600D01*
X0028479Y0012399D02*
X0025969D01*
X0017395Y0005766D02*
Y0000600D01*
X0017289Y0005766D02*
Y0000600D01*
X0017183Y0005766D02*
Y0000600D01*
X0016618Y0007149D02*
Y0006532D01*
X0017076Y0005766D02*
Y0000600D01*
X0017519Y0011519D02*
Y0010578D01*
X0015982Y0007182D02*
Y0006400D01*
X0019745Y0006553D02*
X0016618D01*
X0016076Y0006174D02*
X0016391Y0005859D01*
X0013656Y0005915D02*
X0011292D01*
X0016439Y0005820D02*
Y0000600D01*
X0016332Y0005918D02*
Y0000600D01*
X0016013Y0006262D02*
Y0000600D01*
X0016487Y0012080D02*
X0015743D01*
X0015907Y0007182D02*
Y0000600D01*
X0015801Y0007182D02*
Y0000600D01*
X0015376Y0007182D02*
Y0000600D01*
X0013182Y0004002D02*
X0011818D01*
X0013981Y0003305D02*
Y0002981D01*
X0019454Y0004108D02*
X0013818D01*
X0014950Y0002981D02*
Y0000600D01*
X0014844Y0002981D02*
Y0000600D01*
X0014738Y0002981D02*
Y0000600D01*
X0014631Y0002981D02*
Y0000600D01*
X0014525Y0002981D02*
Y0000600D01*
X0014419Y0002981D02*
Y0000600D01*
X0014313Y0002981D02*
Y0000600D01*
X0014206Y0002981D02*
Y0000600D01*
X0013656Y0006029D02*
Y0005306D01*
X0013994Y0002981D02*
Y0000600D01*
X0013887Y0003155D02*
Y0000600D01*
X0013781Y0003064D02*
Y0000600D01*
X0013675Y0003011D02*
Y0000600D01*
X0013569Y0002985D02*
Y0000600D01*
X0013462Y0002982D02*
Y0000600D01*
X0013356Y0003001D02*
Y0000600D01*
X0013250Y0003045D02*
Y0000600D01*
X0013569Y0007187D02*
Y0006763D01*
X0014419Y0007182D02*
Y0006707D01*
X0013356Y0007156D02*
Y0006758D01*
X0016545Y0014782D02*
Y0012250D01*
X0003470Y0013932D02*
Y0012808D01*
X0027389Y0011443D02*
X0026853D01*
X0012999Y0003364D02*
X0012001D01*
X0012080Y0006124D02*
Y0000600D01*
X0011974Y0003289D02*
Y0000600D01*
X0011868Y0003134D02*
Y0000600D01*
X0011761Y0003052D02*
Y0000600D01*
X0011655Y0003005D02*
Y0000600D01*
X0011549Y0002983D02*
Y0000600D01*
X0011443Y0002984D02*
Y0000600D01*
X0011336Y0003007D02*
Y0000600D01*
X0011230Y0003057D02*
Y0000600D01*
X0011017Y0003309D02*
Y0000600D01*
X0010911Y0002981D02*
Y0000600D01*
X0010805Y0002981D02*
Y0000600D01*
X0010698Y0002981D02*
Y0000600D01*
X0010592Y0002981D02*
Y0000600D01*
X0010486Y0002981D02*
Y0000600D01*
X0010380Y0002981D02*
Y0000600D01*
X0009981Y0003470D02*
X0000600D01*
X0010061Y0008261D02*
Y0004019D01*
Y0002981D02*
Y0000600D01*
X0009954Y0008154D02*
Y0000600D01*
X0009848Y0008048D02*
Y0000600D01*
X0008519Y0001805D02*
Y0001481D01*
X0009529Y0007737D02*
Y0000600D01*
X0009423Y0001699D02*
Y0000600D01*
X0009317Y0001589D02*
Y0000600D01*
X0009210Y0001525D02*
Y0000600D01*
X0009104Y0001491D02*
Y0000600D01*
X0008998Y0001481D02*
Y0000600D01*
X0008891Y0001492D02*
Y0000600D01*
X0008785Y0001528D02*
Y0000600D01*
X0008572Y0001706D02*
Y0000600D01*
X0008466Y0001481D02*
Y0000600D01*
X0008360Y0001481D02*
Y0000600D01*
X0008254Y0001481D02*
Y0000600D01*
X0008147Y0001481D02*
Y0000600D01*
X0008041Y0001481D02*
Y0000600D01*
X0007935Y0001481D02*
Y0000600D01*
X0007828Y0001481D02*
Y0000600D01*
X0007722Y0001481D02*
Y0000600D01*
X0007509Y0014782D02*
Y0002519D01*
Y0001481D02*
Y0000600D01*
X0007403Y0014782D02*
Y0000600D01*
X0007297Y0014782D02*
Y0000600D01*
X0007191Y0014782D02*
Y0000600D01*
X0007084Y0014782D02*
Y0000600D01*
X0006978Y0014782D02*
Y0000600D01*
X0006872Y0014782D02*
Y0000600D01*
X0006765Y0014782D02*
Y0000600D01*
X0005519Y0001805D02*
Y0001481D01*
X0006553Y0014782D02*
Y0000600D01*
X0006446Y0001735D02*
Y0000600D01*
X0006340Y0001608D02*
Y0000600D01*
X0006234Y0001537D02*
Y0000600D01*
X0006128Y0001497D02*
Y0000600D01*
X0006021Y0001481D02*
Y0000600D01*
X0005915Y0001488D02*
Y0000600D01*
X0005809Y0001518D02*
Y0000600D01*
X0005596Y0001674D02*
Y0000600D01*
X0001496Y0001876D02*
X0000600D01*
X0001730Y0001557D02*
X0000600D01*
X0005277Y0001481D02*
Y0000600D01*
X0005171Y0001481D02*
Y0000600D01*
X0005065Y0001481D02*
Y0000600D01*
X0004958Y0001481D02*
Y0000600D01*
X0004852Y0001481D02*
Y0000600D01*
X0004746Y0001481D02*
Y0000600D01*
X0004639Y0007627D02*
Y0002519D01*
X0003683Y0010682D02*
Y0009818D01*
X0004533Y0007682D02*
Y0002519D01*
Y0001481D02*
Y0000600D01*
X0004427Y0007682D02*
Y0000600D01*
X0000946Y0014631D02*
X0000600D01*
X0004214Y0007682D02*
Y0000600D01*
X0004108Y0007682D02*
Y0000600D01*
X0004002Y0007682D02*
Y0000600D01*
X0001535Y0001769D02*
X0000600D01*
X0003576Y0007682D02*
Y0000600D01*
X0003470Y0001481D02*
Y0000600D01*
X0003364Y0001481D02*
Y0000600D01*
X0003257Y0001481D02*
Y0000600D01*
X0003151Y0001481D02*
Y0000600D01*
X0030191Y0001131D02*
X0000600D01*
X0002939Y0001481D02*
Y0000600D01*
X0002832Y0001481D02*
Y0000600D01*
X0002726Y0001481D02*
Y0000600D01*
X0001605Y0001663D02*
X0000600D01*
X0002513Y0001481D02*
Y0000600D01*
X0002407Y0001678D02*
Y0000600D01*
X0002301Y0001577D02*
Y0000600D01*
X0002194Y0001519D02*
Y0000600D01*
X0002088Y0001489D02*
Y0000600D01*
X0002481Y0001805D02*
Y0001481D01*
X0001876Y0001496D02*
Y0000600D01*
X0000706Y0015100D02*
Y0000600D01*
X0001876Y0007573D02*
Y0002504D01*
X0001769Y0007499D02*
Y0002465D01*
X0001663Y0007455D02*
Y0002395D01*
X0001557Y0007434D02*
Y0002270D01*
X0001025Y0007686D02*
Y0000600D01*
X0000919Y0015100D02*
Y0000600D01*
X0000813Y0015100D02*
Y0000600D01*
X0005924Y0002513D02*
X0005519D01*
X0024832Y0014525D02*
X0020318D01*
X0002513Y0015100D02*
Y0015069D01*
X0001382Y0015057D02*
X0000600D01*
X0001152Y0014950D02*
X0000600D01*
X0005065Y0007485D02*
Y0002519D01*
X0004320Y0007682D02*
Y0000600D01*
X0024943Y0008093D02*
Y0004557D01*
X0000993Y0009742D02*
X0000600D01*
X0014340Y0013994D02*
X0006069D01*
X0001240D02*
X0000600D01*
X0014155Y0013887D02*
X0000600D01*
X0014064Y0013781D02*
X0000600D01*
X0031359Y0008617D02*
Y0007527D01*
X0014313Y0006046D02*
Y0004019D01*
X0000931Y0012506D02*
X0000600D01*
X0005383Y0012150D02*
Y0011350D01*
X0014001Y0013356D02*
X0000600D01*
X0014265Y0013037D02*
X0000600D01*
X0004639Y0001481D02*
Y0000600D01*
X0035041Y0010038D02*
Y0007674D01*
X0003050Y0011682D02*
X0002069D01*
X0003212Y0012612D02*
X0000600D01*
X0000931Y0012399D02*
X0000600D01*
X0000931Y0012293D02*
X0000600D01*
X0000931Y0012187D02*
X0000600D01*
X0000931Y0012080D02*
X0000600D01*
X0000931Y0011974D02*
X0000600D01*
X0000931Y0011868D02*
X0000600D01*
X0016805Y0011519D02*
X0016481D01*
X0001128Y0011431D02*
X0000931D01*
Y0011549D02*
X0000600D01*
X0001041Y0011336D02*
X0000600D01*
X0000979Y0011230D02*
X0000600D01*
X0000945Y0011124D02*
X0000600D01*
X0000931Y0011443D02*
X0000600D01*
X0015482Y0007182D02*
Y0000600D01*
X0030932Y0009877D02*
Y0009608D01*
X0025687Y0003166D02*
Y0000600D01*
X0032450Y0011497D02*
X0031359D01*
X0028131Y0003166D02*
Y0000600D01*
X0001204Y0010486D02*
X0000600D01*
X0000931Y0011017D02*
X0000600D01*
X0030932Y0009247D02*
Y0009045D01*
X0033707Y0009457D02*
X0033375Y0009125D01*
X0030932Y0009104D02*
X0028907D01*
X0032065Y0012919D02*
Y0011497D01*
X0010486Y0014782D02*
Y0011214D01*
X0000971Y0009210D02*
X0000600D01*
X0016970Y0005766D02*
Y0000600D01*
X0004626Y0008360D02*
X0002818D01*
X0000941Y0008891D02*
X0000600D01*
X0000973Y0008785D02*
X0000600D01*
X0001030Y0008679D02*
X0000600D01*
X0001124Y0008572D02*
X0000600D01*
X0001174Y0008466D02*
X0000600D01*
X0001059Y0008360D02*
X0000600D01*
X0010168Y0012150D02*
Y0011532D01*
X0001131Y0007566D02*
Y0000600D01*
X0019734Y0002026D02*
Y0000600D01*
X0000957Y0007828D02*
X0000600D01*
X0002182Y0007297D02*
X0000600D01*
X0013356Y0006121D02*
Y0005006D01*
X0013462Y0007227D02*
Y0006758D01*
X0004830Y0007509D02*
X0002818D01*
X0025223Y0007191D02*
X0017417D01*
X0001212Y0007509D02*
X0000600D01*
X0012032Y0007084D02*
X0002818D01*
X0019597Y0006446D02*
X0016703D01*
X0010687Y0006872D02*
X0002818D01*
X0010570Y0006765D02*
X0002818D01*
X0010504Y0006659D02*
X0002818D01*
X0035891Y0005389D02*
Y0004470D01*
X0038700Y0009635D02*
X0033797D01*
X0010656Y0006021D02*
X0002818D01*
X0002182Y0006128D02*
X0000600D01*
X0002083Y0005809D02*
X0000600D01*
X0002022Y0005702D02*
X0000600D01*
X0001990Y0005596D02*
X0000600D01*
X0001981Y0005490D02*
X0000600D01*
X0001994Y0005383D02*
X0000600D01*
X0002305Y0005019D02*
X0001981D01*
X0002182Y0005915D02*
X0000600D01*
X0001981Y0004958D02*
X0000600D01*
X0001981Y0004852D02*
X0000600D01*
X0001981Y0004746D02*
X0000600D01*
X0001981Y0004639D02*
X0000600D01*
X0001981Y0004533D02*
X0000600D01*
X0002513Y0003981D02*
Y0002519D01*
X0010167Y0002981D02*
Y0000600D01*
X0015057Y0007182D02*
Y0000600D01*
X0009981Y0003151D02*
X0000600D01*
X0001981Y0004214D02*
X0000600D01*
X0001981Y0004002D02*
X0000600D01*
X0009981Y0003895D02*
X0000600D01*
X0009981Y0003789D02*
X0000600D01*
X0014100Y0002981D02*
Y0000600D01*
X0013143Y0003123D02*
Y0000600D01*
X0019448Y0002620D02*
X0000600D01*
X0025368Y0002968D02*
Y0000600D01*
X0024758Y0003257D02*
X0015019D01*
X0019840Y0001990D02*
Y0000600D01*
X0009981Y0003045D02*
X0000600D01*
X0005702Y0001575D02*
Y0000600D01*
X0005490Y0001481D02*
Y0000600D01*
X0002481Y0002513D02*
X0002076D01*
X0005383Y0001481D02*
Y0000600D01*
X0001678Y0002407D02*
X0000600D01*
X0001577Y0002301D02*
X0000600D01*
X0001519Y0002194D02*
X0000600D01*
X0001489Y0002088D02*
X0000600D01*
X0001481Y0001982D02*
X0000600D01*
X0030191Y0000600D02*
X0000600D01*
X0003045Y0001481D02*
Y0000600D01*
X0030191Y0001450D02*
X0000600D01*
X0030191Y0001344D02*
X0000600D01*
X0030191Y0001238D02*
X0000600D01*
X0001663Y0001605D02*
Y0000600D01*
X0030191Y0001025D02*
X0000600D01*
X0001344Y0015100D02*
Y0015047D01*
X0029513Y0003166D02*
Y0000600D01*
X0012718Y0006382D02*
Y0000600D01*
X0019516Y0012187D02*
X0018818D01*
X0035463Y0011761D02*
X0034194D01*
X0017502Y0007367D02*
Y0006402D01*
X0027069Y0007032D02*
Y0004118D01*
X0029939Y0007527D02*
Y0006782D01*
X0011182Y0004518D02*
Y0003910D01*
X0027389Y0008891D02*
X0026918D01*
X0012187Y0006157D02*
Y0000600D01*
X0027813Y0007032D02*
Y0004118D01*
X0011376Y0008651D02*
Y0008170D01*
X0031533Y0015100D02*
Y0014340D01*
X0003683Y0013961D02*
Y0012818D01*
X0026856Y0007032D02*
Y0004118D01*
X0033553Y0012914D02*
Y0011976D01*
X0032986Y0007509D02*
X0031340D01*
X0010698Y0008712D02*
Y0006879D01*
X0035463Y0011017D02*
X0033617D01*
X0011549Y0007869D02*
Y0007810D01*
X0011376Y0008651D02*
X0010895D01*
X0013981Y0004002D02*
X0013818D01*
X0013185Y0004746D02*
X0011803D01*
X0012982Y0003470D02*
X0012018D01*
X0011116Y0003151D02*
X0011019D01*
X0013116D02*
X0011884D01*
X0011292Y0006029D02*
Y0005307D01*
X0013627Y0005277D02*
X0011323D01*
X0013656Y0005383D02*
X0011292D01*
X0010676Y0005065D02*
X0002782D01*
X0013221Y0004852D02*
X0011746D01*
X0010750Y0004950D02*
X0011182Y0004518D01*
X0024517Y0003920D02*
Y0003017D01*
X0027706Y0007032D02*
Y0004118D01*
X0013308Y0004958D02*
X0011642D01*
X0012040Y0006121D02*
X0011384D01*
X0011974Y0007198D02*
Y0006824D01*
X0013182Y0004639D02*
X0011818D01*
X0010656Y0006029D02*
Y0005176D01*
X0014950Y0013182D02*
Y0011497D01*
X0018001Y0013356D02*
X0015715D01*
X0013982Y0013462D02*
X0000600D01*
X0015150Y0013818D02*
X0014910D01*
X0014123Y0013143D02*
X0000600D01*
X0015375Y0013725D02*
X0015649Y0013450D01*
X0016882Y0012506D02*
X0015743D01*
X0018182Y0012612D02*
X0015743D01*
X0018182Y0012718D02*
X0015743D01*
X0014950Y0014782D02*
Y0013818D01*
X0015018Y0013182D02*
X0015107Y0013093D01*
Y0013037D02*
X0014735D01*
X0015694Y0007182D02*
Y0000600D01*
X0016668Y0012399D02*
X0015743D01*
X0016539Y0011761D02*
X0015743D01*
X0009582Y0008785D02*
X0002798D01*
X0015375Y0009742D02*
X0015091D01*
X0016481Y0008041D02*
X0014254D01*
X0010563Y0008891D02*
X0010218D01*
X0027600Y0007032D02*
Y0004118D01*
X0013656Y0005809D02*
X0011292D01*
X0015163Y0014782D02*
Y0013818D01*
X0015588Y0007182D02*
Y0000600D01*
X0016572Y0012293D02*
X0015743D01*
X0014844Y0013111D02*
Y0011544D01*
X0013656Y0005596D02*
X0011292D01*
X0018033Y0013273D02*
Y0010633D01*
X0018182Y0012931D02*
X0015743D01*
X0029832Y0015100D02*
Y0014418D01*
X0033800Y0008568D02*
Y0007766D01*
X0034403Y0010038D02*
Y0007674D01*
X0030932Y0010822D02*
Y0010553D01*
X0025328Y0007084D02*
X0017311D01*
X0038700Y0007722D02*
X0036350D01*
X0034084Y0010038D02*
Y0007674D01*
X0017978Y0010578D02*
X0017519D01*
X0016651Y0009942D02*
Y0009019D01*
X0013564Y0006758D02*
X0013242D01*
X0009529Y0010682D02*
Y0009929D01*
X0017927Y0014782D02*
Y0010578D01*
X0024382Y0011017D02*
X0018818D01*
X0017992Y0010592D02*
X0017519D01*
X0018182Y0010782D02*
X0017978Y0010578D01*
X0017714Y0014782D02*
Y0010578D01*
X0018033Y0014782D02*
Y0013727D01*
X0034722Y0010038D02*
Y0007674D01*
X0017982Y0013462D02*
X0015638D01*
X0024832Y0013569D02*
X0024288D01*
X0024517Y0014782D02*
Y0014042D01*
X0019485Y0010061D02*
X0018361D01*
X0018099Y0010698D02*
X0017519D01*
X0029129Y0011070D02*
X0029109D01*
X0016481Y0008998D02*
X0015674D01*
X0018182Y0011443D02*
X0017519D01*
X0027389Y0008932D02*
Y0008617D01*
X0024832Y0014100D02*
X0024509D01*
X0029194Y0015100D02*
Y0014194D01*
X0031108Y0015100D02*
Y0014418D01*
X0028982Y0015100D02*
Y0013982D01*
X0029325Y0014325D02*
X0028908Y0013907D01*
X0019646Y0010380D02*
X0018679D01*
X0031324Y0014418D02*
X0029550D01*
X0029407Y0015100D02*
Y0014384D01*
X0024832Y0013887D02*
X0024507D01*
X0031852Y0015100D02*
Y0014022D01*
X0027389Y0010911D02*
X0026918D01*
X0013985Y0013569D02*
X0000600D01*
X0024832Y0013462D02*
X0019018D01*
X0003151Y0014050D02*
Y0012551D01*
X0016481Y0011519D02*
Y0011318D01*
X0013994Y0004744D02*
Y0004019D01*
X0026282Y0011118D02*
Y0007550D01*
X0027706Y0008617D02*
Y0007668D01*
X0031214Y0015100D02*
Y0014418D01*
X0028814Y0012824D02*
X0025575D01*
X0011915Y0006765D02*
X0011378D01*
X0013523Y0012612D02*
X0013057D01*
X0028479Y0007935D02*
X0026918D01*
X0029513Y0015100D02*
Y0014416D01*
X0031320Y0015100D02*
Y0014418D01*
X0030151Y0015100D02*
Y0014418D01*
X0016481Y0011443D02*
X0015743D01*
X0013656Y0005702D02*
X0011292D01*
X0015107Y0012080D02*
X0014276D01*
X0027175Y0007032D02*
Y0004118D01*
X0009954Y0010396D02*
Y0010354D01*
X0030364Y0015100D02*
Y0014418D01*
X0025368Y0015100D02*
Y0015082D01*
X0026282Y0009317D02*
X0026203D01*
X0028907Y0010822D02*
Y0010553D01*
X0034084Y0011356D02*
Y0010674D01*
X0033355Y0011655D02*
X0031359D01*
X0035463Y0011549D02*
X0034196D01*
X0035463Y0011230D02*
X0033830D01*
X0033393Y0011693D02*
X0033178Y0011478D01*
X0035463Y0010911D02*
X0033508D01*
X0033553Y0010953D02*
Y0010870D01*
X0035463Y0011124D02*
X0033724D01*
X0031002Y0015100D02*
Y0014418D01*
X0033249Y0011549D02*
X0031359D01*
X0028479Y0012187D02*
X0025995D01*
X0009418Y0009818D02*
X0009410D01*
X0009532Y0011549D02*
X0002069D01*
X0009635Y0010682D02*
Y0010035D01*
X0034191Y0012951D02*
Y0011772D01*
X0027389Y0009317D02*
X0026918D01*
X0028479Y0008147D02*
X0026918D01*
X0027389Y0009635D02*
X0026918D01*
X0016013Y0009942D02*
Y0007818D01*
X0024832Y0013143D02*
X0018877D01*
X0011017Y0008651D02*
Y0006957D01*
X0011336Y0008651D02*
Y0006812D01*
X0027389Y0009423D02*
X0026918D01*
X0019882Y0012506D02*
X0018818D01*
X0011625Y0007297D02*
X0002818D01*
X0035463Y0011336D02*
X0034062D01*
X0033178Y0011478D02*
X0032450D01*
X0033114Y0007722D02*
X0031359D01*
X0027389Y0009877D02*
Y0009608D01*
X0029620Y0003166D02*
Y0000600D01*
X0035827Y0005702D02*
X0028468D01*
X0035827Y0005915D02*
X0029270D01*
X0029726Y0003166D02*
Y0000600D01*
X0019487Y0012080D02*
X0018818D01*
X0030257Y0006671D02*
Y0005200D01*
X0034297Y0012921D02*
Y0010674D01*
X0032490Y0013289D02*
Y0011478D01*
X0035827Y0006021D02*
X0029431D01*
X0038700Y0012399D02*
X0031359D01*
X0038700Y0009954D02*
X0036311D01*
X0007616Y0001481D02*
Y0000600D01*
X0011490Y0012293D02*
X0010134D01*
X0009500Y0012818D02*
X0009410D01*
X0002999Y0012399D02*
X0002069D01*
X0024832Y0013675D02*
X0024405D01*
X0038700Y0010911D02*
X0036501D01*
X0011379Y0012080D02*
X0010168D01*
X0010273Y0014782D02*
Y0011427D01*
X0034828Y0013166D02*
Y0010674D01*
X0010061Y0014782D02*
Y0012389D01*
X0035360Y0015100D02*
Y0010674D01*
X0013781Y0014782D02*
Y0012951D01*
X0009423Y0012127D02*
Y0011318D01*
X0010547Y0011230D02*
X0010470D01*
X0010546Y0011208D02*
X0010492D01*
X0028468Y0007032D02*
Y0005332D01*
X0009470Y0012080D02*
X0009305D01*
X0009848Y0014782D02*
Y0012602D01*
X0024832Y0012931D02*
X0018818D01*
X0031427Y0015100D02*
Y0014401D01*
X0026918Y0011250D02*
Y0007682D01*
X0027919Y0008617D02*
Y0007668D01*
X0009391Y0012159D02*
X0009532Y0012018D01*
X0009543Y0011318D02*
X0009410D01*
X0009423Y0014782D02*
Y0012818D01*
X0034722Y0013040D02*
Y0010674D01*
X0010273Y0009323D02*
Y0004019D01*
X0011411Y0012187D02*
X0010166D01*
X0016332Y0014782D02*
Y0011318D01*
X0011376Y0011655D02*
X0010168D01*
X0009864Y0010486D02*
X0009071D01*
X0015376Y0009058D02*
Y0007818D01*
X0015482Y0009008D02*
Y0007818D01*
X0013569Y0006116D02*
Y0005218D01*
X0019846Y0004746D02*
X0013996D01*
X0019651Y0007616D02*
X0017506D01*
X0019562Y0007722D02*
X0017469D01*
X0014419Y0008651D02*
Y0007818D01*
X0016864Y0005766D02*
Y0000600D01*
X0031002Y0006675D02*
Y0005350D01*
X0016545Y0007981D02*
Y0007818D01*
X0015982Y0006978D02*
X0013022D01*
X0033164Y0007828D02*
X0031359D01*
X0013462Y0006121D02*
Y0005112D01*
X0013733Y0007842D02*
X0013757Y0007818D01*
X0013781Y0007182D02*
Y0006921D01*
X0015109Y0008651D02*
X0014279D01*
X0013994Y0007182D02*
Y0006958D01*
X0018565Y0010265D02*
Y0006402D01*
X0017608Y0009942D02*
Y0006402D01*
X0013781Y0007854D02*
Y0007818D01*
X0016120Y0009942D02*
Y0007818D01*
X0008665Y0009104D02*
X0005335D01*
X0002194Y0009682D02*
Y0009318D01*
X0009532Y0012018D02*
Y0011400D01*
X0011017Y0004683D02*
Y0003691D01*
X0024943Y0009216D02*
Y0008852D01*
X0028889Y0013887D02*
X0025468D01*
X0003257Y0013985D02*
Y0012657D01*
X0009554Y0009954D02*
X0009251D01*
X0009550Y0009182D02*
X0009410D01*
X0018671Y0010371D02*
Y0006402D01*
X0009582Y0009104D02*
X0009335D01*
X0013048Y0006128D02*
X0012102D01*
X0011376Y0011974D02*
X0010168D01*
X0009532Y0011655D02*
X0002069D01*
X0009758Y0010592D02*
X0009321D01*
X0009448Y0009848D02*
X0009385D01*
X0030045Y0007527D02*
Y0006670D01*
X0019482Y0011974D02*
X0018818D01*
X0015907Y0009130D02*
Y0007818D01*
X0030789Y0015100D02*
Y0014418D01*
X0025049Y0009215D02*
Y0008852D01*
X0004590Y0008318D02*
X0002818D01*
X0019743Y0011549D02*
X0018818D01*
X0010562Y0009104D02*
X0010218D01*
X0010562Y0009210D02*
X0010218D01*
X0026318Y0007403D02*
X0026231D01*
X0019572Y0012293D02*
X0018818D01*
X0019498Y0011868D02*
X0018818D01*
X0009582Y0008998D02*
X0009131D01*
X0009317Y0009089D02*
Y0008416D01*
X0017395Y0009942D02*
Y0009019D01*
X0016545Y0009942D02*
Y0009019D01*
X0012988Y0007012D02*
X0013242Y0006758D01*
X0010759Y0008679D02*
X0010218D01*
X0029620Y0006049D02*
Y0005200D01*
X0002182Y0007828D02*
X0002042D01*
X0012760Y0006340D02*
X0012390D01*
X0011655Y0007272D02*
Y0006758D01*
X0019668Y0012399D02*
X0018818D01*
X0010546Y0008998D02*
X0010218D01*
X0010561Y0009529D02*
X0010479D01*
X0011376Y0008254D02*
X0010053D01*
X0010620Y0008785D02*
X0010218D01*
X0014206Y0007957D02*
Y0007818D01*
X0009423Y0007690D02*
Y0002301D01*
X0002046Y0008679D02*
X0001970D01*
X0035360Y0010038D02*
Y0007674D01*
X0016226Y0014782D02*
Y0011318D01*
X0017985Y0013569D02*
X0015531D01*
X0015107Y0011549D02*
X0014820D01*
X0009668Y0010682D02*
X0009975Y0010375D01*
X0004665Y0009104D02*
X0002521D01*
X0016651Y0005766D02*
Y0000600D01*
X0015907Y0014782D02*
Y0011318D01*
X0016482Y0011974D02*
X0015743D01*
X0011376Y0008572D02*
X0010218D01*
X0015269Y0014782D02*
Y0013795D01*
X0018139Y0013127D02*
Y0010739D01*
X0000938Y0010911D02*
X0000600D01*
X0030789Y0011070D02*
Y0009045D01*
X0011292Y0005307D02*
X0011725Y0004875D01*
X0013182Y0004320D02*
X0011818D01*
X0016481Y0011318D02*
X0015925D01*
X0030191Y0002832D02*
X0025232D01*
X0030191Y0002513D02*
X0024913D01*
X0010656Y0005171D02*
X0002901D01*
X0027832Y0005596D02*
X0024145D01*
X0013037Y0003265D02*
Y0000600D01*
X0004108Y0014088D02*
Y0012818D01*
X0035466Y0010038D02*
Y0007674D01*
X0033978Y0010038D02*
Y0007674D01*
X0034509Y0012929D02*
Y0010674D01*
X0034297Y0010038D02*
Y0007674D01*
X0014100Y0007865D02*
Y0007818D01*
X0016481Y0008572D02*
X0014279D01*
X0016481Y0008147D02*
X0014278D01*
X0013560Y0006128D02*
X0013172D01*
X0014279Y0008651D02*
Y0008170D01*
X0013994Y0007827D02*
Y0007818D01*
X0014525Y0008651D02*
Y0007818D01*
X0014844Y0008651D02*
Y0007818D01*
X0018990Y0013328D02*
Y0006402D01*
X0015982Y0006659D02*
X0014445D01*
X0029620Y0015100D02*
Y0014418D01*
X0011549Y0007390D02*
Y0006758D01*
X0011978Y0006128D02*
X0011389D01*
X0016481Y0008254D02*
X0014279D01*
X0016481Y0008466D02*
X0014279D01*
X0010218Y0009268D02*
Y0008550D01*
X0014206Y0007182D02*
Y0006904D01*
X0002726Y0010682D02*
Y0010318D01*
X0027494Y0007032D02*
Y0004118D01*
X0017714Y0009942D02*
Y0006402D01*
X0002182Y0007191D02*
X0000600D01*
X0035614Y0007722D02*
X0033850D01*
X0011124Y0008651D02*
Y0006937D01*
X0035463Y0008147D02*
X0033800D01*
X0011230Y0008651D02*
Y0006891D01*
X0030443Y0005277D02*
X0028523D01*
X0013610Y0012824D02*
X0012891D01*
X0012032Y0007213D02*
Y0006882D01*
X0010805Y0008663D02*
Y0006930D01*
X0035721Y0010805D02*
X0033743D01*
X0014199Y0004949D02*
X0013818Y0004568D01*
X0035463Y0011443D02*
X0034153D01*
X0011124Y0004576D02*
Y0003857D01*
X0009366Y0008466D02*
X0009228D01*
X0035463Y0011868D02*
X0034146D01*
X0013143Y0007068D02*
Y0006857D01*
X0033446Y0012914D02*
Y0011856D01*
X0010167Y0008377D02*
Y0004019D01*
X0012654Y0006446D02*
X0012496D01*
X0033765Y0013115D02*
Y0012058D01*
X0024832Y0012824D02*
X0018818D01*
X0026006Y0007069D02*
Y0004118D01*
X0016226Y0009942D02*
Y0007818D01*
X0010546Y0009317D02*
X0010266D01*
X0033021Y0012914D02*
Y0011478D01*
X0010835Y0011549D02*
X0010168D01*
X0027387Y0007032D02*
Y0004118D01*
X0011376Y0011868D02*
X0010168D01*
X0016590Y0007818D02*
X0016300D01*
X0019559Y0010273D02*
X0018573D01*
X0026112Y0007166D02*
Y0004118D01*
X0024382Y0011443D02*
X0018818D01*
X0016439Y0014782D02*
Y0011318D01*
X0010698Y0014782D02*
Y0011493D01*
X0010592Y0014782D02*
Y0011379D01*
X0027389Y0010061D02*
X0026918D01*
X0033659Y0012914D02*
Y0012034D01*
X0010380Y0014782D02*
Y0011320D01*
X0010805Y0014782D02*
Y0011542D01*
X0034828Y0004365D02*
Y0004118D01*
X0002182Y0007403D02*
X0000600D01*
X0016120Y0014782D02*
Y0011318D01*
X0002620Y0013944D02*
Y0012318D01*
X0010167Y0014782D02*
Y0012177D01*
X0028479Y0007722D02*
X0026918D01*
X0027389Y0010486D02*
X0026918D01*
X0011376Y0012035D02*
Y0011554D01*
X0026282Y0007722D02*
X0026214D01*
X0011761Y0014782D02*
Y0012382D01*
X0018045Y0013250D02*
X0015742D01*
X0035254Y0015100D02*
Y0010674D01*
X0011549Y0014782D02*
Y0012336D01*
X0011655Y0014782D02*
Y0012377D01*
X0009668Y0010682D02*
X0009410D01*
X0012293Y0014782D02*
Y0012638D01*
X0009529Y0014782D02*
Y0012817D01*
X0012399Y0014782D02*
Y0012787D01*
X0015107Y0011443D02*
X0015016D01*
X0025580Y0006973D02*
Y0004120D01*
X0013526Y0012506D02*
X0013078D01*
X0012269Y0012399D02*
X0010051D01*
X0028344Y0004589D02*
Y0004118D01*
X0014248Y0012313D02*
Y0012179D01*
X0012931Y0014782D02*
Y0012795D01*
X0016651Y0007116D02*
Y0006499D01*
X0012824Y0014782D02*
Y0012859D01*
X0013356Y0014782D02*
Y0012384D01*
X0014100Y0013169D02*
Y0012942D01*
X0019309Y0014782D02*
Y0006402D01*
X0013462Y0014782D02*
Y0012384D01*
X0019202Y0014782D02*
Y0006402D01*
X0013737Y0012931D02*
X0009290D01*
X0013250Y0014782D02*
Y0012380D01*
X0009532Y0011443D02*
X0009271D01*
X0030112Y0006872D02*
X0029768D01*
X0014313Y0013016D02*
Y0012715D01*
X0014248Y0012313D02*
Y0012179D01*
X0013143Y0014782D02*
Y0012347D01*
X0015107Y0012399D02*
X0014302D01*
X0027281Y0007032D02*
Y0004118D01*
X0016481Y0011336D02*
X0015743D01*
X0015107Y0011868D02*
X0014279D01*
X0015107Y0011336D02*
X0015083D01*
X0015057Y0013143D02*
Y0011389D01*
X0014313Y0012425D02*
Y0011554D01*
X0015107Y0011761D02*
X0014279D01*
X0018182Y0013037D02*
X0015743D01*
X0014631Y0012998D02*
Y0011554D01*
X0014279Y0012035D02*
Y0011554D01*
X0014525Y0012982D02*
Y0011554D01*
X0018123Y0013143D02*
X0015743D01*
X0018139Y0005766D02*
Y0000600D01*
X0028479Y0011549D02*
X0026751D01*
X0016439Y0009942D02*
Y0007818D01*
X0035147Y0010038D02*
Y0007674D01*
X0019504Y0009848D02*
X0015095D01*
X0013994Y0014782D02*
Y0013614D01*
X0009582Y0009183D02*
Y0008682D01*
X0031024Y0006659D02*
X0030726D01*
X0035254Y0010038D02*
Y0007674D01*
X0015269Y0007182D02*
Y0000600D01*
X0011761Y0006121D02*
Y0004831D01*
X0015163Y0009942D02*
Y0007818D01*
X0011376Y0008360D02*
X0010155D01*
X0002407Y0009682D02*
Y0009218D01*
X0027389Y0010380D02*
X0026918D01*
X0014419Y0012987D02*
Y0011554D01*
X0002400Y0009225D02*
X0002724Y0008901D01*
X0033978Y0013108D02*
Y0012018D01*
X0018110Y0009942D02*
X0015109D01*
X0015107Y0011655D02*
X0014279D01*
X0010547Y0009598D02*
X0010218Y0009268D01*
X0025350Y0015100D02*
X0025375Y0015075D01*
X0033659Y0011059D02*
Y0010844D01*
X0015109Y0009349D02*
Y0008651D01*
X0020318Y0014782D02*
Y0014410D01*
X0004533Y0013932D02*
Y0012818D01*
X0034616Y0012969D02*
Y0010674D01*
X0025108Y0011443D02*
X0025018D01*
X0024351Y0011549D02*
X0024257D01*
X0024725Y0010225D02*
X0025098Y0009852D01*
X0024411Y0010717D02*
Y0010318D01*
X0024624Y0007774D02*
Y0004557D01*
X0024411Y0009639D02*
Y0008461D01*
X0038700Y0012931D02*
X0038515D01*
X0037911Y0015100D02*
Y0013649D01*
X0002513Y0009682D02*
Y0009111D01*
X0038700Y0013994D02*
X0031880D01*
X0029407Y0004563D02*
Y0004118D01*
X0029301Y0004563D02*
Y0004118D01*
X0030191Y0000813D02*
X0000600D01*
X0002182Y0007509D02*
X0001788D01*
X0024843Y0012718D02*
X0018818D01*
X0015018Y0013182D02*
X0014910D01*
X0015588Y0014782D02*
Y0013512D01*
X0030045Y0006230D02*
Y0005200D01*
X0024624Y0002232D02*
Y0000600D01*
X0003364Y0011864D02*
Y0011318D01*
X0004695Y0012080D02*
X0003580D01*
X0009532Y0011974D02*
X0003474D01*
X0012612Y0014782D02*
Y0012885D01*
X0030470Y0006592D02*
Y0005299D01*
X0014631Y0008651D02*
Y0007818D01*
X0003045Y0007682D02*
Y0002519D01*
X0004533Y0010682D02*
Y0009818D01*
X0010125Y0008325D02*
X0009576Y0007776D01*
X0011467Y0007935D02*
X0009735D01*
X0017502Y0005766D02*
Y0000600D01*
X0019521Y0007800D02*
Y0006402D01*
X0004615Y0009848D02*
X0003652D01*
X0001095Y0014100D02*
X0000600D01*
X0000963Y0014313D02*
X0000600D01*
X0003045Y0015100D02*
Y0014842D01*
X0000937Y0014419D02*
X0000600D01*
X0001025Y0014186D02*
Y0012569D01*
X0010656Y0005702D02*
X0002978D01*
X0003257Y0007682D02*
Y0002519D01*
X0025108Y0012080D02*
X0024720D01*
X0001013Y0014206D02*
X0000600D01*
X0001025Y0015100D02*
Y0014814D01*
X0006069Y0013931D02*
X0004931D01*
X0007828Y0014782D02*
Y0002519D01*
X0024411Y0007682D02*
Y0006355D01*
X0025155Y0009215D02*
Y0008852D01*
X0026282Y0008891D02*
X0026120D01*
X0024730Y0009320D02*
Y0008778D01*
X0025306Y0010965D02*
X0025108D01*
X0025155Y0010215D02*
Y0009852D01*
X0024880Y0003920D02*
X0025150Y0003650D01*
X0025313Y0012187D02*
X0024613D01*
X0025108Y0012103D02*
Y0010965D01*
X0025261Y0007145D02*
Y0004438D01*
X0026750Y0007036D02*
Y0004118D01*
X0025207Y0012293D02*
X0024474D01*
X0037401Y0006694D02*
Y0005389D01*
X0038700D02*
X0037401D01*
X0036529Y0015100D02*
Y0006694D01*
X0035827D02*
Y0005389D01*
X0036935D02*
X0035827D01*
X0036935Y0006694D02*
Y0005389D01*
Y0006694D02*
X0035827D01*
X0024943Y0003858D02*
Y0003442D01*
X0019557Y0002832D02*
X0000600D01*
X0035466Y0007038D02*
Y0004724D01*
X0031639Y0008617D02*
Y0007125D01*
X0025018Y0011650D02*
Y0010982D01*
X0034914Y0004214D02*
X0025486D01*
X0002182Y0007722D02*
X0001997D01*
X0033040Y0007084D02*
X0031650D01*
X0027389Y0009529D02*
X0026918D01*
X0011017Y0014782D02*
Y0011554D01*
X0002088Y0014107D02*
Y0012318D01*
X0011230Y0014782D02*
Y0011554D01*
X0011376Y0011761D02*
X0010168D01*
X0018139Y0009943D02*
Y0006402D01*
X0033978Y0011282D02*
Y0010674D01*
X0015192Y0009423D02*
X0015092D01*
X0034084Y0013008D02*
Y0011944D01*
X0032809Y0012914D02*
Y0011478D01*
X0015200Y0009317D02*
X0015109D01*
X0018883Y0013150D02*
Y0006402D01*
X0016970Y0006982D02*
Y0006402D01*
X0033340Y0012914D02*
Y0011640D01*
X0019415Y0014782D02*
Y0006402D01*
X0027942Y0004958D02*
X0014208D01*
X0034935Y0004166D02*
Y0004118D01*
X0034528Y0004427D02*
X0031029D01*
X0033973Y0013115D02*
X0033760D01*
X0028468Y0005332D02*
X0028600Y0005200D01*
X0026918Y0007682D02*
X0026932Y0007668D01*
X0028025Y0004875D02*
Y0004118D01*
X0027832Y0005809D02*
X0024408D01*
X0028262Y0004639D02*
X0024286D01*
X0004869Y0008998D02*
X0002627D01*
X0028750Y0006446D02*
X0028468D01*
X0028814Y0007077D02*
Y0006557D01*
X0027813Y0008617D02*
Y0007668D01*
X0027832Y0007032D02*
X0026800D01*
X0027069Y0015100D02*
Y0007668D01*
X0028728Y0006234D02*
X0028468D01*
X0035827Y0005490D02*
X0028468D01*
X0002513Y0010682D02*
Y0010318D01*
X0027494Y0008617D02*
Y0007668D01*
X0026284Y0007509D02*
X0026246D01*
X0002832Y0010682D02*
Y0010318D01*
X0030368Y0005200D02*
X0028600D01*
X0002407Y0010682D02*
Y0010318D01*
X0026962Y0015100D02*
Y0007668D01*
Y0007032D02*
Y0004118D01*
X0028131Y0008617D02*
Y0007668D01*
X0028150D02*
X0026932D01*
X0026625Y0007084D02*
X0026026D01*
X0027387Y0015100D02*
Y0007668D01*
X0026376Y0007324D02*
X0026575Y0007125D01*
X0026282Y0008041D02*
X0025962D01*
X0028479Y0011655D02*
X0026645D01*
X0028479Y0007668D02*
X0028150D01*
X0026541Y0011759D02*
X0026824Y0011476D01*
X0025359Y0012141D02*
Y0012103D01*
X0018182Y0011124D02*
X0017519D01*
X0026537Y0007163D02*
Y0004118D01*
X0026282Y0010698D02*
X0026222D01*
X0027389D02*
X0026918D01*
X0027389Y0011124D02*
X0026918D01*
X0027281Y0015100D02*
Y0007668D01*
X0014206Y0013072D02*
Y0012872D01*
X0026282Y0011017D02*
X0026246D01*
X0027389Y0011336D02*
X0026906D01*
X0026276Y0011124D02*
X0026246D01*
Y0011154D02*
Y0010965D01*
X0027389Y0010273D02*
X0026918D01*
X0002194Y0014020D02*
Y0012318D01*
X0011336Y0014782D02*
Y0011554D01*
X0028479Y0008041D02*
X0026918D01*
X0032450Y0008637D02*
Y0008617D01*
X0027389Y0009210D02*
X0026918D01*
X0028479Y0007828D02*
X0026918D01*
X0027389Y0008785D02*
X0026918D01*
X0011443Y0014782D02*
Y0012240D01*
X0010592Y0008826D02*
Y0006791D01*
X0027389Y0009742D02*
X0026918D01*
X0030895Y0015100D02*
Y0014418D01*
X0024382Y0011336D02*
X0018818D01*
X0004214Y0014008D02*
Y0012818D01*
X0027389Y0009848D02*
X0026918D01*
X0028479Y0008360D02*
X0026918D01*
X0027389Y0009954D02*
X0026918D01*
X0011376Y0011554D02*
X0010895D01*
X0010168Y0011532D02*
X0010492Y0011208D01*
X0028479Y0008254D02*
X0026918D01*
X0031639Y0015100D02*
Y0014234D01*
X0030191Y0003045D02*
X0025445D01*
X0012399Y0006349D02*
Y0000600D01*
X0011974Y0014782D02*
Y0012378D01*
X0010498Y0006234D02*
X0002818D01*
X0012022Y0006872D02*
X0011262D01*
X0011443Y0006121D02*
Y0005157D01*
X0011868Y0006121D02*
Y0003866D01*
X0012824Y0006276D02*
Y0000600D01*
X0011908Y0006758D02*
X0011384D01*
X0011868Y0007192D02*
Y0006758D01*
X0014313Y0007182D02*
Y0006833D01*
X0014100Y0007182D02*
Y0006943D01*
X0024517Y0010583D02*
Y0010318D01*
X0011376Y0008466D02*
X0010207D01*
X0013858Y0007828D02*
X0013746D01*
X0004320Y0009182D02*
Y0008318D01*
X0024768Y0014782D02*
X0020318D01*
X0019682D02*
Y0014410D01*
X0019734Y0013554D02*
Y0012446D01*
X0038700Y0014631D02*
X0025468D01*
X0024832Y0014313D02*
X0024414D01*
X0029313D02*
X0025468D01*
X0038700Y0014844D02*
X0025468D01*
X0038700Y0014525D02*
X0025468D01*
X0038700Y0015057D02*
X0025392D01*
X0024768Y0014782D02*
X0024832Y0014718D01*
X0023694Y0014419D02*
X0020318D01*
X0038700D02*
X0025468D01*
X0025580Y0015100D02*
Y0012820D01*
X0024832Y0013037D02*
X0018818D01*
X0028479Y0011761D02*
X0026538D01*
X0026316Y0011852D02*
X0026246D01*
X0025899Y0015100D02*
Y0012501D01*
X0025468Y0012932D02*
X0025902Y0012498D01*
X0028814Y0013250D02*
X0025468D01*
X0028830Y0013781D02*
X0025468D01*
X0018182Y0012293D02*
X0017428D01*
X0027389Y0011230D02*
X0026918D01*
X0028131Y0015100D02*
Y0011497D01*
X0024894Y0012612D02*
X0018818D01*
X0028479Y0012293D02*
X0025995D01*
X0025155Y0012345D02*
Y0012103D01*
X0038700Y0004533D02*
X0035666D01*
X0016029Y0006234D02*
X0014451D01*
X0002217Y0005065D02*
X0000600D01*
X0019946Y0001978D02*
Y0000600D01*
X0023792Y0005596D02*
X0020145D01*
X0019840Y0007506D02*
Y0006587D01*
X0017076Y0006987D02*
Y0006402D01*
X0026246Y0012103D02*
X0025995D01*
X0016229Y0006021D02*
X0014292D01*
X0017183Y0007014D02*
Y0006402D01*
X0016864Y0006999D02*
Y0006402D01*
X0019558D02*
X0016748D01*
X0011491Y0007616D02*
X0009349D01*
X0014950Y0007182D02*
Y0004019D01*
X0027389Y0008998D02*
X0026918D01*
X0017608Y0005766D02*
Y0000600D01*
X0015269Y0009159D02*
Y0007818D01*
X0025160Y0007297D02*
X0017478D01*
X0025123Y0007403D02*
X0017510D01*
X0014950Y0008651D02*
Y0007818D01*
X0015057Y0008651D02*
Y0007818D01*
X0015588Y0008991D02*
Y0007818D01*
X0032963Y0008637D02*
X0032450D01*
X0035463Y0008360D02*
X0033800D01*
X0026324Y0007391D02*
Y0004118D01*
X0016457Y0005809D02*
X0014292D01*
X0035627Y0006978D02*
X0033838D01*
X0034509Y0010038D02*
Y0007674D01*
X0033128Y0008473D02*
Y0007735D01*
X0038700Y0009317D02*
X0033566D01*
X0038700Y0009210D02*
X0033460D01*
X0032963Y0008637D02*
X0033164Y0008436D01*
X0035463Y0007935D02*
X0033800D01*
X0035463Y0008041D02*
X0033800D01*
X0003683Y0012182D02*
Y0011318D01*
X0030684Y0009045D02*
X0030415D01*
X0033134Y0008466D02*
X0031359D01*
X0035463D02*
X0033800D01*
X0033375Y0009125D02*
X0033707Y0008793D01*
X0028479Y0008466D02*
X0026918D01*
X0028814Y0012612D02*
X0025788D01*
X0033659Y0009409D02*
Y0008841D01*
X0031958Y0015100D02*
Y0013951D01*
X0028814Y0012931D02*
X0025469D01*
X0028814Y0013143D02*
X0025468D01*
X0038700Y0014100D02*
X0031774D01*
X0017395Y0007164D02*
Y0006402D01*
X0026218Y0007357D02*
Y0004118D01*
X0031427Y0013547D02*
Y0011497D01*
X0034084Y0015100D02*
Y0013857D01*
X0027389Y0010167D02*
X0026918D01*
X0029726Y0015100D02*
Y0014418D01*
X0010639Y0011443D02*
X0010257D01*
X0028814Y0012718D02*
X0025682D01*
X0028814Y0012588D02*
X0028794D01*
X0002620Y0010682D02*
Y0010318D01*
X0024545Y0003045D02*
X0015019D01*
X0019888Y0001982D02*
X0009519D01*
X0002182Y0006765D02*
X0000600D01*
X0028814Y0013569D02*
X0025468D01*
X0034722Y0004366D02*
Y0004118D01*
X0025049Y0003751D02*
Y0003549D01*
X0034084Y0007038D02*
Y0004118D01*
X0038700Y0014738D02*
X0025468D01*
X0019682Y0014782D02*
Y0014410D01*
X0024730Y0014782D02*
Y0012070D01*
X0024812Y0014738D02*
X0020318D01*
X0004931Y0014128D02*
Y0013931D01*
X0005230Y0015069D02*
X0004931D01*
X0001047Y0014844D02*
X0000600D01*
X0038700Y0015100D02*
X0025350D01*
X0004931Y0015069D02*
Y0014872D01*
Y0013994D02*
X0004760D01*
X0005490Y0007828D02*
Y0002519D01*
X0006128Y0014782D02*
Y0002503D01*
X0004931Y0014100D02*
X0004905D01*
X0020372Y0014782D02*
Y0014362D01*
X0004958Y0015100D02*
Y0015069D01*
X0016689Y0007084D02*
X0016618D01*
X0001076Y0010380D02*
X0000600D01*
X0030932Y0009045D02*
X0030729D01*
X0035572Y0010674D02*
X0033892D01*
X0038700Y0009423D02*
X0033673D01*
X0033765Y0009537D02*
Y0008713D01*
X0035654Y0009954D02*
X0033811D01*
X0034403Y0012914D02*
Y0010674D01*
X0038700Y0009529D02*
X0033761D01*
X0029726Y0006042D02*
Y0005200D01*
X0002182Y0008254D02*
X0002009D01*
X0034251Y0012931D02*
X0033760D01*
X0010560Y0006128D02*
X0002818D01*
X0033978Y0015100D02*
Y0013757D01*
X0033872Y0013115D02*
Y0012053D01*
X0002043Y0008682D02*
X0001972D01*
X0032596Y0015100D02*
Y0011478D01*
X0004590Y0007682D02*
X0002818D01*
X0002832D02*
Y0005899D01*
X0002043Y0008682D02*
X0002182Y0008543D01*
X0001080Y0007616D02*
X0000600D01*
X0001982Y0007697D02*
Y0005531D01*
X0001876Y0009573D02*
Y0009427D01*
X0009473Y0008572D02*
X0002818D01*
X0002182Y0008543D02*
Y0008000D01*
X0009582Y0008891D02*
X0002733D01*
X0009579Y0008679D02*
X0002818D01*
X0001025Y0009686D02*
Y0009314D01*
X0002153Y0008572D02*
X0001875D01*
X0002182Y0008041D02*
X0002068D01*
X0014011Y0013675D02*
X0000600D01*
X0014045Y0013250D02*
X0000600D01*
X0034047Y0013037D02*
X0033760D01*
X0034297Y0007038D02*
Y0005075D01*
X0038251Y0012931D02*
X0034515D01*
X0003284Y0009317D02*
X0002207D01*
X0023830Y0007509D02*
X0020170D01*
X0023483Y0008041D02*
X0020517D01*
X0025205Y0008215D02*
X0025065D01*
X0025259Y0008147D02*
X0024997D01*
X0025109Y0007509D02*
X0024170D01*
X0019502Y0008147D02*
X0017519D01*
X0026282D02*
X0026095D01*
X0025273Y0007935D02*
X0024785D01*
X0024709Y0008759D02*
X0024341Y0008391D01*
X0025114Y0007616D02*
X0024349D01*
X0025065Y0008215D02*
X0024626Y0007776D01*
X0024517Y0009533D02*
Y0008567D01*
X0026282Y0008254D02*
X0026173D01*
X0025235Y0008891D02*
X0017519D01*
X0033760Y0013952D02*
Y0013751D01*
X0026282Y0008360D02*
X0026219D01*
X0003151Y0011698D02*
Y0011318D01*
X0004710Y0012931D02*
X0000600D01*
X0002939Y0011682D02*
Y0011318D01*
X0002726Y0013978D02*
Y0012318D01*
X0003789Y0010682D02*
Y0009818D01*
X0002832Y0014038D02*
Y0012318D01*
X0003318Y0012718D02*
X0000600D01*
X0003682Y0012182D02*
X0003276Y0011776D01*
X0002301Y0013967D02*
Y0012318D01*
X0003325Y0012725D02*
X0002918Y0012318D01*
X0002407Y0013939D02*
Y0012318D01*
X0003045Y0011682D02*
Y0011318D01*
X0003364Y0013947D02*
Y0012758D01*
X0002513Y0013931D02*
Y0012318D01*
X0004595Y0012824D02*
X0000600D01*
X0008481Y0012506D02*
X0005519D01*
X0003045Y0014158D02*
Y0012445D01*
X0008695Y0012080D02*
X0005305D01*
X0013250Y0007094D02*
Y0006758D01*
X0010465Y0006340D02*
X0002818D01*
X0013564Y0006121D02*
X0013110D01*
X0015988Y0006340D02*
X0014484D01*
X0017289Y0007069D02*
Y0006402D01*
X0003576Y0013936D02*
Y0012818D01*
X0013037Y0007071D02*
Y0006963D01*
X0013687Y0006872D02*
X0013128D01*
X0013037Y0006130D02*
Y0003735D01*
X0003789Y0014010D02*
Y0012818D01*
X0003895Y0014091D02*
Y0012818D01*
X0004002Y0014225D02*
Y0012818D01*
X0013143Y0006121D02*
Y0003877D01*
X0030895Y0006796D02*
Y0005387D01*
X0025251Y0010911D02*
X0025089D01*
X0003045Y0009555D02*
Y0008318D01*
X0003470Y0010682D02*
Y0010030D01*
X0003419Y0009210D02*
X0002415D01*
X0004590Y0009182D02*
X0003550D01*
X0008869Y0008998D02*
X0005131D01*
X0004749Y0009954D02*
X0003545D01*
X0003364Y0009242D02*
Y0008318D01*
X0004108Y0010682D02*
Y0009818D01*
X0004214Y0010682D02*
Y0009818D01*
X0004320Y0010682D02*
Y0009818D01*
X0004427Y0010682D02*
Y0009818D01*
X0008830Y0007509D02*
X0005170D01*
X0001344Y0007453D02*
Y0000600D01*
X0001025Y0010686D02*
Y0010314D01*
X0003576Y0010682D02*
Y0009923D01*
X0002088Y0009682D02*
Y0009318D01*
X0026510Y0007191D02*
X0026131D01*
X0004590Y0009818D02*
X0003682D01*
X0019510Y0007828D02*
X0017402D01*
X0033021Y0008579D02*
Y0007595D01*
X0002088Y0010682D02*
Y0010318D01*
X0003364Y0010682D02*
Y0010136D01*
X0030369Y0011070D02*
X0030358D01*
X0028450Y0008617D02*
Y0007668D01*
X0029155Y0009045D02*
X0029109D01*
X0028650Y0007032D02*
X0028468D01*
X0003045Y0010682D02*
Y0010318D01*
X0030368Y0005200D02*
X0028600D01*
X0029071Y0010592D02*
X0028907D01*
X0028769Y0003166D02*
Y0000600D01*
X0028344Y0008617D02*
Y0007668D01*
X0028048Y0004852D02*
X0014102D01*
X0028876Y0005981D02*
Y0005200D01*
X0030368Y0004563D02*
X0028468D01*
X0003276Y0010224D02*
X0003682Y0009818D01*
X0026403Y0007297D02*
X0026195D01*
X0027832Y0007032D02*
Y0005200D01*
X0028982Y0005919D02*
Y0005200D01*
X0029088Y0005893D02*
Y0005200D01*
X0029194Y0005896D02*
Y0005200D01*
X0002194Y0010682D02*
Y0010318D01*
X0028468Y0005332D02*
X0028600Y0005200D01*
X0028725Y0006340D02*
X0028468D01*
X0030647Y0005383D02*
X0028468D01*
X0034394Y0004533D02*
X0031163D01*
X0034319Y0004639D02*
X0031238D01*
X0027832Y0005490D02*
X0014292D01*
X0027925Y0004975D02*
X0028243Y0004657D01*
X0027925Y0004975D02*
X0028243Y0004657D01*
X0028154Y0004746D02*
X0024067D01*
X0003257Y0009343D02*
Y0008318D01*
X0002818Y0008675D02*
Y0008318D01*
X0004651Y0007616D02*
X0002818D01*
X0002182Y0008147D02*
X0002050D01*
X0009529Y0009182D02*
Y0008629D01*
X0002182Y0006340D02*
X0000600D01*
X0032915Y0015100D02*
Y0013952D01*
X0035463Y0008572D02*
X0033800D01*
X0029939Y0006118D02*
Y0005200D01*
X0030191Y0001769D02*
X0009465D01*
X0002182Y0006872D02*
X0000600D01*
X0002182Y0006978D02*
X0000600D01*
X0031533Y0008617D02*
Y0007295D01*
X0029206Y0014206D02*
X0025468D01*
X0002182Y0006659D02*
X0000600D01*
X0002818Y0007682D02*
Y0005910D01*
X0034191Y0007038D02*
Y0004118D01*
X0036848Y0005389D02*
Y0004470D01*
X0037083Y0004156D02*
Y0004109D01*
X0025076Y0003576D02*
X0015019D01*
X0010468Y0006553D02*
X0002818D01*
X0037486Y0005389D02*
Y0004109D01*
X0037061Y0015100D02*
Y0004470D01*
X0015376Y0009942D02*
Y0009742D01*
X0024970Y0003470D02*
X0015019D01*
X0030683Y0004371D02*
Y0004118D01*
X0038700Y0004320D02*
X0037083D01*
X0025237Y0004463D02*
X0025582Y0004118D01*
X0025687Y0006965D02*
Y0004118D01*
X0004002Y0009182D02*
Y0008318D01*
X0025117Y0003683D02*
X0015019D01*
X0030789Y0004363D02*
Y0004118D01*
X0030895Y0004376D02*
Y0004118D01*
X0024836Y0007986D02*
Y0004557D01*
X0019567Y0003895D02*
X0015019D01*
X0025474Y0007002D02*
Y0004226D01*
X0011167Y0004533D02*
X0003019D01*
X0031478Y0013356D02*
X0031318D01*
X0028982Y0011070D02*
Y0009045D01*
X0030932Y0011070D02*
Y0010867D01*
X0024627Y0009423D02*
X0016008D01*
X0033550Y0011974D02*
X0031359D01*
X0028814Y0006872D02*
X0028468D01*
X0031560Y0013143D02*
X0031318D01*
X0004002Y0012182D02*
Y0011318D01*
X0038700Y0012718D02*
X0031318D01*
X0031505Y0013250D02*
X0031318D01*
X0019792Y0005596D02*
X0014292D01*
X0028994Y0013994D02*
X0025468D01*
X0027389Y0010592D02*
X0026918D01*
X0026431Y0015100D02*
Y0011830D01*
X0002407Y0011682D02*
Y0011318D01*
X0009538Y0011336D02*
X0009395D01*
X0009971Y0010380D02*
X0001924D01*
X0009742Y0010608D02*
Y0010142D01*
X0013570Y0006765D02*
X0013234D01*
X0009529Y0012021D02*
Y0011318D01*
X0009848Y0010502D02*
Y0010248D01*
X0003151Y0010682D02*
Y0010302D01*
X0001063Y0009635D02*
X0000600D01*
X0008572Y0009206D02*
Y0008294D01*
X0002620Y0011682D02*
Y0011318D01*
X0008578Y0010698D02*
X0005422D01*
X0005383Y0010650D02*
Y0009850D01*
X0002069Y0011682D02*
Y0011431D01*
X0025474Y0003074D02*
Y0000600D01*
X0025205Y0009215D02*
X0024966D01*
X0025205Y0008852D02*
X0024934D01*
X0009767Y0010167D02*
X0003333D01*
X0023550Y0009742D02*
X0020450D01*
X0025205Y0009852D02*
X0025098D01*
X0023782Y0009529D02*
X0020218D01*
X0024391Y0009659D02*
X0024741Y0009309D01*
X0026282Y0009210D02*
X0026145D01*
X0002832Y0011682D02*
Y0011318D01*
X0025203Y0009848D02*
X0025102D01*
X0025242Y0010167D02*
X0024783D01*
X0024415Y0009635D02*
X0024369D01*
X0024836Y0010271D02*
Y0010114D01*
X0025361Y0010061D02*
X0024889D01*
X0030684Y0011070D02*
X0030415D01*
X0029088Y0010556D02*
Y0009045D01*
X0028479Y0012588D02*
Y0011497D01*
X0030729Y0011070D02*
X0030684D01*
X0030932Y0010805D02*
X0030485D01*
X0028663Y0015100D02*
Y0012588D01*
X0018182Y0012399D02*
X0017332D01*
X0035572Y0015100D02*
Y0011875D01*
X0030528Y0004427D02*
X0025273D01*
X0019734Y0011554D02*
Y0010446D01*
X0003470Y0011970D02*
Y0011318D01*
X0027832Y0006128D02*
X0024486D01*
X0023612Y0011655D02*
X0020388D01*
X0025108Y0011761D02*
X0024998D01*
X0024517Y0013958D02*
Y0012271D01*
X0025108Y0011124D02*
X0025018D01*
X0025108Y0011549D02*
X0025018D01*
X0025108Y0011868D02*
X0024932D01*
X0004427Y0012182D02*
Y0011318D01*
X0024832Y0014718D02*
Y0012800D01*
X0023561Y0011724D02*
Y0010276D01*
X0024721Y0010380D02*
X0024354D01*
X0024385Y0010805D02*
X0018818D01*
X0025205Y0010852D02*
X0025148D01*
X0025108Y0011230D02*
X0025018D01*
X0025108Y0011655D02*
X0025018D01*
X0010572Y0011336D02*
X0010364D01*
X0025018Y0010982D02*
X0025148Y0010852D01*
X0018182Y0010805D02*
X0017519D01*
X0024314Y0011586D02*
X0024382Y0011518D01*
X0025108Y0011336D02*
X0025018D01*
X0025108Y0011017D02*
X0025018D01*
X0026282Y0009742D02*
X0026207D01*
X0026282Y0010273D02*
X0026183D01*
X0024382Y0010911D02*
X0018818D01*
X0025294Y0009954D02*
X0024995D01*
X0025108Y0011974D02*
X0024826D01*
X0026282Y0010380D02*
X0026225D01*
X0024926Y0012574D02*
X0025359Y0012141D01*
X0013887Y0007182D02*
Y0006951D01*
X0031359Y0007527D02*
X0031340D01*
X0016300Y0007818D02*
X0013757D01*
X0014525Y0007182D02*
Y0004019D01*
X0004320Y0012182D02*
Y0011318D01*
X0002939Y0014137D02*
Y0012338D01*
X0014313Y0008651D02*
Y0007818D01*
X0012866Y0006234D02*
X0012284D01*
X0013551Y0007191D02*
X0013394D01*
X0016618Y0006532D02*
X0016748Y0006402D01*
X0018182Y0011549D02*
X0017257D01*
X0033454Y0011868D02*
X0031359D01*
X0024834Y0010273D02*
X0024663D01*
X0004108Y0012182D02*
Y0011318D01*
X0031359Y0012588D02*
Y0011497D01*
X0032915Y0012914D02*
Y0011478D01*
X0025049Y0008199D02*
Y0004554D01*
X0015982Y0007084D02*
X0013221D01*
X0030932Y0011070D02*
Y0010867D01*
X0030415Y0011070D02*
X0030369D01*
X0030045Y0015100D02*
Y0014418D01*
X0031473Y0013462D02*
X0031349D01*
X0030576Y0015100D02*
Y0014418D01*
X0028810Y0006553D02*
X0028468D01*
X0031405Y0013569D02*
X0031359D01*
X0031859Y0012931D02*
X0031318D01*
X0035827Y0005809D02*
X0028468D01*
X0004533Y0009182D02*
Y0008318D01*
X0019487Y0002726D02*
X0000600D01*
X0019633Y0002088D02*
X0009511D01*
X0030191Y0002407D02*
X0024807D01*
X0024880Y0003920D02*
X0024367D01*
X0004214Y0009182D02*
Y0008318D01*
X0031002Y0004413D02*
Y0004118D01*
X0025793Y0006976D02*
Y0004118D01*
X0024447Y0002179D02*
X0024363D01*
X0026962Y0003166D02*
Y0000600D01*
X0038700Y0004427D02*
X0037083D01*
X0026282Y0007616D02*
X0026240D01*
X0028761Y0006128D02*
X0028468D01*
X0009981Y0003576D02*
X0000600D01*
X0009981Y0003257D02*
X0000600D01*
X0013981Y0003045D02*
X0013750D01*
X0013182Y0004700D02*
Y0003910D01*
X0013415Y0005065D02*
X0011535D01*
X0016545Y0005774D02*
Y0000600D01*
X0013521Y0005171D02*
X0011429D01*
X0019529Y0004533D02*
X0013818D01*
X0013656Y0005306D02*
X0013276Y0004926D01*
X0019444Y0004320D02*
X0013818D01*
X0025011Y0003789D02*
X0024216D01*
X0024411Y0005813D02*
Y0004557D01*
X0004320Y0013960D02*
Y0012818D01*
X0015982Y0006446D02*
X0014493D01*
X0010486Y0006264D02*
Y0004019D01*
X0027919Y0004981D02*
Y0004118D01*
X0029301Y0005927D02*
Y0005200D01*
X0030369Y0011070D02*
X0030358D01*
X0013182Y0004533D02*
X0011818D01*
X0029939Y0010388D02*
Y0009045D01*
X0030054Y0007527D02*
X0029785D01*
X0019612Y0011655D02*
X0018818D01*
X0018182Y0011974D02*
X0017518D01*
X0027832Y0006340D02*
X0024420D01*
X0029407Y0010346D02*
Y0009045D01*
X0028025Y0008617D02*
Y0007668D01*
X0030684Y0007527D02*
X0030415D01*
X0028450Y0003166D02*
Y0000600D01*
X0028557Y0004563D02*
Y0004118D01*
X0035827Y0006446D02*
X0030109D01*
X0029768Y0007527D02*
Y0006853D01*
X0028557Y0007032D02*
Y0005243D01*
X0015982Y0006872D02*
X0014262D01*
X0019617Y0005702D02*
X0014292D01*
X0013182Y0004427D02*
X0011818D01*
X0030932Y0009848D02*
X0028907D01*
X0027389Y0010507D02*
Y0010238D01*
Y0010192D01*
X0028907Y0010507D02*
Y0010238D01*
X0000934Y0010061D02*
X0000600D01*
X0030932Y0010167D02*
X0028907D01*
X0027389Y0010822D02*
Y0010553D01*
Y0010507D01*
X0028907Y0010822D02*
Y0010553D01*
X0027389Y0011182D02*
Y0010867D01*
X0028907Y0011070D02*
Y0010867D01*
X0001001Y0010273D02*
X0000600D01*
X0029194Y0010431D02*
Y0009045D01*
X0027389Y0010192D02*
Y0009923D01*
X0018182Y0010911D02*
X0017519D01*
X0030932Y0010698D02*
X0030479D01*
X0027389Y0011497D02*
Y0011182D01*
X0038700Y0008891D02*
X0033608D01*
X0028450Y0015100D02*
Y0011497D01*
X0028344Y0015100D02*
Y0011497D01*
X0028238Y0015100D02*
Y0011497D01*
X0026856Y0015100D02*
Y0011439D01*
X0028025Y0015100D02*
Y0011497D01*
X0027919Y0015100D02*
Y0011497D01*
X0027813Y0015100D02*
Y0011497D01*
X0027706Y0015100D02*
Y0011497D01*
X0002939Y0010682D02*
Y0010318D01*
X0028876Y0015100D02*
Y0013870D01*
X0038700Y0012612D02*
X0031318D01*
X0038700Y0012506D02*
X0031359D01*
X0030932Y0010822D02*
Y0010553D01*
X0018182Y0011336D02*
X0017519D01*
X0031639Y0013051D02*
Y0011497D01*
X0030932Y0010507D02*
Y0010238D01*
Y0010507D02*
Y0010238D01*
X0033128Y0012914D02*
Y0011478D01*
X0032277Y0013000D02*
Y0011497D01*
X0000956Y0010167D02*
X0000600D01*
X0031958Y0012915D02*
Y0011497D01*
X0030932Y0009877D02*
Y0009608D01*
X0031852Y0012933D02*
Y0011497D01*
X0030932Y0009562D02*
Y0009293D01*
Y0009608D02*
Y0009562D01*
X0032596Y0008637D02*
Y0004118D01*
X0030932Y0009247D02*
Y0009045D01*
X0032383Y0013093D02*
Y0011497D01*
X0038700Y0009848D02*
X0036088D01*
X0033553Y0009303D02*
Y0008947D01*
X0030932Y0009923D02*
Y0009877D01*
X0030369Y0009045D02*
X0030100D01*
X0033406Y0011761D02*
X0031359D01*
X0030369Y0007527D02*
X0030100D01*
X0030054D02*
X0029785D01*
X0030100D02*
X0030054D01*
X0029739Y0009045D02*
X0029470D01*
X0030054D02*
X0029785D01*
X0030470Y0010661D02*
Y0009045D01*
X0035463Y0008254D02*
X0033800D01*
X0030683Y0011070D02*
Y0009045D01*
X0029470D02*
X0029424D01*
X0030415D02*
X0030369D01*
X0030045Y0010365D02*
Y0009045D01*
X0030932Y0011017D02*
X0030405D01*
X0029424Y0009045D02*
X0029155D01*
X0030369D02*
X0030100D01*
X0028907Y0009247D02*
Y0009045D01*
X0018182Y0011868D02*
X0017502D01*
X0027389Y0009923D02*
Y0009877D01*
X0028907Y0010553D02*
Y0010507D01*
X0029109Y0011070D02*
X0028907D01*
X0032722Y0013887D02*
X0032241D01*
X0032722Y0013781D02*
X0032376D01*
X0032722Y0013675D02*
X0032450D01*
X0032722Y0013569D02*
X0032492D01*
X0032722Y0013462D02*
X0032509D01*
X0032722Y0013356D02*
X0032504D01*
X0033765Y0015100D02*
Y0013751D01*
X0032490Y0015100D02*
Y0013577D01*
X0038700Y0014206D02*
X0031667D01*
X0032277Y0015100D02*
Y0013866D01*
X0032171Y0015100D02*
Y0013920D01*
X0032065Y0015100D02*
Y0013946D01*
X0024382Y0011230D02*
X0018818D01*
X0032722Y0013250D02*
X0032477D01*
X0032722Y0013143D02*
X0032422D01*
X0032722Y0013037D02*
X0032327D01*
X0032722Y0012931D02*
X0032123D01*
X0034133Y0013887D02*
X0033760D01*
X0033998Y0013781D02*
X0033760D01*
X0002301Y0009682D02*
Y0009292D01*
X0029301Y0015100D02*
Y0014301D01*
X0033659Y0015100D02*
Y0013952D01*
X0033553Y0015100D02*
Y0013952D01*
X0033446Y0015100D02*
Y0013952D01*
X0033340Y0015100D02*
Y0013952D01*
X0033234Y0015100D02*
Y0013952D01*
X0033128Y0015100D02*
Y0013952D01*
X0033021Y0015100D02*
Y0013952D01*
X0019558Y0005766D02*
X0016616D01*
X0019438Y0004214D02*
X0013818D01*
X0002182Y0006446D02*
X0000600D01*
X0002099Y0005171D02*
X0000600D01*
X0010656Y0005809D02*
X0002917D01*
X0034278Y0004746D02*
X0031279D01*
X0028769Y0007055D02*
Y0006489D01*
X0010656Y0005490D02*
X0003019D01*
X0000931Y0011655D02*
X0000600D01*
X0003019Y0005019D02*
X0002695D01*
X0002818Y0007682D02*
Y0005910D01*
X0003151Y0009449D02*
Y0008318D01*
X0028769Y0006111D02*
Y0005200D01*
X0010805Y0004895D02*
Y0004019D01*
X0019697Y0003789D02*
X0015019D01*
X0019734Y0003770D02*
Y0002967D01*
X0010848Y0004852D02*
X0003019D01*
X0010954Y0004746D02*
X0003019D01*
X0001982Y0005469D02*
Y0002519D01*
X0002939Y0005222D02*
Y0005019D01*
X0001981Y0004320D02*
X0000600D01*
X0002726Y0005033D02*
Y0005019D01*
X0002939Y0007682D02*
Y0005777D01*
X0029832Y0006063D02*
Y0005200D01*
X0002194Y0005080D02*
Y0005019D01*
X0002088Y0005184D02*
Y0005019D01*
X0004427Y0009182D02*
Y0008318D01*
X0023454Y0004108D02*
Y0002642D01*
X0009981Y0004002D02*
X0003019D01*
X0019680Y0002939D02*
X0000600D01*
X0023561Y0002157D02*
Y0000600D01*
X0019628Y0002092D02*
Y0000600D01*
X0030191Y0002088D02*
X0024273D01*
X0037401Y0005490D02*
X0036935D01*
X0008519Y0002519D02*
Y0002195D01*
X0009742Y0007942D02*
Y0000600D01*
X0009317Y0007589D02*
Y0002411D01*
X0009210Y0007525D02*
Y0002475D01*
X0009104Y0007491D02*
Y0002509D01*
X0008998Y0007481D02*
Y0002519D01*
X0008891Y0007492D02*
Y0002508D01*
X0008785Y0007528D02*
Y0002472D01*
X0008679Y0007592D02*
Y0002408D01*
X0001981Y0004108D02*
X0000600D01*
X0008924Y0002513D02*
X0008519D01*
X0008678Y0002407D02*
X0008519D01*
X0008577Y0002301D02*
X0008519D01*
X0019442Y0002407D02*
X0009322D01*
X0019472Y0002301D02*
X0009423D01*
X0019531Y0002194D02*
X0009481D01*
X0030191D02*
X0024546D01*
X0008535Y0001769D02*
X0008519D01*
X0030191Y0001982D02*
X0024018D01*
X0008572Y0014782D02*
Y0012794D01*
X0008466Y0014782D02*
Y0002519D01*
X0008360Y0014782D02*
Y0002519D01*
X0008254Y0014782D02*
Y0002519D01*
X0008147Y0014782D02*
Y0002519D01*
X0008041Y0014782D02*
Y0002519D01*
X0007935Y0014782D02*
Y0002519D01*
X0006069Y0014782D02*
Y0013931D01*
X0007722Y0014782D02*
Y0002519D01*
X0007616Y0014782D02*
Y0002519D01*
X0035466Y0015100D02*
Y0010674D01*
X0038700Y0010805D02*
X0036243D01*
X0036501Y0010837D02*
X0036177D01*
X0036423D02*
Y0010630D01*
X0036317Y0010837D02*
Y0010753D01*
X0036210Y0010837D02*
Y0010822D01*
X0035679Y0010837D02*
Y0010777D01*
X0035572Y0010837D02*
Y0010675D01*
X0035463Y0011655D02*
X0034209D01*
X0038700Y0010698D02*
X0036372D01*
X0038700Y0010592D02*
X0036444D01*
X0038700Y0010486D02*
X0036485D01*
X0038700Y0010380D02*
X0036501D01*
X0038700Y0010273D02*
X0036495D01*
X0038700Y0010167D02*
X0036466D01*
X0038700Y0011868D02*
X0036501D01*
X0038700Y0011761D02*
X0036501D01*
X0038700Y0011655D02*
X0036501D01*
X0038700Y0011549D02*
X0036501D01*
X0038700Y0011974D02*
X0034050D01*
X0036317Y0015100D02*
Y0011875D01*
X0036210Y0015100D02*
Y0011875D01*
X0036104Y0015100D02*
Y0011875D01*
X0035998Y0015100D02*
Y0011875D01*
X0035891Y0015100D02*
Y0011875D01*
X0035785Y0015100D02*
Y0011875D01*
X0035679Y0015100D02*
Y0011875D01*
X0026643Y0015100D02*
Y0011656D01*
X0038700Y0011443D02*
X0036501D01*
X0038700Y0011336D02*
X0036501D01*
X0038700Y0011230D02*
X0036501D01*
X0038700Y0011124D02*
X0036501D01*
X0038700Y0011017D02*
X0036501D01*
X0038700Y0007084D02*
X0036424D01*
X0038700Y0007828D02*
X0036198D01*
X0000935Y0007935D02*
X0000600D01*
X0038700Y0007616D02*
X0036432D01*
X0038700Y0007509D02*
X0036478D01*
X0038700Y0007403D02*
X0036499D01*
X0038700Y0007297D02*
X0036498D01*
X0036501Y0007837D02*
X0036177D01*
X0036423D02*
Y0007630D01*
X0036317Y0007837D02*
Y0007753D01*
X0036210Y0007837D02*
Y0007822D01*
X0035679Y0007837D02*
Y0007777D01*
X0035572Y0007837D02*
Y0007675D01*
Y0010038D02*
Y0008875D01*
X0038700Y0006694D02*
X0037401D01*
X0038700Y0009742D02*
X0033800D01*
X0038700Y0008785D02*
X0036501D01*
X0038700Y0008679D02*
X0036501D01*
X0038700Y0008572D02*
X0036501D01*
X0038700Y0008466D02*
X0036501D01*
X0038700Y0008360D02*
X0036501D01*
X0038700Y0008254D02*
X0036501D01*
X0038700Y0008147D02*
X0036501D01*
X0038700Y0008041D02*
X0036501D01*
X0036423Y0010082D02*
Y0008875D01*
X0036317Y0009959D02*
Y0008875D01*
X0036210Y0009890D02*
Y0008875D01*
X0036104Y0009852D02*
Y0008875D01*
X0035998Y0009837D02*
Y0008875D01*
X0035891Y0009845D02*
Y0008875D01*
X0035785Y0009876D02*
Y0008875D01*
X0002481Y0002407D02*
X0002322D01*
X0002481Y0002301D02*
X0002423D01*
X0002481Y0001769D02*
X0002465D01*
X0002481Y0001663D02*
X0002395D01*
X0002481Y0001557D02*
X0002270D01*
X0002620Y0003981D02*
Y0002519D01*
X0002407Y0003981D02*
Y0002322D01*
X0002301Y0003981D02*
Y0002423D01*
X0002194Y0003981D02*
Y0002481D01*
X0002031Y0005277D02*
X0000600D01*
X0000965Y0010805D02*
X0000600D01*
X0002481Y0002519D02*
Y0002195D01*
X0000952Y0009848D02*
X0000600D01*
X0000931Y0008998D02*
X0000600D01*
X0000932Y0008041D02*
X0000600D01*
X0004481Y0002513D02*
X0003519D01*
X0004481Y0002407D02*
X0003519D01*
X0004481Y0002301D02*
X0003519D01*
X0004481Y0002194D02*
X0003519D01*
X0004481Y0002088D02*
X0003519D01*
X0004481Y0001982D02*
X0003519D01*
X0004481Y0001876D02*
X0003519D01*
X0004481Y0001769D02*
X0003519D01*
X0004481Y0001663D02*
X0003519D01*
X0004481Y0001557D02*
X0003519D01*
X0003895Y0007682D02*
Y0000600D01*
X0003789Y0007682D02*
Y0000600D01*
X0003683Y0007682D02*
Y0000600D01*
X0003470Y0007682D02*
Y0002519D01*
X0003364Y0007682D02*
Y0002519D01*
X0001981Y0004427D02*
X0000600D01*
X0002939Y0003981D02*
Y0002519D01*
X0002832Y0003981D02*
Y0002519D01*
X0002726Y0003981D02*
Y0002519D01*
X0002088Y0003981D02*
Y0002511D01*
X0007481Y0002407D02*
X0006322D01*
X0007481Y0001876D02*
X0006504D01*
X0007481Y0001769D02*
X0006465D01*
X0007481Y0001663D02*
X0006395D01*
X0005519Y0002519D02*
Y0002195D01*
X0006659Y0014782D02*
Y0000600D01*
X0006446Y0014782D02*
Y0002265D01*
X0006340Y0014782D02*
Y0002392D01*
X0006234Y0014782D02*
Y0002463D01*
X0006021Y0013931D02*
Y0002519D01*
X0005915Y0013931D02*
Y0002512D01*
X0005809Y0013931D02*
Y0002482D01*
X0005702Y0013931D02*
Y0002425D01*
X0005596Y0013931D02*
Y0002326D01*
X0008485Y0007935D02*
X0005515D01*
X0008679Y0001592D02*
Y0000600D01*
X0005678Y0002407D02*
X0005519D01*
X0005577Y0002301D02*
X0005519D01*
X0007481D02*
X0006423D01*
X0007481Y0002194D02*
X0006481D01*
X0007481Y0002088D02*
X0006511D01*
X0007481Y0001982D02*
X0006519D01*
X0005535Y0001769D02*
X0005519D01*
X0005605Y0001663D02*
X0005519D01*
X0005383Y0007650D02*
Y0002519D01*
X0005277Y0007561D02*
Y0002519D01*
X0005171Y0007510D02*
Y0002519D01*
X0004958Y0007483D02*
Y0002519D01*
X0004852Y0007503D02*
Y0002519D01*
X0004746Y0007548D02*
Y0002519D01*
X0028814Y0006659D02*
X0028468D01*
Y0007032D02*
Y0005332D01*
X0003895Y0012182D02*
Y0011318D01*
X0038700Y0010061D02*
X0036409D01*
X0028814Y0012588D02*
X0028794D01*
X0028663Y0007032D02*
Y0005200D01*
X0003106Y0012506D02*
X0002069D01*
X0017820Y0014782D02*
Y0010578D01*
X0017502Y0014782D02*
Y0012133D01*
X0019628Y0014782D02*
Y0014361D01*
X0016864Y0014782D02*
Y0012501D01*
X0016757Y0014782D02*
Y0012459D01*
X0016651Y0014782D02*
Y0012384D01*
X0017519Y0011519D02*
X0017195D01*
X0035679Y0009935D02*
Y0008875D01*
X0032702Y0015100D02*
Y0011478D01*
X0033760Y0013115D02*
Y0012914D01*
X0031746Y0012975D02*
Y0011497D01*
X0038700Y0012187D02*
X0031359D01*
X0000931Y0011761D02*
X0000600D01*
X0017502Y0011867D02*
Y0011519D01*
X0017395Y0011664D02*
Y0011519D01*
X0017289Y0011569D02*
Y0011519D01*
Y0014782D02*
Y0012431D01*
X0017183Y0014782D02*
Y0012486D01*
X0017076Y0014782D02*
Y0012513D01*
X0016970Y0014782D02*
Y0012518D01*
X0016757Y0011541D02*
Y0011519D01*
X0016651Y0011616D02*
Y0011519D01*
X0013164Y0003895D02*
X0011836D01*
X0013069Y0003789D02*
X0011931D01*
X0012506Y0006456D02*
Y0000600D01*
X0010911Y0008651D02*
Y0006955D01*
X0012575Y0006525D02*
X0012885Y0006215D01*
X0010563Y0009423D02*
X0010373D01*
X0029100Y0014100D02*
X0025468D01*
X0028479Y0008572D02*
X0026918D01*
X0013250Y0003045D02*
X0011750D01*
X0011019Y0004019D02*
Y0003695D01*
X0027389Y0009104D02*
X0026918D01*
X0033234Y0012914D02*
Y0011534D01*
X0036423Y0015100D02*
Y0011875D01*
X0010592Y0006088D02*
Y0004019D01*
X0010486Y0009536D02*
Y0006615D01*
X0010380Y0009430D02*
Y0004019D01*
X0009423Y0009182D02*
Y0008523D01*
X0011182Y0004108D02*
X0003019D01*
X0011164Y0003895D02*
X0011019D01*
X0011069Y0003789D02*
X0011019D01*
X0013014Y0003683D02*
X0011986D01*
X0012987Y0003576D02*
X0012013D01*
X0011818Y0004650D02*
Y0003910D01*
X0019509Y0010167D02*
X0018467D01*
X0011124Y0003143D02*
Y0000600D01*
X0011041Y0003257D02*
X0011019D01*
X0013041D02*
X0011959D01*
X0013182Y0004108D02*
X0011818D01*
X0013981Y0003895D02*
X0013836D01*
X0013981Y0003789D02*
X0013931D01*
X0012187Y0014782D02*
Y0012352D01*
X0018565Y0005766D02*
Y0000600D01*
X0013887Y0014782D02*
Y0012977D01*
X0014206Y0004957D02*
Y0004019D01*
X0025554Y0006978D02*
X0016618D01*
X0013887Y0004638D02*
Y0003845D01*
X0004002Y0010682D02*
Y0009818D01*
X0013656Y0006021D02*
X0011292D01*
X0013675Y0007182D02*
Y0006863D01*
X0013981Y0003257D02*
X0013959D01*
X0013981Y0004019D02*
Y0003695D01*
X0015376Y0014782D02*
Y0013724D01*
X0019521Y0003956D02*
Y0002785D01*
X0028450Y0004564D02*
Y0004118D01*
X0004108Y0009182D02*
Y0008318D01*
X0019495Y0004002D02*
X0015019D01*
X0024864Y0003364D02*
X0015019D01*
X0012449Y0012824D02*
X0009405D01*
X0027833Y0005171D02*
X0014292D01*
X0015801Y0009044D02*
Y0007818D01*
X0014844Y0007182D02*
Y0004019D01*
X0014738Y0007182D02*
Y0004019D01*
X0014631Y0007182D02*
Y0004019D01*
X0015982Y0006553D02*
X0014481D01*
X0014419Y0006172D02*
Y0004019D01*
X0034191Y0011528D02*
Y0010674D01*
X0016013Y0014782D02*
Y0011318D01*
X0019626Y0008360D02*
X0017519D01*
Y0007981D02*
X0017195D01*
X0017502D02*
Y0007633D01*
X0017395Y0007981D02*
Y0007836D01*
X0017289Y0007981D02*
Y0007931D01*
X0016757Y0007981D02*
Y0007959D01*
X0016651Y0007981D02*
Y0007884D01*
X0016123Y0006128D02*
X0014389D01*
X0035572Y0007038D02*
X0033892D01*
X0029194Y0003166D02*
Y0000600D01*
X0025359Y0012103D02*
X0025108D01*
X0028479Y0008617D02*
Y0007668D01*
X0001119Y0009423D02*
X0000600D01*
X0017820Y0005766D02*
Y0000600D01*
X0017502Y0009942D02*
Y0009019D01*
X0017289Y0009942D02*
Y0009019D01*
X0017183Y0009942D02*
Y0009019D01*
X0017076Y0009942D02*
Y0009019D01*
X0016970Y0009942D02*
Y0009019D01*
X0016864Y0009942D02*
Y0009019D01*
X0016757Y0009942D02*
Y0009019D01*
X0029088Y0011070D02*
Y0010950D01*
X0027706Y0003166D02*
Y0000600D01*
X0025580Y0003166D02*
Y0000600D01*
X0024739Y0008785D02*
X0017519D01*
X0019485Y0007935D02*
X0017284D01*
X0019772Y0008466D02*
X0017519D01*
X0000991Y0008254D02*
X0000600D01*
X0015311Y0009689D02*
X0015600Y0009400D01*
X0015889Y0009111D02*
X0015600Y0009400D01*
X0015311Y0009111D02*
X0015600Y0009400D01*
X0015889Y0009689D02*
X0015600Y0009400D01*
X0012381Y0012769D02*
X0012670Y0012480D01*
X0026006Y0015100D02*
Y0012103D01*
X0012959Y0012769D02*
X0012670Y0012480D01*
X0030211Y0007289D02*
X0030500Y0007000D01*
X0030789Y0006711D02*
X0030500Y0007000D01*
X0030211Y0006711D02*
X0030500Y0007000D01*
X0009635Y0007836D02*
Y0000600D01*
X0012032Y0006978D02*
X0002818D01*
X0011611Y0007311D02*
X0011900Y0007600D01*
X0012612Y0006488D02*
Y0000600D01*
X0012293Y0006243D02*
Y0000600D01*
X0012575Y0006525D02*
X0012265Y0006215D01*
X0011611Y0007311D02*
X0011900Y0007600D01*
X0012032Y0006882D02*
X0011908Y0006758D01*
X0025793Y0003166D02*
Y0000600D01*
X0030366Y0010484D02*
X0030077Y0010773D01*
X0029787Y0010484D02*
X0030077Y0010773D01*
X0029129Y0011017D02*
X0028907D01*
X0030366Y0010484D02*
X0030077Y0010773D01*
X0029787Y0010484D02*
X0030077Y0010773D01*
X0024832Y0014419D02*
X0024306D01*
X0030211Y0007289D02*
X0030500Y0007000D01*
X0030789Y0006711D02*
X0030500Y0007000D01*
X0030211Y0006711D02*
X0030500Y0007000D01*
X0015694Y0009942D02*
Y0009798D01*
X0011868Y0014782D02*
Y0012354D01*
X0033164Y0007935D02*
X0031359D01*
X0009726Y0012724D02*
X0010075Y0012375D01*
X0011336Y0006067D02*
Y0005264D01*
X0011549Y0006121D02*
Y0005051D01*
X0011655Y0006121D02*
Y0004945D01*
X0017608Y0014782D02*
Y0010578D01*
X0015212Y0009529D02*
X0015094D01*
X0013569Y0014782D02*
Y0012761D01*
X0038016Y0013800D02*
X0038383Y0013433D01*
X0038016Y0013066D02*
X0038383Y0013433D01*
X0034412Y0005248D02*
X0034779Y0004881D01*
X0035146Y0005248D02*
X0034779Y0004881D01*
X0034412Y0004514D02*
X0034779Y0004881D01*
X0023601Y0006451D02*
X0023969Y0006084D01*
X0024336Y0005717D02*
X0023969Y0006084D01*
X0023601Y0005717D02*
X0023969Y0006084D01*
X0024336Y0006451D02*
X0023969Y0006084D01*
X0030932Y0011070D02*
X0030729D01*
X0025205Y0010215D02*
X0025016D01*
X0031359Y0012588D02*
X0031318D01*
X0030684Y0011070D02*
X0030415D01*
X0033164Y0008254D02*
X0031359D01*
X0030100Y0009045D02*
X0030054D01*
X0008000Y0002519D02*
Y0002000D01*
Y0001481D02*
Y0002000D01*
X0007481D02*
X0008000D01*
X0008605Y0001663D02*
X0008519D01*
X0003000Y0001481D02*
Y0002000D01*
Y0002519D02*
Y0002000D01*
X0003519D02*
X0003000D01*
X0009981Y0003364D02*
X0000600D01*
X0005000Y0002519D02*
Y0002000D01*
Y0001481D02*
Y0002000D01*
X0004481D02*
X0005000D01*
X0026324Y0015100D02*
Y0011852D01*
X0012262Y0012506D02*
X0009944D01*
X0030151Y0006786D02*
Y0005200D01*
X0030470Y0007527D02*
Y0007408D01*
X0016120Y0006130D02*
Y0000600D01*
X0011541Y0007403D02*
X0002818D01*
X0030165Y0006765D02*
X0029960D01*
X0014100Y0004850D02*
Y0004019D01*
X0029301Y0010371D02*
Y0009045D01*
X0030932Y0011070D02*
X0030729D01*
X0025995Y0012273D02*
Y0012103D01*
X0025049Y0010215D02*
Y0009901D01*
X0038700Y0006872D02*
X0036169D01*
X0030092Y0006978D02*
X0029768D01*
X0013994Y0013386D02*
Y0012974D01*
X0012337Y0012718D02*
X0009732D01*
X0013558Y0012399D02*
X0013071D01*
X0012718Y0014782D02*
Y0012886D01*
X0015107Y0012718D02*
X0014311D01*
X0015107Y0012187D02*
X0014248D01*
X0011974Y0006121D02*
Y0003711D01*
X0029280Y0010380D02*
X0028907D01*
X0015107Y0012506D02*
X0014334D01*
X0030932Y0009317D02*
X0028907D01*
X0029726Y0010454D02*
Y0009045D01*
X0018182Y0011655D02*
X0017388D01*
X0026537Y0015100D02*
Y0011763D01*
X0027389Y0008679D02*
X0026918D01*
X0035147Y0015100D02*
Y0010674D01*
X0012506Y0014782D02*
Y0012854D01*
X0011124Y0014782D02*
Y0011554D01*
X0013818Y0004568D02*
Y0003910D01*
X0015107Y0012931D02*
X0014123D01*
X0015107Y0012612D02*
X0014337D01*
X0016498Y0011868D02*
X0015743D01*
X0013037Y0014782D02*
Y0012661D01*
X0015107Y0012293D02*
X0014248D01*
X0035767Y0007828D02*
X0033800D01*
X0016598D02*
X0014001D01*
X0016481Y0008360D02*
X0014279D01*
X0035796Y0006872D02*
X0033669D01*
X0018246Y0009972D02*
Y0006402D01*
X0016481Y0008891D02*
X0015109D01*
X0015318Y0009104D02*
X0015109D01*
X0018458Y0010158D02*
Y0006402D01*
X0017820Y0009942D02*
Y0006402D01*
X0033164Y0008436D02*
Y0007766D01*
X0013250Y0006121D02*
Y0004896D01*
X0012931Y0006177D02*
Y0000600D01*
X0011501Y0007509D02*
X0009170D01*
X0025049Y0012451D02*
Y0010951D01*
X0015982Y0007182D02*
X0013625D01*
X0002069Y0012569D02*
Y0012318D01*
X0016332Y0009942D02*
Y0007818D01*
X0012988Y0007082D02*
Y0007012D01*
X0025155Y0007307D02*
Y0004522D01*
X0019096Y0014782D02*
Y0006402D01*
X0029832Y0007527D02*
Y0006837D01*
X0004427Y0013936D02*
Y0012818D01*
X0011510Y0007722D02*
X0009505D01*
X0018352Y0010052D02*
Y0006402D01*
X0017927Y0009942D02*
Y0006402D01*
X0035592Y0010698D02*
X0033872D01*
Y0010013D02*
Y0007699D01*
X0035360Y0007038D02*
Y0004755D01*
X0015238Y0009210D02*
X0015109D01*
X0018033Y0009942D02*
Y0006402D01*
X0033765Y0011165D02*
Y0010791D01*
X0034616Y0010038D02*
Y0007674D01*
X0018777Y0010494D02*
Y0006402D01*
X0024517Y0002187D02*
Y0000600D01*
X0011182Y0004214D02*
X0003019D01*
X0030191Y0002939D02*
X0025338D01*
X0011061Y0004639D02*
X0003019D01*
X0025209Y0009210D02*
X0015962D01*
X0028994Y0005915D02*
X0028468D01*
X0034963Y0004118D02*
X0025582D01*
X0030191Y0001876D02*
X0009504D01*
X0036529Y0005389D02*
Y0004470D01*
X0038700Y0004639D02*
X0035589D01*
X0003576Y0009182D02*
Y0008318D01*
X0011561Y0007828D02*
X0009628D01*
X0030932Y0010486D02*
X0030368D01*
X0015107Y0012824D02*
X0014250D01*
X0018182Y0012187D02*
X0017484D01*
X0028794Y0012588D02*
X0028479D01*
X0030932Y0010380D02*
X0030188D01*
X0030684Y0007527D02*
X0030415D01*
X0033164Y0008147D02*
X0031359D01*
X0030576Y0007527D02*
Y0007402D01*
Y0006598D02*
Y0005359D01*
X0035827Y0006659D02*
X0031476D01*
X0030703Y0007527D02*
Y0007355D01*
X0032990Y0007191D02*
X0031612D01*
X0024733Y0009317D02*
X0016000D01*
X0015269Y0009942D02*
Y0009641D01*
X0032490Y0008637D02*
Y0004118D01*
X0033028Y0008572D02*
X0031359D01*
X0030054Y0009045D02*
X0029785D01*
X0031639Y0006875D02*
Y0004118D01*
X0013549Y0012718D02*
X0013003D01*
X0030274Y0006659D02*
X0030052D01*
X0030431Y0007403D02*
X0029768D01*
X0032965D02*
X0031340D01*
X0030729Y0009045D02*
X0030684D01*
X0027919Y0003166D02*
Y0000600D01*
X0015588Y0009942D02*
Y0009809D01*
X0015482Y0009942D02*
Y0009792D01*
X0031340Y0007527D02*
Y0007399D01*
X0033127Y0006978D02*
X0031658D01*
X0014292Y0006029D02*
Y0005174D01*
X0032967Y0007297D02*
X0031531D01*
X0030703Y0007527D02*
X0030684D01*
X0013675Y0014782D02*
Y0012890D01*
X0015801Y0009942D02*
Y0009756D01*
X0002182Y0007616D02*
X0001920D01*
X0025150Y0003650D02*
X0024341Y0002841D01*
X0036954Y0015100D02*
Y0004470D01*
X0030138Y0007191D02*
X0029768D01*
X0003789Y0009182D02*
Y0008318D01*
X0003895Y0009182D02*
Y0008318D01*
X0027175Y0015100D02*
Y0007668D01*
X0036635Y0005389D02*
Y0004470D01*
X0036742Y0005389D02*
Y0004470D01*
X0035679Y0006935D02*
Y0004504D01*
X0023880Y0013495D02*
Y0012505D01*
X0023773Y0013533D02*
Y0012467D01*
X0023667Y0013602D02*
Y0012398D01*
X0016481Y0008679D02*
X0015109D01*
X0020478Y0013798D02*
Y0012202D01*
X0020372Y0013638D02*
Y0012362D01*
X0020265Y0013554D02*
Y0012446D01*
X0020159Y0013506D02*
Y0012494D01*
X0020053Y0013484D02*
Y0012516D01*
X0019946Y0013484D02*
Y0012516D01*
X0019840Y0013506D02*
Y0012494D01*
X0009954Y0014782D02*
Y0012495D01*
X0023882Y0012506D02*
X0020118D01*
X0023743Y0011549D02*
X0020257D01*
X0023668Y0012399D02*
X0020332D01*
X0023572Y0012293D02*
X0020428D01*
X0023516Y0012187D02*
X0020484D01*
X0023487Y0012080D02*
X0020513D01*
X0023482Y0011974D02*
X0020518D01*
X0023498Y0011868D02*
X0020502D01*
X0023539Y0011761D02*
X0020461D01*
X0019586Y0014313D02*
X0006069D01*
X0019628Y0013639D02*
Y0012361D01*
X0024624Y0010476D02*
Y0010293D01*
X0024508Y0010592D02*
X0018813D01*
X0024614Y0010486D02*
X0024183D01*
X0004590Y0012182D02*
X0003682D01*
X0004214D02*
Y0011318D01*
X0030364Y0006614D02*
Y0005200D01*
X0003257Y0011759D02*
Y0011318D01*
X0024305Y0011580D02*
Y0010420D01*
X0024198Y0011520D02*
Y0010480D01*
X0024092Y0011489D02*
Y0010511D01*
X0023986Y0011481D02*
Y0010519D01*
X0023880Y0011495D02*
Y0010505D01*
X0023773Y0011533D02*
Y0010467D01*
X0023667Y0011602D02*
Y0010398D01*
X0015266Y0009635D02*
X0015109D01*
X0025101Y0012399D02*
X0024332D01*
X0020478Y0011798D02*
Y0010202D01*
X0020372Y0011638D02*
Y0010362D01*
X0020265Y0011554D02*
Y0010446D01*
X0020159Y0011506D02*
Y0010494D01*
X0020053Y0011484D02*
Y0010516D01*
X0019946Y0011484D02*
Y0010516D01*
X0019840Y0011506D02*
Y0010494D01*
X0019521Y0011800D02*
Y0010200D01*
X0023817Y0010486D02*
X0020183D01*
X0023646Y0010380D02*
X0020354D01*
X0023559Y0010273D02*
X0020441D01*
X0023509Y0010167D02*
X0020491D01*
X0023485Y0010061D02*
X0020515D01*
X0023483Y0009954D02*
X0020517D01*
X0023504Y0009848D02*
X0020496D01*
X0018182Y0011761D02*
X0017461D01*
X0019628Y0011639D02*
Y0010361D01*
X0023561Y0009724D02*
Y0008276D01*
X0023631Y0009635D02*
X0020369D01*
X0024836Y0009243D02*
Y0008836D01*
X0024629Y0008679D02*
X0017519D01*
X0024523Y0008572D02*
X0017519D01*
X0024500Y0010318D02*
X0024410D01*
X0024836Y0003920D02*
Y0003336D01*
X0024730Y0003920D02*
Y0003230D01*
X0024305Y0009580D02*
Y0008420D01*
X0024198Y0009520D02*
Y0008480D01*
X0024092Y0009489D02*
Y0008511D01*
X0023986Y0009481D02*
Y0008519D01*
X0023880Y0009495D02*
Y0008505D01*
X0023773Y0009533D02*
Y0008467D01*
X0023667Y0009602D02*
Y0008398D01*
X0024517Y0007704D02*
Y0004557D01*
X0015694Y0009002D02*
Y0007818D01*
X0023485Y0007935D02*
X0020515D01*
X0023772Y0008466D02*
X0020228D01*
X0023626Y0008360D02*
X0020374D01*
X0023547Y0008254D02*
X0020453D01*
X0023502Y0008147D02*
X0020498D01*
X0024521Y0009529D02*
X0024218D01*
X0020478Y0009798D02*
Y0008202D01*
X0020372Y0009638D02*
Y0008362D01*
X0020265Y0009554D02*
Y0008446D01*
X0020159Y0009506D02*
Y0008494D01*
X0020053Y0009484D02*
Y0008516D01*
X0019946Y0009484D02*
Y0008516D01*
X0019840Y0009506D02*
Y0008494D01*
X0009975Y0010375D02*
X0009418Y0009818D01*
X0019628Y0009639D02*
Y0008361D01*
X0023561Y0007724D02*
Y0006405D01*
X0023510Y0007828D02*
X0020490D01*
X0023562Y0007722D02*
X0020438D01*
X0023651Y0007616D02*
X0020349D01*
X0038700Y0015100D02*
Y0013844D01*
Y0013887D02*
X0038633D01*
X0038655Y0015100D02*
Y0013875D01*
X0038549Y0015100D02*
Y0013924D01*
X0038443Y0015100D02*
Y0013948D01*
X0038336Y0015100D02*
Y0013950D01*
X0038230Y0015100D02*
Y0013929D01*
X0038124Y0015100D02*
Y0013882D01*
X0038017Y0015100D02*
Y0013801D01*
X0032383Y0015100D02*
Y0013772D01*
X0019830Y0007509D02*
X0017519D01*
X0038133Y0013887D02*
X0034633D01*
X0037998Y0013781D02*
X0034768D01*
X0037924Y0013675D02*
X0034842D01*
X0037882Y0013569D02*
X0034884D01*
X0037865Y0013462D02*
X0034901D01*
X0034828Y0015100D02*
Y0013699D01*
X0034722Y0015100D02*
Y0013825D01*
X0034616Y0015100D02*
Y0013896D01*
X0034509Y0015100D02*
Y0013936D01*
X0034403Y0015100D02*
Y0013951D01*
X0034297Y0015100D02*
Y0013944D01*
X0033872Y0015100D02*
Y0013751D01*
X0002726Y0009682D02*
Y0008899D01*
X0037911Y0013216D02*
Y0006694D01*
X0037897Y0013250D02*
X0034869D01*
X0037952Y0013143D02*
X0034814D01*
X0038047Y0013037D02*
X0034719D01*
X0034647Y0005383D02*
X0030910D01*
X0034443Y0005277D02*
X0031114D01*
X0034348Y0005171D02*
X0031209D01*
X0031427Y0006631D02*
Y0004118D01*
X0031320Y0006597D02*
Y0004118D01*
X0031214Y0006593D02*
Y0005164D01*
X0031108Y0006616D02*
Y0005283D01*
X0015907Y0009942D02*
Y0009670D01*
X0030151Y0007527D02*
Y0007214D01*
X0030789Y0006711D02*
Y0005400D01*
X0030683Y0006634D02*
Y0005392D01*
X0028832Y0006021D02*
X0028468D01*
X0034293Y0005065D02*
X0031264D01*
X0034265Y0004958D02*
X0031292D01*
X0034260Y0004852D02*
X0031297D01*
X0038700Y0005383D02*
X0034910D01*
X0038700Y0005277D02*
X0035114D01*
X0035254Y0007038D02*
Y0005091D01*
X0035147Y0007038D02*
Y0005247D01*
X0033973Y0013751D02*
X0033760D01*
X0035041Y0007038D02*
Y0005329D01*
X0034935Y0007038D02*
Y0005376D01*
X0034828Y0007038D02*
Y0005398D01*
X0034722Y0007038D02*
Y0005397D01*
X0034616Y0007038D02*
Y0005374D01*
X0038700Y0004746D02*
X0035404D01*
X0038700Y0005065D02*
X0035264D01*
X0038700Y0004958D02*
X0035292D01*
X0035572Y0007038D02*
Y0004655D01*
X0034892Y0004320D02*
X0025379D01*
X0037083Y0004470D02*
X0035691D01*
X0038700Y0004852D02*
X0035297D01*
X0031340Y0007527D02*
Y0007399D01*
X0001003Y0007722D02*
X0000600D01*
X0030191Y0001557D02*
X0009270D01*
X0010656Y0005277D02*
X0002969D01*
X0029407Y0003166D02*
Y0000600D01*
X0030191Y0002726D02*
X0025126D01*
X0010656Y0005383D02*
X0003006D01*
X0001982Y0010682D02*
Y0010318D01*
X0030915Y0006765D02*
X0030835D01*
X0034403Y0004523D02*
Y0004118D01*
X0002182Y0007084D02*
X0000600D01*
X0019524Y0014206D02*
X0006069D01*
X0019491Y0014100D02*
X0006069D01*
X0019481Y0013994D02*
X0018660D01*
X0019493Y0013887D02*
X0018845D01*
X0019529Y0013781D02*
X0018936D01*
X0019309Y0005766D02*
Y0000600D01*
X0018990Y0014782D02*
Y0013672D01*
X0018883Y0014782D02*
Y0013850D01*
X0018777Y0014782D02*
Y0013939D01*
X0018671Y0014782D02*
Y0013990D01*
X0018565Y0014782D02*
Y0014015D01*
X0018458Y0014782D02*
Y0014017D01*
X0018352Y0014782D02*
Y0013997D01*
X0018246Y0014782D02*
Y0013952D01*
X0018139Y0014782D02*
Y0013873D01*
X0024382Y0011124D02*
X0018818D01*
X0024836Y0012748D02*
Y0011964D01*
X0024832Y0013250D02*
X0018955D01*
X0018340Y0013994D02*
X0014660D01*
X0018155Y0013887D02*
X0014845D01*
X0015801Y0014782D02*
Y0011293D01*
X0018064Y0013781D02*
X0015299D01*
X0018011Y0013675D02*
X0015425D01*
X0013656Y0005490D02*
X0011292D01*
X0015057Y0014782D02*
Y0013818D01*
X0014844Y0014782D02*
Y0013889D01*
X0014738Y0014782D02*
Y0013961D01*
X0014631Y0014782D02*
Y0014002D01*
X0014525Y0014782D02*
Y0014018D01*
X0014419Y0014782D02*
Y0014013D01*
X0014313Y0014782D02*
Y0013984D01*
X0014206Y0014782D02*
Y0013928D01*
X0014100Y0014782D02*
Y0013831D01*
X0018458Y0005766D02*
Y0000600D01*
X0020372Y0005757D02*
Y0004550D01*
X0020265Y0005658D02*
Y0004656D01*
X0020159Y0005601D02*
Y0004716D01*
X0020053Y0005572D02*
Y0004749D01*
X0019946Y0005566D02*
Y0004757D01*
X0019840Y0005581D02*
Y0004744D01*
X0019734Y0005621D02*
Y0004707D01*
X0023846Y0004746D02*
X0020067D01*
X0023627Y0004639D02*
X0020286D01*
X0023529Y0004533D02*
X0020384D01*
X0023473Y0004427D02*
X0020440D01*
X0023444Y0004320D02*
X0020469D01*
X0019628Y0005693D02*
Y0004640D01*
X0016757Y0007041D02*
Y0006402D01*
X0023438Y0004214D02*
X0020475D01*
X0023454Y0004108D02*
X0020459D01*
X0023495Y0004002D02*
X0020418D01*
X0023567Y0003895D02*
X0020346D01*
X0023697Y0003789D02*
X0020216D01*
X0010698Y0005017D02*
Y0004019D01*
X0010742Y0004958D02*
X0003019D01*
X0027832Y0005702D02*
X0024320D01*
X0027862Y0005065D02*
X0014273D01*
X0027832Y0005277D02*
X0014292D01*
X0030394Y0004533D02*
X0025132D01*
X0024305Y0005689D02*
Y0004624D01*
X0024198Y0005619D02*
Y0004698D01*
X0024092Y0005580D02*
Y0004740D01*
X0023986Y0005565D02*
Y0004757D01*
X0023880Y0005573D02*
Y0004752D01*
X0023773Y0005603D02*
Y0004724D01*
X0023667Y0005662D02*
Y0004669D01*
X0023561Y0005763D02*
Y0004574D01*
X0023454Y0006013D02*
Y0004369D01*
X0024624Y0003920D02*
Y0003124D01*
X0025368Y0007056D02*
Y0004332D01*
X0024411Y0003920D02*
Y0002911D01*
X0018182Y0012824D02*
X0015743D01*
X0020372Y0003927D02*
Y0002803D01*
X0020265Y0003821D02*
Y0002911D01*
X0020159Y0003761D02*
Y0002973D01*
X0020053Y0003728D02*
Y0003006D01*
X0019946Y0003720D02*
Y0003016D01*
X0019840Y0003733D02*
Y0003003D01*
X0023680Y0002939D02*
X0020225D01*
X0023557Y0002832D02*
X0020349D01*
X0023487Y0002726D02*
X0020418D01*
X0023448Y0002620D02*
X0020457D01*
X0023434Y0002513D02*
X0020472D01*
X0011182Y0004427D02*
X0003019D01*
X0019628Y0003837D02*
Y0002901D01*
X0023442Y0002407D02*
X0020464D01*
X0023472Y0002301D02*
X0020433D01*
X0023531Y0002194D02*
X0020375D01*
X0023633Y0002088D02*
X0020273D01*
X0023888Y0001982D02*
X0020018D01*
X0024651Y0003151D02*
X0015019D01*
X0024439Y0002939D02*
X0024225D01*
X0025011Y0004557D02*
X0024367D01*
X0030191Y0003166D02*
X0025566D01*
X0024305Y0003854D02*
Y0002878D01*
X0024198Y0003779D02*
Y0002954D01*
X0024092Y0003738D02*
Y0002997D01*
X0023986Y0003720D02*
Y0003015D01*
X0023880Y0003725D02*
Y0003011D01*
X0023773Y0003753D02*
Y0002984D01*
X0023667Y0003808D02*
Y0002930D01*
X0023561Y0003903D02*
Y0002837D01*
X0002182Y0006553D02*
X0000600D01*
X0024730Y0002330D02*
Y0000600D01*
X0025566Y0003166D02*
X0024672Y0002273D01*
X0019595Y0013675D02*
X0018989D01*
X0005490Y0012328D02*
Y0011172D01*
X0008729Y0011443D02*
X0005271D01*
X0008605Y0011336D02*
X0005395D01*
X0008535Y0011230D02*
X0005465D01*
X0008496Y0011124D02*
X0005504D01*
X0008481Y0011017D02*
X0005519D01*
X0008489Y0010911D02*
X0005511D01*
X0008679Y0010592D02*
X0005321D01*
X0008929Y0010486D02*
X0005071D01*
X0004590Y0012818D02*
X0003550D01*
X0005277Y0012061D02*
Y0011439D01*
X0005171Y0012010D02*
Y0011490D01*
X0005065Y0011985D02*
Y0011515D01*
X0004958Y0011983D02*
Y0011517D01*
X0004852Y0012002D02*
Y0011497D01*
X0004746Y0012048D02*
Y0011452D01*
X0004639Y0012127D02*
Y0011373D01*
X0015107Y0011974D02*
X0014279D01*
X0038700Y0014313D02*
X0031561D01*
X0015694Y0014782D02*
Y0013394D01*
X0016743Y0011549D02*
X0015743D01*
X0002513Y0011682D02*
Y0011318D01*
X0009423Y0010682D02*
Y0009823D01*
X0009317Y0012089D02*
Y0011411D01*
X0009210Y0012025D02*
Y0011475D01*
X0009104Y0011991D02*
Y0011509D01*
X0008998Y0011981D02*
Y0011519D01*
X0008891Y0011992D02*
Y0011508D01*
X0008785Y0012028D02*
Y0011472D01*
X0008679Y0012092D02*
Y0011408D01*
X0034828Y0010038D02*
Y0007674D01*
X0019734Y0009554D02*
Y0008446D01*
X0008749Y0009954D02*
X0005251D01*
X0008615Y0009848D02*
X0005385D01*
X0008541Y0009742D02*
X0005459D01*
X0005490Y0010828D02*
Y0009672D01*
X0004929Y0010486D02*
X0001796D01*
X0005277Y0010561D02*
Y0009939D01*
X0005171Y0010510D02*
Y0009990D01*
X0005065Y0010485D02*
Y0010015D01*
X0004958Y0010483D02*
Y0010017D01*
X0004852Y0010503D02*
Y0009997D01*
X0004746Y0010548D02*
Y0009952D01*
X0004639Y0010627D02*
Y0009873D01*
X0008499Y0009635D02*
X0005501D01*
X0008482Y0009529D02*
X0005518D01*
X0008487Y0009423D02*
X0005513D01*
X0008514Y0009317D02*
X0005486D01*
X0008569Y0009210D02*
X0005431D01*
X0028238Y0004662D02*
Y0004118D01*
X0002182Y0006234D02*
X0000600D01*
X0025468Y0014850D02*
Y0012932D01*
X0009317Y0010589D02*
Y0009911D01*
X0009210Y0010525D02*
Y0009975D01*
X0009104Y0010491D02*
Y0010008D01*
X0008998Y0010481D02*
Y0010019D01*
X0008891Y0010492D02*
Y0010007D01*
X0008785Y0010528D02*
Y0009972D01*
X0008679Y0010592D02*
Y0009908D01*
X0019521Y0009800D02*
Y0008200D01*
X0011182Y0004002D02*
X0011019D01*
X0015163Y0007182D02*
Y0000600D01*
X0008772Y0008466D02*
X0005228D01*
X0008626Y0008360D02*
X0005374D01*
X0008547Y0008254D02*
X0005453D01*
X0008502Y0008147D02*
X0005498D01*
X0008483Y0008041D02*
X0005517D01*
X0003257Y0010682D02*
Y0010241D01*
X0005490Y0009328D02*
Y0008172D01*
X0005383Y0009150D02*
Y0008350D01*
X0005277Y0009061D02*
Y0008439D01*
X0005171Y0009010D02*
Y0008490D01*
X0005065Y0008985D02*
Y0008515D01*
X0004958Y0008983D02*
Y0008517D01*
X0004852Y0009002D02*
Y0008497D01*
X0004746Y0009048D02*
Y0008452D01*
X0004639Y0009127D02*
Y0008373D01*
X0008510Y0007828D02*
X0005490D01*
X0008562Y0007722D02*
X0005438D01*
X0008651Y0007616D02*
X0005349D01*
X0002182Y0008360D02*
X0001941D01*
X0011377Y0008147D02*
X0009947D01*
X0009661Y0010061D02*
X0003439D01*
X0011401Y0008041D02*
X0009841D01*
X0009582Y0008682D02*
X0009314Y0008414D01*
X0009210Y0009025D02*
Y0008475D01*
X0009104Y0008991D02*
Y0008509D01*
X0008998Y0008981D02*
Y0008519D01*
X0008891Y0008992D02*
Y0008508D01*
X0008785Y0009028D02*
Y0008472D01*
X0008679Y0009092D02*
Y0008408D01*
X0011443Y0007965D02*
Y0006758D01*
X0016226Y0006024D02*
Y0000600D01*
X0015982Y0006765D02*
X0014378D01*
X0027832Y0006659D02*
X0016618D01*
X0027832Y0006553D02*
X0024192D01*
X0027832Y0006446D02*
X0024340D01*
X0025190Y0007828D02*
X0024678D01*
X0024305Y0007580D02*
Y0006480D01*
X0024198Y0007520D02*
Y0006550D01*
X0024092Y0007489D02*
Y0006588D01*
X0023986Y0007481D02*
Y0006603D01*
X0023880Y0007495D02*
Y0006596D01*
X0023773Y0007533D02*
Y0006565D01*
X0023667Y0007602D02*
Y0006507D01*
X0028982Y0003166D02*
Y0000600D01*
X0027832Y0006234D02*
X0024465D01*
X0027832Y0006021D02*
X0024484D01*
X0027832Y0005915D02*
X0024459D01*
X0019483Y0008041D02*
X0017519D01*
X0020478Y0007798D02*
Y0006183D01*
X0020372Y0007638D02*
Y0006411D01*
X0020265Y0007554D02*
Y0006510D01*
X0020159Y0007506D02*
Y0006567D01*
X0020053Y0007484D02*
Y0006596D01*
X0019946Y0007484D02*
Y0006603D01*
X0023745Y0006553D02*
X0020192D01*
X0023597Y0006446D02*
X0020340D01*
X0023517Y0006340D02*
X0020420D01*
X0023472Y0006234D02*
X0020465D01*
X0019734Y0007554D02*
Y0006547D01*
X0019628Y0007639D02*
Y0006476D01*
X0023667Y0002064D02*
Y0000600D01*
X0023453Y0006021D02*
X0020484D01*
X0023478Y0005915D02*
X0020459D01*
X0023529Y0005809D02*
X0020408D01*
X0023617Y0005702D02*
X0020320D01*
X0002382Y0015057D02*
X0001618D01*
X0002152Y0014950D02*
X0001848D01*
X0002047Y0014844D02*
X0001953D01*
X0001982Y0015100D02*
Y0014803D01*
X0000983Y0014738D02*
X0000600D01*
X0001769Y0015100D02*
Y0015001D01*
X0001663Y0015100D02*
Y0015045D01*
X0001557Y0015100D02*
Y0015066D01*
X0001450Y0015100D02*
Y0015067D01*
X0001238Y0015100D02*
Y0015005D01*
X0001131Y0015100D02*
Y0014934D01*
X0002013Y0014206D02*
X0001987D01*
X0002095Y0014100D02*
X0001905D01*
X0002240Y0013994D02*
X0001760D01*
X0003382Y0015057D02*
X0002618D01*
X0003152Y0014950D02*
X0002848D01*
X0003047Y0014844D02*
X0002953D01*
X0002939Y0015100D02*
Y0014862D01*
X0002832Y0015100D02*
Y0014962D01*
X0002726Y0015100D02*
Y0015022D01*
X0002620Y0015100D02*
Y0015056D01*
X0002407Y0015100D02*
Y0015061D01*
X0002301Y0015100D02*
Y0015033D01*
X0002194Y0015100D02*
Y0014980D01*
X0002088Y0015100D02*
Y0014893D01*
X0003013Y0014206D02*
X0002987D01*
X0003095Y0014100D02*
X0002905D01*
X0003240Y0013994D02*
X0002760D01*
X0004382Y0015057D02*
X0003618D01*
X0004152Y0014950D02*
X0003848D01*
X0004047Y0014844D02*
X0003953D01*
X0003895Y0015100D02*
Y0014909D01*
X0003789Y0015100D02*
Y0014990D01*
X0003683Y0015100D02*
Y0015039D01*
X0003576Y0015100D02*
Y0015064D01*
X0003470Y0015100D02*
Y0015068D01*
X0003364Y0015100D02*
Y0015052D01*
X0003257Y0015100D02*
Y0015015D01*
X0004002Y0015100D02*
Y0014775D01*
X0000931Y0014525D02*
X0000600D01*
X0004013Y0014206D02*
X0003987D01*
X0004095Y0014100D02*
X0003905D01*
X0004240Y0013994D02*
X0003760D01*
X0004931Y0015057D02*
X0004618D01*
X0004931Y0014950D02*
X0004848D01*
X0027494Y0015100D02*
Y0011497D01*
X0004852Y0015100D02*
Y0014947D01*
X0004746Y0015100D02*
Y0015013D01*
X0004639Y0015100D02*
Y0015052D01*
X0004533Y0015100D02*
Y0015068D01*
X0004427Y0015100D02*
Y0015064D01*
X0004320Y0015100D02*
Y0015040D01*
X0003151Y0015100D02*
Y0014950D01*
X0004108Y0015100D02*
Y0014912D01*
X0019682Y0014419D02*
X0006069D01*
X0020318Y0014782D02*
Y0014410D01*
X0011761Y0007215D02*
Y0006758D01*
X0019682Y0014782D02*
X0006069D01*
X0019682Y0014738D02*
X0006069D01*
X0005253Y0015100D02*
X0000600D01*
X0005171D02*
Y0015069D01*
X0005065Y0015100D02*
Y0015069D01*
X0023561Y0013724D02*
Y0012276D01*
X0019521Y0013800D02*
Y0012200D01*
X0026282Y0009104D02*
X0026050D01*
X0026431Y0007269D02*
Y0004118D01*
X0026282Y0007828D02*
X0026164D01*
X0027600Y0008617D02*
Y0007668D01*
X0033033Y0007616D02*
X0031359D01*
X0016335Y0005915D02*
X0014292D01*
X0019539Y0011761D02*
X0018818D01*
X0028814Y0006978D02*
X0028468D01*
X0003895Y0010682D02*
Y0009818D01*
X0026643Y0007073D02*
Y0004118D01*
X0026218Y0008357D02*
Y0007710D01*
X0026112Y0008166D02*
Y0007901D01*
X0026006Y0008069D02*
Y0007998D01*
X0025368Y0008056D02*
Y0008011D01*
X0025261Y0008145D02*
Y0007922D01*
X0025140Y0007722D02*
X0024555D01*
X0026282Y0010061D02*
X0025994D01*
X0026218Y0009357D02*
Y0008710D01*
X0026112Y0009166D02*
Y0008901D01*
X0026006Y0009069D02*
Y0008998D01*
X0025368Y0009056D02*
Y0009011D01*
X0025261Y0009145D02*
Y0008922D01*
X0001982Y0011431D02*
Y0011318D01*
X0026282Y0007935D02*
X0026081D01*
X0026282Y0008785D02*
X0026188D01*
X0026282Y0008679D02*
X0026227D01*
X0026282Y0008572D02*
X0026245D01*
X0026282Y0008466D02*
X0026242D01*
X0026282Y0010167D02*
X0026112D01*
X0026282Y0009954D02*
X0026060D01*
X0026282Y0009848D02*
X0026151D01*
X0026218Y0010357D02*
Y0009710D01*
X0026112Y0010166D02*
Y0009901D01*
X0026006Y0010069D02*
Y0009998D01*
X0025368Y0010056D02*
Y0010011D01*
X0025261Y0010145D02*
Y0009922D01*
X0026282Y0008998D02*
X0026007D01*
X0026282Y0009635D02*
X0026237D01*
X0026282Y0009529D02*
X0026246D01*
X0026282Y0009423D02*
X0026235D01*
X0027389Y0011017D02*
X0026918D01*
X0026282Y0010911D02*
X0026103D01*
X0026282Y0010805D02*
X0026177D01*
X0026246Y0010965D02*
X0026049D01*
X0026218D02*
Y0010710D01*
X0026112Y0010965D02*
Y0010901D01*
X0025261Y0010965D02*
Y0010922D01*
X0024382Y0011518D02*
Y0010850D01*
X0026246Y0011154D02*
X0026282Y0011118D01*
Y0010592D02*
X0026243D01*
X0026282Y0010486D02*
X0026244D01*
X0028479Y0012080D02*
X0026246D01*
X0028479Y0011974D02*
X0026246D01*
X0028479Y0011868D02*
X0026246D01*
X0026750Y0015100D02*
Y0011550D01*
X0025474Y0015100D02*
Y0012926D01*
X0026218Y0015100D02*
Y0012103D01*
X0026112Y0015100D02*
Y0012103D01*
X0024995Y0012506D02*
X0024118D01*
X0028479D02*
X0025894D01*
X0028557Y0015100D02*
Y0012588D01*
X0024832Y0013781D02*
X0024471D01*
X0025793Y0015100D02*
Y0012607D01*
X0025687Y0015100D02*
Y0012713D01*
X0028814Y0013037D02*
X0025468D01*
X0025261Y0012239D02*
Y0012103D01*
X0027389Y0010805D02*
X0026918D01*
X0038700Y0004214D02*
X0037083D01*
X0038700Y0006978D02*
X0036338D01*
X0037870Y0013356D02*
X0034896D01*
X0038655Y0012991D02*
Y0006694D01*
X0038549Y0012941D02*
Y0006694D01*
X0038443Y0012917D02*
Y0006694D01*
X0038336Y0012916D02*
Y0006694D01*
X0038230Y0012937D02*
Y0006694D01*
X0038124Y0012983D02*
Y0006694D01*
X0038017Y0013064D02*
Y0006694D01*
X0037805Y0015100D02*
Y0006694D01*
X0037698Y0015100D02*
Y0006694D01*
X0037592Y0015100D02*
Y0006694D01*
X0038700Y0006765D02*
X0031585D01*
X0026246Y0012103D02*
Y0011852D01*
X0037592Y0005389D02*
Y0004109D01*
X0037401Y0006659D02*
X0036935D01*
X0037401Y0006553D02*
X0036935D01*
X0037401Y0006446D02*
X0036935D01*
X0037401Y0006340D02*
X0036935D01*
X0037401Y0006234D02*
X0036935D01*
X0037486Y0015100D02*
Y0006694D01*
X0036848Y0015100D02*
Y0006694D01*
X0036742Y0015100D02*
Y0006694D01*
X0036635Y0015100D02*
Y0006694D01*
X0036423Y0007082D02*
Y0006694D01*
X0036317Y0006959D02*
Y0006694D01*
X0036210Y0006890D02*
Y0006694D01*
X0036104Y0006852D02*
Y0006694D01*
X0035998Y0006837D02*
Y0006694D01*
X0035891Y0006845D02*
Y0006694D01*
X0037698Y0005389D02*
Y0004109D01*
X0037401Y0006021D02*
X0036935D01*
X0037401Y0005915D02*
X0036935D01*
X0037401Y0005809D02*
X0036935D01*
X0037401Y0005702D02*
X0036935D01*
X0037401Y0005596D02*
X0036935D01*
X0028814Y0013356D02*
X0025468D01*
X0001557Y0001730D02*
Y0000600D01*
X0038700Y0005171D02*
X0035209D01*
X0036423Y0005389D02*
Y0004470D01*
X0036317Y0005389D02*
Y0004470D01*
X0036210Y0005389D02*
Y0004470D01*
X0036104Y0005389D02*
Y0004470D01*
X0035998Y0005389D02*
Y0004470D01*
X0035785Y0006876D02*
Y0004470D01*
X0032915Y0008637D02*
Y0004118D01*
X0002088Y0008637D02*
Y0005816D01*
X0004772Y0008466D02*
X0002818D01*
X0003470Y0009192D02*
Y0008318D01*
X0029513Y0006086D02*
Y0005200D01*
X0038700Y0008998D02*
X0033502D01*
X0001876Y0008573D02*
Y0008427D01*
X0001131Y0008566D02*
Y0008434D01*
X0001025Y0008686D02*
Y0008314D01*
X0008572Y0007706D02*
Y0002294D01*
X0004214Y0015100D02*
Y0014992D01*
X0002182Y0007935D02*
X0002065D01*
X0027925Y0004975D02*
X0028243Y0004657D01*
X0002939Y0009661D02*
Y0008318D01*
X0002965Y0009635D02*
X0001937D01*
X0003071Y0009529D02*
X0001819D01*
X0002182Y0008466D02*
X0001826D01*
X0002918Y0009682D02*
X0003325Y0009275D01*
X0001131Y0009566D02*
Y0009434D01*
X0016716Y0007935D02*
X0014188D01*
X0010911Y0004789D02*
Y0004019D01*
X0030257Y0015100D02*
Y0014418D01*
X0008519Y0010805D02*
X0005481D01*
X0015107Y0013093D02*
Y0011282D01*
X0028131Y0004769D02*
Y0004118D01*
X0002620Y0009682D02*
Y0009005D01*
X0014738Y0008651D02*
Y0007818D01*
X0004679Y0010592D02*
X0001897D01*
X0001876Y0010573D02*
Y0010427D01*
X0001131Y0010566D02*
Y0010434D01*
X0002069Y0011431D02*
X0001872D01*
X0004590Y0011318D02*
X0001972D01*
X0004729Y0011443D02*
X0002069D01*
X0004605Y0011336D02*
X0001959D01*
X0002088Y0011682D02*
Y0011318D01*
X0002194Y0011682D02*
Y0011318D01*
X0002301Y0011682D02*
Y0011318D01*
X0002726Y0011682D02*
Y0011318D01*
X0001025Y0011431D02*
Y0011314D01*
X0008572Y0010706D02*
Y0009794D01*
Y0012206D02*
Y0011294D01*
X0003151Y0007682D02*
Y0002519D01*
X0004533Y0012182D02*
Y0011318D01*
X0002918Y0012318D02*
X0002069D01*
X0014760Y0011554D02*
X0014279D01*
X0016612Y0011655D02*
X0015743D01*
X0010911Y0014782D02*
Y0011554D01*
X0012080Y0014782D02*
Y0012382D01*
X0012283Y0012612D02*
X0009838D01*
X0001876Y0015100D02*
Y0014927D01*
X0001982Y0014197D02*
Y0012569D01*
X0001876Y0014073D02*
Y0012569D01*
X0001769Y0013999D02*
Y0012569D01*
X0001663Y0013955D02*
Y0012569D01*
X0001557Y0013934D02*
Y0012569D01*
X0001450Y0013933D02*
Y0012569D01*
X0001344Y0013953D02*
Y0012569D01*
X0001238Y0013995D02*
Y0012569D01*
X0001131Y0014066D02*
Y0012569D01*
X0029109Y0009045D02*
X0028907D01*
X0030932Y0009210D02*
X0028907D01*
X0027389Y0010192D02*
Y0009923D01*
X0028907Y0010192D02*
Y0009923D01*
X0030932Y0009635D02*
X0028907D01*
Y0009608D02*
Y0009562D01*
X0030932Y0009529D02*
X0028907D01*
X0000933Y0009954D02*
X0000600D01*
X0003683Y0009182D02*
Y0008318D01*
X0030683Y0007527D02*
Y0007366D01*
X0034297Y0004688D02*
Y0004118D01*
X0034616Y0004389D02*
Y0004118D01*
X0034509Y0004438D02*
Y0004118D01*
X0033765Y0006921D02*
Y0004118D01*
X0033659Y0006868D02*
Y0004118D01*
X0033553Y0006842D02*
Y0004118D01*
X0033446Y0006838D02*
Y0004118D01*
X0033340Y0006857D02*
Y0004118D01*
X0033234Y0006900D02*
Y0004118D01*
X0033128Y0006977D02*
Y0004118D01*
X0033021Y0007118D02*
Y0004118D01*
X0033978Y0007038D02*
Y0004118D01*
X0033872Y0007013D02*
Y0004118D01*
X0027832Y0006765D02*
X0016618D01*
X0027832Y0006872D02*
X0016618D01*
X0032809Y0008637D02*
Y0004118D01*
X0032702Y0008637D02*
Y0004118D01*
X0032383Y0008617D02*
Y0004118D01*
X0032277Y0008617D02*
Y0004118D01*
X0032171Y0008617D02*
Y0004118D01*
X0032065Y0008617D02*
Y0004118D01*
X0031958Y0008617D02*
Y0004118D01*
X0031852Y0008617D02*
Y0004118D01*
X0031746Y0008617D02*
Y0004118D01*
X0031427Y0008617D02*
Y0007369D01*
X0033296Y0006872D02*
X0031638D01*
X0031533Y0006705D02*
Y0004118D01*
X0031214Y0004599D02*
Y0004118D01*
X0031108Y0004480D02*
Y0004118D01*
X0030470Y0004464D02*
Y0004118D01*
X0030364Y0004563D02*
Y0004118D01*
X0030257Y0004563D02*
Y0004118D01*
X0030151Y0004563D02*
Y0004118D01*
X0030045Y0004563D02*
Y0004118D01*
X0029939Y0004563D02*
Y0004118D01*
X0029832Y0004563D02*
Y0004118D01*
X0029726Y0004563D02*
Y0004118D01*
X0029620Y0004563D02*
Y0004118D01*
X0030576Y0004403D02*
Y0004118D01*
X0029407Y0005997D02*
Y0005200D01*
X0028468Y0005332D02*
X0028600Y0005200D01*
X0029194Y0004563D02*
Y0004118D01*
X0029088Y0004563D02*
Y0004118D01*
X0028982Y0004563D02*
Y0004118D01*
X0028876Y0004563D02*
Y0004118D01*
X0028769Y0004563D02*
Y0004118D01*
X0028663Y0004563D02*
Y0004118D01*
X0027832Y0005383D02*
X0014292D01*
X0011182Y0004320D02*
X0003019D01*
X0029939Y0015100D02*
Y0014418D01*
X0014738Y0013039D02*
Y0011554D01*
X0016481Y0008785D02*
X0015109D01*
X0020691Y0014782D02*
Y0000600D01*
X0020478Y0014782D02*
Y0014202D01*
X0019682Y0014525D02*
X0006069D01*
X0024832Y0014631D02*
X0020318D01*
X0023586Y0014313D02*
X0020414D01*
X0017395Y0014782D02*
Y0012336D01*
X0038700Y0012080D02*
X0031359D01*
X0023524Y0014206D02*
X0020476D01*
X0023491Y0014100D02*
X0020509D01*
X0023481Y0013994D02*
X0020519D01*
X0023493Y0013887D02*
X0020507D01*
X0023529Y0013781D02*
X0020471D01*
X0023595Y0013675D02*
X0020405D01*
X0023712Y0013569D02*
X0020288D01*
X0024624Y0014782D02*
Y0012176D01*
X0019483Y0009954D02*
X0018198D01*
X0022179Y0014782D02*
Y0000600D01*
X0024411Y0014782D02*
Y0014317D01*
X0024305Y0014782D02*
Y0014420D01*
X0024198Y0014782D02*
Y0014480D01*
X0024092Y0014782D02*
Y0014511D01*
X0023986Y0014782D02*
Y0014519D01*
X0023880Y0014782D02*
Y0014505D01*
X0023773Y0014782D02*
Y0014467D01*
X0023667Y0014782D02*
Y0014398D01*
X0031746Y0015100D02*
Y0014128D01*
X0029088Y0015100D02*
Y0014088D01*
X0028814Y0006765D02*
X0028468D01*
X0024832Y0013356D02*
X0018999D01*
X0024832Y0014206D02*
X0024476D01*
X0019817Y0010486D02*
X0018772D01*
X0024832Y0013994D02*
X0024519D01*
X0005490Y0013931D02*
Y0012672D01*
X0005383Y0013931D02*
Y0012850D01*
X0008710Y0012931D02*
X0005290D01*
X0008595Y0012824D02*
X0005405D01*
X0008529Y0012718D02*
X0005471D01*
X0008493Y0012612D02*
X0005507D01*
X0005277Y0013931D02*
Y0012939D01*
X0005171Y0013931D02*
Y0012990D01*
X0005065Y0013931D02*
Y0013015D01*
X0004958Y0013931D02*
Y0013017D01*
X0004852Y0014053D02*
Y0012997D01*
X0004746Y0013987D02*
Y0012952D01*
X0004639Y0013948D02*
Y0012873D01*
X0009532Y0011868D02*
X0003368D01*
X0008491Y0012399D02*
X0005509D01*
X0008524Y0012293D02*
X0005476D01*
X0008586Y0012187D02*
X0005414D01*
X0018182Y0012506D02*
X0017118D01*
X0015482Y0014782D02*
Y0013618D01*
X0035041Y0015100D02*
Y0010674D01*
X0015057Y0013143D02*
X0014877D01*
X0015526Y0008998D02*
X0015109D01*
X0009635Y0014782D02*
Y0012788D01*
X0009317Y0014782D02*
Y0012911D01*
X0009210Y0014782D02*
Y0012975D01*
X0009104Y0014782D02*
Y0013008D01*
X0008998Y0014782D02*
Y0013019D01*
X0008891Y0014782D02*
Y0013007D01*
X0008785Y0014782D02*
Y0012972D01*
X0008679Y0014782D02*
Y0012908D01*
X0009742Y0014782D02*
Y0012708D01*
X0024943Y0012558D02*
Y0011856D01*
X0024575Y0012225D02*
X0024924Y0011876D01*
X0019712Y0013569D02*
X0019014D01*
X0019682Y0014631D02*
X0006069D01*
X0024411Y0013683D02*
Y0012317D01*
X0024305Y0013580D02*
Y0012420D01*
X0024198Y0013520D02*
Y0012480D01*
X0024092Y0013489D02*
Y0012511D01*
X0023986Y0013481D02*
Y0012519D01*
G01X0025405Y0010034D02*
G03X0025205Y0009852I0000272J0000500D01*
G01X0000931Y0008000D02*
G03X0001500Y0007431I0000569J0000000D01*
G03X0002069Y0008000I0000000J0000569D01*
G03X0001772Y0008500I0000569J0000000D01*
G01X0000931Y0009000D02*
G03X0001228Y0008500I0000569J0000000D01*
G01X0002182Y0005910D02*
G03X0001981Y0005500I0000318J0000410D01*
G01X0000931Y0010000D02*
G03X0001228Y0009500I0000569J0000000D01*
G01X0000931Y0011000D02*
G03X0001228Y0010500I0000569J0000000D01*
G01X0029550Y0014418D02*
G03X0029325Y0014325I0000000J0000318D01*
G01X0013182Y0003910D02*
G03X0012981Y0003500I0000318J0000410D01*
G01X0033164Y0007766D02*
G03X0032963Y0007356I0000318J0000410D01*
G01X0028650Y0007032D02*
G03X0028814Y0007077I0000000J0000318D01*
G01X0028650Y0007032D02*
G03X0028814Y0007077I0000000J0000318D01*
G01X0031472Y0013433D02*
G03X0031991Y0012914I0000519J0000000D01*
G03X0032510Y0013433I0000000J0000519D01*
G03X0031991Y0013952I0000519J0000000D01*
G01X0033973Y0013115D02*
G03X0034383Y0012914I0000410J0000318D01*
G01X0001981Y0005500D02*
G03X0002305Y0005019I0000519J0000000D01*
G01X0009000Y0001481D02*
G03X0009519Y0002000I0000000J0000519D01*
G03X0009000Y0002519I0000519J0000000D01*
G01X0035982Y0009837D02*
G03X0036501Y0010356I0000000J0000519D01*
G03X0036177Y0010837I0000519J0000000D01*
G01X0035982Y0006837D02*
G03X0036501Y0007356I0000000J0000519D01*
G03X0036177Y0007837I0000519J0000000D01*
G01X0001481Y0002000D02*
G03X0002000Y0001481I0000519J0000000D01*
Y0002519D02*
G03X0001481Y0002000I0000000J0000519D01*
G01X0006000Y0002519D02*
G03X0005519Y0002195I0000000J0000519D01*
G01X0006000Y0001481D02*
G03X0006519Y0002000I0000000J0000519D01*
G03X0006000Y0002519I0000519J0000000D01*
G01X0016481Y0012000D02*
G03X0016805Y0011519I0000519J0000000D01*
G01X0017519Y0012000D02*
G03X0017000Y0012519I0000519J0000000D01*
G03X0016481Y0012000I0000000J0000519D01*
G01X0011500Y0002981D02*
G03X0012019Y0003500I0000000J0000519D01*
G01X0012981D02*
G03X0013500Y0002981I0000519J0000000D01*
G01X0017000Y0006981D02*
G03X0017519Y0007500I0000000J0000519D01*
G03X0017195Y0007981I0000519J0000000D01*
G01X0035787Y0007837D02*
G03X0035572Y0007674I0000195J0000481D01*
G01X0025405Y0008034D02*
G03X0025108Y0007534I0000272J0000500D01*
G01X0027832Y0005200D02*
G03X0027925Y0004975I0000318J0000000D01*
G01X0019558Y0005766D02*
G03X0019969Y0005564I0000411J0000318D01*
G01X0025236Y0004463D02*
G03X0025011Y0004556I0000225J0000224D01*
G01X0012988Y0007082D02*
G03X0013100Y0007066I0000112J0000393D01*
G01X0012019Y0003500D02*
G03X0011818Y0003910I0000519J0000000D01*
G01X0009410Y0009818D02*
G03X0009000Y0010019I0000410J0000318D01*
G01X0008519Y0001805D02*
G03X0009000Y0001481I0000481J0000195D01*
G01X0005519Y0001805D02*
G03X0006000Y0001481I0000481J0000195D01*
G01X0002000Y0014228D02*
G03X0002500Y0013931I0000500J0000272D01*
G01X0003000Y0014772D02*
G03X0002500Y0015069I0000500J0000272D01*
G01X0002000Y0014772D02*
G03X0001500Y0015069I0000500J0000272D01*
G01X0003500D02*
G03X0003000Y0014772I0000000J0000569D01*
G01X0002500Y0013931D02*
G03X0003000Y0014228I0000000J0000569D01*
G01X0001128Y0011431D02*
G03X0000931Y0011000I0000372J0000431D01*
G01X0001228Y0009500D02*
G03X0000931Y0009000I0000272J0000500D01*
G01X0013500Y0002981D02*
G03X0013981Y0003305I0000000J0000519D01*
G01X0035572Y0007038D02*
G03X0035982Y0006837I0000410J0000318D01*
G01X0002695Y0005019D02*
G03X0003019Y0005500I0000195J0000481D01*
G01X0011019Y0003305D02*
G03X0011500Y0002981I0000481J0000195D01*
G01X0002481Y0002195D02*
G03X0002000Y0002519I0000481J0000195D01*
G01X0029700Y0006041D02*
G03X0030109Y0006450I0000000J0000409D01*
G01X0013733Y0007842D02*
G03X0013772Y0007858I0000118J0000328D01*
G01X0034383Y0013952D02*
G03X0033973Y0013751I0000000J0000519D01*
G01X0010656Y0005176D02*
G03X0010749Y0004951I0000318J0000000D01*
G01X0010656Y0005176D02*
G03X0010749Y0004951I0000318J0000000D01*
G01X0015375Y0013725D02*
G03X0015150Y0013818I0000225J0000225D01*
G01X0015102Y0011276D02*
G03X0014760Y0011554I0000342J0000071D01*
G01X0015743Y0013225D02*
G03X0015650Y0013450I0000318J0000000D01*
G01X0015743Y0013225D02*
G03X0015650Y0013450I0000318J0000000D01*
G01X0014199Y0004949D02*
G03X0014292Y0005174I0000225J0000225D01*
G01X0018110Y0009942D02*
G03X0018335Y0010035I0000000J0000318D01*
G01X0015071Y0009787D02*
G03X0015109Y0009942I0000311J0000158D01*
G01X0018725Y0010425D02*
G03X0018818Y0010650I0000225J0000225D01*
G01X0028907Y0013907D02*
G03X0028814Y0013682I0000225J0000225D01*
G01X0031359Y0013550D02*
G03X0031353Y0013621I0000409J0000000D01*
G01X0031549Y0014325D02*
G03X0031324Y0014418I0000225J0000225D01*
G01X0029550D02*
G03X0029325Y0014325I0000000J0000318D01*
G01X0013142Y0012346D02*
G03X0013065Y0012375I0000157J0000311D01*
G01X0031476Y0013498D02*
G03X0031472Y0013433I0000515J0000065D01*
G01X0033450Y0010874D02*
G03X0033535Y0010935I0000140J0000286D01*
G01X0034209Y0011650D02*
G03X0033800Y0012059I0000409J0000000D01*
G01X0024791Y0010309D02*
G03X0025016Y0010216I0000225J0000225D01*
G01X0029132Y0005891D02*
G03X0029489Y0006100I0000000J0000409D01*
G01X0028723Y0006300D02*
G03X0029132Y0005891I0000409J0000000D01*
G01X0009725Y0012725D02*
G03X0009500Y0012818I0000225J0000225D01*
G01X0003550D02*
G03X0003325Y0012725I0000000J0000318D01*
G01X0014248Y0012313D02*
G03X0014339Y0012570I0000318J0000257D01*
G01X0013100Y0007066D02*
G03X0013437Y0007243I0000000J0000409D01*
G01X0013100Y0007066D02*
G03X0013437Y0007243I0000000J0000409D01*
G01X0020519Y0014000D02*
G03X0020318Y0014410I0000519J0000000D01*
G01X0009550Y0009182D02*
G03X0009582Y0009183I0000000J0000318D01*
G01X0009000Y0008981D02*
G03X0009410Y0009182I0000000J0000519D01*
G01X0010125Y0008325D02*
G03X0010218Y0008550I0000225J0000225D01*
G01X0009415Y0007689D02*
G03X0009575Y0007775I0000065J0000311D01*
G01X0009314Y0008414D02*
G03X0009000Y0008520I0000314J0000414D01*
G01X0014500Y0012981D02*
G03X0014910Y0013182I0000000J0000519D01*
G01X0033450Y0010874D02*
G03X0033535Y0010935I0000140J0000286D01*
G01X0010455Y0006440D02*
G03X0010656Y0006029I0000519J0000000D01*
G01X0011292D02*
G03X0011384Y0006121I0000318J0000411D01*
G01X0010974Y0006959D02*
G03X0010455Y0006440I0000000J0000519D01*
G01X0014493D02*
G03X0013974Y0006959I0000519J0000000D01*
G01X0032963Y0007356D02*
G03X0033482Y0006837I0000519J0000000D01*
G01X0033892Y0007674D02*
G03X0033800Y0007766I0000410J0000318D01*
G01X0033843Y0011243D02*
G03X0034209Y0011650I0000043J0000407D01*
G01X0033482Y0010875D02*
G03X0033450Y0010874I0000000J0000519D01*
G01X0013930Y0007821D02*
G03X0014279Y0008170I0000000J0000349D01*
G01X0014292Y0006029D02*
G03X0014494Y0006440I0000318J0000411D01*
G01X0033800Y0009946D02*
G03X0033892Y0010038I0000318J0000410D01*
G01X0013772Y0007858D02*
G03X0013930Y0007820I0000158J0000312D01*
G01X0011900Y0007191D02*
G03X0012032Y0007213I0000000J0000409D01*
G01X0011579Y0007853D02*
G03X0011491Y0007600I0000321J0000253D01*
G01X0011900Y0007191D02*
G03X0012032Y0007213I0000000J0000409D01*
G01X0025306Y0010965D02*
G03X0025205Y0010852I0000371J0000431D01*
G01X0035787Y0010837D02*
G03X0035572Y0010674I0000195J0000481D01*
G01X0010546Y0009000D02*
G03X0010895Y0008651I0000349J0000000D01*
G01X0010546Y0009315D02*
G03X0010583Y0009157I0000349J0000000D01*
G01X0010547Y0009598D02*
G03X0010583Y0009472I0000348J0000032D01*
Y0009157D02*
G03X0010546Y0009000I0000312J0000157D01*
G01X0034891Y0004350D02*
G03X0034963Y0004118I0000409J0000000D01*
G01X0010895Y0011554D02*
G03X0010546Y0011208I0000000J0000349D01*
G01X0012040Y0012384D02*
G03X0011882Y0012346I0000000J0000349D01*
G01X0011725Y0012384D02*
G03X0011376Y0012035I0000000J0000349D01*
G01X0011882Y0012346D02*
G03X0011725Y0012383I0000157J0000311D01*
G01X0013065Y0012375D02*
G03X0013079Y0012480I0000395J0000105D01*
G01X0013521Y0012570D02*
G03X0013566Y0012384I0000409J0000000D01*
G01X0029129Y0011010D02*
G03X0029038Y0010753I0000318J0000257D01*
G01X0013521Y0012570D02*
G03X0013566Y0012384I0000409J0000000D01*
G01X0012275Y0012375D02*
G03X0012197Y0012346I0000080J0000340D01*
G01X0015109Y0009630D02*
G03X0015071Y0009787I0000349J0000000D01*
G01X0033892Y0010674D02*
G03X0033482Y0010875I0000410J0000318D01*
G01X0019481Y0014000D02*
G03X0020000Y0013481I0000519J0000000D01*
G03X0020519Y0014000I0000000J0000519D01*
G01X0023481D02*
G03X0024000Y0013481I0000519J0000000D01*
G03X0024519Y0014000I0000000J0000519D01*
G03X0024000Y0014519I0000519J0000000D01*
G03X0023481Y0014000I0000000J0000519D01*
G01X0024000Y0007481D02*
G03X0024410Y0007682I0000000J0000519D01*
G01X0005000Y0011981D02*
G03X0005519Y0012500I0000000J0000519D01*
G03X0005000Y0013019I0000519J0000000D01*
G01X0008481Y0012500D02*
G03X0009000Y0011981I0000519J0000000D01*
G01X0010168Y0012150D02*
G03X0010075Y0012375I0000318J0000000D01*
G01X0009000Y0013019D02*
G03X0008481Y0012500I0000000J0000519D01*
G01X0023481Y0012000D02*
G03X0024000Y0011481I0000519J0000000D01*
Y0012519D02*
G03X0023481Y0012000I0000000J0000519D01*
G01X0019481D02*
G03X0020000Y0011481I0000519J0000000D01*
G03X0020519Y0012000I0000000J0000519D01*
G03X0020000Y0012519I0000519J0000000D01*
G03X0019481Y0012000I0000000J0000519D01*
G01X0023481Y0010000D02*
G03X0024000Y0009481I0000519J0000000D01*
Y0010519D02*
G03X0023481Y0010000I0000000J0000519D01*
G01X0019481D02*
G03X0020000Y0009481I0000519J0000000D01*
G03X0020519Y0010000I0000000J0000519D01*
G03X0020000Y0010519I0000519J0000000D01*
G03X0019481Y0010000I0000000J0000519D01*
G01X0023481Y0008000D02*
G03X0024000Y0007481I0000519J0000000D01*
Y0008519D02*
G03X0023481Y0008000I0000000J0000519D01*
G01X0019481D02*
G03X0020000Y0007481I0000519J0000000D01*
G03X0020519Y0008000I0000000J0000519D01*
G03X0020000Y0008519I0000519J0000000D01*
G03X0019481Y0008000I0000000J0000519D01*
G01X0037864Y0013433D02*
G03X0038383Y0012914I0000519J0000000D01*
Y0013952D02*
G03X0037864Y0013433I0000000J0000519D01*
G01X0034383Y0012914D02*
G03X0034902Y0013433I0000000J0000519D01*
G03X0034383Y0013952I0000519J0000000D01*
G01X0030779Y0004362D02*
G03X0031298Y0004881I0000000J0000519D01*
G03X0030779Y0005400I0000519J0000000D01*
G01X0034259Y0004881D02*
G03X0034779Y0004361I0000520J0000000D01*
G01X0035298Y0004881D02*
G03X0034779Y0005400I0000519J0000000D01*
G03X0034260Y0004881I0000000J0000519D01*
G01X0017981Y0013500D02*
G03X0018182Y0013090I0000519J0000000D01*
G01X0019019Y0013500D02*
G03X0018500Y0014019I0000519J0000000D01*
G03X0017981Y0013500I0000000J0000519D01*
G01X0013981D02*
G03X0014500Y0012981I0000519J0000000D01*
Y0014019D02*
G03X0013981Y0013500I0000000J0000519D01*
G01X0019438Y0004239D02*
G03X0019957Y0003720I0000519J0000000D01*
G03X0020476Y0004239I0000000J0000519D01*
G03X0019957Y0004758I0000519J0000000D01*
G03X0019438Y0004239I0000000J0000519D01*
G01X0023438D02*
G03X0023957Y0003720I0000519J0000000D01*
G03X0024367Y0003920I0000000J0000519D01*
G01X0023957Y0004758D02*
G03X0023438Y0004239I0000000J0000519D01*
G01X0019434Y0002497D02*
G03X0019953Y0001978I0000519J0000000D01*
G03X0020472Y0002497I0000000J0000519D01*
G03X0019953Y0003016I0000519J0000000D01*
G03X0019434Y0002497I0000000J0000519D01*
G01X0023434D02*
G03X0023953Y0001978I0000519J0000000D01*
Y0003016D02*
G03X0023434Y0002497I0000000J0000519D01*
G01X0009410Y0011318D02*
G03X0009000Y0011519I0000410J0000318D01*
G01X0005000Y0010481D02*
G03X0005519Y0011000I0000000J0000519D01*
G03X0005000Y0011519I0000519J0000000D01*
G01X0008481Y0011000D02*
G03X0009000Y0010481I0000519J0000000D01*
Y0011519D02*
G03X0008481Y0011000I0000000J0000519D01*
G01X0005000Y0008981D02*
G03X0005519Y0009500I0000000J0000519D01*
G03X0005000Y0010019I0000519J0000000D01*
G01X0004590Y0009182D02*
G03X0005000Y0008981I0000410J0000318D01*
G01X0008481Y0009500D02*
G03X0009000Y0008981I0000519J0000000D01*
Y0010019D02*
G03X0008481Y0009500I0000000J0000519D01*
G01X0005000Y0007481D02*
G03X0005519Y0008000I0000000J0000519D01*
G03X0005000Y0008519I0000519J0000000D01*
G01X0008481Y0008000D02*
G03X0009000Y0007481I0000519J0000000D01*
Y0008519D02*
G03X0008481Y0008000I0000000J0000519D01*
G01X0023449Y0006084D02*
G03X0023969Y0005564I0000520J0000000D01*
Y0005565D02*
G03X0024488Y0006084I0000000J0000519D01*
G03X0023969Y0006603I0000519J0000000D01*
G03X0023450Y0006084I0000000J0000519D01*
G01X0019969Y0005565D02*
G03X0020488Y0006084I0000000J0000519D01*
G03X0019969Y0006603I0000519J0000000D01*
G01X0000931Y0014500D02*
G03X0001500Y0013931I0000569J0000000D01*
Y0015069D02*
G03X0000931Y0014500I0000000J0000569D01*
G01X0004500Y0015069D02*
G03X0004000Y0014772I0000000J0000569D01*
G01X0001500Y0013931D02*
G03X0002000Y0014228I0000000J0000569D01*
G01X0018725Y0010425D02*
G03X0018818Y0010650I0000225J0000225D01*
G01X0003500Y0013931D02*
G03X0004000Y0014228I0000000J0000569D01*
G01X0025108Y0007534D02*
G03X0025677Y0006965I0000569J0000000D01*
G03X0026246Y0007534I0000000J0000569D01*
G03X0025949Y0008034I0000569J0000000D01*
G01X0024410Y0007682D02*
G03X0024625Y0007775I0000010J0000318D01*
G01X0025949Y0010034D02*
G03X0026246Y0010534I0000272J0000500D01*
Y0008534D02*
G03X0025949Y0009034I0000569J0000000D01*
G01X0026246Y0009534D02*
G03X0025949Y0010034I0000569J0000000D01*
G01X0026246Y0010534D02*
G03X0026049Y0010965I0000569J0000000D01*
G01X0034779Y0004362D02*
G03X0034892Y0004375I0000000J0000519D01*
G01X0028243Y0004657D02*
G03X0028468Y0004564I0000225J0000224D01*
G01X0027832Y0005200D02*
G03X0027925Y0004975I0000318J0000000D01*
G01X0026575Y0007125D02*
G03X0026800Y0007032I0000225J0000225D01*
G01X0026918Y0011250D02*
G03X0026825Y0011475I0000318J0000000D01*
G01X0026282Y0007550D02*
G03X0026375Y0007325I0000318J0000000D01*
G01X0026282Y0007550D02*
G03X0026375Y0007325I0000318J0000000D01*
G01X0026541Y0011759D02*
G03X0026316Y0011852I0000225J0000225D01*
G01X0009000Y0011981D02*
G03X0009391Y0012159I0000000J0000519D01*
G01X0015925Y0011318D02*
G03X0015743Y0011261I0000000J0000318D01*
G01X0011384Y0006758D02*
G03X0010974Y0006959I0000410J0000318D01*
G01X0012040Y0006121D02*
G03X0012264Y0006215I0000000J0000319D01*
G01X0011376Y0008170D02*
G03X0011579Y0007853I0000349J0000000D01*
G01X0024832Y0012800D02*
G03X0024925Y0012575I0000318J0000000D01*
G01X0025468Y0014850D02*
G03X0025375Y0015075I0000318J0000000D01*
G01X0016618Y0007149D02*
G03X0017000Y0006981I0000382J0000351D01*
G01X0019969Y0006603D02*
G03X0019558Y0006402I0000000J0000519D01*
G01X0016391Y0005859D02*
G03X0016616Y0005766I0000225J0000225D01*
G01X0015982Y0006400D02*
G03X0016075Y0006175I0000318J0000000D01*
G01X0015982Y0006400D02*
G03X0016075Y0006175I0000318J0000000D01*
G01X0031991Y0013952D02*
G03X0031926Y0013948I0000000J0000519D01*
G01X0015925Y0011318D02*
G03X0015743Y0011261I0000000J0000318D01*
G01X0014910Y0013818D02*
G03X0014500Y0014019I0000410J0000318D01*
G01X0024410Y0010318D02*
G03X0024000Y0010519I0000410J0000318D01*
G01X0019682Y0014410D02*
G03X0019481Y0014000I0000318J0000410D01*
G01X0005253Y0015100D02*
G03X0005230Y0015069I0000247J0000200D01*
G01X0003000Y0014228D02*
G03X0003500Y0013931I0000500J0000272D01*
G01X0025405Y0009034D02*
G03X0025205Y0008852I0000272J0000500D01*
G01X0033707Y0009457D02*
G03X0033800Y0009682I0000225J0000225D01*
G01X0002818Y0008675D02*
G03X0002725Y0008900I0000318J0000000D01*
G01X0001228Y0008500D02*
G03X0000931Y0008000I0000272J0000500D01*
G01X0002400Y0009225D02*
G03X0002175Y0009318I0000225J0000225D01*
G01X0024410Y0007682D02*
G03X0024625Y0007775I0000010J0000318D01*
G01X0025205Y0008215D02*
G03X0025405Y0008034I0000472J0000319D01*
G01X0025949Y0009034D02*
G03X0026246Y0009534I0000272J0000500D01*
G01X0024934Y0008852D02*
G03X0024709Y0008759I0000000J0000318D01*
G01X0003050Y0011682D02*
G03X0003275Y0011775I0000000J0000318D01*
G01X0003550Y0012818D02*
G03X0003325Y0012725I0000000J0000318D01*
G01X0012885Y0006215D02*
G03X0013110Y0006122I0000225J0000225D01*
G01X0011182Y0003910D02*
G03X0011019Y0003695I0000318J0000410D01*
G01X0004590Y0012182D02*
G03X0005000Y0011981I0000410J0000318D01*
G01X0001972Y0010318D02*
G03X0001772Y0010500I0000472J0000318D01*
Y0009500D02*
G03X0001972Y0009682I0000272J0000500D01*
G01X0003325Y0009275D02*
G03X0003550Y0009182I0000225J0000225D01*
G01X0003275Y0010225D02*
G03X0003050Y0010318I0000225J0000225D01*
G01X0004500Y0013931D02*
G03X0004931Y0014128I0000000J0000569D01*
G01X0029447Y0010344D02*
G03X0029770Y0010503I0000000J0000409D01*
G01X0001972Y0009318D02*
G03X0001772Y0009500I0000472J0000318D01*
G01X0030109Y0006450D02*
G03X0029768Y0006853I0000409J0000000D01*
G01X0030368Y0004563D02*
G03X0030779Y0004361I0000411J0000318D01*
G01X0004590Y0007682D02*
G03X0005000Y0007481I0000410J0000318D01*
G01X0035283Y0004759D02*
G03X0035298Y0004881I0000504J0000122D01*
G01X0026541Y0011759D02*
G03X0026316Y0011852I0000225J0000225D01*
G01X0025236Y0004463D02*
G03X0025011Y0004556I0000225J0000224D01*
G01X0031318Y0013372D02*
G03X0031359Y0013550I0000368J0000178D01*
G01X0009000Y0010481D02*
G03X0009410Y0010682I0000000J0000519D01*
G01X0005000Y0010019D02*
G03X0004590Y0009818I0000000J0000519D01*
G01X0009532Y0011400D02*
G03X0009543Y0011318I0000318J0000000D01*
G01X0024341Y0002841D02*
G03X0023953Y0003016I0000388J0000344D01*
G01X0024741Y0009309D02*
G03X0024966Y0009216I0000225J0000225D01*
G01X0025205Y0009215D02*
G03X0025405Y0009034I0000472J0000319D01*
G01X0030875Y0006837D02*
G03X0031250Y0006591I0000375J0000163D01*
G01X0024725Y0010225D02*
G03X0024500Y0010318I0000225J0000225D01*
G01X0024575Y0012225D02*
G03X0024415Y0012311I0000225J0000225D01*
G01X0024000Y0011481D02*
G03X0024314Y0011586I0000000J0000519D01*
G01X0024575Y0012225D02*
G03X0024415Y0012311I0000225J0000225D01*
G01X0025995Y0012273D02*
G03X0025902Y0012498I0000318J0000000D01*
G01X0025018Y0011650D02*
G03X0024925Y0011875I0000318J0000000D01*
G01X0024415Y0012311D02*
G03X0024000Y0012519I0000415J0000311D01*
G01X0005000Y0013019D02*
G03X0004590Y0012818I0000000J0000519D01*
G01X0013974Y0006959D02*
G03X0013564Y0006758I0000000J0000519D01*
G01X0024341Y0008391D02*
G03X0024000Y0008519I0000341J0000391D01*
G01X0024447Y0002179D02*
G03X0024672Y0002272I0000000J0000318D01*
G01X0013275Y0004925D02*
G03X0013182Y0004700I0000225J0000225D01*
G01X0014199Y0004949D02*
G03X0014292Y0005174I0000225J0000225D01*
G01X0033482Y0006837D02*
G03X0033892Y0007038I0000000J0000519D01*
G01X0028814Y0006557D02*
G03X0028723Y0006300I0000318J0000257D01*
G01X0013564Y0006121D02*
G03X0013656Y0006029I0000410J0000319D01*
G01X0030875Y0006837D02*
G03X0031250Y0006591I0000375J0000163D01*
G01X0033800Y0012059D02*
G03X0033393Y0011693I0000000J0000409D01*
G01X0033707Y0009457D02*
G03X0033800Y0009682I0000225J0000225D01*
G01X0030486Y0010773D02*
G03X0030358Y0011070I0000409J0000000D01*
G01X0001772Y0008500D02*
G03X0001972Y0008682I0000272J0000500D01*
G01X0004000Y0014228D02*
G03X0004500Y0013931I0000500J0000272D01*
G01X0005000Y0011519D02*
G03X0004590Y0011318I0000000J0000519D01*
G01X0002400Y0009225D02*
G03X0002175Y0009318I0000225J0000225D01*
G01X0003019Y0005500D02*
G03X0002818Y0005910I0000519J0000000D01*
G01X0009000Y0007481D02*
G03X0009415Y0007689I0000000J0000519D01*
G01X0038383Y0012914D02*
G03X0038700Y0013022I0000000J0000519D01*
G01X0018818Y0013090D02*
G03X0019019Y0013500I0000318J0000410D01*
G01X0035572Y0010038D02*
G03X0035982Y0009837I0000410J0000318D01*
G01X0009000Y0002519D02*
G03X0008519Y0002195I0000000J0000519D01*
G01X0002000Y0001481D02*
G03X0002481Y0001805I0000000J0000519D01*
G01X0004931Y0014872D02*
G03X0004500Y0015069I0000431J0000372D01*
G01X0004000Y0014772D02*
G03X0003500Y0015069I0000500J0000272D01*
G01X0024367Y0004557D02*
G03X0023957Y0004758I0000410J0000318D01*
G01X0024382Y0010850D02*
G03X0024475Y0010625I0000318J0000000D01*
G01X0011818Y0004650D02*
G03X0011725Y0004875I0000318J0000000D01*
G01X0010583Y0009472D02*
G03X0010546Y0009315I0000312J0000157D01*
G01X0001228Y0010500D02*
G03X0000931Y0010000I0000272J0000500D01*
G01X0025949Y0008034D02*
G03X0026246Y0008534I0000272J0000500D01*
G01X0017195Y0011519D02*
G03X0017519Y0012000I0000195J0000481D01*
G01X0024934Y0008852D02*
G03X0024709Y0008759I0000000J0000318D01*
G01X0012197Y0012346D02*
G03X0012040Y0012383I0000157J0000311D01*
G01X0030500Y0006591D02*
G03X0030875Y0006837I0000000J0000409D01*
G01X0013266Y0012382D02*
G03X0013142Y0012346I0000034J0000347D01*
G01X0016805Y0007981D02*
G03X0016590Y0007818I0000195J0000481D01*
G01X0015191Y0009400D02*
G03X0015600Y0008991I0000409J0000000D01*
G03X0016009Y0009400I0000000J0000409D01*
G03X0015600Y0009809I0000409J0000000D01*
G03X0015191Y0009400I0000000J0000409D01*
G01X0013079Y0012480D02*
G03X0012670Y0012889I0000409J0000000D01*
G03X0012261Y0012480I0000000J0000409D01*
G01X0030091Y0007000D02*
G03X0030500Y0006591I0000409J0000000D01*
Y0007409D02*
G03X0030091Y0007000I0000000J0000409D01*
G01X0011491Y0007600D02*
G03X0011900Y0007191I0000409J0000000D01*
G01X0011491Y0007600D02*
G03X0011900Y0007191I0000409J0000000D01*
G01X0011579Y0007853D02*
G03X0011491Y0007600I0000321J0000253D01*
G01X0030077Y0010364D02*
G03X0030486Y0010773I0000000J0000409D01*
G01X0029770Y0010503D02*
G03X0030077Y0010364I0000307J0000270D01*
G03X0030486Y0010773I0000000J0000409D01*
G03X0030358Y0011070I0000409J0000000D01*
G01X0030091Y0007000D02*
G03X0030500Y0006591I0000409J0000000D01*
Y0007409D02*
G03X0030091Y0007000I0000000J0000409D01*
G01X0012261Y0012480D02*
G03X0012275Y0012375I0000409J0000000D01*
G01X0014339Y0012570D02*
G03X0013930Y0012979I0000409J0000000D01*
G03X0013521Y0012570I0000000J0000409D01*
G01X0029770Y0010503D02*
G03X0030077Y0010364I0000307J0000270D01*
G01X0014279Y0012035D02*
G03X0014248Y0012179I0000349J0000000D01*
G01X0014339Y0012570D02*
G03X0013930Y0012979I0000409J0000000D01*
G03X0013521Y0012570I0000000J0000409D01*
G01X0015107Y0009349D02*
G03X0015071Y0009472I0000347J0000034D01*
G01X0012988Y0007082D02*
G03X0013100Y0007066I0000112J0000393D01*
G01X0029489Y0006100D02*
G03X0029700Y0006041I0000211J0000350D01*
G01X0013437Y0007243D02*
G03X0013625Y0007182I0000188J0000257D01*
G01X0029038Y0010753D02*
G03X0029447Y0010344I0000409J0000000D01*
G01X0030500Y0006591D02*
G03X0030875Y0006837I0000000J0000409D01*
G01X0031250Y0006591D02*
G03X0031659Y0007000I0000000J0000409D01*
G01X0030703Y0007355D02*
G03X0030500Y0007409I0000203J0000355D01*
G01X0031659Y0007000D02*
G03X0031340Y0007399I0000409J0000000D01*
G01X0031250Y0006591D02*
G03X0031659Y0007000I0000000J0000409D01*
G01X0030703Y0007355D02*
G03X0030500Y0007409I0000203J0000355D01*
G01X0005000Y0008519D02*
G03X0004590Y0008318I0000000J0000519D01*
G01X0035691Y0004470D02*
G03X0035300Y0004759I0000391J0000120D01*
G01X0024000Y0009481D02*
G03X0024391Y0009659I0000000J0000519D01*
G01X0024725Y0010225D02*
G03X0024500Y0010318I0000225J0000225D01*
G01X0038700Y0013844D02*
G03X0038383Y0013952I0000317J0000411D01*
G01X0031659Y0007000D02*
G03X0031340Y0007399I0000409J0000000D01*
G01X0035300Y0004759D02*
G03X0035283Y0004759I0000000J0000409D01*
G01X0034892Y0004375D02*
G03X0034891Y0004350I0000408J0000025D01*
G01X0013981Y0003695D02*
G03X0013818Y0003910I0000481J0000195D01*
G01X0009410Y0012818D02*
G03X0009000Y0013019I0000410J0000318D01*
G01X0023953Y0001978D02*
G03X0024363Y0002179I0000000J0000519D01*
G01X0015071Y0009472D02*
G03X0015109Y0009630I0000311J0000158D01*
G01X0009415Y0007689D02*
G03X0009575Y0007775I0000065J0000311D01*
G01X0002500Y0015069D02*
G03X0002000Y0014772I0000000J0000569D01*
G01X0005253Y0015100D02*
G03X0005230Y0015069I0000247J0000200D01*
G01X0025205Y0010215D02*
G03X0025405Y0010034I0000472J0000319D01*
G01X0001772Y0010500D02*
G03X0001972Y0010682I0000272J0000500D01*
Y0011318D02*
G03X0001872Y0011431I0000472J0000318D01*
G01X0004590Y0010682D02*
G03X0005000Y0010481I0000410J0000318D01*
G01X0033800Y0008568D02*
G03X0033707Y0008793I0000318J0000000D01*
G01X0003275Y0010225D02*
G03X0003050Y0010318I0000225J0000225D01*
G01X0030779Y0005400D02*
G03X0030368Y0005200I0000000J0000519D01*
G01X0014248Y0012313D02*
G03X0014339Y0012570I0000318J0000257D01*
G01X0025018Y0011650D02*
G03X0024925Y0011875I0000318J0000000D01*
G54D25*
G01X0032500Y0002975D02*
Y0000600D01*
X0030700Y0001274D02*
Y0000600D01*
X0037000Y0002308D02*
Y0001771D01*
X0036550Y0002308D02*
Y0001771D01*
X0035636Y0000600D02*
X0030700D01*
X0031600Y0002975D02*
Y0000600D01*
X0037274Y0003405D02*
Y0003250D01*
X0038700Y0003600D02*
X0037274D01*
Y0002936D02*
Y0002622D01*
X0034300Y0002519D02*
Y0002504D01*
X0034200Y0002850D02*
X0030700D01*
X0035200Y0001408D02*
Y0000600D01*
X0034300Y0001455D02*
Y0000600D01*
X0033850Y0002975D02*
Y0000600D01*
X0033400Y0002975D02*
Y0000600D01*
X0032950Y0002975D02*
Y0000600D01*
X0037274Y0003564D02*
Y0003405D01*
X0034206Y0002400D02*
X0031351D01*
X0036100Y0002308D02*
Y0001771D01*
X0035636Y0001500D02*
X0035302D01*
X0037899Y0003600D02*
Y0001771D01*
X0038700Y0003600D02*
Y0001771D01*
X0037126D02*
Y0000600D01*
X0038349Y0003600D02*
Y0001771D01*
X0037274Y0003564D02*
Y0003405D01*
Y0003250D02*
Y0002936D01*
X0035488D02*
Y0002622D01*
Y0002936D02*
Y0002622D01*
X0037274Y0003250D02*
Y0002936D01*
X0034750Y0001270D02*
Y0000600D01*
X0037210Y0001771D02*
Y0000600D01*
X0038700Y0001771D02*
X0037210D01*
X0035636D02*
Y0000600D01*
X0037126Y0001771D02*
X0035636D01*
X0037274Y0002936D02*
Y0002622D01*
Y0002308D02*
X0035488D01*
X0037274Y0002622D02*
Y0002308D01*
X0038700Y0003300D02*
X0037274D01*
X0034255Y0001500D02*
X0031302D01*
X0031150Y0002975D02*
Y0002585D01*
X0038700Y0001950D02*
X0035488D01*
X0034213Y0002975D02*
X0030700D01*
X0037210Y0000600D02*
X0037126D01*
X0034069Y0001950D02*
X0031488D01*
X0037449Y0003600D02*
Y0001771D01*
X0035650Y0002308D02*
Y0001771D01*
X0035488Y0002975D02*
Y0002936D01*
X0038700Y0002850D02*
X0037274D01*
X0037210Y0001050D02*
X0037126D01*
X0037274Y0003600D02*
Y0003564D01*
X0035488Y0002622D02*
Y0002308D01*
X0031150Y0001374D02*
Y0000600D01*
X0037210Y0001500D02*
X0037126D01*
X0032050Y0002975D02*
Y0000600D01*
X0035488Y0002400D02*
X0035351D01*
X0035488Y0002975D02*
Y0002936D01*
X0038700Y0002400D02*
X0037274D01*
X0030700Y0002975D02*
Y0002685D01*
X0035636Y0001050D02*
X0030700D01*
X0035488Y0002975D02*
X0035387D01*
X0035488Y0002850D02*
X0035400D01*
G01X0034306Y0002509D02*
G03X0034069Y0001980I0000473J0000529D01*
G01X0030700Y0001274D02*
G03X0030779Y0001270I0000079J0000706D01*
G01X0035400Y0002850D02*
G03X0035387Y0002975I0000600J0000000D01*
G01X0030779Y0002689D02*
G03X0030700Y0002685I0000000J0000709D01*
G01X0035277Y0002485D02*
G03X0035401Y0002850I0000477J0000365D01*
G01X0030779Y0001270D02*
G03X0031489Y0001980I0000000J0000710D01*
G01X0031488D02*
G03X0030779Y0002689I0000709J0000000D01*
G01X0034069Y0001980D02*
G03X0034779Y0001270I0000710J0000000D01*
G03X0035489Y0001980I0000000J0000710D01*
G01X0034200Y0002850D02*
G03X0034306Y0002509I0000600J0000000D01*
G01X0034213Y0002975D02*
G03X0034200Y0002850I0000587J0000125D01*
G01X0035488Y0001980D02*
G03X0035277Y0002485I0000709J0000000D01*
G54D27*
G01X0005000Y0002000D02*
X0003000D01*
X0008000D02*
X0007250D01*
X0006700Y0001450D01*
X0005750D01*
X0005200Y0002000D01*
X0005000D01*
X0034800Y0002850D02*
X0034779Y0002829D01*
Y0001980D01*
G54D10*
X0013974Y0006440D03*
X0010974D03*
X0033482Y0010356D03*
Y0007356D03*
X0024000Y0014000D03*
X0020000D03*
X0009000Y0012500D03*
X0005000D03*
X0020000Y0012000D03*
X0024000D03*
X0020000Y0010000D03*
X0024000D03*
X0020000Y0008000D03*
X0024000D03*
X0034383Y0013433D03*
X0038383D03*
X0034779Y0004881D03*
X0030779D03*
X0034779Y0001980D03*
X0030779D03*
X0014500Y0013500D03*
X0018500D03*
X0023957Y0004239D03*
X0019957D03*
X0023953Y0002497D03*
X0019953D03*
X0009000Y0011000D03*
X0005000D03*
X0009000Y0009500D03*
X0005000D03*
X0009000Y0008000D03*
X0005000D03*
X0019969Y0006084D03*
X0023969D03*
X0031991Y0013433D03*
X0002500Y0005500D03*
X0009000Y0002000D03*
X0035982Y0010356D03*
Y0007356D03*
X0002000Y0002000D03*
X0006000D03*
X0017000Y0012000D03*
X0011500Y0003500D03*
X0013500D03*
X0017000Y0007500D03*
G54D11*
X0033241Y0013433D03*
X0002500Y0004500D03*
X0008000Y0002000D03*
X0035982Y0011356D03*
Y0008356D03*
X0003000Y0002000D03*
X0005000D03*
X0017000Y0011000D03*
X0010500Y0003500D03*
X0014500D03*
X0017000Y0008500D03*
G54D12*
X0031691Y0008955D03*
Y0009270D03*
Y0009585D03*
Y0009900D03*
Y0010215D03*
Y0010530D03*
Y0010845D03*
Y0011160D03*
X0028148D03*
Y0010845D03*
Y0010530D03*
Y0010215D03*
Y0009900D03*
Y0009585D03*
Y0009270D03*
Y0008955D03*
G54D13*
X0028817Y0008286D03*
X0029132D03*
X0029447D03*
X0029762D03*
X0030077D03*
X0030392D03*
X0030707D03*
X0031022D03*
Y0011829D03*
X0030707D03*
X0030392D03*
X0030077D03*
X0029762D03*
X0029447D03*
X0029132D03*
X0028817D03*
G54D14*
X0004500Y0014500D03*
X0003500D03*
X0002500D03*
X0001500D03*
X0025677Y0010534D03*
Y0009534D03*
Y0008534D03*
Y0007534D03*
X0001500Y0011000D03*
Y0010000D03*
Y0009000D03*
Y0008000D03*
G54D15*
X0005500Y0014500D03*
X0025677Y0011534D03*
X0001500Y0012000D03*
G54D16*
X0038054Y0006042D03*
Y0000927D03*
G54D17*
X0036381Y0006042D03*
Y0000927D03*
G54D18*
Y0004112D03*
Y0003798D03*
Y0003484D03*
Y0003170D03*
Y0002856D03*
G54D19*
X0013930Y0011775D03*
X0013300D03*
X0012985D03*
X0012670D03*
X0012355D03*
X0012040D03*
X0011725D03*
Y0008430D03*
X0012040D03*
X0012355D03*
X0012670D03*
X0012985D03*
X0013615D03*
X0013930D03*
G54D20*
X0013615Y0011775D03*
X0013300Y0008430D03*
G54D21*
X0014500Y0009315D03*
Y0009630D03*
Y0009945D03*
Y0010260D03*
Y0010575D03*
Y0010890D03*
Y0011205D03*
X0011155D03*
Y0010890D03*
Y0010575D03*
Y0009945D03*
Y0009630D03*
Y0009315D03*
Y0009000D03*
G54D22*
X0014500D03*
X0011155Y0010260D03*
G54D23*
X0034800Y0002850D03*
G54D26*
X0015600Y0009400D03*
X0012670Y0012480D03*
X0011900Y0007600D03*
X0030077Y0010773D03*
X0030500Y0007000D03*
X0013930Y0012570D03*
X0029447Y0010753D03*
X0031250Y0007000D03*
X0035300Y0004350D03*
X0013800Y0009150D03*
X0012355Y0010780D03*
X0011825Y0010725D03*
X0013250Y0009250D03*
X0030607Y0013150D03*
X0030250Y0012700D03*
X0013100Y0007475D03*
X0030950Y0013550D03*
X0029700Y0006450D03*
X0012150Y0009850D03*
X0012800Y0009250D03*
X0033800Y0011650D03*
X0011800Y0010200D03*
X0029132Y0006300D03*
M02*
