*
G04 Mass Parameters ***
*
G04 Image ***
*
%INC:\ORCAD_DATA\BAB2\AVRUSB500\LAYOUT\LAYOUT\AVRUSB500-1.GND*%
%ICAS*%
%MOIN*%
%IPPOS*%
%ASAXBY*%
G74*%FSLAN2X34Y34*%
*
G04 Aperture Definitions ***
*
%AMTHERMAL35*
1,1,0.0781,0,0,*
1,0,0.0546,0,0,*
21,0,0.0782,0.0118,0,0,315.0*
21,0,0.0782,0.0118,0,0,45.0*%
%AMTHERMAL37*
1,1,0.0781,0,0,*
1,0,0.0546,0,0,*
21,0,0.0782,0.0118,0,0,225.0*
21,0,0.0782,0.0118,0,0,315.0*%
%AMTHERMAL39*
1,1,0.0781,0,0,*
1,0,0.0546,0,0,*
21,0,0.0782,0.0118,0,0,45.0*
21,0,0.0782,0.0118,0,0,135.0*%
%AMTHERMAL40*
1,1,0.0781,0,0,*
1,0,0.0546,0,0,*
21,0,0.0782,0.0118,0,0,135.0*
21,0,0.0782,0.0118,0,0,225.0*%
%AMTHERMAL46*
1,1,0.0891,0,0,*
1,0,0.0656,0,0,*
21,0,0.0892,0.0118,0,0,315.0*
21,0,0.0892,0.0118,0,0,45.0*%
%AMTHERMAL49*
1,1,0.0891,0,0,*
1,0,0.0656,0,0,*
21,0,0.0892,0.0118,0,0,225.0*
21,0,0.0892,0.0118,0,0,315.0*%
%AMTHERMAL54*
1,1,0.0621,0,0,*
1,0,0.0386,0,0,*
21,0,0.0622,0.0118,0,0,216.2*
21,0,0.0622,0.0118,0,0,306.2*%
%ADD10C,0.0520*%
%ADD11R,0.0520X0.0520*%
%ADD12R,0.1000X0.0157*%
%ADD13R,0.0157X0.1000*%
%ADD14C,0.0620*%
%ADD15R,0.0620X0.0620*%
%ADD16R,0.0787X0.0787*%
%ADD17R,0.0591X0.0787*%
%ADD18R,0.0886X0.0197*%
%ADD19O,0.0180X0.0700*%
%ADD20R,0.0180X0.0700*%
%ADD21O,0.0700X0.0180*%
%ADD22R,0.0700X0.0180*%
%ADD23C,0.0300*%
%ADD24C,0.0118*%
%ADD25C,0.0500*%
%ADD26C,0.0300*%
%ADD27C,0.0315*%
%ADD28C,0.0520*%
%ADD29R,0.0520X0.0520*%
%ADD30C,0.0620*%
%ADD31R,0.0620X0.0620*%
%ADD32C,0.0300*%
%ADD33C,0.0300*%
%ADD34C,0.0720*%
%ADD35THERMAL35*%
%ADD36C,0.0720*%
%ADD37THERMAL37*%
%ADD38C,0.0720*%
%ADD39THERMAL39*%
%ADD40THERMAL40*%
%ADD41R,0.0720X0.0720*%
%ADD42R,0.0720X0.0720*%
%ADD43R,0.0720X0.0720*%
%ADD44C,0.0720*%
%ADD45C,0.0720*%
%ADD46THERMAL46*%
%ADD47C,0.0820*%
%ADD48R,0.0820X0.0820*%
%ADD49THERMAL49*%
%ADD50C,0.0820*%
%ADD51R,0.0820X0.0820*%
%ADD52C,0.0600*%
%ADD53C,0.0600*%
%ADD54THERMAL54*%
*
G04 Plot Data ***
*
G54D35*
X0035982Y0011356D03*
Y0008356D03*
X0017000Y0008500D03*
G54D37*
X0002000Y0002000D03*
X0014500Y0003500D03*
G54D39*
X0009000Y0002000D03*
X0006000D03*
X0010500Y0003500D03*
G54D40*
X0002500Y0004500D03*
X0017000Y0012000D03*
G54D46*
X0025677Y0007534D03*
X0001500Y0008000D03*
G54D49*
Y0014500D03*
G54D54*
X0013930Y0012570D03*
X0029447Y0010753D03*
X0031250Y0007000D03*
X0035300Y0004350D03*
X0013800Y0009150D03*
X0012355Y0010780D03*
X0011825Y0010725D03*
X0013100Y0007475D03*
G54D25*
G01X0000000Y0000000D02*
Y0015748D01*
X0039370D01*
Y0000000D01*
X0000000D01*
G54D34*
X0017000Y0007500D03*
G54D36*
X0035982Y0010356D03*
X0013500Y0003500D03*
G54D38*
X0013974Y0006440D03*
X0010974D03*
X0033482Y0010356D03*
Y0007356D03*
X0024000Y0014000D03*
X0020000D03*
X0009000Y0012500D03*
X0005000D03*
X0020000Y0012000D03*
X0024000D03*
X0020000Y0010000D03*
X0024000D03*
X0020000Y0008000D03*
X0024000D03*
X0034383Y0013433D03*
X0038383D03*
X0034779Y0004881D03*
X0030779D03*
X0034779Y0001980D03*
X0030779D03*
X0014500Y0013500D03*
X0018500D03*
X0023957Y0004239D03*
X0019957D03*
X0023953Y0002497D03*
X0019953D03*
X0009000Y0011000D03*
X0005000D03*
X0009000Y0009500D03*
X0005000D03*
X0009000Y0008000D03*
X0005000D03*
X0019969Y0006084D03*
X0023969D03*
X0035982Y0007356D03*
X0011500Y0003500D03*
G54D41*
X0033241Y0013433D03*
X0017000Y0011000D03*
G54D42*
X0008000Y0002000D03*
X0005000D03*
G54D43*
X0003000D03*
G54D44*
X0002500Y0005500D03*
G54D45*
X0031991Y0013433D03*
G54D47*
X0025677Y0010534D03*
Y0009534D03*
Y0008534D03*
X0001500Y0011000D03*
Y0010000D03*
Y0009000D03*
G54D48*
X0025677Y0011534D03*
X0001500Y0012000D03*
G54D50*
X0004500Y0014500D03*
X0003500D03*
X0002500D03*
G54D51*
X0005500D03*
G54D52*
X0034800Y0002850D03*
G54D53*
X0015600Y0009400D03*
X0012670Y0012480D03*
X0011900Y0007600D03*
X0030077Y0010773D03*
X0030500Y0007000D03*
X0013250Y0009250D03*
X0030607Y0013150D03*
X0030250Y0012700D03*
X0030950Y0013550D03*
X0029700Y0006450D03*
X0012150Y0009850D03*
X0012800Y0009250D03*
X0033800Y0011650D03*
X0011800Y0010200D03*
X0029132Y0006300D03*
M02*
