*
G04 Mass Parameters ***
*
G04 Image ***
*
%INC:\ORCAD_DATA\BAB2\AVRUSB500\LAYOUT\LAYOUT\AVRUSB500-1.SST*%
%ICAS*%
%MOIN*%
%IPPOS*%
%ASAXBY*%
G74*%FSLAN2X34Y34*%
*
G04 Aperture Definitions ***
*
%AMTHERMAL35*
1,1,0.0781,0,0,*
1,0,0.0546,0,0,*
21,0,0.0782,0.0118,0,0,315.0*
21,0,0.0782,0.0118,0,0,45.0*%
%AMTHERMAL37*
1,1,0.0781,0,0,*
1,0,0.0546,0,0,*
21,0,0.0782,0.0118,0,0,225.0*
21,0,0.0782,0.0118,0,0,315.0*%
%AMTHERMAL39*
1,1,0.0781,0,0,*
1,0,0.0546,0,0,*
21,0,0.0782,0.0118,0,0,45.0*
21,0,0.0782,0.0118,0,0,135.0*%
%AMTHERMAL40*
1,1,0.0781,0,0,*
1,0,0.0546,0,0,*
21,0,0.0782,0.0118,0,0,135.0*
21,0,0.0782,0.0118,0,0,225.0*%
%AMTHERMAL46*
1,1,0.0891,0,0,*
1,0,0.0656,0,0,*
21,0,0.0892,0.0118,0,0,315.0*
21,0,0.0892,0.0118,0,0,45.0*%
%AMTHERMAL49*
1,1,0.0891,0,0,*
1,0,0.0656,0,0,*
21,0,0.0892,0.0118,0,0,225.0*
21,0,0.0892,0.0118,0,0,315.0*%
%AMTHERMAL54*
1,1,0.0621,0,0,*
1,0,0.0386,0,0,*
21,0,0.0622,0.0118,0,0,216.2*
21,0,0.0622,0.0118,0,0,306.2*%
%AMTHERMAL59*
1,1,0.0621,0,0,*
1,0,0.0386,0,0,*
21,0,0.0622,0.0118,0,0,45.0*
21,0,0.0622,0.0118,0,0,135.0*%
%ADD10C,0.0520*%
%ADD11R,0.0520X0.0520*%
%ADD12R,0.1000X0.0157*%
%ADD13R,0.0157X0.1000*%
%ADD14C,0.0620*%
%ADD15R,0.0620X0.0620*%
%ADD16R,0.0787X0.0787*%
%ADD17R,0.0591X0.0787*%
%ADD18R,0.0886X0.0197*%
%ADD19O,0.0180X0.0700*%
%ADD20R,0.0180X0.0700*%
%ADD21O,0.0700X0.0180*%
%ADD22R,0.0700X0.0180*%
%ADD23C,0.0300*%
%ADD24C,0.0118*%
%ADD25C,0.0500*%
%ADD26C,0.0300*%
%ADD27C,0.0315*%
%ADD28C,0.0520*%
%ADD29R,0.0520X0.0520*%
%ADD30C,0.0620*%
%ADD31R,0.0620X0.0620*%
%ADD32C,0.0300*%
%ADD33C,0.0300*%
%ADD34C,0.0720*%
%ADD35THERMAL35*%
%ADD36C,0.0720*%
%ADD37THERMAL37*%
%ADD38C,0.0720*%
%ADD39THERMAL39*%
%ADD40THERMAL40*%
%ADD41R,0.0720X0.0720*%
%ADD42R,0.0720X0.0720*%
%ADD43R,0.0720X0.0720*%
%ADD44C,0.0720*%
%ADD45C,0.0720*%
%ADD46THERMAL46*%
%ADD47C,0.0820*%
%ADD48R,0.0820X0.0820*%
%ADD49THERMAL49*%
%ADD50C,0.0820*%
%ADD51R,0.0820X0.0820*%
%ADD52C,0.0600*%
%ADD53C,0.0600*%
%ADD54THERMAL54*%
%ADD55C,0.0720*%
%ADD56R,0.0720X0.0720*%
%ADD57C,0.0820*%
%ADD58R,0.0820X0.0820*%
%ADD59THERMAL59*%
%ADD60R,0.1039X0.0197*%
%ADD61R,0.0197X0.1039*%
%ADD62R,0.0984X0.0984*%
%ADD63R,0.0787X0.0984*%
%ADD64R,0.0906X0.0217*%
%ADD65O,0.0180X0.0700*%
%ADD66R,0.0180X0.0700*%
%ADD67O,0.0700X0.0180*%
%ADD68R,0.0700X0.0180*%
%ADD69C,0.0350*%
%ADD70C,0.0350*%
%ADD71C,0.0050*%
%ADD72C,0.0079*%
%ADD73C,0.0080*%
%ADD74C,0.0100*%
%ADD75C,0.0098*%
*
G04 Plot Data ***
*
G54D71*
G01X0028480Y0011568D02*
X0028349D01*
X0028415D02*
Y0011961D01*
X0028349Y0011896D01*
X0028151Y0011633D02*
X0028118Y0011568D01*
X0027921D01*
X0027888Y0011633D01*
Y0011896D01*
X0027921Y0011961D01*
X0028118D01*
X0028151Y0011896D01*
X0027755Y0011568D02*
X0027624D01*
X0027690D02*
Y0011961D01*
X0027755D02*
X0027624D01*
G01X0029030Y0009077D02*
G03X0029121Y0009168I0000000J0000091D01*
G01X0028939D02*
G03X0029030Y0009077I0000091J0000000D01*
Y0009258D02*
G03X0028940Y0009168I0000000J0000090D01*
G01X0029120D02*
G03X0029030Y0009258I0000090J0000000D01*
G54D72*
G01X0039137Y0001750D02*
Y0005294D01*
X0036381Y0004506D02*
Y0005294D01*
Y0002538D02*
Y0001750D01*
X0031100Y0008876D02*
X0028738D01*
Y0011238D01*
X0031100D01*
Y0008876D01*
G54D73*
G01X0005255Y0011506D02*
X0005033D01*
X0005144Y0011728D01*
X0005200D01*
Y0011395D01*
X0004762Y0011562D02*
X0004846Y0011395D01*
X0004623Y0011562D02*
X0004790D01*
X0004846Y0011617D01*
Y0011673D01*
X0004790Y0011728D01*
X0004623D01*
Y0011395D01*
X0001670Y0012783D02*
X0001559D01*
X0001615D02*
Y0013117D01*
X0001559Y0013061D01*
X0001122Y0012895D02*
Y0012839D01*
X0001149Y0012783D01*
X0001260D01*
X0001288Y0012839D01*
Y0013117D01*
X0001316D02*
X0001205D01*
X0002133Y0012044D02*
Y0012155D01*
Y0012100D02*
X0002466D01*
X0002410Y0012155D01*
X0002188Y0008111D02*
X0002133Y0008083D01*
Y0007917D01*
X0002188Y0007889D01*
X0002299D01*
X0002355Y0007944D01*
Y0008111D01*
X0002466D01*
Y0007889D01*
X0026281Y0012473D02*
X0026337Y0012417D01*
X0026448D01*
X0026503Y0012473D01*
Y0012528D01*
X0026392Y0012639D01*
X0026503Y0012750D01*
X0026281D01*
X0025899Y0012528D02*
Y0012473D01*
X0025927Y0012417D01*
X0026038D01*
X0026065Y0012473D01*
Y0012750D01*
X0026093D02*
X0025982D01*
X0026310Y0011578D02*
Y0011689D01*
Y0011634D02*
X0026643D01*
X0026587Y0011689D01*
X0026465Y0007645D02*
X0026410Y0007617D01*
Y0007450D01*
X0026465Y0007422D01*
X0026576D01*
X0026632Y0007478D01*
Y0007645D01*
X0026743D01*
Y0007422D01*
X0008112Y0003474D02*
X0007945D01*
X0007917Y0003530D01*
Y0003585D01*
X0007945Y0003641D01*
X0008112D01*
X0008139Y0003585D01*
Y0003530D01*
X0008028Y0003308D01*
X0007730Y0003363D02*
X0007702Y0003308D01*
X0007535D01*
X0007507Y0003363D01*
Y0003585D01*
X0007535Y0003641D01*
X0007702D01*
X0007730Y0003585D01*
X0008000Y0001383D02*
Y0001116D01*
X0008133Y0001249D02*
X0007867D01*
X0031591Y0014403D02*
X0031480D01*
X0031536D02*
Y0014736D01*
X0031480Y0014681D01*
X0031042Y0014403D02*
Y0014736D01*
X0031014Y0014403D02*
X0031181D01*
X0031237Y0014514D01*
Y0014625D01*
X0031181Y0014736D01*
X0031014D01*
X0037144Y0009015D02*
X0037311Y0009349D01*
X0037089D01*
X0036901Y0009071D02*
X0036873Y0009015D01*
X0036707D01*
X0036679Y0009071D01*
Y0009293D01*
X0036707Y0009349D01*
X0036873D01*
X0036901Y0009293D01*
X0035365Y0008356D02*
X0035098D01*
X0035231Y0008223D02*
Y0008489D01*
X0005033Y0009951D02*
X0005089Y0009895D01*
X0005200D01*
X0005255Y0009951D01*
Y0010006D01*
X0005144Y0010117D01*
X0005255Y0010228D01*
X0005033D01*
X0004762Y0010062D02*
X0004846Y0009895D01*
X0004623Y0010062D02*
X0004790D01*
X0004846Y0010117D01*
Y0010173D01*
X0004790Y0010228D01*
X0004623D01*
Y0009895D01*
X0021186Y0003247D02*
X0021214Y0003192D01*
X0021380D01*
X0021408Y0003247D01*
Y0003359D01*
X0021353Y0003414D01*
X0021186D01*
Y0003525D01*
X0021408D01*
X0020915Y0003359D02*
X0020998Y0003192D01*
X0020776Y0003359D02*
X0020943D01*
X0020998Y0003414D01*
Y0003470D01*
X0020943Y0003525D01*
X0020776D01*
Y0003192D01*
X0004917Y0003363D02*
X0004945Y0003308D01*
X0005112D01*
X0005139Y0003363D01*
Y0003474D01*
X0005084Y0003530D01*
X0004917D01*
Y0003641D01*
X0005139D01*
X0004730Y0003363D02*
X0004702Y0003308D01*
X0004535D01*
X0004507Y0003363D01*
Y0003585D01*
X0004535Y0003641D01*
X0004702D01*
X0004730Y0003585D01*
X0005000Y0001383D02*
Y0001116D01*
X0005133Y0001249D02*
X0004867D01*
X0001786Y0003337D02*
X0001953D01*
X0001980Y0003281D01*
Y0003226D01*
X0001953Y0003170D01*
X0001786D01*
X0001758Y0003226D01*
Y0003281D01*
X0001869Y0003503D01*
X0001570Y0003226D02*
X0001543Y0003170D01*
X0001376D01*
X0001348Y0003226D01*
Y0003448D01*
X0001376Y0003503D01*
X0001543D01*
X0001570Y0003448D01*
X0003000Y0002617D02*
Y0002884D01*
X0002867Y0002751D02*
X0003133D01*
X0034431Y0011415D02*
X0034319D01*
X0034375D02*
Y0011749D01*
X0034319Y0011693D01*
X0033965Y0011415D02*
Y0011582D01*
X0034076Y0011749D02*
X0033993Y0011582D01*
X0033937D01*
X0033854Y0011749D01*
X0021218Y0005100D02*
X0021384D01*
X0021412Y0005045D01*
Y0004989D01*
X0021384Y0004934D01*
X0021218D01*
X0021190Y0004989D01*
Y0005045D01*
X0021301Y0005267D01*
X0020919Y0005100D02*
X0021002Y0004934D01*
X0020780Y0005100D02*
X0020947D01*
X0021002Y0005156D01*
Y0005211D01*
X0020947Y0005267D01*
X0020780D01*
Y0004934D01*
X0035163Y0014115D02*
X0035107Y0014171D01*
X0035080Y0014227D01*
Y0014338D01*
X0035107Y0014393D01*
X0035163Y0014449D01*
X0035218D01*
X0035274Y0014393D01*
X0035302Y0014338D01*
Y0014227D01*
X0035274Y0014171D01*
X0035218Y0014115D01*
X0035163D01*
X0034892D02*
X0034781D01*
X0034836D02*
Y0014449D01*
X0034781Y0014393D01*
X0034454Y0014282D02*
X0034537Y0014115D01*
X0034315Y0014282D02*
X0034482D01*
X0034537Y0014338D01*
Y0014393D01*
X0034482Y0014449D01*
X0034315D01*
Y0014115D01*
X0015080Y0004670D02*
X0014858D01*
X0015080Y0004892D01*
Y0004948D01*
X0015053Y0005003D01*
X0014886D01*
X0014858Y0004948D01*
X0014670Y0004726D02*
X0014643Y0004670D01*
X0014476D01*
X0014448Y0004726D01*
Y0004948D01*
X0014476Y0005003D01*
X0014643D01*
X0014670Y0004948D01*
X0014500Y0004117D02*
Y0004384D01*
X0014367Y0004251D02*
X0014633D01*
X0032206Y0002841D02*
X0032234Y0002897D01*
Y0002952D01*
X0032206Y0003008D01*
X0032040D01*
X0032012Y0002952D01*
Y0002897D01*
X0032040Y0002841D01*
X0032206D01*
X0032234Y0002786D01*
Y0002730D01*
X0032206Y0002675D01*
X0032040D01*
X0032012Y0002730D01*
Y0002786D01*
X0032040Y0002841D01*
X0031741D02*
X0031824Y0002675D01*
X0031602Y0002841D02*
X0031768D01*
X0031824Y0002897D01*
Y0002952D01*
X0031768Y0003008D01*
X0031602D01*
Y0002675D01*
X0021377Y0006767D02*
X0021266D01*
X0021322D02*
Y0007100D01*
X0021266Y0007045D01*
X0020940Y0006934D02*
X0021023Y0006767D01*
X0020801Y0006934D02*
X0020967D01*
X0021023Y0006989D01*
Y0007045D01*
X0020967Y0007100D01*
X0020801D01*
Y0006767D01*
X0011864Y0012295D02*
X0011752D01*
X0011808D02*
Y0012629D01*
X0011752Y0012573D01*
X0011509Y0012629D02*
Y0012351D01*
X0011481Y0012295D01*
X0011315D01*
X0011287Y0012351D01*
Y0012629D01*
X0021588Y0014651D02*
X0021615Y0014595D01*
X0021782D01*
X0021810Y0014651D01*
Y0014762D01*
X0021754Y0014817D01*
X0021588D01*
Y0014928D01*
X0021810D01*
X0021400Y0014595D02*
X0021289D01*
X0021344D02*
Y0014928D01*
X0021289Y0014873D01*
X0020962Y0014762D02*
X0021046Y0014595D01*
X0020823Y0014762D02*
X0020990D01*
X0021046Y0014817D01*
Y0014873D01*
X0020990Y0014928D01*
X0020823D01*
Y0014595D01*
X0010417Y0004763D02*
X0010473Y0004708D01*
X0010584D01*
X0010639Y0004763D01*
Y0004819D01*
X0010528Y0004930D01*
X0010639Y0005041D01*
X0010417D01*
X0010230Y0004763D02*
X0010202Y0004708D01*
X0010035D01*
X0010007Y0004763D01*
Y0004985D01*
X0010035Y0005041D01*
X0010202D01*
X0010230Y0004985D01*
X0010500Y0002883D02*
Y0002616D01*
X0010633Y0002749D02*
X0010367D01*
X0004007Y0006118D02*
X0003951Y0006174D01*
X0003923Y0006230D01*
Y0006341D01*
X0003951Y0006396D01*
X0004007Y0006452D01*
X0004062D01*
X0004118Y0006396D01*
X0004146Y0006341D01*
Y0006230D01*
X0004118Y0006174D01*
X0004062Y0006118D01*
X0004007D01*
X0003736D02*
X0003624D01*
X0003680D02*
Y0006452D01*
X0003624Y0006396D01*
X0003381Y0006174D02*
X0003353Y0006118D01*
X0003187D01*
X0003159Y0006174D01*
Y0006396D01*
X0003187Y0006452D01*
X0003353D01*
X0003381Y0006396D01*
X0003117Y0004500D02*
X0003384D01*
X0003251Y0004633D02*
Y0004367D01*
X0032206Y0005743D02*
X0032040D01*
X0032012Y0005799D01*
Y0005854D01*
X0032040Y0005910D01*
X0032206D01*
X0032234Y0005854D01*
Y0005799D01*
X0032123Y0005577D01*
X0031741Y0005743D02*
X0031824Y0005577D01*
X0031602Y0005743D02*
X0031768D01*
X0031824Y0005799D01*
Y0005854D01*
X0031768Y0005910D01*
X0031602D01*
Y0005577D01*
X0021597Y0012738D02*
X0021652Y0012683D01*
X0021763D01*
X0021819Y0012738D01*
Y0012794D01*
X0021708Y0012905D01*
X0021819Y0013016D01*
X0021597D01*
X0021409Y0012683D02*
X0021298D01*
X0021353D02*
Y0013016D01*
X0021298Y0012960D01*
X0020971Y0012849D02*
X0021054Y0012683D01*
X0020832Y0012849D02*
X0020999D01*
X0021054Y0012905D01*
Y0012960D01*
X0020999Y0013016D01*
X0020832D01*
Y0012683D01*
X0021819Y0010683D02*
X0021597D01*
X0021819Y0010905D01*
Y0010960D01*
X0021791Y0011016D01*
X0021624D01*
X0021597Y0010960D01*
X0021409Y0010683D02*
X0021298D01*
X0021353D02*
Y0011016D01*
X0021298Y0010960D01*
X0020971Y0010849D02*
X0021054Y0010683D01*
X0020832Y0010849D02*
X0020999D01*
X0021054Y0010905D01*
Y0010960D01*
X0020999Y0011016D01*
X0020832D01*
Y0010683D01*
X0018673Y0008659D02*
X0018562D01*
X0018618D02*
Y0008993D01*
X0018562Y0008937D01*
X0018319Y0008715D02*
X0018291Y0008659D01*
X0018124D01*
X0018097Y0008715D01*
Y0008937D01*
X0018124Y0008993D01*
X0018291D01*
X0018319Y0008937D01*
X0016383Y0008500D02*
X0016116D01*
X0016249Y0008367D02*
Y0008633D01*
X0021763Y0008683D02*
X0021652D01*
X0021708D02*
Y0009016D01*
X0021652Y0008960D01*
X0021409Y0008683D02*
X0021298D01*
X0021353D02*
Y0009016D01*
X0021298Y0008960D01*
X0020971Y0008849D02*
X0021054Y0008683D01*
X0020832Y0008849D02*
X0020999D01*
X0021054Y0008905D01*
Y0008960D01*
X0020999Y0009016D01*
X0020832D01*
Y0008683D01*
X0016098Y0014183D02*
X0016264Y0014516D01*
X0016042D01*
X0015771Y0014349D02*
X0015854Y0014183D01*
X0015632Y0014349D02*
X0015799D01*
X0015854Y0014405D01*
Y0014460D01*
X0015799Y0014516D01*
X0015632D01*
Y0014183D01*
X0037283Y0012182D02*
X0037311Y0012238D01*
Y0012293D01*
X0037283Y0012349D01*
X0037117D01*
X0037089Y0012293D01*
Y0012238D01*
X0037117Y0012182D01*
X0037283D01*
X0037311Y0012127D01*
Y0012071D01*
X0037283Y0012015D01*
X0037117D01*
X0037089Y0012071D01*
Y0012127D01*
X0037117Y0012182D01*
X0036901Y0012071D02*
X0036873Y0012015D01*
X0036707D01*
X0036679Y0012071D01*
Y0012293D01*
X0036707Y0012349D01*
X0036873D01*
X0036901Y0012293D01*
X0035365Y0011356D02*
X0035098D01*
X0035231Y0011223D02*
Y0011489D01*
X0004277Y0013556D02*
X0004054D01*
X0004166Y0013778D01*
X0004221D01*
Y0013445D01*
X0003672Y0013556D02*
Y0013501D01*
X0003700Y0013445D01*
X0003811D01*
X0003839Y0013501D01*
Y0013778D01*
X0003867D02*
X0003756D01*
X0005533Y0013545D02*
X0005422D01*
X0005478D02*
Y0013879D01*
X0005422Y0013823D01*
X0001367Y0013601D02*
X0001394Y0013545D01*
X0001561D01*
X0001589Y0013601D01*
Y0013712D01*
X0001533Y0013767D01*
X0001367D01*
Y0013879D01*
X0001589D01*
X0018691Y0012330D02*
X0018469D01*
X0018580Y0012552D01*
X0018636D01*
Y0012218D01*
X0018281Y0012274D02*
X0018253Y0012218D01*
X0018087D01*
X0018059Y0012274D01*
Y0012496D01*
X0018087Y0012552D01*
X0018253D01*
X0018281Y0012496D01*
X0017617Y0011000D02*
X0017884D01*
X0017751Y0011133D02*
Y0010867D01*
X0005255Y0008395D02*
X0005033D01*
X0005255Y0008617D01*
Y0008673D01*
X0005228Y0008728D01*
X0005061D01*
X0005033Y0008673D01*
X0004762Y0008562D02*
X0004846Y0008395D01*
X0004623Y0008562D02*
X0004790D01*
X0004846Y0008617D01*
Y0008673D01*
X0004790Y0008728D01*
X0004623D01*
Y0008395D01*
X0005610Y0013006D02*
X0005388D01*
X0005499Y0013228D01*
X0005554D01*
Y0012895D01*
X0005200D02*
X0005089D01*
X0005144D02*
Y0013228D01*
X0005089Y0013173D01*
X0004762Y0013062D02*
X0004846Y0012895D01*
X0004623Y0013062D02*
X0004790D01*
X0004846Y0013117D01*
Y0013173D01*
X0004790Y0013228D01*
X0004623D01*
Y0012895D01*
X0010955Y0007635D02*
X0010733D01*
X0010955Y0007857D01*
Y0007912D01*
X0010927Y0007968D01*
X0010760D01*
X0010733Y0007912D01*
X0010434Y0007635D02*
Y0007801D01*
X0010545Y0007968D02*
X0010462Y0007801D01*
X0010406D01*
X0010323Y0007968D01*
X0008250Y0013000D02*
X0005750D01*
Y0012500D01*
Y0012000D01*
X0008250D01*
Y0012500D01*
Y0013000D01*
X0008500Y0012500D02*
X0008250D01*
X0005500D02*
X0005750D01*
X0008250Y0011500D02*
X0005750D01*
Y0011000D01*
Y0010500D01*
X0008250D01*
Y0011000D01*
Y0011500D01*
X0008500Y0011000D02*
X0008250D01*
X0005500D02*
X0005750D01*
X0001000Y0007450D02*
X0002000D01*
Y0012550D01*
X0001000D01*
Y0012000D01*
Y0011000D01*
Y0010000D01*
Y0009000D01*
Y0008000D01*
Y0007450D01*
X0025177Y0006984D02*
X0026177D01*
Y0012084D01*
X0025177D01*
Y0011534D01*
Y0010534D01*
Y0009534D01*
Y0008534D01*
Y0007534D01*
Y0006984D01*
X0008250Y0010000D02*
X0005750D01*
Y0009500D01*
Y0009000D01*
X0008250D01*
Y0009500D01*
Y0010000D01*
X0008500Y0009500D02*
X0008250D01*
X0005500D02*
X0005750D01*
X0023203Y0002997D02*
X0020703D01*
Y0002497D01*
Y0001997D01*
X0023203D01*
Y0002497D01*
Y0002997D01*
X0023453Y0002497D02*
X0023203D01*
X0020453D02*
X0020703D01*
X0023207Y0004739D02*
X0020707D01*
Y0004239D01*
Y0003739D01*
X0023207D01*
Y0004239D01*
Y0004739D01*
X0023457Y0004239D02*
X0023207D01*
X0020457D02*
X0020707D01*
X0035133Y0012933D02*
X0037633D01*
Y0013433D01*
Y0013933D01*
X0035133D01*
Y0013433D01*
Y0012933D01*
X0034883Y0013433D02*
X0035133D01*
X0037883D02*
X0037633D01*
X0034029Y0002480D02*
X0031529D01*
Y0001980D01*
Y0001480D01*
X0034029D01*
Y0001980D01*
Y0002480D01*
X0034279Y0001980D02*
X0034029D01*
X0031279D02*
X0031529D01*
X0020719Y0005584D02*
X0023219D01*
Y0006084D01*
Y0006584D01*
X0020719D01*
Y0006084D01*
Y0005584D01*
X0020469Y0006084D02*
X0020719D01*
X0023469D02*
X0023219D01*
X0023250Y0014500D02*
X0020750D01*
Y0014000D01*
Y0013500D01*
X0023250D01*
Y0014000D01*
Y0014500D01*
X0023500Y0014000D02*
X0023250D01*
X0020500D02*
X0020750D01*
X0034029Y0005381D02*
X0031529D01*
Y0004881D01*
Y0004381D01*
X0034029D01*
Y0004881D01*
Y0005381D01*
X0034279Y0004881D02*
X0034029D01*
X0031279D02*
X0031529D01*
X0020750Y0011500D02*
X0023250D01*
Y0012000D01*
Y0012500D01*
X0020750D01*
Y0012000D01*
Y0011500D01*
X0020500Y0012000D02*
X0020750D01*
X0023500D02*
X0023250D01*
X0020750Y0009500D02*
X0023250D01*
Y0010000D01*
Y0010500D01*
X0020750D01*
Y0010000D01*
Y0009500D01*
X0020500Y0010000D02*
X0020750D01*
X0023500D02*
X0023250D01*
X0020750Y0007500D02*
X0023250D01*
Y0008000D01*
Y0008500D01*
X0020750D01*
Y0008000D01*
Y0007500D01*
X0020500Y0008000D02*
X0020750D01*
X0023500D02*
X0023250D01*
X0015250Y0013000D02*
X0017750D01*
Y0013500D01*
Y0014000D01*
X0015250D01*
Y0013500D01*
Y0013000D01*
X0015000Y0013500D02*
X0015250D01*
X0018000D02*
X0017750D01*
X0000950Y0015000D02*
Y0014000D01*
X0006050D01*
Y0015000D01*
X0005500D01*
X0004500D01*
X0003500D01*
X0002500D01*
X0001500D01*
X0000950D01*
X0008250Y0008500D02*
X0005750D01*
Y0008000D01*
Y0007500D01*
X0008250D01*
Y0008000D01*
Y0008500D01*
X0008500Y0008000D02*
X0008250D01*
X0005500D02*
X0005750D01*
X0032482Y0006606D02*
X0034482D01*
Y0011106D01*
X0032482D01*
Y0006606D01*
X0010224Y0007440D02*
Y0005440D01*
X0014724D01*
Y0007440D01*
X0010224D01*
G01X0007375Y0002000D02*
G03X0008500Y0000875I0001125J0000000D01*
G03X0009625Y0002000I0000000J0001125D01*
G03X0008500Y0003125I0001125J0000000D01*
G03X0007375Y0002000I0000000J0001125D01*
G01X0033866Y0013433D02*
G03X0032616Y0014683I0001250J0000000D01*
G03X0031366Y0013433I0000000J0001250D01*
G03X0032616Y0012183I0001250J0000000D01*
G03X0033866Y0013433I0000000J0001250D01*
G01X0035982Y0008981D02*
G03X0034857Y0007856I0000000J0001125D01*
G03X0035982Y0006731I0001125J0000000D01*
G03X0037107Y0007856I0000000J0001125D01*
G03X0035982Y0008981I0001125J0000000D01*
G01X0004375Y0002000D02*
G03X0005500Y0000875I0001125J0000000D01*
G03X0006625Y0002000I0000000J0001125D01*
G03X0005500Y0003125I0001125J0000000D01*
G03X0004375Y0002000I0000000J0001125D01*
G01X0003625D02*
G03X0002500Y0003125I0001125J0000000D01*
G03X0001375Y0002000I0000000J0001125D01*
G03X0002500Y0000875I0001125J0000000D01*
G03X0003625Y0002000I0000000J0001125D01*
G01X0015125Y0003500D02*
G03X0014000Y0004625I0001125J0000000D01*
G03X0012875Y0003500I0000000J0001125D01*
G03X0014000Y0002375I0001125J0000000D01*
G03X0015125Y0003500I0000000J0001125D01*
G01X0009875D02*
G03X0011000Y0002375I0001125J0000000D01*
G03X0012125Y0003500I0000000J0001125D01*
G03X0011000Y0004625I0001125J0000000D01*
G03X0009875Y0003500I0000000J0001125D01*
G01X0002500Y0003875D02*
G03X0003625Y0005000I0000000J0001125D01*
G03X0002500Y0006125I0001125J0000000D01*
G03X0001375Y0005000I0000000J0001125D01*
G03X0002500Y0003875I0001125J0000000D01*
G01X0017000Y0009125D02*
G03X0015875Y0008000I0000000J0001125D01*
G03X0017000Y0006875I0001125J0000000D01*
G03X0018125Y0008000I0000000J0001125D01*
G03X0017000Y0009125I0001125J0000000D01*
G01X0035982Y0011981D02*
G03X0034857Y0010856I0000000J0001125D01*
G03X0035982Y0009731I0001125J0000000D01*
G03X0037107Y0010856I0000000J0001125D01*
G03X0035982Y0011981I0001125J0000000D01*
G01X0017000Y0010375D02*
G03X0018125Y0011500I0000000J0001125D01*
G03X0017000Y0012625I0001125J0000000D01*
G03X0015875Y0011500I0000000J0001125D01*
G03X0017000Y0010375I0001125J0000000D01*
G54D74*
G01X0013870Y0009158D02*
Y0009046D01*
Y0009102D02*
X0013537D01*
X0013593Y0009046D01*
X0011786Y0010652D02*
X0012119Y0010486D01*
Y0010708D01*
X0011786Y0010936D02*
Y0011047D01*
Y0010991D02*
X0012119D01*
X0012063Y0011047D01*
X0014203Y0008727D02*
X0014765D01*
G54D75*
G01X0040143Y0003172D02*
Y0003522D01*
X0040493Y0003172D01*
X0040580D01*
X0040668Y0003216D01*
Y0003478D01*
X0040580Y0003522D01*
X0040318Y0004069D02*
X0040230D01*
X0040143Y0004025D01*
Y0003850D01*
X0040230Y0003806D01*
X0040668D01*
Y0003762D02*
Y0003937D01*
M02*
