%
T1C0.0150F200S100
X011800Y010200
X011825Y010725
X011900Y007600
X012150Y009850
X012355Y010780
X012670Y012480
X012800Y009250
X013100Y007475
X013250Y009250
X013800Y009150
X013930Y012570
X015600Y009400
X029132Y006300
X029447Y010753
X029700Y006450
X030077Y010773
X030250Y012700
X030500Y007000
X030607Y013150
X030950Y013550
X031250Y007000
X033800Y011650
X034800Y002850
X035300Y004350
T2C0.0310F200S100
X002000Y002000
X002500Y004500
X002500Y005500
X003000Y002000
X005000Y002000
X005000Y008000
X005000Y009500
X005000Y011000
X005000Y012500
X006000Y002000
X008000Y002000
X009000Y002000
X010500Y003500
X009000Y008000
X009000Y009500
X009000Y011000
X009000Y012500
X010974Y006440
X011500Y003500
X013500Y003500
X013974Y006440
X014500Y003500
X017000Y007500
X017000Y008500
X017000Y011000
X017000Y012000
X014500Y013500
X018500Y013500
X019953Y002497
X019957Y004239
X019969Y006084
X020000Y008000
X020000Y010000
X020000Y012000
X020000Y014000
X023953Y002497
X023957Y004239
X023969Y006084
X024000Y008000
X024000Y010000
X024000Y012000
X024000Y014000
X030779Y001980
X030779Y004881
X031991Y013433
X033241Y013433
X033482Y007356
X033482Y010356
X034383Y013433
X034779Y001980
X034779Y004881
X035982Y007356
X035982Y008356
X035982Y010356
X035982Y011356
X038383Y013433
T3C0.0420F200S100
X001500Y008000
X001500Y009000
X001500Y010000
X001500Y011000
X001500Y012000
X001500Y014500
X002500Y014500
X003500Y014500
X004500Y014500
X005500Y014500
X025677Y007534
X025677Y008534
X025677Y009534
X025677Y010534
X025677Y011534
M30
