  0
SECTION
  2
HEADER
  9
$ACADVER
  1
AC1009
  9
$INSBASE
 10
0.0
 20
0.0
 30
0.0
  9
$EXTMIN
 10
-0.088
 20
-0.97182736
 30
0.0
  9
$EXTMAX
 10
3.86409624
 20
0.87229022
 30
0.0
  9
$LIMMIN
 10
0.0
 20
0.0
  9
$LIMMAX
 10
12.0
 20
9.0
  9
$ORTHOMODE
 70
     0
  9
$REGENMODE
 70
     1
  9
$FILLMODE
 70
     1
  9
$QTEXTMODE
 70
     0
  9
$MIRRTEXT
 70
     1
  9
$DRAGMODE
 70
     2
  9
$LTSCALE
 40
1.0
  9
$OSMODE
 70
     0
  9
$ATTMODE
 70
     1
  9
$TEXTSIZE
 40
0.039
  9
$TRACEWID
 40
0.05
  9
$TEXTSTYLE
  7
STANDARD
  9
$CLAYER
  8
0
  9
$CELTYPE
  6
BYLAYER
  9
$CECOLOR
 62
   256
  9
$DIMSCALE
 40
1.0
  9
$DIMASZ
 40
0.18
  9
$DIMEXO
 40
0.0625
  9
$DIMDLI
 40
0.38
  9
$DIMRND
 40
0.0
  9
$DIMDLE
 40
0.0
  9
$DIMEXE
 40
0.25
  9
$DIMTP
 40
0.0
  9
$DIMTM
 40
0.0
  9
$DIMTXT
 40
0.039
  9
$DIMCEN
 40
0.09
  9
$DIMTSZ
 40
0.0
  9
$DIMTOL
 70
     0
  9
$DIMLIM
 70
     0
  9
$DIMTIH
 70
     1
  9
$DIMTOH
 70
     1
  9
$DIMSE1
 70
     0
  9
$DIMSE2
 70
     0
  9
$DIMTAD
 70
     0
  9
$DIMZIN
 70
     0
  9
$DIMBLK
  1

  9
$DIMASO
 70
     1
  9
$DIMSHO
 70
     1
  9
$DIMPOST
  1

  9
$DIMAPOST
  1

  9
$DIMALT
 70
     0
  9
$DIMALTD
 70
     2
  9
$DIMALTF
 40
25.4
  9
$DIMLFAC
 40
1.0
  9
$DIMTOFL
 70
     0
  9
$DIMTVP
 40
0.0
  9
$DIMTIX
 70
     0
  9
$DIMSOXD
 70
     0
  9
$DIMSAH
 70
     0
  9
$DIMBLK1
  1

  9
$DIMBLK2
  1

  9
$DIMSTYLE
  2
*UNNAMED
  9
$DIMCLRD
 70
     0
  9
$DIMCLRE
 70
     0
  9
$DIMCLRT
 70
     4
  9
$DIMTFAC
 40
1.0
  9
$DIMGAP
 40
0.09
  9
$LUNITS
 70
     2
  9
$LUPREC
 70
    10
  9
$SKETCHINC
 40
0.1
  9
$FILLETRAD
 40
0.0
  9
$AUNITS
 70
     0
  9
$AUPREC
 70
     0
  9
$MENU
  1
acad
  9
$ELEVATION
 40
0.0
  9
$PELEVATION
 40
0.0
  9
$THICKNESS
 40
0.0
  9
$LIMCHECK
 70
     0
  9
$BLIPMODE
 70
     0
  9
$CHAMFERA
 40
0.0
  9
$CHAMFERB
 40
0.0
  9
$SKPOLY
 70
     0
  9
$TDCREATE
 40
2448658.802388310
  9
$TDUPDATE
 40
2450204.466543750
  9
$TDINDWG
 40
0.2290997685
  9
$TDUSRTIMER
 40
0.2290997685
  9
$USRTIMER
 70
     1
  9
$ANGBASE
 50
0.0
  9
$ANGDIR
 70
     0
  9
$PDMODE
 70
     2
  9
$PDSIZE
 40
0.0
  9
$PLINEWID
 40
0.0
  9
$COORDS
 70
     0
  9
$SPLFRAME
 70
     0
  9
$SPLINETYPE
 70
     6
  9
$SPLINESEGS
 70
     8
  9
$ATTDIA
 70
     0
  9
$ATTREQ
 70
     1
  9
$HANDLING
 70
     0
  9
$HANDSEED
  5
0
  9
$SURFTAB1
 70
     6
  9
$SURFTAB2
 70
     6
  9
$SURFTYPE
 70
     6
  9
$SURFU
 70
     6
  9
$SURFV
 70
     6
  9
$UCSNAME
  2

  9
$UCSORG
 10
0.0
 20
0.0
 30
0.0
  9
$UCSXDIR
 10
1.0
 20
0.0
 30
0.0
  9
$UCSYDIR
 10
0.0
 20
1.0
 30
0.0
  9
$PUCSNAME
  2

  9
$PUCSORG
 10
0.0
 20
0.0
 30
0.0
  9
$PUCSXDIR
 10
1.0
 20
0.0
 30
0.0
  9
$PUCSYDIR
 10
0.0
 20
1.0
 30
0.0
  9
$USERI1
 70
     0
  9
$USERI2
 70
     0
  9
$USERI3
 70
     0
  9
$USERI4
 70
     0
  9
$USERI5
 70
     0
  9
$USERR1
 40
0.0
  9
$USERR2
 40
0.0
  9
$USERR3
 40
0.0
  9
$USERR4
 40
0.0
  9
$USERR5
 40
0.0
  9
$WORLDVIEW
 70
     1
  9
$SHADEDGE
 70
     3
  9
$SHADEDIF
 70
    70
  9
$TILEMODE
 70
     1
  9
$MAXACTVP
 70
    16
  9
$PINSBASE
 10
0.0
 20
0.0
 30
0.0
  9
$PLIMCHECK
 70
     0
  9
$PEXTMIN
 10
1.00000000E+20
 20
1.00000000E+20
 30
1.00000000E+20
  9
$PEXTMAX
 10
-1.00000000E+20
 20
-1.00000000E+20
 30
-1.00000000E+20
  9
$PLIMMIN
 10
0.0
 20
0.0
  9
$PLIMMAX
 10
12.0
 20
9.0
  9
$UNITMODE
 70
     0
  9
$VISRETAIN
 70
     0
  9
$PLINEGEN
 70
     0
  9
$PSLTSCALE
 70
     0
  9
$TREEDEPTH
 70
  3020
  9
$DWGCODEPAGE
  3
undefined
  0
ENDSEC
  0
SECTION
  2
TABLES
  0
TABLE
  2
VPORT
 70
     2
  0
VPORT
  2
*ACTIVE
 70
     0
 10
0.0
 20
0.0
 11
1.0
 21
1.0
 12
1.90966881
 22
0.36064906
 13
0.0
 23
0.0
 14
1.0
 24
1.0
 15
0.0
 25
0.0
 16
0.0
 26
0.0
 36
1.0
 17
0.0
 27
0.0
 37
0.0
 40
3.2058748
 41
1.64505673
 42
50.0
 43
0.0
 44
0.0
 50
0.0
 51
0.0
 71
     0
 72
 10000
 73
     1
 74
     0
 75
     0
 76
     0
 77
     0
 78
     0
  0
ENDTAB
  0
TABLE
  2
LTYPE
 70
     1
  0
LTYPE
  2
CONTINUOUS
 70
    64
  3
Solid line
 72
    65
 73
     0
 40
0.0
  0
ENDTAB
  0
TABLE
  2
LAYER
 70
     2
  0
LAYER
  2
0
 70
     0
 62
     7
  6
CONTINUOUS
  0
LAYER
  2
GROUND_PLANE
 70
    64
 62
     3
  6
CONTINUOUS
  0
ENDTAB
  0
TABLE
  2
STYLE
 70
     1
  0
STYLE
  2
STANDARD
 70
     0
 40
1.0
 41
1.0
 50
0.0
 71
     0
 42
0.0
  3
txt
  4

  0
ENDTAB
  0
TABLE
  2
VIEW
 70
     0
  0
ENDTAB
  0
TABLE
  2
UCS
 70
     1
  0
UCS
  2
CK_VIEW_1
 70
     0
 10
0.0
 20
0.0
 30
0.0
 11
1.0
 21
0.0
 31
0.0
 12
0.0
 22
1.0
 32
0.0
  0
ENDTAB
  0
TABLE
  2
APPID
 70
     1
  0
APPID
  2
ACAD
 70
    64
  0
ENDTAB
  0
TABLE
  2
DIMSTYLE
 70
     0
  0
ENDTAB
  0
ENDSEC
  0
SECTION
  2
BLOCKS
  0
ENDSEC
  0
SECTION
  2
ENTITIES
  0
POLYLINE
  8
GROUND_PLANE
  6
CONTINUOUS
 66
     1
 10
0.0
 20
0.0
 30
0.0
 70
     1
  0
VERTEX
  8
GROUND_PLANE
  6
CONTINUOUS
 10
2.68367764
 20
-0.78081084
 30
0.0
  0
VERTEX
  8
GROUND_PLANE
  6
CONTINUOUS
 10
2.76397824
 20
-0.75158381
 30
0.0
 42
0.31529879
  0
VERTEX
  8
GROUND_PLANE
  6
CONTINUOUS
 10
2.78371764
 20
-0.72339304
 30
0.0
  0
VERTEX
  8
GROUND_PLANE
  6
CONTINUOUS
 10
2.78371764
 20
-0.70026916
 30
0.0
 42
0.41421356
  0
VERTEX
  8
GROUND_PLANE
  6
CONTINUOUS
 10
2.75371764
 20
-0.67026916
 30
0.0
  0
VERTEX
  8
GROUND_PLANE
  6
CONTINUOUS
 10
2.64176211
 20
-0.67026916
 30
0.0
 42
-0.31529879
  0
VERTEX
  8
GROUND_PLANE
  6
CONTINUOUS
 10
2.58350117
 20
-0.62947441
 30
0.0
  0
VERTEX
  8
GROUND_PLANE
  6
CONTINUOUS
 10
2.4848847
 20
-0.35852789
 30
0.0
 42
-0.08748866
  0
VERTEX
  8
GROUND_PLANE
  6
CONTINUOUS
 10
2.48114564
 20
-0.33732264
 30
0.0
  0
VERTEX
  8
GROUND_PLANE
  6
CONTINUOUS
 10
2.48114564
 20
-0.18290981
 30
0.0
 42
-0.25998018
  0
VERTEX
  8
GROUND_PLANE
  6
CONTINUOUS
 10
2.51055959
 20
-0.13016373
 30
0.0
 42
0.55765187
  0
VERTEX
  8
GROUND_PLANE
  6
CONTINUOUS
 10
2.51055959
 20
0.13016373
 30
0.0
 42
-0.25998018
  0
VERTEX
  8
GROUND_PLANE
  6
CONTINUOUS
 10
2.48114564
 20
0.18290981
 30
0.0
  0
VERTEX
  8
GROUND_PLANE
  6
CONTINUOUS
 10
2.48114564
 20
0.3295
 30
0.0
 42
-0.41421356
  0
VERTEX
  8
GROUND_PLANE
  6
CONTINUOUS
 10
2.54314564
 20
0.3915
 30
0.0
  0
VERTEX
  8
GROUND_PLANE
  6
CONTINUOUS
 10
2.71745787
 20
0.3915
 30
0.0
 42
-0.19891237
  0
VERTEX
  8
GROUND_PLANE
  6
CONTINUOUS
 10
2.76129849
 20
0.37334062
 30
0.0
  0
VERTEX
  8
GROUND_PLANE
  6
CONTINUOUS
 10
2.79791089
 20
0.33672822
 30
0.0
 42
-0.38911822
  0
VERTEX
  8
GROUND_PLANE
  6
CONTINUOUS
 10
2.80153185
 20
0.25299526
 30
0.0
 42
0.39263375
  0
VERTEX
  8
GROUND_PLANE
  6
CONTINUOUS
 10
2.82433923
 20
-0.2091002
 30
0.0
 42
0.33605676
  0
VERTEX
  8
GROUND_PLANE
  6
CONTINUOUS
 10
2.8602921
 20
-0.21361058
 30
0.0
  0
VERTEX
  8
GROUND_PLANE
  6
CONTINUOUS
 10
2.88739479
 20
-0.19796283
 30
0.0
 42
0.50640743
  0
VERTEX
  8
GROUND_PLANE
  6
CONTINUOUS
 10
2.89268875
 20
-0.14988783
 30
0.0
 42
-0.98529112
  0
VERTEX
  8
GROUND_PLANE
  6
CONTINUOUS
 10
3.22539146
 20
0.22327972
 30
0.0
 42
-0.38451469
  0
VERTEX
  8
GROUND_PLANE
  6
CONTINUOUS
 10
3.23033565
 20
0.18338656
 30
0.0
  0
VERTEX
  8
GROUND_PLANE
  6
CONTINUOUS
 10
3.19713838
 20
0.13597593
 30
0.0
 42
0.69940129
  0
VERTEX
  8
GROUND_PLANE
  6
CONTINUOUS
 10
3.22134566
 20
0.10132458
 30
0.0
  0
VERTEX
  8
GROUND_PLANE
  6
CONTINUOUS
 10
3.26278714
 20
0.07230694
 30
0.0
 42
0.22112693
  0
VERTEX
  8
GROUND_PLANE
  6
CONTINUOUS
 10
3.27229175
 20
0.05588554
 30
0.0
  0
VERTEX
  8
GROUND_PLANE
  6
CONTINUOUS
 10
3.28191314
 20
0.04914857
 30
0.0
 42
-0.29620996
  0
VERTEX
  8
GROUND_PLANE
  6
CONTINUOUS
 10
3.30721244
 20
-0.01346822
 30
0.0
 42
-0.13570091
  0
VERTEX
  8
GROUND_PLANE
  6
CONTINUOUS
 10
3.24785146
 20
-0.13276235
 30
0.0
 42
0.75591904
  0
VERTEX
  8
GROUND_PLANE
  6
CONTINUOUS
 10
3.32814564
 20
-0.416
 30
0.0
  0
VERTEX
  8
GROUND_PLANE
  6
CONTINUOUS
 10
3.49903464
 20
-0.416
 30
0.0
 42
0.41421356
  0
VERTEX
  8
GROUND_PLANE
  6
CONTINUOUS
 10
3.56103464
 20
-0.354
 30
0.0
  0
VERTEX
  8
GROUND_PLANE
  6
CONTINUOUS
 10
3.56103464
 20
0.42300034
 30
0.0
 42
0.41421356
  0
VERTEX
  8
GROUND_PLANE
  6
CONTINUOUS
 10
3.49903464
 20
0.48500034
 30
0.0
  0
VERTEX
  8
GROUND_PLANE
  6
CONTINUOUS
 10
1.50646944
 20
0.48500034
 30
0.0
 42
-0.41421356
  0
VERTEX
  8
GROUND_PLANE
  6
CONTINUOUS
 10
1.44446944
 20
0.54700034
 30
0.0
  0
VERTEX
  8
GROUND_PLANE
  6
CONTINUOUS
 10
1.44446944
 20
0.83607702
 30
0.0
 42
0.41421356
  0
VERTEX
  8
GROUND_PLANE
  6
CONTINUOUS
 10
1.41446944
 20
0.86607702
 30
0.0
  0
VERTEX
  8
GROUND_PLANE
  6
CONTINUOUS
 10
0.9995907
 20
0.86607702
 30
0.0
 42
0.19891237
  0
VERTEX
  8
GROUND_PLANE
  6
CONTINUOUS
 10
0.95575008
 20
0.84791764
 30
0.0
  0
VERTEX
  8
GROUND_PLANE
  6
CONTINUOUS
 10
0.56571307
 20
0.45788063
 30
0.0
 42
-0.20758823
  0
VERTEX
  8
GROUND_PLANE
  6
CONTINUOUS
 10
0.51980659
 20
0.43975568
 30
0.0
 42
0.33713787
  0
VERTEX
  8
GROUND_PLANE
  6
CONTINUOUS
 10
0.08524737
 20
0.1314741
 30
0.0
 42
-0.32788503
  0
VERTEX
  8
GROUND_PLANE
  6
CONTINUOUS
 10
0.02607988
 20
0.088
 30
0.0
  0
VERTEX
  8
GROUND_PLANE
  6
CONTINUOUS
 10
0.0
 20
0.088
 30
0.0
 42
1.0
  0
VERTEX
  8
GROUND_PLANE
  6
CONTINUOUS
 10
0.0
 20
-0.088
 30
0.0
  0
VERTEX
  8
GROUND_PLANE
  6
CONTINUOUS
 10
0.02607988
 20
-0.088
 30
0.0
 42
-0.32788503
  0
VERTEX
  8
GROUND_PLANE
  6
CONTINUOUS
 10
0.08524737
 20
-0.1314741
 30
0.0
 42
0.33713787
  0
VERTEX
  8
GROUND_PLANE
  6
CONTINUOUS
 10
0.51980659
 20
-0.43975568
 30
0.0
 42
-0.20758823
  0
VERTEX
  8
GROUND_PLANE
  6
CONTINUOUS
 10
0.56571307
 20
-0.45788063
 30
0.0
  0
VERTEX
  8
GROUND_PLANE
  6
CONTINUOUS
 10
0.95575008
 20
-0.84791764
 30
0.0
 42
0.19891237
  0
VERTEX
  8
GROUND_PLANE
  6
CONTINUOUS
 10
0.9995907
 20
-0.86607702
 30
0.0
  0
VERTEX
  8
GROUND_PLANE
  6
CONTINUOUS
 10
1.41447137
 20
-0.86607702
 30
0.0
 42
0.41421356
  0
VERTEX
  8
GROUND_PLANE
  6
CONTINUOUS
 10
1.44447137
 20
-0.83607702
 30
0.0
  0
VERTEX
  8
GROUND_PLANE
  6
CONTINUOUS
 10
1.44447137
 20
-0.64783013
 30
0.0
 42
-0.41421356
  0
VERTEX
  8
GROUND_PLANE
  6
CONTINUOUS
 10
1.50647137
 20
-0.58583013
 30
0.0
  0
VERTEX
  8
GROUND_PLANE
  6
CONTINUOUS
 10
1.96018886
 20
-0.58583013
 30
0.0
 42
-0.31529879
  0
VERTEX
  8
GROUND_PLANE
  6
CONTINUOUS
 10
2.0184498
 20
-0.62662488
 30
0.0
  0
VERTEX
  8
GROUND_PLANE
  6
CONTINUOUS
 10
2.12461584
 20
-0.91831368
 30
0.0
 42
0.41421356
  0
VERTEX
  8
GROUND_PLANE
  6
CONTINUOUS
 10
2.20408203
 20
-0.95536937
 30
0.0
  0
VERTEX
  8
GROUND_PLANE
  6
CONTINUOUS
 10
2.3163753
 20
-0.91449796
 30
0.0
 42
0.41421356
  0
VERTEX
  8
GROUND_PLANE
  6
CONTINUOUS
 10
2.33430548
 20
-0.87604658
 30
0.0
  0
VERTEX
  8
GROUND_PLANE
  6
CONTINUOUS
 10
2.33088527
 20
-0.86664965
 30
0.0
 42
0.41421356
  0
VERTEX
  8
GROUND_PLANE
  6
CONTINUOUS
 10
2.29243389
 20
-0.84871948
 30
0.0
  0
VERTEX
  8
GROUND_PLANE
  6
CONTINUOUS
 10
2.26471296
 20
-0.85880907
 30
0.0
 42
-0.41421356
  0
VERTEX
  8
GROUND_PLANE
  6
CONTINUOUS
 10
2.18524677
 20
-0.82175338
 30
0.0
  0
VERTEX
  8
GROUND_PLANE
  6
CONTINUOUS
 10
2.02159082
 20
-0.37211237
 30
0.0
 42
-0.08748866
  0
VERTEX
  8
GROUND_PLANE
  6
CONTINUOUS
 10
2.01785177
 20
-0.35090712
 30
0.0
  0
VERTEX
  8
GROUND_PLANE
  6
CONTINUOUS
 10
2.01785177
 20
-0.15507403
 30
0.0
 42
0.22554089
  0
VERTEX
  8
GROUND_PLANE
  6
CONTINUOUS
 10
2.00679661
 20
-0.13181263
 30
0.0
 42
0.40409185
  0
VERTEX
  8
GROUND_PLANE
  6
CONTINUOUS
 10
1.96560517
 20
-0.13820421
 30
0.0
  0
VERTEX
  8
GROUND_PLANE
  6
CONTINUOUS
 10
1.95394746
 20
-0.15357748
 30
0.0
 42
0.1636372
  0
VERTEX
  8
GROUND_PLANE
  6
CONTINUOUS
 10
1.94785177
 20
-0.17170437
 30
0.0
  0
VERTEX
  8
GROUND_PLANE
  6
CONTINUOUS
 10
1.94785177
 20
-0.28883013
 30
0.0
 42
-0.41421356
  0
VERTEX
  8
GROUND_PLANE
  6
CONTINUOUS
 10
1.88585177
 20
-0.35083013
 30
0.0
  0
VERTEX
  8
GROUND_PLANE
  6
CONTINUOUS
 10
1.85285177
 20
-0.35083013
 30
0.0
 42
0.41421356
  0
VERTEX
  8
GROUND_PLANE
  6
CONTINUOUS
 10
1.82285177
 20
-0.38083013
 30
0.0
  0
VERTEX
  8
GROUND_PLANE
  6
CONTINUOUS
 10
1.82285177
 20
-0.42583013
 30
0.0
 42
-0.41421356
  0
VERTEX
  8
GROUND_PLANE
  6
CONTINUOUS
 10
1.79285177
 20
-0.45583013
 30
0.0
  0
VERTEX
  8
GROUND_PLANE
  6
CONTINUOUS
 10
1.71778597
 20
-0.45583013
 30
0.0
 42
-1.06801022
  0
VERTEX
  8
GROUND_PLANE
  6
CONTINUOUS
 10
1.71285379
 20
-0.38115489
 30
0.0
 42
0.41415419
  0
VERTEX
  8
GROUND_PLANE
  6
CONTINUOUS
 10
1.72285177
 20
-0.37115489
 30
0.0
  0
VERTEX
  8
GROUND_PLANE
  6
CONTINUOUS
 10
1.72285177
 20
-0.205
 30
0.0
 42
0.41421356
  0
VERTEX
  8
GROUND_PLANE
  6
CONTINUOUS
 10
1.69285177
 20
-0.175
 30
0.0
  0
VERTEX
  8
GROUND_PLANE
  6
CONTINUOUS
 10
1.68285174
 20
-0.175
 30
0.0
 42
0.41421356
  0
VERTEX
  8
GROUND_PLANE
  6
CONTINUOUS
 10
1.65285174
 20
-0.205
 30
0.0
  0
VERTEX
  8
GROUND_PLANE
  6
CONTINUOUS
 10
1.65285174
 20
-0.21
 30
0.0
 42
-0.41421356
  0
VERTEX
  8
GROUND_PLANE
  6
CONTINUOUS
 10
1.62285174
 20
-0.24
 30
0.0
  0
VERTEX
  8
GROUND_PLANE
  6
CONTINUOUS
 10
1.61580702
 20
-0.24
 30
0.0
 42
0.48895697
  0
VERTEX
  8
GROUND_PLANE
  6
CONTINUOUS
 10
1.58672707
 20
-0.27737271
 30
0.0
 42
-0.49578871
  0
VERTEX
  8
GROUND_PLANE
  6
CONTINUOUS
 10
1.54955241
 20
-0.32407953
 30
0.0
  0
VERTEX
  8
GROUND_PLANE
  6
CONTINUOUS
 10
1.48821612
 20
-0.34051454
 30
0.0
 42
-0.41421356
  0
VERTEX
  8
GROUND_PLANE
  6
CONTINUOUS
 10
1.45024902
 20
-0.31859423
 30
0.0
  0
VERTEX
  8
GROUND_PLANE
  6
CONTINUOUS
 10
1.41918016
 20
-0.20264365
 30
0.0
 42
0.25313885
  0
VERTEX
  8
GROUND_PLANE
  6
CONTINUOUS
 10
1.39956173
 20
-0.18190554
 30
0.0
 42
-0.36144213
  0
VERTEX
  8
GROUND_PLANE
  6
CONTINUOUS
 10
1.35745855
 20
-0.11472885
 30
0.0
 42
0.00173966
  0
VERTEX
  8
GROUND_PLANE
  6
CONTINUOUS
 10
1.35823626
 20
-0.10879518
 30
0.0
 42
0.45187316
  0
VERTEX
  8
GROUND_PLANE
  6
CONTINUOUS
 10
1.32847729
 20
-0.075
 30
0.0
  0
VERTEX
  8
GROUND_PLANE
  6
CONTINUOUS
 10
1.31839529
 20
-0.075
 30
0.0
 42
0.37708659
  0
VERTEX
  8
GROUND_PLANE
  6
CONTINUOUS
 10
1.28864226
 20
-0.10115854
 30
0.0
 42
-0.06820415
  0
VERTEX
  8
GROUND_PLANE
  6
CONTINUOUS
 10
1.23253869
 20
-0.30821964
 30
0.0
 42
0.53432433
  0
VERTEX
  8
GROUND_PLANE
  6
CONTINUOUS
 10
1.25990087
 20
-0.34992305
 30
0.0
 42
-0.41167406
  0
VERTEX
  8
GROUND_PLANE
  6
CONTINUOUS
 10
1.28964053
 20
-0.37992192
 30
0.0
  0
VERTEX
  8
GROUND_PLANE
  6
CONTINUOUS
 10
1.28964053
 20
-0.40270272
 30
0.0
  0
VERTEX
  8
GROUND_PLANE
  6
CONTINUOUS
 10
1.31500941
 20
-0.40270272
 30
0.0
 42
-0.38887873
  0
VERTEX
  8
GROUND_PLANE
  6
CONTINUOUS
 10
1.34489525
 20
-0.43008805
 30
0.0
  0
VERTEX
  8
GROUND_PLANE
  6
CONTINUOUS
 10
1.35252799
 20
-0.51733061
 30
0.0
 42
-0.33945426
  0
VERTEX
  8
GROUND_PLANE
  6
CONTINUOUS
 10
1.31196916
 20
-0.58099521
 30
0.0
  0
VERTEX
  8
GROUND_PLANE
  6
CONTINUOUS
 10
1.13272632
 20
-0.64623427
 30
0.0
 42
-0.26794919
  0
VERTEX
  8
GROUND_PLANE
  6
CONTINUOUS
 10
1.07166823
 20
-0.63546808
 30
0.0
  0
VERTEX
  8
GROUND_PLANE
  6
CONTINUOUS
 10
1.03941777
 20
-0.60840673
 30
0.0
  0
VERTEX
  8
GROUND_PLANE
  6
CONTINUOUS
 10
1.01740637
 20
-0.63463891
 30
0.0
 42
-0.30940325
  0
VERTEX
  8
GROUND_PLANE
  6
CONTINUOUS
 10
0.94996295
 20
-0.65348915
 30
0.0
  0
VERTEX
  8
GROUND_PLANE
  6
CONTINUOUS
 10
0.90440296
 20
-0.63800681
 30
0.0
 42
-0.20689935
  0
VERTEX
  8
GROUND_PLANE
  6
CONTINUOUS
 10
0.8679219
 20
-0.60498809
 30
0.0
  0
VERTEX
  8
GROUND_PLANE
  6
CONTINUOUS
 10
0.76450869
 20
-0.3777844
 30
0.0
  0
VERTEX
  8
GROUND_PLANE
  6
CONTINUOUS
 10
0.69460579
 20
-0.3078815
 30
0.0
 42
-1.67746403
  0
VERTEX
  8
GROUND_PLANE
  6
CONTINUOUS
 10
0.69460579
 20
0.3078815
 30
0.0
  0
VERTEX
  8
GROUND_PLANE
  6
CONTINUOUS
 10
0.77035641
 20
0.38363213
 30
0.0
  0
VERTEX
  8
GROUND_PLANE
  6
CONTINUOUS
 10
0.87169096
 20
0.6062689
 30
0.0
 42
-0.20689935
  0
VERTEX
  8
GROUND_PLANE
  6
CONTINUOUS
 10
0.90817203
 20
0.63928763
 30
0.0
  0
VERTEX
  8
GROUND_PLANE
  6
CONTINUOUS
 10
0.94996295
 20
0.65348915
 30
0.0
 42
-0.30940325
  0
VERTEX
  8
GROUND_PLANE
  6
CONTINUOUS
 10
1.01740637
 20
0.63463891
 30
0.0
  0
VERTEX
  8
GROUND_PLANE
  6
CONTINUOUS
 10
1.03941777
 20
0.60840673
 30
0.0
  0
VERTEX
  8
GROUND_PLANE
  6
CONTINUOUS
 10
1.07166823
 20
0.63546808
 30
0.0
 42
-0.26794919
  0
VERTEX
  8
GROUND_PLANE
  6
CONTINUOUS
 10
1.13272632
 20
0.64623427
 30
0.0
  0
VERTEX
  8
GROUND_PLANE
  6
CONTINUOUS
 10
1.31196916
 20
0.58099521
 30
0.0
 42
-0.33945426
  0
VERTEX
  8
GROUND_PLANE
  6
CONTINUOUS
 10
1.35252799
 20
0.51733061
 30
0.0
  0
VERTEX
  8
GROUND_PLANE
  6
CONTINUOUS
 10
1.34489525
 20
0.43008805
 30
0.0
 42
-0.38887873
  0
VERTEX
  8
GROUND_PLANE
  6
CONTINUOUS
 10
1.31500941
 20
0.40270272
 30
0.0
  0
VERTEX
  8
GROUND_PLANE
  6
CONTINUOUS
 10
1.28964053
 20
0.40270272
 30
0.0
  0
VERTEX
  8
GROUND_PLANE
  6
CONTINUOUS
 10
1.28964053
 20
0.37992192
 30
0.0
 42
-0.41167406
  0
VERTEX
  8
GROUND_PLANE
  6
CONTINUOUS
 10
1.25990087
 20
0.34992305
 30
0.0
 42
0.53432433
  0
VERTEX
  8
GROUND_PLANE
  6
CONTINUOUS
 10
1.23253869
 20
0.30821964
 30
0.0
 42
-0.06820415
  0
VERTEX
  8
GROUND_PLANE
  6
CONTINUOUS
 10
1.28864226
 20
0.10115854
 30
0.0
 42
0.37708659
  0
VERTEX
  8
GROUND_PLANE
  6
CONTINUOUS
 10
1.31839529
 20
0.075
 30
0.0
  0
VERTEX
  8
GROUND_PLANE
  6
CONTINUOUS
 10
1.32847729
 20
0.075
 30
0.0
 42
0.45187316
  0
VERTEX
  8
GROUND_PLANE
  6
CONTINUOUS
 10
1.35823626
 20
0.10879518
 30
0.0
 42
0.00920149
  0
VERTEX
  8
GROUND_PLANE
  6
CONTINUOUS
 10
1.35365523
 20
0.14011236
 30
0.0
 42
-0.46299977
  0
VERTEX
  8
GROUND_PLANE
  6
CONTINUOUS
 10
1.3832544
 20
0.175
 30
0.0
  0
VERTEX
  8
GROUND_PLANE
  6
CONTINUOUS
 10
1.56814564
 20
0.175
 30
0.0
 42
0.41421356
  0
VERTEX
  8
GROUND_PLANE
  6
CONTINUOUS
 10
1.59814564
 20
0.205
 30
0.0
  0
VERTEX
  8
GROUND_PLANE
  6
CONTINUOUS
 10
1.59814564
 20
0.26730032
 30
0.0
 42
0.30697897
  0
VERTEX
  8
GROUND_PLANE
  6
CONTINUOUS
 10
1.57925675
 20
0.29516684
 30
0.0
 42
-0.95330058
  0
VERTEX
  8
GROUND_PLANE
  6
CONTINUOUS
 10
1.60364564
 20
0.366
 30
0.0
  0
VERTEX
  8
GROUND_PLANE
  6
CONTINUOUS
 10
1.66814564
 20
0.366
 30
0.0
 42
-0.41421356
  0
VERTEX
  8
GROUND_PLANE
  6
CONTINUOUS
 10
1.69814564
 20
0.336
 30
0.0
  0
VERTEX
  8
GROUND_PLANE
  6
CONTINUOUS
 10
1.69814564
 20
0.301
 30
0.0
  0
VERTEX
  8
GROUND_PLANE
  6
CONTINUOUS
 10
1.7190771
 20
0.301
 30
0.0
 42
-0.31783725
  0
VERTEX
  8
GROUND_PLANE
  6
CONTINUOUS
 10
1.74736137
 20
0.281
 30
0.0
 42
0.27517371
  0
VERTEX
  8
GROUND_PLANE
  6
CONTINUOUS
 10
1.77095945
 20
0.26136827
 30
0.0
 42
-0.35401287
  0
VERTEX
  8
GROUND_PLANE
  6
CONTINUOUS
 10
1.82318771
 20
0.20341174
 30
0.0
 42
0.39878373
  0
VERTEX
  8
GROUND_PLANE
  6
CONTINUOUS
 10
1.85314564
 20
0.175
 30
0.0
  0
VERTEX
  8
GROUND_PLANE
  6
CONTINUOUS
 10
1.91789474
 20
0.175
 30
0.0
 42
0.49314543
  0
VERTEX
  8
GROUND_PLANE
  6
CONTINUOUS
 10
1.94687251
 20
0.21276457
 30
0.0
  0
VERTEX
  8
GROUND_PLANE
  6
CONTINUOUS
 10
1.92320733
 20
0.30108424
 30
0.0
 42
-0.41421356
  0
VERTEX
  8
GROUND_PLANE
  6
CONTINUOUS
 10
1.94442053
 20
0.33782659
 30
0.0
  0
VERTEX
  8
GROUND_PLANE
  6
CONTINUOUS
 10
2.03183682
 20
0.36124971
 30
0.0
 42
-0.33333333
  0
VERTEX
  8
GROUND_PLANE
  6
CONTINUOUS
 10
2.0672343
 20
0.3334645
 30
0.0
  0
VERTEX
  8
GROUND_PLANE
  6
CONTINUOUS
 10
2.07732824
 20
0.29579339
 30
0.0
 42
0.36751199
  0
VERTEX
  8
GROUND_PLANE
  6
CONTINUOUS
 10
2.10929392
 20
0.27370713
 30
0.0
 42
-0.34294181
  0
VERTEX
  8
GROUND_PLANE
  6
CONTINUOUS
 10
2.17372985
 20
0.23322064
 30
0.0
  0
VERTEX
  8
GROUND_PLANE
  6
CONTINUOUS
 10
2.1860217
 20
0.19944906
 30
0.0
 42
-0.2547733
  0
VERTEX
  8
GROUND_PLANE
  6
CONTINUOUS
 10
2.17716299
 20
0.14078158
 30
0.0
  0
VERTEX
  8
GROUND_PLANE
  6
CONTINUOUS
 10
2.10759911
 20
0.04904621
 30
0.0
 42
0.41421356
  0
VERTEX
  8
GROUND_PLANE
  6
CONTINUOUS
 10
2.11337654
 20
0.00701502
 30
0.0
  0
VERTEX
  8
GROUND_PLANE
  6
CONTINUOUS
 10
2.12134464
 20
0.00097272
 30
0.0
 42
0.38362366
  0
VERTEX
  8
GROUND_PLANE
  6
CONTINUOUS
 10
2.1613329
 20
0.00433244
 30
0.0
 42
-0.55875835
  0
VERTEX
  8
GROUND_PLANE
  6
CONTINUOUS
 10
2.26477401
 20
-0.01692114
 30
0.0
  0
VERTEX
  8
GROUND_PLANE
  6
CONTINUOUS
 10
2.51557265
 20
-0.70598475
 30
0.0
 42
-0.28618943
  0
VERTEX
  8
GROUND_PLANE
  6
CONTINUOUS
 10
2.5019992
 20
-0.77016707
 30
0.0
 42
0.28618943
  0
VERTEX
  8
GROUND_PLANE
  6
CONTINUOUS
 10
2.4954314
 20
-0.80122303
 30
0.0
  0
VERTEX
  8
GROUND_PLANE
  6
CONTINUOUS
 10
2.50063107
 20
-0.81550901
 30
0.0
 42
0.41421356
  0
VERTEX
  8
GROUND_PLANE
  6
CONTINUOUS
 10
2.53908245
 20
-0.83343919
 30
0.0
  0
VERTEX
  8
GROUND_PLANE
  6
CONTINUOUS
 10
2.67367764
 20
-0.78445054
 30
0.0
  0
SEQEND
  8
GROUND_PLANE
  6
CONTINUOUS
  0
POLYLINE
  8
GROUND_PLANE
  6
CONTINUOUS
 66
     1
 10
0.0
 20
0.0
 30
0.0
 70
     1
  0
VERTEX
  8
GROUND_PLANE
  6
CONTINUOUS
 10
1.00509253
 20
-0.04445238
 30
0.0
 42
1.05505695
  0
VERTEX
  8
GROUND_PLANE
  6
CONTINUOUS
 10
1.00936986
 20
0.03531827
 30
0.0
  0
VERTEX
  8
GROUND_PLANE
  6
CONTINUOUS
 10
0.99883373
 20
0.03531827
 30
0.0
 42
-0.35569046
  0
VERTEX
  8
GROUND_PLANE
  6
CONTINUOUS
 10
0.93811754
 20
0.08476659
 30
0.0
 42
0.08466999
  0
VERTEX
  8
GROUND_PLANE
  6
CONTINUOUS
 10
0.88471839
 20
0.2213097
 30
0.0
  0
VERTEX
  8
GROUND_PLANE
  6
CONTINUOUS
 10
0.83191225
 20
0.17385581
 30
0.0
 42
-0.27000048
  0
VERTEX
  8
GROUND_PLANE
  6
CONTINUOUS
 10
0.82923589
 20
-0.17845072
 30
0.0
  0
VERTEX
  8
GROUND_PLANE
  6
CONTINUOUS
 10
0.88471839
 20
-0.2283097
 30
0.0
 42
0.08344925
  0
VERTEX
  8
GROUND_PLANE
  6
CONTINUOUS
 10
0.93768455
 20
-0.09383582
 30
0.0
 42
-0.35432551
  0
VERTEX
  8
GROUND_PLANE
  6
CONTINUOUS
 10
0.99833916
 20
-0.04468173
 30
0.0
  0
VERTEX
  8
GROUND_PLANE
  6
CONTINUOUS
 10
1.00936986
 20
-0.04468173
 30
0.0
  0
SEQEND
  8
GROUND_PLANE
  6
CONTINUOUS
  0
POLYLINE
  8
GROUND_PLANE
  6
CONTINUOUS
 66
     1
 10
0.0
 20
0.0
 30
0.0
 70
     1
  0
VERTEX
  8
GROUND_PLANE
  6
CONTINUOUS
 10
2.94919364
 20
-0.67026916
 30
0.0
 42
-0.41421356
  0
VERTEX
  8
GROUND_PLANE
  6
CONTINUOUS
 10
2.97919364
 20
-0.70026916
 30
0.0
  0
VERTEX
  8
GROUND_PLANE
  6
CONTINUOUS
 10
2.97919364
 20
-0.73026916
 30
0.0
 42
-0.41421356
  0
VERTEX
  8
GROUND_PLANE
  6
CONTINUOUS
 10
2.94919364
 20
-0.76026916
 30
0.0
  0
VERTEX
  8
GROUND_PLANE
  6
CONTINUOUS
 10
2.91557364
 20
-0.76026916
 30
0.0
 42
-0.41421356
  0
VERTEX
  8
GROUND_PLANE
  6
CONTINUOUS
 10
2.88557364
 20
-0.73026916
 30
0.0
  0
VERTEX
  8
GROUND_PLANE
  6
CONTINUOUS
 10
2.88557364
 20
-0.70026916
 30
0.0
 42
-0.41421356
  0
VERTEX
  8
GROUND_PLANE
  6
CONTINUOUS
 10
2.91557364
 20
-0.67026916
 30
0.0
  0
SEQEND
  8
GROUND_PLANE
  6
CONTINUOUS
  0
POLYLINE
  8
GROUND_PLANE
  6
CONTINUOUS
 66
     1
 10
0.0
 20
0.0
 30
0.0
 70
     1
  0
VERTEX
  8
GROUND_PLANE
  6
CONTINUOUS
 10
3.73474596
 20
-0.57026916
 30
0.0
  0
VERTEX
  8
GROUND_PLANE
  6
CONTINUOUS
 10
3.73474596
 20
0.21373084
 30
0.0
  0
VERTEX
  8
GROUND_PLANE
  6
CONTINUOUS
 10
3.82474596
 20
0.21373084
 30
0.0
  0
VERTEX
  8
GROUND_PLANE
  6
CONTINUOUS
 10
3.82474596
 20
-0.57026916
 30
0.0
 42
-0.41421356
  0
VERTEX
  8
GROUND_PLANE
  6
CONTINUOUS
 10
3.63474596
 20
-0.76026916
 30
0.0
  0
VERTEX
  8
GROUND_PLANE
  6
CONTINUOUS
 10
3.10909864
 20
-0.76026916
 30
0.0
 42
-0.41421356
  0
VERTEX
  8
GROUND_PLANE
  6
CONTINUOUS
 10
3.07909864
 20
-0.73026916
 30
0.0
  0
VERTEX
  8
GROUND_PLANE
  6
CONTINUOUS
 10
3.07909864
 20
-0.70026916
 30
0.0
 42
-0.41421356
  0
VERTEX
  8
GROUND_PLANE
  6
CONTINUOUS
 10
3.10909864
 20
-0.67026916
 30
0.0
  0
VERTEX
  8
GROUND_PLANE
  6
CONTINUOUS
 10
3.63474596
 20
-0.67026916
 30
0.0
 42
0.41421356
  0
SEQEND
  8
GROUND_PLANE
  6
CONTINUOUS
  0
ENDSEC
  0
EOF

  0
SECTION
  2
HEADER
  9
$ACADVER
  1
AC1012
  9
$DWGCODEPAGE
  3
ansi_1252
  9
$INSBASE
 10
0.0
 20
0.0
 30
0.0
  9
$EXTMIN
 10
-0.088
 20
-0.971827
 30
0.0
  9
$EXTMAX
 10
3.864096
 20
0.87229
 30
0.0
  9
$LIMMIN
 10
0.0
 20
0.0
  9
$LIMMAX
 10
12.0
 20
9.0
  9
$ORTHOMODE
 70
     0
  9
$REGENMODE
 70
     1
  9
$FILLMODE
 70
     1
  9
$QTEXTMODE
 70
     0
  9
$MIRRTEXT
 70
     1
  9
$DRAGMODE
 70
     2
  9
$LTSCALE
 40
1.0
  9
$OSMODE
 70
     0
  9
$ATTMODE
 70
     1
  9
$TEXTSIZE
 40
0.039
  9
$TRACEWID
 40
0.05
  9
$TEXTSTYLE
  7
STANDARD
  9
$CLAYER
  8
0
  9
$CELTYPE
  6
BYLAYER
  9
$CECOLOR
 62
   256
  9
$CELTSCALE
 40
1.0
  9
$DELOBJ
 70
     1
  9
$DISPSILH
 70
     0
  9
$DIMSCALE
 40
1.0
  9
$DIMASZ
 40
0.18
  9
$DIMEXO
 40
0.0625
  9
$DIMDLI
 40
0.38
  9
$DIMRND
 40
0.0
  9
$DIMDLE
 40
0.0
  9
$DIMEXE
 40
0.25
  9
$DIMTP
 40
0.0
  9
$DIMTM
 40
0.0
  9
$DIMTXT
 40
0.039
  9
$DIMCEN
 40
0.09
  9
$DIMTSZ
 40
0.0
  9
$DIMTOL
 70
     0
  9
$DIMLIM
 70
     0
  9
$DIMTIH
 70
     1
  9
$DIMTOH
 70
     1
  9
$DIMSE1
 70
     0
  9
$DIMSE2
 70
     0
  9
$DIMTAD
 70
     0
  9
$DIMZIN
 70
     0
  9
$DIMBLK
  1

  9
$DIMASO
 70
     1
  9
$DIMSHO
 70
     1
  9
$DIMPOST
  1

  9
$DIMAPOST
  1

  9
$DIMALT
 70
     0
  9
$DIMALTD
 70
     2
  9
$DIMALTF
 40
25.4
  9
$DIMLFAC
 40
1.0
  9
$DIMTOFL
 70
     0
  9
$DIMTVP
 40
0.0
  9
$DIMTIX
 70
     0
  9
$DIMSOXD
 70
     0
  9
$DIMSAH
 70
     0
  9
$DIMBLK1
  1

  9
$DIMBLK2
  1

  9
$DIMSTYLE
  2
STANDARD
  9
$DIMCLRD
 70
     0
  9
$DIMCLRE
 70
     0
  9
$DIMCLRT
 70
     4
  9
$DIMTFAC
 40
1.0
  9
$DIMGAP
 40
0.09
  9
$DIMJUST
 70
     0
  9
$DIMSD1
 70
     0
  9
$DIMSD2
 70
     0
  9
$DIMTOLJ
 70
     1
  9
$DIMTZIN
 70
     0
  9
$DIMALTZ
 70
     0
  9
$DIMALTTZ
 70
     0
  9
$DIMFIT
 70
     3
  9
$DIMUPT
 70
     0
  9
$DIMUNIT
 70
     2
  9
$DIMDEC
 70
     4
  9
$DIMTDEC
 70
     4
  9
$DIMALTU
 70
     2
  9
$DIMALTTD
 70
     2
  9
$DIMTXSTY
  7
STANDARD
  9
$DIMAUNIT
 70
     0
  9
$LUNITS
 70
     2
  9
$LUPREC
 70
    10
  9
$SKETCHINC
 40
0.1
  9
$FILLETRAD
 40
0.0
  9
$AUNITS
 70
     0
  9
$AUPREC
 70
     0
  9
$MENU
  1
acad
  9
$ELEVATION
 40
0.0
  9
$PELEVATION
 40
0.0
  9
$THICKNESS
 40
0.0
  9
$LIMCHECK
 70
     0
  9
$BLIPMODE
 70
     0
  9
$CHAMFERA
 40
0.0
  9
$CHAMFERB
 40
0.0
  9
$CHAMFERC
 40
0.0
  9
$CHAMFERD
 40
0.0
  9
$SKPOLY
 70
     0
  9
$TDCREATE
 40
2448658.802388310
  9
$TDUPDATE
 40
2450204.466543750
  9
$TDINDWG
 40
0.2290997685
  9
$TDUSRTIMER
 40
0.2290997685
  9
$USRTIMER
 70
     1
  9
$ANGBASE
 50
0.0
  9
$ANGDIR
 70
     0
  9
$PDMODE
 70
     2
  9
$PDSIZE
 40
0.0
  9
$PLINEWID
 40
0.0
  9
$COORDS
 70
     0
  9
$SPLFRAME
 70
     0
  9
$SPLINETYPE
 70
     6
  9
$SPLINESEGS
 70
     8
  9
$ATTDIA
 70
     0
  9
$ATTREQ
 70
     1
  9
$HANDLING
 70
     1
  9
$HANDSEED
  5
102
  9
$SURFTAB1
 70
     6
  9
$SURFTAB2
 70
     6
  9
$SURFTYPE
 70
     6
  9
$SURFU
 70
     6
  9
$SURFV
 70
     6
  9
$UCSNAME
  2

  9
$UCSORG
 10
0.0
 20
0.0
 30
0.0
  9
$UCSXDIR
 10
1.0
 20
0.0
 30
0.0
  9
$UCSYDIR
 10
0.0
 20
1.0
 30
0.0
  9
$PUCSNAME
  2

  9
$PUCSORG
 10
0.0
 20
0.0
 30
0.0
  9
$PUCSXDIR
 10
1.0
 20
0.0
 30
0.0
  9
$PUCSYDIR
 10
0.0
 20
1.0
 30
0.0
  9
$USERI1
 70
     0
  9
$USERI2
 70
     0
  9
$USERI3
 70
     0
  9
$USERI4
 70
     0
  9
$USERI5
 70
     0
  9
$USERR1
 40
0.0
  9
$USERR2
 40
0.0
  9
$USERR3
 40
0.0
  9
$USERR4
 40
0.0
  9
$USERR5
 40
0.0
  9
$WORLDVIEW
 70
     1
  9
$SHADEDGE
 70
     3
  9
$SHADEDIF
 70
    70
  9
$TILEMODE
 70
     1
  9
$MAXACTVP
 70
    16
  9
$PINSBASE
 10
0.0
 20
0.0
 30
0.0
  9
$PLIMCHECK
 70
     0
  9
$PEXTMIN
 10
1.000000E+20
 20
1.000000E+20
 30
1.000000E+20
  9
$PEXTMAX
 10
-1.000000E+20
 20
-1.000000E+20
 30
-1.000000E+20
  9
$PLIMMIN
 10
0.0
 20
0.0
  9
$PLIMMAX
 10
12.0
 20
9.0
  9
$UNITMODE
 70
     0
  9
$VISRETAIN
 70
     0
  9
$PLINEGEN
 70
     0
  9
$PSLTSCALE
 70
     0
  9
$TREEDEPTH
 70
  3020
  9
$PICKSTYLE
 70
     1
  9
$CMLSTYLE
  2
STANDARD
  9
$CMLJUST
 70
     0
  9
$CMLSCALE
 40
1.0
  9
$SAVEIMAGES
 70
     0
  0
ENDSEC
  0
SECTION
  2
CLASSES
  0
ENDSEC
  0
SECTION
  2
TABLES
  0
TABLE
  2
VPORT
  5
8
100
AcDbSymbolTable
 70
     5
  0
VPORT
  5
101
100
AcDbSymbolTableRecord
100
AcDbViewportTableRecord
  2
*ACTIVE
 70
     0
 10
0.0
 20
0.0
 11
1.0
 21
1.0
 12
2.012925
 22
0.181746
 13
0.0
 23
0.0
 14
1.0
 24
1.0
 15
0.0
 25
0.0
 16
0.0
 26
0.0
 36
1.0
 17
0.0
 27
0.0
 37
0.0
 40
3.736783
 41
1.754069
 42
50.0
 43
0.0
 44
0.0
 50
0.0
 51
0.0
 71
     0
 72
 10000
 73
     1
 74
     0
 75
     0
 76
     0
 77
     0
 78
     0
  0
ENDTAB
  0
TABLE
  2
LTYPE
  5
5
100
AcDbSymbolTable
 70
     1
  0
LTYPE
  5
12
100
AcDbSymbolTableRecord
100
AcDbLinetypeTableRecord
  2
BYBLOCK
 70
     0
  3

 72
    65
 73
     0
 40
0.0
  0
LTYPE
  5
13
100
AcDbSymbolTableRecord
100
AcDbLinetypeTableRecord
  2
BYLAYER
 70
     0
  3

 72
    65
 73
     0
 40
0.0
  0
LTYPE
  5
14
100
AcDbSymbolTableRecord
100
AcDbLinetypeTableRecord
  2
CONTINUOUS
 70
    64
  3
Solid line
 72
    65
 73
     0
 40
0.0
  0
ENDTAB
  0
TABLE
  2
LAYER
  5
2
100
AcDbSymbolTable
 70
     3
  0
LAYER
  5
F
100
AcDbSymbolTableRecord
100
AcDbLayerTableRecord
  2
0
 70
     0
 62
     7
  6
CONTINUOUS
  0
LAYER
  5
20
100
AcDbSymbolTableRecord
100
AcDbLayerTableRecord
  2
GROUND_PLANE
 70
    64
 62
     3
  6
CONTINUOUS
  0
ENDTAB
  0
TABLE
  2
STYLE
  5
3
100
AcDbSymbolTable
 70
     2
  0
STYLE
  5
10
100
AcDbSymbolTableRecord
100
AcDbTextStyleTableRecord
  2
STANDARD
 70
     0
 40
1.0
 41
1.0
 50
0.0
 71
     0
 42
0.0
  3
txt
  4

  0
ENDTAB
  0
TABLE
  2
VIEW
  5
6
100
AcDbSymbolTable
 70
     0
  0
ENDTAB
  0
TABLE
  2
UCS
  5
7
100
AcDbSymbolTable
 70
     1
  0
UCS
  5
1D
100
AcDbSymbolTableRecord
100
AcDbUCSTableRecord
  2
CK_VIEW_1
 70
     0
 10
0.0
 20
0.0
 30
0.0
 11
1.0
 21
0.0
 31
0.0
 12
0.0
 22
1.0
 32
0.0
  0
ENDTAB
  0
TABLE
  2
APPID
  5
9
100
AcDbSymbolTable
 70
     1
  0
APPID
  5
11
100
AcDbSymbolTableRecord
100
AcDbRegAppTableRecord
  2
ACAD
 70
    64
  0
ENDTAB
  0
TABLE
  2
DIMSTYLE
  5
A
100
AcDbSymbolTable
 70
     1
  0
DIMSTYLE
105
FD
100
AcDbSymbolTableRecord
100
AcDbDimStyleTableRecord
  2
STANDARD
 70
     0
  3

  4

  5

  6

  7

 40
1.0
 41
0.18
 42
0.0625
 43
0.38
 44
0.18
 45
0.0
 46
0.0
 47
0.0
 48
0.0
140
0.18
141
0.09
142
0.0
143
25.4
144
1.0
145
0.0
146
1.0
147
0.09
 71
     0
 72
     0
 73
     1
 74
     1
 75
     0
 76
     0
 77
     0
 78
     0
170
     0
171
     2
172
     0
173
     0
174
     0
175
     0
176
     0
177
     0
178
     0
270
     2
271
     4
272
     4
273
     2
274
     2
340
10
275
     0
280
     0
281
     0
282
     0
283
     1
284
     0
285
     0
286
     0
287
     3
288
     0
  0
ENDTAB
  0
TABLE
  2
BLOCK_RECORD
  5
1
100
AcDbSymbolTable
 70
     0
  0
BLOCK_RECORD
  5
18
100
AcDbSymbolTableRecord
100
AcDbBlockTableRecord
  2
*MODEL_SPACE
  0
BLOCK_RECORD
  5
15
100
AcDbSymbolTableRecord
100
AcDbBlockTableRecord
  2
*PAPER_SPACE
  0
ENDTAB
  0
ENDSEC
  0
SECTION
  2
BLOCKS
  0
BLOCK
  5
24
100
AcDbEntity
  8
0
100
AcDbBlockBegin
  2
*MODEL_SPACE
 70
     0
 10
0.0
 20
0.0
 30
0.0
  3
*MODEL_SPACE
  1

  0
ENDBLK
  5
25
100
AcDbEntity
  8
0
100
AcDbBlockEnd
  0
BLOCK
  5
22
100
AcDbEntity
 67
     1
  8
0
100
AcDbBlockBegin
  2
*PAPER_SPACE
 70
     0
 10
0.0
 20
0.0
 30
0.0
  3
*PAPER_SPACE
  1

  0
ENDBLK
  5
23
100
AcDbEntity
 67
     1
  8
0
100
AcDbBlockEnd
  0
ENDSEC
  0
SECTION
  2
ENTITIES
  0
POLYLINE
  5
26
100
AcDbEntity
  8
GROUND_PLANE
  6
CONTINUOUS
100
AcDb2dPolyline
 66
     1
 10
0.0
 20
0.0
 30
0.0
 70
     1
  0
VERTEX
  5
27
100
AcDbEntity
  8
GROUND_PLANE
  6
CONTINUOUS
100
AcDbVertex
100
AcDb2dVertex
 10
2.683678
 20
-0.780811
 30
0.0
  0
VERTEX
  5
28
100
AcDbEntity
  8
GROUND_PLANE
  6
CONTINUOUS
100
AcDbVertex
100
AcDb2dVertex
 10
2.763978
 20
-0.751584
 30
0.0
 42
0.315299
  0
VERTEX
  5
29
100
AcDbEntity
  8
GROUND_PLANE
  6
CONTINUOUS
100
AcDbVertex
100
AcDb2dVertex
 10
2.783718
 20
-0.723393
 30
0.0
  0
VERTEX
  5
2A
100
AcDbEntity
  8
GROUND_PLANE
  6
CONTINUOUS
100
AcDbVertex
100
AcDb2dVertex
 10
2.783718
 20
-0.700269
 30
0.0
 42
0.414214
  0
VERTEX
  5
2B
100
AcDbEntity
  8
GROUND_PLANE
  6
CONTINUOUS
100
AcDbVertex
100
AcDb2dVertex
 10
2.753718
 20
-0.670269
 30
0.0
  0
VERTEX
  5
2C
100
AcDbEntity
  8
GROUND_PLANE
  6
CONTINUOUS
100
AcDbVertex
100
AcDb2dVertex
 10
2.641762
 20
-0.670269
 30
0.0
 42
-0.315299
  0
VERTEX
  5
2D
100
AcDbEntity
  8
GROUND_PLANE
  6
CONTINUOUS
100
AcDbVertex
100
AcDb2dVertex
 10
2.583501
 20
-0.629474
 30
0.0
  0
VERTEX
  5
2E
100
AcDbEntity
  8
GROUND_PLANE
  6
CONTINUOUS
100
AcDbVertex
100
AcDb2dVertex
 10
2.484885
 20
-0.358528
 30
0.0
 42
-0.087489
  0
VERTEX
  5
2F
100
AcDbEntity
  8
GROUND_PLANE
  6
CONTINUOUS
100
AcDbVertex
100
AcDb2dVertex
 10
2.481146
 20
-0.337323
 30
0.0
  0
VERTEX
  5
30
100
AcDbEntity
  8
GROUND_PLANE
  6
CONTINUOUS
100
AcDbVertex
100
AcDb2dVertex
 10
2.481146
 20
-0.18291
 30
0.0
 42
-0.25998
  0
VERTEX
  5
31
100
AcDbEntity
  8
GROUND_PLANE
  6
CONTINUOUS
100
AcDbVertex
100
AcDb2dVertex
 10
2.51056
 20
-0.130164
 30
0.0
 42
0.557652
  0
VERTEX
  5
32
100
AcDbEntity
  8
GROUND_PLANE
  6
CONTINUOUS
100
AcDbVertex
100
AcDb2dVertex
 10
2.51056
 20
0.130164
 30
0.0
 42
-0.25998
  0
VERTEX
  5
33
100
AcDbEntity
  8
GROUND_PLANE
  6
CONTINUOUS
100
AcDbVertex
100
AcDb2dVertex
 10
2.481146
 20
0.18291
 30
0.0
  0
VERTEX
  5
34
100
AcDbEntity
  8
GROUND_PLANE
  6
CONTINUOUS
100
AcDbVertex
100
AcDb2dVertex
 10
2.481146
 20
0.3295
 30
0.0
 42
-0.414214
  0
VERTEX
  5
35
100
AcDbEntity
  8
GROUND_PLANE
  6
CONTINUOUS
100
AcDbVertex
100
AcDb2dVertex
 10
2.543146
 20
0.3915
 30
0.0
  0
VERTEX
  5
36
100
AcDbEntity
  8
GROUND_PLANE
  6
CONTINUOUS
100
AcDbVertex
100
AcDb2dVertex
 10
2.717458
 20
0.3915
 30
0.0
 42
-0.198912
  0
VERTEX
  5
37
100
AcDbEntity
  8
GROUND_PLANE
  6
CONTINUOUS
100
AcDbVertex
100
AcDb2dVertex
 10
2.761298
 20
0.373341
 30
0.0
  0
VERTEX
  5
38
100
AcDbEntity
  8
GROUND_PLANE
  6
CONTINUOUS
100
AcDbVertex
100
AcDb2dVertex
 10
2.797911
 20
0.336728
 30
0.0
 42
-0.389118
  0
VERTEX
  5
39
100
AcDbEntity
  8
GROUND_PLANE
  6
CONTINUOUS
100
AcDbVertex
100
AcDb2dVertex
 10
2.801532
 20
0.252995
 30
0.0
 42
0.392634
  0
VERTEX
  5
3A
100
AcDbEntity
  8
GROUND_PLANE
  6
CONTINUOUS
100
AcDbVertex
100
AcDb2dVertex
 10
2.824339
 20
-0.2091
 30
0.0
 42
0.336057
  0
VERTEX
  5
3B
100
AcDbEntity
  8
GROUND_PLANE
  6
CONTINUOUS
100
AcDbVertex
100
AcDb2dVertex
 10
2.860292
 20
-0.213611
 30
0.0
  0
VERTEX
  5
3C
100
AcDbEntity
  8
GROUND_PLANE
  6
CONTINUOUS
100
AcDbVertex
100
AcDb2dVertex
 10
2.887395
 20
-0.197963
 30
0.0
 42
0.506407
  0
VERTEX
  5
3D
100
AcDbEntity
  8
GROUND_PLANE
  6
CONTINUOUS
100
AcDbVertex
100
AcDb2dVertex
 10
2.892689
 20
-0.149888
 30
0.0
 42
-0.985291
  0
VERTEX
  5
3E
100
AcDbEntity
  8
GROUND_PLANE
  6
CONTINUOUS
100
AcDbVertex
100
AcDb2dVertex
 10
3.225391
 20
0.22328
 30
0.0
 42
-0.384515
  0
VERTEX
  5
3F
100
AcDbEntity
  8
GROUND_PLANE
  6
CONTINUOUS
100
AcDbVertex
100
AcDb2dVertex
 10
3.230336
 20
0.183387
 30
0.0
  0
VERTEX
  5
40
100
AcDbEntity
  8
GROUND_PLANE
  6
CONTINUOUS
100
AcDbVertex
100
AcDb2dVertex
 10
3.197138
 20
0.135976
 30
0.0
 42
0.699401
  0
VERTEX
  5
41
100
AcDbEntity
  8
GROUND_PLANE
  6
CONTINUOUS
100
AcDbVertex
100
AcDb2dVertex
 10
3.221346
 20
0.101325
 30
0.0
  0
VERTEX
  5
42
100
AcDbEntity
  8
GROUND_PLANE
  6
CONTINUOUS
100
AcDbVertex
100
AcDb2dVertex
 10
3.262787
 20
0.072307
 30
0.0
 42
0.221127
  0
VERTEX
  5
43
100
AcDbEntity
  8
GROUND_PLANE
  6
CONTINUOUS
100
AcDbVertex
100
AcDb2dVertex
 10
3.272292
 20
0.055886
 30
0.0
  0
VERTEX
  5
44
100
AcDbEntity
  8
GROUND_PLANE
  6
CONTINUOUS
100
AcDbVertex
100
AcDb2dVertex
 10
3.281913
 20
0.049149
 30
0.0
 42
-0.29621
  0
VERTEX
  5
45
100
AcDbEntity
  8
GROUND_PLANE
  6
CONTINUOUS
100
AcDbVertex
100
AcDb2dVertex
 10
3.307212
 20
-0.013468
 30
0.0
 42
-0.135701
  0
VERTEX
  5
46
100
AcDbEntity
  8
GROUND_PLANE
  6
CONTINUOUS
100
AcDbVertex
100
AcDb2dVertex
 10
3.247851
 20
-0.132762
 30
0.0
 42
0.755919
  0
VERTEX
  5
47
100
AcDbEntity
  8
GROUND_PLANE
  6
CONTINUOUS
100
AcDbVertex
100
AcDb2dVertex
 10
3.328146
 20
-0.416
 30
0.0
  0
VERTEX
  5
48
100
AcDbEntity
  8
GROUND_PLANE
  6
CONTINUOUS
100
AcDbVertex
100
AcDb2dVertex
 10
3.499035
 20
-0.416
 30
0.0
 42
0.414214
  0
VERTEX
  5
49
100
AcDbEntity
  8
GROUND_PLANE
  6
CONTINUOUS
100
AcDbVertex
100
AcDb2dVertex
 10
3.561035
 20
-0.354
 30
0.0
  0
VERTEX
  5
4A
100
AcDbEntity
  8
GROUND_PLANE
  6
CONTINUOUS
100
AcDbVertex
100
AcDb2dVertex
 10
3.561035
 20
0.423
 30
0.0
 42
0.414214
  0
VERTEX
  5
4B
100
AcDbEntity
  8
GROUND_PLANE
  6
CONTINUOUS
100
AcDbVertex
100
AcDb2dVertex
 10
3.499035
 20
0.485
 30
0.0
  0
VERTEX
  5
4C
100
AcDbEntity
  8
GROUND_PLANE
  6
CONTINUOUS
100
AcDbVertex
100
AcDb2dVertex
 10
1.506469
 20
0.485
 30
0.0
 42
-0.414214
  0
VERTEX
  5
4D
100
AcDbEntity
  8
GROUND_PLANE
  6
CONTINUOUS
100
AcDbVertex
100
AcDb2dVertex
 10
1.444469
 20
0.547
 30
0.0
  0
VERTEX
  5
4E
100
AcDbEntity
  8
GROUND_PLANE
  6
CONTINUOUS
100
AcDbVertex
100
AcDb2dVertex
 10
1.444469
 20
0.836077
 30
0.0
 42
0.414214
  0
VERTEX
  5
4F
100
AcDbEntity
  8
GROUND_PLANE
  6
CONTINUOUS
100
AcDbVertex
100
AcDb2dVertex
 10
1.414469
 20
0.866077
 30
0.0
  0
VERTEX
  5
50
100
AcDbEntity
  8
GROUND_PLANE
  6
CONTINUOUS
100
AcDbVertex
100
AcDb2dVertex
 10
0.999591
 20
0.866077
 30
0.0
 42
0.198912
  0
VERTEX
  5
51
100
AcDbEntity
  8
GROUND_PLANE
  6
CONTINUOUS
100
AcDbVertex
100
AcDb2dVertex
 10
0.95575
 20
0.847918
 30
0.0
  0
VERTEX
  5
52
100
AcDbEntity
  8
GROUND_PLANE
  6
CONTINUOUS
100
AcDbVertex
100
AcDb2dVertex
 10
0.565713
 20
0.457881
 30
0.0
 42
-0.207588
  0
VERTEX
  5
53
100
AcDbEntity
  8
GROUND_PLANE
  6
CONTINUOUS
100
AcDbVertex
100
AcDb2dVertex
 10
0.519807
 20
0.439756
 30
0.0
 42
0.337138
  0
VERTEX
  5
54
100
AcDbEntity
  8
GROUND_PLANE
  6
CONTINUOUS
100
AcDbVertex
100
AcDb2dVertex
 10
0.085247
 20
0.131474
 30
0.0
 42
-0.327885
  0
VERTEX
  5
55
100
AcDbEntity
  8
GROUND_PLANE
  6
CONTINUOUS
100
AcDbVertex
100
AcDb2dVertex
 10
0.02608
 20
0.088
 30
0.0
  0
VERTEX
  5
56
100
AcDbEntity
  8
GROUND_PLANE
  6
CONTINUOUS
100
AcDbVertex
100
AcDb2dVertex
 10
0.0
 20
0.088
 30
0.0
 42
1.0
  0
VERTEX
  5
57
100
AcDbEntity
  8
GROUND_PLANE
  6
CONTINUOUS
100
AcDbVertex
100
AcDb2dVertex
 10
0.0
 20
-0.088
 30
0.0
  0
VERTEX
  5
58
100
AcDbEntity
  8
GROUND_PLANE
  6
CONTINUOUS
100
AcDbVertex
100
AcDb2dVertex
 10
0.02608
 20
-0.088
 30
0.0
 42
-0.327885
  0
VERTEX
  5
59
100
AcDbEntity
  8
GROUND_PLANE
  6
CONTINUOUS
100
AcDbVertex
100
AcDb2dVertex
 10
0.085247
 20
-0.131474
 30
0.0
 42
0.337138
  0
VERTEX
  5
5A
100
AcDbEntity
  8
GROUND_PLANE
  6
CONTINUOUS
100
AcDbVertex
100
AcDb2dVertex
 10
0.519807
 20
-0.439756
 30
0.0
 42
-0.207588
  0
VERTEX
  5
5B
100
AcDbEntity
  8
GROUND_PLANE
  6
CONTINUOUS
100
AcDbVertex
100
AcDb2dVertex
 10
0.565713
 20
-0.457881
 30
0.0
  0
VERTEX
  5
5C
100
AcDbEntity
  8
GROUND_PLANE
  6
CONTINUOUS
100
AcDbVertex
100
AcDb2dVertex
 10
0.95575
 20
-0.847918
 30
0.0
 42
0.198912
  0
VERTEX
  5
5D
100
AcDbEntity
  8
GROUND_PLANE
  6
CONTINUOUS
100
AcDbVertex
100
AcDb2dVertex
 10
0.999591
 20
-0.866077
 30
0.0
  0
VERTEX
  5
5E
100
AcDbEntity
  8
GROUND_PLANE
  6
CONTINUOUS
100
AcDbVertex
100
AcDb2dVertex
 10
1.414471
 20
-0.866077
 30
0.0
 42
0.414214
  0
VERTEX
  5
5F
100
AcDbEntity
  8
GROUND_PLANE
  6
CONTINUOUS
100
AcDbVertex
100
AcDb2dVertex
 10
1.444471
 20
-0.836077
 30
0.0
  0
VERTEX
  5
60
100
AcDbEntity
  8
GROUND_PLANE
  6
CONTINUOUS
100
AcDbVertex
100
AcDb2dVertex
 10
1.444471
 20
-0.64783
 30
0.0
 42
-0.414214
  0
VERTEX
  5
61
100
AcDbEntity
  8
GROUND_PLANE
  6
CONTINUOUS
100
AcDbVertex
100
AcDb2dVertex
 10
1.506471
 20
-0.58583
 30
0.0
  0
VERTEX
  5
62
100
AcDbEntity
  8
GROUND_PLANE
  6
CONTINUOUS
100
AcDbVertex
100
AcDb2dVertex
 10
1.960189
 20
-0.58583
 30
0.0
 42
-0.315299
  0
VERTEX
  5
63
100
AcDbEntity
  8
GROUND_PLANE
  6
CONTINUOUS
100
AcDbVertex
100
AcDb2dVertex
 10
2.01845
 20
-0.626625
 30
0.0
  0
VERTEX
  5
64
100
AcDbEntity
  8
GROUND_PLANE
  6
CONTINUOUS
100
AcDbVertex
100
AcDb2dVertex
 10
2.124616
 20
-0.918314
 30
0.0
 42
0.414214
  0
VERTEX
  5
65
100
AcDbEntity
  8
GROUND_PLANE
  6
CONTINUOUS
100
AcDbVertex
100
AcDb2dVertex
 10
2.204082
 20
-0.955369
 30
0.0
  0
VERTEX
  5
66
100
AcDbEntity
  8
GROUND_PLANE
  6
CONTINUOUS
100
AcDbVertex
100
AcDb2dVertex
 10
2.316375
 20
-0.914498
 30
0.0
 42
0.414214
  0
VERTEX
  5
67
100
AcDbEntity
  8
GROUND_PLANE
  6
CONTINUOUS
100
AcDbVertex
100
AcDb2dVertex
 10
2.334305
 20
-0.876047
 30
0.0
  0
VERTEX
  5
68
100
AcDbEntity
  8
GROUND_PLANE
  6
CONTINUOUS
100
AcDbVertex
100
AcDb2dVertex
 10
2.330885
 20
-0.86665
 30
0.0
 42
0.414214
  0
VERTEX
  5
69
100
AcDbEntity
  8
GROUND_PLANE
  6
CONTINUOUS
100
AcDbVertex
100
AcDb2dVertex
 10
2.292434
 20
-0.848719
 30
0.0
  0
VERTEX
  5
6A
100
AcDbEntity
  8
GROUND_PLANE
  6
CONTINUOUS
100
AcDbVertex
100
AcDb2dVertex
 10
2.264713
 20
-0.858809
 30
0.0
 42
-0.414214
  0
VERTEX
  5
6B
100
AcDbEntity
  8
GROUND_PLANE
  6
CONTINUOUS
100
AcDbVertex
100
AcDb2dVertex
 10
2.185247
 20
-0.821753
 30
0.0
  0
VERTEX
  5
6C
100
AcDbEntity
  8
GROUND_PLANE
  6
CONTINUOUS
100
AcDbVertex
100
AcDb2dVertex
 10
2.021591
 20
-0.372112
 30
0.0
 42
-0.087489
  0
VERTEX
  5
6D
100
AcDbEntity
  8
GROUND_PLANE
  6
CONTINUOUS
100
AcDbVertex
100
AcDb2dVertex
 10
2.017852
 20
-0.350907
 30
0.0
  0
VERTEX
  5
6E
100
AcDbEntity
  8
GROUND_PLANE
  6
CONTINUOUS
100
AcDbVertex
100
AcDb2dVertex
 10
2.017852
 20
-0.155074
 30
0.0
 42
0.225541
  0
VERTEX
  5
6F
100
AcDbEntity
  8
GROUND_PLANE
  6
CONTINUOUS
100
AcDbVertex
100
AcDb2dVertex
 10
2.006797
 20
-0.131813
 30
0.0
 42
0.404092
  0
VERTEX
  5
70
100
AcDbEntity
  8
GROUND_PLANE
  6
CONTINUOUS
100
AcDbVertex
100
AcDb2dVertex
 10
1.965605
 20
-0.138204
 30
0.0
  0
VERTEX
  5
71
100
AcDbEntity
  8
GROUND_PLANE
  6
CONTINUOUS
100
AcDbVertex
100
AcDb2dVertex
 10
1.953947
 20
-0.153577
 30
0.0
 42
0.163637
  0
VERTEX
  5
72
100
AcDbEntity
  8
GROUND_PLANE
  6
CONTINUOUS
100
AcDbVertex
100
AcDb2dVertex
 10
1.947852
 20
-0.171704
 30
0.0
  0
VERTEX
  5
73
100
AcDbEntity
  8
GROUND_PLANE
  6
CONTINUOUS
100
AcDbVertex
100
AcDb2dVertex
 10
1.947852
 20
-0.28883
 30
0.0
 42
-0.414214
  0
VERTEX
  5
74
100
AcDbEntity
  8
GROUND_PLANE
  6
CONTINUOUS
100
AcDbVertex
100
AcDb2dVertex
 10
1.885852
 20
-0.35083
 30
0.0
  0
VERTEX
  5
75
100
AcDbEntity
  8
GROUND_PLANE
  6
CONTINUOUS
100
AcDbVertex
100
AcDb2dVertex
 10
1.852852
 20
-0.35083
 30
0.0
 42
0.414214
  0
VERTEX
  5
76
100
AcDbEntity
  8
GROUND_PLANE
  6
CONTINUOUS
100
AcDbVertex
100
AcDb2dVertex
 10
1.822852
 20
-0.38083
 30
0.0
  0
VERTEX
  5
77
100
AcDbEntity
  8
GROUND_PLANE
  6
CONTINUOUS
100
AcDbVertex
100
AcDb2dVertex
 10
1.822852
 20
-0.42583
 30
0.0
 42
-0.414214
  0
VERTEX
  5
78
100
AcDbEntity
  8
GROUND_PLANE
  6
CONTINUOUS
100
AcDbVertex
100
AcDb2dVertex
 10
1.792852
 20
-0.45583
 30
0.0
  0
VERTEX
  5
79
100
AcDbEntity
  8
GROUND_PLANE
  6
CONTINUOUS
100
AcDbVertex
100
AcDb2dVertex
 10
1.717786
 20
-0.45583
 30
0.0
 42
-1.06801
  0
VERTEX
  5
7A
100
AcDbEntity
  8
GROUND_PLANE
  6
CONTINUOUS
100
AcDbVertex
100
AcDb2dVertex
 10
1.712854
 20
-0.381155
 30
0.0
 42
0.414154
  0
VERTEX
  5
7B
100
AcDbEntity
  8
GROUND_PLANE
  6
CONTINUOUS
100
AcDbVertex
100
AcDb2dVertex
 10
1.722852
 20
-0.371155
 30
0.0
  0
VERTEX
  5
7C
100
AcDbEntity
  8
GROUND_PLANE
  6
CONTINUOUS
100
AcDbVertex
100
AcDb2dVertex
 10
1.722852
 20
-0.205
 30
0.0
 42
0.414214
  0
VERTEX
  5
7D
100
AcDbEntity
  8
GROUND_PLANE
  6
CONTINUOUS
100
AcDbVertex
100
AcDb2dVertex
 10
1.692852
 20
-0.175
 30
0.0
  0
VERTEX
  5
7E
100
AcDbEntity
  8
GROUND_PLANE
  6
CONTINUOUS
100
AcDbVertex
100
AcDb2dVertex
 10
1.682852
 20
-0.175
 30
0.0
 42
0.414214
  0
VERTEX
  5
7F
100
AcDbEntity
  8
GROUND_PLANE
  6
CONTINUOUS
100
AcDbVertex
100
AcDb2dVertex
 10
1.652852
 20
-0.205
 30
0.0
  0
VERTEX
  5
80
100
AcDbEntity
  8
GROUND_PLANE
  6
CONTINUOUS
100
AcDbVertex
100
AcDb2dVertex
 10
1.652852
 20
-0.21
 30
0.0
 42
-0.414214
  0
VERTEX
  5
81
100
AcDbEntity
  8
GROUND_PLANE
  6
CONTINUOUS
100
AcDbVertex
100
AcDb2dVertex
 10
1.622852
 20
-0.24
 30
0.0
  0
VERTEX
  5
82
100
AcDbEntity
  8
GROUND_PLANE
  6
CONTINUOUS
100
AcDbVertex
100
AcDb2dVertex
 10
1.615807
 20
-0.24
 30
0.0
 42
0.488957
  0
VERTEX
  5
83
100
AcDbEntity
  8
GROUND_PLANE
  6
CONTINUOUS
100
AcDbVertex
100
AcDb2dVertex
 10
1.586727
 20
-0.277373
 30
0.0
 42
-0.495789
  0
VERTEX
  5
84
100
AcDbEntity
  8
GROUND_PLANE
  6
CONTINUOUS
100
AcDbVertex
100
AcDb2dVertex
 10
1.549552
 20
-0.32408
 30
0.0
  0
VERTEX
  5
85
100
AcDbEntity
  8
GROUND_PLANE
  6
CONTINUOUS
100
AcDbVertex
100
AcDb2dVertex
 10
1.488216
 20
-0.340515
 30
0.0
 42
-0.414214
  0
VERTEX
  5
86
100
AcDbEntity
  8
GROUND_PLANE
  6
CONTINUOUS
100
AcDbVertex
100
AcDb2dVertex
 10
1.450249
 20
-0.318594
 30
0.0
  0
VERTEX
  5
87
100
AcDbEntity
  8
GROUND_PLANE
  6
CONTINUOUS
100
AcDbVertex
100
AcDb2dVertex
 10
1.41918
 20
-0.202644
 30
0.0
 42
0.253139
  0
VERTEX
  5
88
100
AcDbEntity
  8
GROUND_PLANE
  6
CONTINUOUS
100
AcDbVertex
100
AcDb2dVertex
 10
1.399562
 20
-0.181906
 30
0.0
 42
-0.361442
  0
VERTEX
  5
89
100
AcDbEntity
  8
GROUND_PLANE
  6
CONTINUOUS
100
AcDbVertex
100
AcDb2dVertex
 10
1.357459
 20
-0.114729
 30
0.0
 42
0.00174
  0
VERTEX
  5
8A
100
AcDbEntity
  8
GROUND_PLANE
  6
CONTINUOUS
100
AcDbVertex
100
AcDb2dVertex
 10
1.358236
 20
-0.108795
 30
0.0
 42
0.451873
  0
VERTEX
  5
8B
100
AcDbEntity
  8
GROUND_PLANE
  6
CONTINUOUS
100
AcDbVertex
100
AcDb2dVertex
 10
1.328477
 20
-0.075
 30
0.0
  0
VERTEX
  5
8C
100
AcDbEntity
  8
GROUND_PLANE
  6
CONTINUOUS
100
AcDbVertex
100
AcDb2dVertex
 10
1.318395
 20
-0.075
 30
0.0
 42
0.377087
  0
VERTEX
  5
8D
100
AcDbEntity
  8
GROUND_PLANE
  6
CONTINUOUS
100
AcDbVertex
100
AcDb2dVertex
 10
1.288642
 20
-0.101159
 30
0.0
 42
-0.068204
  0
VERTEX
  5
8E
100
AcDbEntity
  8
GROUND_PLANE
  6
CONTINUOUS
100
AcDbVertex
100
AcDb2dVertex
 10
1.232539
 20
-0.30822
 30
0.0
 42
0.534324
  0
VERTEX
  5
8F
100
AcDbEntity
  8
GROUND_PLANE
  6
CONTINUOUS
100
AcDbVertex
100
AcDb2dVertex
 10
1.259901
 20
-0.349923
 30
0.0
 42
-0.411674
  0
VERTEX
  5
90
100
AcDbEntity
  8
GROUND_PLANE
  6
CONTINUOUS
100
AcDbVertex
100
AcDb2dVertex
 10
1.289641
 20
-0.379922
 30
0.0
  0
VERTEX
  5
91
100
AcDbEntity
  8
GROUND_PLANE
  6
CONTINUOUS
100
AcDbVertex
100
AcDb2dVertex
 10
1.289641
 20
-0.402703
 30
0.0
  0
VERTEX
  5
92
100
AcDbEntity
  8
GROUND_PLANE
  6
CONTINUOUS
100
AcDbVertex
100
AcDb2dVertex
 10
1.315009
 20
-0.402703
 30
0.0
 42
-0.388879
  0
VERTEX
  5
93
100
AcDbEntity
  8
GROUND_PLANE
  6
CONTINUOUS
100
AcDbVertex
100
AcDb2dVertex
 10
1.344895
 20
-0.430088
 30
0.0
  0
VERTEX
  5
94
100
AcDbEntity
  8
GROUND_PLANE
  6
CONTINUOUS
100
AcDbVertex
100
AcDb2dVertex
 10
1.352528
 20
-0.517331
 30
0.0
 42
-0.339454
  0
VERTEX
  5
95
100
AcDbEntity
  8
GROUND_PLANE
  6
CONTINUOUS
100
AcDbVertex
100
AcDb2dVertex
 10
1.311969
 20
-0.580995
 30
0.0
  0
VERTEX
  5
96
100
AcDbEntity
  8
GROUND_PLANE
  6
CONTINUOUS
100
AcDbVertex
100
AcDb2dVertex
 10
1.132726
 20
-0.646234
 30
0.0
 42
-0.267949
  0
VERTEX
  5
97
100
AcDbEntity
  8
GROUND_PLANE
  6
CONTINUOUS
100
AcDbVertex
100
AcDb2dVertex
 10
1.071668
 20
-0.635468
 30
0.0
  0
VERTEX
  5
98
100
AcDbEntity
  8
GROUND_PLANE
  6
CONTINUOUS
100
AcDbVertex
100
AcDb2dVertex
 10
1.039418
 20
-0.608407
 30
0.0
  0
VERTEX
  5
99
100
AcDbEntity
  8
GROUND_PLANE
  6
CONTINUOUS
100
AcDbVertex
100
AcDb2dVertex
 10
1.017406
 20
-0.634639
 30
0.0
 42
-0.309403
  0
VERTEX
  5
9A
100
AcDbEntity
  8
GROUND_PLANE
  6
CONTINUOUS
100
AcDbVertex
100
AcDb2dVertex
 10
0.949963
 20
-0.653489
 30
0.0
  0
VERTEX
  5
9B
100
AcDbEntity
  8
GROUND_PLANE
  6
CONTINUOUS
100
AcDbVertex
100
AcDb2dVertex
 10
0.904403
 20
-0.638007
 30
0.0
 42
-0.206899
  0
VERTEX
  5
9C
100
AcDbEntity
  8
GROUND_PLANE
  6
CONTINUOUS
100
AcDbVertex
100
AcDb2dVertex
 10
0.867922
 20
-0.604988
 30
0.0
  0
VERTEX
  5
9D
100
AcDbEntity
  8
GROUND_PLANE
  6
CONTINUOUS
100
AcDbVertex
100
AcDb2dVertex
 10
0.764509
 20
-0.377784
 30
0.0
  0
VERTEX
  5
9E
100
AcDbEntity
  8
GROUND_PLANE
  6
CONTINUOUS
100
AcDbVertex
100
AcDb2dVertex
 10
0.694606
 20
-0.307882
 30
0.0
 42
-1.677464
  0
VERTEX
  5
9F
100
AcDbEntity
  8
GROUND_PLANE
  6
CONTINUOUS
100
AcDbVertex
100
AcDb2dVertex
 10
0.694606
 20
0.307882
 30
0.0
  0
VERTEX
  5
A0
100
AcDbEntity
  8
GROUND_PLANE
  6
CONTINUOUS
100
AcDbVertex
100
AcDb2dVertex
 10
0.770356
 20
0.383632
 30
0.0
  0
VERTEX
  5
A1
100
AcDbEntity
  8
GROUND_PLANE
  6
CONTINUOUS
100
AcDbVertex
100
AcDb2dVertex
 10
0.871691
 20
0.606269
 30
0.0
 42
-0.206899
  0
VERTEX
  5
A2
100
AcDbEntity
  8
GROUND_PLANE
  6
CONTINUOUS
100
AcDbVertex
100
AcDb2dVertex
 10
0.908172
 20
0.639288
 30
0.0
  0
VERTEX
  5
A3
100
AcDbEntity
  8
GROUND_PLANE
  6
CONTINUOUS
100
AcDbVertex
100
AcDb2dVertex
 10
0.949963
 20
0.653489
 30
0.0
 42
-0.309403
  0
VERTEX
  5
A4
100
AcDbEntity
  8
GROUND_PLANE
  6
CONTINUOUS
100
AcDbVertex
100
AcDb2dVertex
 10
1.017406
 20
0.634639
 30
0.0
  0
VERTEX
  5
A5
100
AcDbEntity
  8
GROUND_PLANE
  6
CONTINUOUS
100
AcDbVertex
100
AcDb2dVertex
 10
1.039418
 20
0.608407
 30
0.0
  0
VERTEX
  5
A6
100
AcDbEntity
  8
GROUND_PLANE
  6
CONTINUOUS
100
AcDbVertex
100
AcDb2dVertex
 10
1.071668
 20
0.635468
 30
0.0
 42
-0.267949
  0
VERTEX
  5
A7
100
AcDbEntity
  8
GROUND_PLANE
  6
CONTINUOUS
100
AcDbVertex
100
AcDb2dVertex
 10
1.132726
 20
0.646234
 30
0.0
  0
VERTEX
  5
A8
100
AcDbEntity
  8
GROUND_PLANE
  6
CONTINUOUS
100
AcDbVertex
100
AcDb2dVertex
 10
1.311969
 20
0.580995
 30
0.0
 42
-0.339454
  0
VERTEX
  5
A9
100
AcDbEntity
  8
GROUND_PLANE
  6
CONTINUOUS
100
AcDbVertex
100
AcDb2dVertex
 10
1.352528
 20
0.517331
 30
0.0
  0
VERTEX
  5
AA
100
AcDbEntity
  8
GROUND_PLANE
  6
CONTINUOUS
100
AcDbVertex
100
AcDb2dVertex
 10
1.344895
 20
0.430088
 30
0.0
 42
-0.388879
  0
VERTEX
  5
AB
100
AcDbEntity
  8
GROUND_PLANE
  6
CONTINUOUS
100
AcDbVertex
100
AcDb2dVertex
 10
1.315009
 20
0.402703
 30
0.0
  0
VERTEX
  5
AC
100
AcDbEntity
  8
GROUND_PLANE
  6
CONTINUOUS
100
AcDbVertex
100
AcDb2dVertex
 10
1.289641
 20
0.402703
 30
0.0
  0
VERTEX
  5
AD
100
AcDbEntity
  8
GROUND_PLANE
  6
CONTINUOUS
100
AcDbVertex
100
AcDb2dVertex
 10
1.289641
 20
0.379922
 30
0.0
 42
-0.411674
  0
VERTEX
  5
AE
100
AcDbEntity
  8
GROUND_PLANE
  6
CONTINUOUS
100
AcDbVertex
100
AcDb2dVertex
 10
1.259901
 20
0.349923
 30
0.0
 42
0.534324
  0
VERTEX
  5
AF
100
AcDbEntity
  8
GROUND_PLANE
  6
CONTINUOUS
100
AcDbVertex
100
AcDb2dVertex
 10
1.232539
 20
0.30822
 30
0.0
 42
-0.068204
  0
VERTEX
  5
B0
100
AcDbEntity
  8
GROUND_PLANE
  6
CONTINUOUS
100
AcDbVertex
100
AcDb2dVertex
 10
1.288642
 20
0.101159
 30
0.0
 42
0.377087
  0
VERTEX
  5
B1
100
AcDbEntity
  8
GROUND_PLANE
  6
CONTINUOUS
100
AcDbVertex
100
AcDb2dVertex
 10
1.318395
 20
0.075
 30
0.0
  0
VERTEX
  5
B2
100
AcDbEntity
  8
GROUND_PLANE
  6
CONTINUOUS
100
AcDbVertex
100
AcDb2dVertex
 10
1.328477
 20
0.075
 30
0.0
 42
0.451873
  0
VERTEX
  5
B3
100
AcDbEntity
  8
GROUND_PLANE
  6
CONTINUOUS
100
AcDbVertex
100
AcDb2dVertex
 10
1.358236
 20
0.108795
 30
0.0
 42
0.009201
  0
VERTEX
  5
B4
100
AcDbEntity
  8
GROUND_PLANE
  6
CONTINUOUS
100
AcDbVertex
100
AcDb2dVertex
 10
1.353655
 20
0.140112
 30
0.0
 42
-0.463
  0
VERTEX
  5
B5
100
AcDbEntity
  8
GROUND_PLANE
  6
CONTINUOUS
100
AcDbVertex
100
AcDb2dVertex
 10
1.383254
 20
0.175
 30
0.0
  0
VERTEX
  5
B6
100
AcDbEntity
  8
GROUND_PLANE
  6
CONTINUOUS
100
AcDbVertex
100
AcDb2dVertex
 10
1.568146
 20
0.175
 30
0.0
 42
0.414214
  0
VERTEX
  5
B7
100
AcDbEntity
  8
GROUND_PLANE
  6
CONTINUOUS
100
AcDbVertex
100
AcDb2dVertex
 10
1.598146
 20
0.205
 30
0.0
  0
VERTEX
  5
B8
100
AcDbEntity
  8
GROUND_PLANE
  6
CONTINUOUS
100
AcDbVertex
100
AcDb2dVertex
 10
1.598146
 20
0.2673
 30
0.0
 42
0.306979
  0
VERTEX
  5
B9
100
AcDbEntity
  8
GROUND_PLANE
  6
CONTINUOUS
100
AcDbVertex
100
AcDb2dVertex
 10
1.579257
 20
0.295167
 30
0.0
 42
-0.953301
  0
VERTEX
  5
BA
100
AcDbEntity
  8
GROUND_PLANE
  6
CONTINUOUS
100
AcDbVertex
100
AcDb2dVertex
 10
1.603646
 20
0.366
 30
0.0
  0
VERTEX
  5
BB
100
AcDbEntity
  8
GROUND_PLANE
  6
CONTINUOUS
100
AcDbVertex
100
AcDb2dVertex
 10
1.668146
 20
0.366
 30
0.0
 42
-0.414214
  0
VERTEX
  5
BC
100
AcDbEntity
  8
GROUND_PLANE
  6
CONTINUOUS
100
AcDbVertex
100
AcDb2dVertex
 10
1.698146
 20
0.336
 30
0.0
  0
VERTEX
  5
BD
100
AcDbEntity
  8
GROUND_PLANE
  6
CONTINUOUS
100
AcDbVertex
100
AcDb2dVertex
 10
1.698146
 20
0.301
 30
0.0
  0
VERTEX
  5
BE
100
AcDbEntity
  8
GROUND_PLANE
  6
CONTINUOUS
100
AcDbVertex
100
AcDb2dVertex
 10
1.719077
 20
0.301
 30
0.0
 42
-0.317837
  0
VERTEX
  5
BF
100
AcDbEntity
  8
GROUND_PLANE
  6
CONTINUOUS
100
AcDbVertex
100
AcDb2dVertex
 10
1.747361
 20
0.281
 30
0.0
 42
0.275174
  0
VERTEX
  5
C0
100
AcDbEntity
  8
GROUND_PLANE
  6
CONTINUOUS
100
AcDbVertex
100
AcDb2dVertex
 10
1.770959
 20
0.261368
 30
0.0
 42
-0.354013
  0
VERTEX
  5
C1
100
AcDbEntity
  8
GROUND_PLANE
  6
CONTINUOUS
100
AcDbVertex
100
AcDb2dVertex
 10
1.823188
 20
0.203412
 30
0.0
 42
0.398784
  0
VERTEX
  5
C2
100
AcDbEntity
  8
GROUND_PLANE
  6
CONTINUOUS
100
AcDbVertex
100
AcDb2dVertex
 10
1.853146
 20
0.175
 30
0.0
  0
VERTEX
  5
C3
100
AcDbEntity
  8
GROUND_PLANE
  6
CONTINUOUS
100
AcDbVertex
100
AcDb2dVertex
 10
1.917895
 20
0.175
 30
0.0
 42
0.493145
  0
VERTEX
  5
C4
100
AcDbEntity
  8
GROUND_PLANE
  6
CONTINUOUS
100
AcDbVertex
100
AcDb2dVertex
 10
1.946873
 20
0.212765
 30
0.0
  0
VERTEX
  5
C5
100
AcDbEntity
  8
GROUND_PLANE
  6
CONTINUOUS
100
AcDbVertex
100
AcDb2dVertex
 10
1.923207
 20
0.301084
 30
0.0
 42
-0.414214
  0
VERTEX
  5
C6
100
AcDbEntity
  8
GROUND_PLANE
  6
CONTINUOUS
100
AcDbVertex
100
AcDb2dVertex
 10
1.944421
 20
0.337827
 30
0.0
  0
VERTEX
  5
C7
100
AcDbEntity
  8
GROUND_PLANE
  6
CONTINUOUS
100
AcDbVertex
100
AcDb2dVertex
 10
2.031837
 20
0.36125
 30
0.0
 42
-0.333333
  0
VERTEX
  5
C8
100
AcDbEntity
  8
GROUND_PLANE
  6
CONTINUOUS
100
AcDbVertex
100
AcDb2dVertex
 10
2.067234
 20
0.333464
 30
0.0
  0
VERTEX
  5
C9
100
AcDbEntity
  8
GROUND_PLANE
  6
CONTINUOUS
100
AcDbVertex
100
AcDb2dVertex
 10
2.077328
 20
0.295793
 30
0.0
 42
0.367512
  0
VERTEX
  5
CA
100
AcDbEntity
  8
GROUND_PLANE
  6
CONTINUOUS
100
AcDbVertex
100
AcDb2dVertex
 10
2.109294
 20
0.273707
 30
0.0
 42
-0.342942
  0
VERTEX
  5
CB
100
AcDbEntity
  8
GROUND_PLANE
  6
CONTINUOUS
100
AcDbVertex
100
AcDb2dVertex
 10
2.17373
 20
0.233221
 30
0.0
  0
VERTEX
  5
CC
100
AcDbEntity
  8
GROUND_PLANE
  6
CONTINUOUS
100
AcDbVertex
100
AcDb2dVertex
 10
2.186022
 20
0.199449
 30
0.0
 42
-0.254773
  0
VERTEX
  5
CD
100
AcDbEntity
  8
GROUND_PLANE
  6
CONTINUOUS
100
AcDbVertex
100
AcDb2dVertex
 10
2.177163
 20
0.140782
 30
0.0
  0
VERTEX
  5
CE
100
AcDbEntity
  8
GROUND_PLANE
  6
CONTINUOUS
100
AcDbVertex
100
AcDb2dVertex
 10
2.107599
 20
0.049046
 30
0.0
 42
0.414214
  0
VERTEX
  5
CF
100
AcDbEntity
  8
GROUND_PLANE
  6
CONTINUOUS
100
AcDbVertex
100
AcDb2dVertex
 10
2.113377
 20
0.007015
 30
0.0
  0
VERTEX
  5
D0
100
AcDbEntity
  8
GROUND_PLANE
  6
CONTINUOUS
100
AcDbVertex
100
AcDb2dVertex
 10
2.121345
 20
0.000973
 30
0.0
 42
0.383624
  0
VERTEX
  5
D1
100
AcDbEntity
  8
GROUND_PLANE
  6
CONTINUOUS
100
AcDbVertex
100
AcDb2dVertex
 10
2.161333
 20
0.004332
 30
0.0
 42
-0.558758
  0
VERTEX
  5
D2
100
AcDbEntity
  8
GROUND_PLANE
  6
CONTINUOUS
100
AcDbVertex
100
AcDb2dVertex
 10
2.264774
 20
-0.016921
 30
0.0
  0
VERTEX
  5
D3
100
AcDbEntity
  8
GROUND_PLANE
  6
CONTINUOUS
100
AcDbVertex
100
AcDb2dVertex
 10
2.515573
 20
-0.705985
 30
0.0
 42
-0.286189
  0
VERTEX
  5
D4
100
AcDbEntity
  8
GROUND_PLANE
  6
CONTINUOUS
100
AcDbVertex
100
AcDb2dVertex
 10
2.501999
 20
-0.770167
 30
0.0
 42
0.286189
  0
VERTEX
  5
D5
100
AcDbEntity
  8
GROUND_PLANE
  6
CONTINUOUS
100
AcDbVertex
100
AcDb2dVertex
 10
2.495431
 20
-0.801223
 30
0.0
  0
VERTEX
  5
D6
100
AcDbEntity
  8
GROUND_PLANE
  6
CONTINUOUS
100
AcDbVertex
100
AcDb2dVertex
 10
2.500631
 20
-0.815509
 30
0.0
 42
0.414214
  0
VERTEX
  5
D7
100
AcDbEntity
  8
GROUND_PLANE
  6
CONTINUOUS
100
AcDbVertex
100
AcDb2dVertex
 10
2.539082
 20
-0.833439
 30
0.0
  0
VERTEX
  5
D8
100
AcDbEntity
  8
GROUND_PLANE
  6
CONTINUOUS
100
AcDbVertex
100
AcDb2dVertex
 10
2.673678
 20
-0.784451
 30
0.0
  0
SEQEND
  5
D9
100
AcDbEntity
  8
GROUND_PLANE
  6
CONTINUOUS
  0
POLYLINE
  5
DA
100
AcDbEntity
  8
GROUND_PLANE
  6
CONTINUOUS
100
AcDb2dPolyline
 66
     1
 10
0.0
 20
0.0
 30
0.0
 70
     1
  0
VERTEX
  5
DB
100
AcDbEntity
  8
GROUND_PLANE
  6
CONTINUOUS
100
AcDbVertex
100
AcDb2dVertex
 10
1.005093
 20
-0.044452
 30
0.0
 42
1.055057
  0
VERTEX
  5
DC
100
AcDbEntity
  8
GROUND_PLANE
  6
CONTINUOUS
100
AcDbVertex
100
AcDb2dVertex
 10
1.00937
 20
0.035318
 30
0.0
  0
VERTEX
  5
DD
100
AcDbEntity
  8
GROUND_PLANE
  6
CONTINUOUS
100
AcDbVertex
100
AcDb2dVertex
 10
0.998834
 20
0.035318
 30
0.0
 42
-0.35569
  0
VERTEX
  5
DE
100
AcDbEntity
  8
GROUND_PLANE
  6
CONTINUOUS
100
AcDbVertex
100
AcDb2dVertex
 10
0.938118
 20
0.084767
 30
0.0
 42
0.08467
  0
VERTEX
  5
DF
100
AcDbEntity
  8
GROUND_PLANE
  6
CONTINUOUS
100
AcDbVertex
100
AcDb2dVertex
 10
0.884718
 20
0.22131
 30
0.0
  0
VERTEX
  5
E0
100
AcDbEntity
  8
GROUND_PLANE
  6
CONTINUOUS
100
AcDbVertex
100
AcDb2dVertex
 10
0.831912
 20
0.173856
 30
0.0
 42
-0.27
  0
VERTEX
  5
E1
100
AcDbEntity
  8
GROUND_PLANE
  6
CONTINUOUS
100
AcDbVertex
100
AcDb2dVertex
 10
0.829236
 20
-0.178451
 30
0.0
  0
VERTEX
  5
E2
100
AcDbEntity
  8
GROUND_PLANE
  6
CONTINUOUS
100
AcDbVertex
100
AcDb2dVertex
 10
0.884718
 20
-0.22831
 30
0.0
 42
0.083449
  0
VERTEX
  5
E3
100
AcDbEntity
  8
GROUND_PLANE
  6
CONTINUOUS
100
AcDbVertex
100
AcDb2dVertex
 10
0.937685
 20
-0.093836
 30
0.0
 42
-0.354326
  0
VERTEX
  5
E4
100
AcDbEntity
  8
GROUND_PLANE
  6
CONTINUOUS
100
AcDbVertex
100
AcDb2dVertex
 10
0.998339
 20
-0.044682
 30
0.0
  0
VERTEX
  5
E5
100
AcDbEntity
  8
GROUND_PLANE
  6
CONTINUOUS
100
AcDbVertex
100
AcDb2dVertex
 10
1.00937
 20
-0.044682
 30
0.0
  0
SEQEND
  5
E6
100
AcDbEntity
  8
GROUND_PLANE
  6
CONTINUOUS
  0
POLYLINE
  5
E7
100
AcDbEntity
  8
GROUND_PLANE
  6
CONTINUOUS
100
AcDb2dPolyline
 66
     1
 10
0.0
 20
0.0
 30
0.0
 70
     1
  0
VERTEX
  5
E8
100
AcDbEntity
  8
GROUND_PLANE
  6
CONTINUOUS
100
AcDbVertex
100
AcDb2dVertex
 10
2.949194
 20
-0.670269
 30
0.0
 42
-0.414214
  0
VERTEX
  5
E9
100
AcDbEntity
  8
GROUND_PLANE
  6
CONTINUOUS
100
AcDbVertex
100
AcDb2dVertex
 10
2.979194
 20
-0.700269
 30
0.0
  0
VERTEX
  5
EA
100
AcDbEntity
  8
GROUND_PLANE
  6
CONTINUOUS
100
AcDbVertex
100
AcDb2dVertex
 10
2.979194
 20
-0.730269
 30
0.0
 42
-0.414214
  0
VERTEX
  5
EB
100
AcDbEntity
  8
GROUND_PLANE
  6
CONTINUOUS
100
AcDbVertex
100
AcDb2dVertex
 10
2.949194
 20
-0.760269
 30
0.0
  0
VERTEX
  5
EC
100
AcDbEntity
  8
GROUND_PLANE
  6
CONTINUOUS
100
AcDbVertex
100
AcDb2dVertex
 10
2.915574
 20
-0.760269
 30
0.0
 42
-0.414214
  0
VERTEX
  5
ED
100
AcDbEntity
  8
GROUND_PLANE
  6
CONTINUOUS
100
AcDbVertex
100
AcDb2dVertex
 10
2.885574
 20
-0.730269
 30
0.0
  0
VERTEX
  5
EE
100
AcDbEntity
  8
GROUND_PLANE
  6
CONTINUOUS
100
AcDbVertex
100
AcDb2dVertex
 10
2.885574
 20
-0.700269
 30
0.0
 42
-0.414214
  0
VERTEX
  5
EF
100
AcDbEntity
  8
GROUND_PLANE
  6
CONTINUOUS
100
AcDbVertex
100
AcDb2dVertex
 10
2.915574
 20
-0.670269
 30
0.0
  0
SEQEND
  5
F0
100
AcDbEntity
  8
GROUND_PLANE
  6
CONTINUOUS
  0
POLYLINE
  5
F1
100
AcDbEntity
  8
GROUND_PLANE
  6
CONTINUOUS
100
AcDb2dPolyline
 66
     1
 10
0.0
 20
0.0
 30
0.0
 70
     1
  0
VERTEX
  5
F2
100
AcDbEntity
  8
GROUND_PLANE
  6
CONTINUOUS
100
AcDbVertex
100
AcDb2dVertex
 10
3.734746
 20
-0.570269
 30
0.0
  0
VERTEX
  5
F3
100
AcDbEntity
  8
GROUND_PLANE
  6
CONTINUOUS
100
AcDbVertex
100
AcDb2dVertex
 10
3.734746
 20
0.213731
 30
0.0
  0
VERTEX
  5
F4
100
AcDbEntity
  8
GROUND_PLANE
  6
CONTINUOUS
100
AcDbVertex
100
AcDb2dVertex
 10
3.824746
 20
0.213731
 30
0.0
  0
VERTEX
  5
F5
100
AcDbEntity
  8
GROUND_PLANE
  6
CONTINUOUS
100
AcDbVertex
100
AcDb2dVertex
 10
3.824746
 20
-0.570269
 30
0.0
 42
-0.414214
  0
VERTEX
  5
F6
100
AcDbEntity
  8
GROUND_PLANE
  6
CONTINUOUS
100
AcDbVertex
100
AcDb2dVertex
 10
3.634746
 20
-0.760269
 30
0.0
  0
VERTEX
  5
F7
100
AcDbEntity
  8
GROUND_PLANE
  6
CONTINUOUS
100
AcDbVertex
100
AcDb2dVertex
 10
3.109099
 20
-0.760269
 30
0.0
 42
-0.414214
  0
VERTEX
  5
F8
100
AcDbEntity
  8
GROUND_PLANE
  6
CONTINUOUS
100
AcDbVertex
100
AcDb2dVertex
 10
3.079099
 20
-0.730269
 30
0.0
  0
VERTEX
  5
F9
100
AcDbEntity
  8
GROUND_PLANE
  6
CONTINUOUS
100
AcDbVertex
100
AcDb2dVertex
 10
3.079099
 20
-0.700269
 30
0.0
 42
-0.414214
  0
VERTEX
  5
FA
100
AcDbEntity
  8
GROUND_PLANE
  6
CONTINUOUS
100
AcDbVertex
100
AcDb2dVertex
 10
3.109099
 20
-0.670269
 30
0.0
  0
VERTEX
  5
FB
100
AcDbEntity
  8
GROUND_PLANE
  6
CONTINUOUS
100
AcDbVertex
100
AcDb2dVertex
 10
3.634746
 20
-0.670269
 30
0.0
 42
0.414214
  0
SEQEND
  5
FC
100
AcDbEntity
  8
GROUND_PLANE
  6
CONTINUOUS
  0
ENDSEC
  0
SECTION
  2
OBJECTS
  0
DICTIONARY
  5
C
100
AcDbDictionary
  3
ACAD_GROUP
350
D
  3
ACAD_MLINESTYLE
350
E
  0
DICTIONARY
  5
D
102
{ACAD_REACTORS
330
C
102
}
100
AcDbDictionary
  0
DICTIONARY
  5
E
102
{ACAD_REACTORS
330
C
102
}
100
AcDbDictionary
  3
STANDARD
350
1B
  0
MLINESTYLE
  5
1B
102
{ACAD_REACTORS
330
E
102
}
100
AcDbMlineStyle
  2
STANDARD
 70
     0
  3

 62
     0
 51
90.0
 52
90.0
 71
     2
 49
0.5
 62
   256
  6
BYLAYER
 49
-0.5
 62
   256
  6
BYLAYER
  0
ENDSEC
  0
EOF

